<?xml version="1.0" encoding="UTF-8"?>
<svg width="34px" height="31px" viewBox="0 0 34 31" version="1.1" xmlns="http://www.w3.org/2000/svg" xmlns:xlink="http://www.w3.org/1999/xlink">
    <g id="Design" stroke="none" stroke-width="1" fill="none" fill-rule="evenodd">
        <g id="Loc" transform="translate(-556.000000, -3372.000000)">
            <g id="Group-24" transform="translate(557.000000, 3369.000000)">
                <g id="Group-22" transform="translate(0.000000, 4.000000)">
                    <circle id="Oval" stroke="#000000" stroke-width="1.79999989" cx="14.5" cy="14.5" r="14.5"></circle>
                    <path d="M29.9207631,1.60296049 C27.0737849,4.45681822 17.7969202,13.3957342 15.0465504,16.1966719 L11.6746647,13.5047494 C11.370316,13.2612821 10.9810012,13.1487448 10.5939797,13.1912278 C10.2058115,13.2348692 9.85095352,13.4301028 9.60746274,13.7344516 C9.09984239,14.3695503 9.20321278,15.2940332 9.83715022,15.8016242 L14.2471498,19.3296238 C14.8328566,19.797025 15.6746667,19.748809 16.2040724,19.2193739 C19.3704521,16.0462322 28.8918072,6.79156021 31.997035,3.6792765 C32.4334485,3.25779814 32.5655133,2.6100868 32.3300781,2.05078125 C32.0934993,1.4915051 31.5388066,1.13432454 30.9312851,1.15269953 C30.5489528,1.16542062 30.1860392,1.32735022 29.9207631,1.60296049 Z" id="Path" stroke="#39B2DB" fill="#39B2DB" fill-rule="nonzero"></path>
                </g>
            </g>
        </g>
    </g>
</svg>
