<?xml version="1.0" encoding="utf-8"?>
<!-- Generator: Adobe Illustrator 23.0.6, SVG Export Plug-In . SVG Version: 6.00 Build 0)  -->
<svg version="1.1" id="Layer_1" xmlns="http://www.w3.org/2000/svg" xmlns:xlink="http://www.w3.org/1999/xlink" x="0px" y="0px"
	 viewBox="0 0 165.8 23.4" style="enable-background:new 0 0 165.8 23.4;" xml:space="preserve">
<style type="text/css">
	.st0{fill:#92DBF4;}
</style>
<g>
	<path class="st0" d="M86.9,11.6c0.8,0,1.7-0.1,2.6-0.2c0.7,0,1.4-0.1,2.1-0.1c0.6,0,1.1-0.1,1.7-0.1c0.7,0,1.5-0.1,2.2-0.1
		c0.8,0,1.7-0.1,2.5-0.1c0.8,0,1.6-0.1,2.4-0.1c1.6,0,3.1-0.1,4.7-0.1c0.6,0,1.2,0,1.8,0c0.9,0,1.9,0,2.8,0c1.6,0,3.2,0,4.8,0
		c2.9,0,5.9,0,8.8,0c1,0,2,0,3.1,0c0.7,0,1.4,0,2,0c1.5,0,3,0,4.5-0.1c1.1,0,2.3-0.1,3.4-0.1c1.6,0,3.1,0,4.7,0c1.1,0,2.1,0,3.2,0.1
		c0.7,0,1.4,0.1,2.1,0.1c0.4,0,0.9,0,1.3,0.1c1.3,0.1,2.7,0.1,4,0.2c1,0.1,2,0.1,3,0.2c0.7,0,1.3,0.1,2,0.2c0.6,0,1.1,0.1,1.7,0.1
		c1.2,0.1,2.5,0.1,3.7,0.2c0.3,0,0.7,0.3,1,0.4c0.1,0.1,0.1,0.2,0.1,0.4c-0.2,0.6-0.5,1.2-0.7,1.8c-0.2,0.5-0.5,0.9-0.7,1.4
		c-0.1,0.2-0.2,0.2-0.4,0.2c-0.7-0.1-1.4-0.1-2.1-0.2c-0.3,0-0.5-0.1-0.6-0.4c-0.1-0.1-0.2-0.1-0.4-0.2c-0.2,0-0.4,0-0.6-0.1
		c-0.5,0-1.1-0.1-1.6-0.1c-0.3,0-0.6,0-0.9,0.1c-0.3,0.1-0.6,0.2-0.9,0.1c-0.5-0.1-0.9-0.1-1.4-0.1c-0.9-0.1-1.8-0.1-2.7-0.2
		c-0.6,0-1.2,0-1.8-0.1c-0.1,0-0.2,0-0.2,0c-0.4,0.1-0.7,0.1-1.1,0.1c-0.4,0-0.9,0-1.3,0c-0.1,0-0.3-0.1-0.4-0.1c-0.1,0-0.3,0-0.4,0
		c-0.1,0-0.2,0-0.3,0c-0.2,0-0.3,0-0.5,0c-0.1,0-0.3,0-0.4,0c-0.1,0-0.2,0-0.3,0c-0.7,0.1-1.3,0.1-2,0c-0.3,0-0.7,0-1,0
		c-0.1,0-0.2,0-0.3,0c-0.8,0-1.5,0-2.3,0c-0.5,0-1-0.1-1.5-0.1c-0.8,0-1.5,0-2.3,0c-0.1,0-0.3,0-0.4,0c-0.2-0.1-0.4-0.1-0.7,0
		c-0.1,0-0.2,0-0.3,0c-0.2-0.1-0.4-0.1-0.5,0c-0.2,0.1-0.4,0.1-0.6,0.1c-0.3-0.1-0.7-0.1-1-0.2c-0.2,0-0.4,0-0.5,0
		c-0.1,0-0.2,0-0.2,0c-1.1-0.1-2.2,0-3.3,0c-1.4,0-2.8,0-4.2,0c-0.4,0-0.9,0-1.3,0c-0.2,0-0.5,0-0.7,0c-0.4,0-0.9,0-1.3,0
		c-1.1,0-2.3,0-3.4-0.1c-0.6,0-1.2,0-1.8,0c-0.9,0-1.8,0-2.7,0c-0.9,0-1.8,0-2.7,0c-0.2,0-0.4-0.1-0.6-0.1c-0.2,0-0.5,0-0.7,0
		c-0.3,0-0.5,0-0.8,0c-0.1,0-0.3,0-0.4,0c-0.5,0.1-0.9,0-1.4,0c-0.4,0-0.8,0-1.2,0c-0.5,0-0.9,0-1.4,0c-0.5,0-1,0.1-1.5,0.1
		c-0.3,0-0.6,0-0.9,0c-0.2,0-0.4,0-0.6,0c-1,0-1.9,0.1-2.9,0.1c-0.2,0-0.3,0-0.5,0c-0.3-0.1-0.6,0-1,0.1c-0.8,0.1-1.5,0.3-2.3,0.1
		c-0.1,0-0.2,0-0.3,0c-0.9,0-1.9,0.1-2.8,0.2c-1,0.1-2,0.1-3,0.1c-0.1,0-0.2,0-0.2,0c-0.9-0.2-1.7-0.1-2.6-0.1
		c-0.6,0-1.1-0.1-1.7-0.1c-0.5,0-0.9,0-1.4,0c-0.7,0-1.3-0.1-1.9-0.4c-0.1-0.1-0.3-0.3-0.3-0.4c-0.2-0.6-0.4-1.3-0.6-1.9
		c0-0.1,0-0.3,0-0.4c0-0.2,0-0.3,0-0.5c0-0.2-0.2-0.3-0.4-0.3c-0.4,0.2-0.9,0.1-1.3,0.1c-0.4,0-0.8,0-1.2-0.1
		c-0.9,0-1.8-0.1-2.7-0.1c-0.7,0-1.3,0-2,0c-0.4,0-0.9,0-1.3-0.1c-0.2,0-0.3,0-0.5,0c-0.4,0.1-0.7,0-1.1,0c-0.3,0-0.6,0-1,0
		c-0.9,0-1.9,0-2.8,0c-0.5,0-1.1,0-1.6,0c-0.4,0-0.9,0-1.3,0c-0.4,0-0.7,0-1.1,0c-0.7,0-1.4-0.1-2.2-0.1c-0.8,0-1.5,0-2.3,0
		c-0.6,0-1.2,0-1.9,0c-1,0-2.1,0.1-3.1,0.1c-1.3,0-2.6,0.1-3.9,0.1c-0.6,0-1.3,0.1-1.9,0.2c-0.2,0-0.3,0-0.5,0c-1.1,0-2.1,0-3.2,0.1
		c-1.1,0-2.2,0.1-3.4,0.1c-0.6,0-1.3,0-1.9,0.2c-0.1,0-0.2,0-0.3,0c-0.5,0-0.9,0-1.4,0c-0.1,0-0.2,0-0.3,0c-0.2,0-0.4,0-0.5,0
		c0,0-0.1,0-0.1,0c-0.8,0-1.7,0-2.5,0c-1,0-2,0.1-3,0.2c-0.7,0-1.4,0.1-2,0.1c-1.1,0.1-2.2,0.1-3.3,0.2c-0.5,0-1,0.1-1.5,0.1
		c-0.8,0-1.7,0-2.5,0.1c-0.3,0-0.7,0.1-1,0.2c-0.3,0.1-0.6,0.1-0.9,0c-0.2,0-0.4,0-0.5,0c-0.2,0-0.4,0-0.6,0c-0.1,0-0.3,0-0.4,0.1
		c-0.7,0.3-1.5,0.3-2.3,0.3c-0.7,0-1.5,0.1-2.2,0.1c-0.5,0-1,0.1-1.6,0.1c-0.1,0-0.3,0-0.4,0c-0.2,0-0.4,0-0.7,0
		c-0.6,0.1-1.2,0.2-1.9,0.2c-0.4,0-0.8,0-1.1-0.5c-0.3-0.5-0.5-1.1-0.6-1.6c0-0.2,0-0.4,0-0.6c0-0.2,0.2-0.4,0.5-0.5
		c0.7-0.2,1.4-0.4,2.2-0.4c1.3-0.1,2.6-0.2,3.9-0.2c1.2-0.1,2.5-0.2,3.7-0.3c0.9-0.1,1.9-0.1,2.8-0.2c1.2-0.1,2.4-0.2,3.7-0.3
		c0.6,0,1.1-0.1,1.7-0.1c0.9-0.1,1.8-0.1,2.6-0.2c0.7-0.1,1.5-0.1,2.2-0.1c0.7,0,1.3-0.1,2-0.1c0.3,0,0.7,0,1,0
		c0.6,0,1.2-0.1,1.8-0.1c1.2-0.1,2.3-0.1,3.5-0.2c0.4,0,0.8,0,1.2,0c1.3-0.1,2.7-0.1,4-0.2c1.1,0,2.1-0.1,3.2-0.1
		c0.8,0,1.6,0,2.4-0.1c1.6,0,3.3-0.1,4.9-0.1c0.9,0,1.9-0.1,2.8-0.1c1.3,0,2.6-0.1,3.8-0.1c0.9,0,1.7,0,2.6,0c1.6,0,3.2-0.1,4.8-0.1
		c2.1,0,4.2,0,6.3,0c0.6,0,1.2,0,1.9,0c1.3,0,2.7,0.1,4,0.1c1.3,0,2.6,0.1,3.9,0.2c1.6,0.1,3.3,0.1,4.9,0.4c0.2,0,0.4,0.1,0.6,0.1
		c0.2,0.1,0.3,0.2,0.3,0.4c-0.1,0.5-0.1,1-0.2,1.5c-0.1,0.4-0.1,0.7-0.2,1.1c0,0.1,0,0.2,0,0.3c0,0.2,0.1,0.3,0.3,0.3
		C86.4,11.6,86.6,11.6,86.9,11.6z"/>
</g>
</svg>
