<?xml version="1.0" encoding="utf-8"?>
<!-- Generator: Adobe Illustrator 23.0.6, SVG Export Plug-In . SVG Version: 6.00 Build 0)  -->
<svg version="1.1" id="Layer_1" xmlns="http://www.w3.org/2000/svg" xmlns:xlink="http://www.w3.org/1999/xlink" x="0px" y="0px"
	 viewBox="0 0 1456.3 786.3" style="enable-background:new 0 0 1456.3 786.3;" xml:space="preserve">
<style type="text/css">
	.st0{fill:#EFABC2;}
</style>
<g>
	<path class="st0" d="M144.4,592.4c0.5-0.3,0.7-0.3,0.9-0.5c1.3-2,3.1-2.2,5.3-1.7c1.2,0.3,2.3,0.8,2.7,2.1c0.3,1.1,1.1,1.8,2.3,1.8
		c2.9,0.1,5.9,0.1,8.8,0.3c1.2,0.1,2-0.3,2.5-1.3c1.1-2.2,2.9-2.6,5-2.2c0.7,0.1,1.5,0.3,2.1,0.1c3.6-0.7,7.2,0,10.7,0.2
		c0.8,0,1.6,0.1,2.4,0c4-0.3,8.1-0.8,12.1-1c4.4-0.2,8.8-0.2,13.1-0.4c0.9,0,1.9-0.1,3.1-0.2c0.1,0.7,0.3,1.3,0.2,1.9
		c-0.3,1.3,0.2,2,1.4,2.3c1.8,0.6,2.9,0.5,3.6-0.7c0.4-0.7,0.7-1.6,0.9-2.4c0.3-1,0.8-1.8,1.8-2c1.7-0.3,3.4-0.5,5.2-0.8
		c0.2,0,0.5,0.1,0.7,0.1c5.2-1.3,10.7,0.3,15.9-1.3c0.7-0.2,1.4-0.2,2.1-0.2c3-0.2,6-0.4,9-0.7c3.1-0.3,6.2-0.8,9.3-1.2
		c1.4-0.2,1.8,0.2,2.1,1.6c0.1,0.5,0.1,1,0.3,1.4c0.7,1.3,2.4,1.3,3.1,0.1c0.2-0.3,0.3-0.6,0.3-0.9c0.5-2.6,1.7-3.4,4.9-3.4
		c0.9,0,2,0.1,2.8-0.3c1.4-0.6,2.6-0.5,3.9,0c1.2,0.4,2.4,0.8,3.6,1.2c1.3,0.4,2.4,0,3.1-1.2c1.1-2.2,2.9-2.5,5.1-2.1
		c1.9,0.4,3.7,0.1,5.4-0.4c2.1-0.6,4.2-1,6.4-0.5c0.5,0.1,1.1,0.1,1.7,0c2.8-0.4,5.5-1,8.2-1.4c1.1-0.1,2.2,0.1,3.2,0.4
		c1.4,0.4,2.5,0.5,3.9-0.3c1.3-0.8,2.8-1.3,4.2-1.6c0.7-0.2,1.7,0.1,2.5,0.5c2.3,1.1,2.2,1.1,4.1-0.5c1.6-1.4,5.1-1.2,6.6,0.4
		c0.3,0.4,0.5,0.8,0.9,1.1c0.6,0.6,1.4,0.7,1.8-0.1c0.9-1.7,2.1-2.6,4.2-2.5c0.7,0,1.4-1,2.1-1.4c0.6-0.4,1.3-0.7,2.1-1
		c0.4,1.1,0.6,1.9,0.9,2.6c0.4-0.2,0.6-0.2,0.6-0.3c-0.1-2.5,1.5-3.3,3.5-3.7c3.1-0.6,6.1-1.2,9.2-1.8c1.3-0.2,2.4,0.1,3,1.4
		c0.8,1.6,2.3,2.1,3.9,2.4c1.4,0.2,2.1-0.4,2.3-1.8c0-0.2,0-0.5,0-0.7c0.2-2.1,1.2-3.1,3.3-3c4.1,0.1,8.3,0.2,12.4,0.3
		c1.1,0.1,2.1,0.5,3.5,0.9c0.4-0.8,0.9-1.6,1.3-2.4c0.9-1.8,1.8-2.4,3.6-2.1c2.8,0.4,5.4-0.3,8-0.8c3.1-0.6,6.1-1.3,9.2-1.8
		c2-0.3,4.1-0.5,6.2-0.6c0.8,0,1.6,0.2,2.3,0.5c1.2,0.5,2.2,0.4,3-0.7c1.1-1.6,2.9-1.9,4.6-2.2c1.5-0.3,2,0.1,2.5,1.6
		c0.1,0.2,0,0.5,0.1,0.7c0.5,1.4,1.4,1.6,2.5,0.6c3.2-3,7-4.5,11.3-5.1c1.2-0.2,2.3-0.5,3.4-1c2.4-1.1,4.7-1.7,7.1-0.3
		c1,0.5,1.8,0.4,2.6-0.5c0.3-0.4,0.7-0.7,1-1c0.9-1.3,2.1-1.6,3.6-1.1c0.4,0.1,0.8,0.2,1.1,0.4c1.5,0.6,2.9,0.6,4.2-0.6
		c2.1-1.9,4.6-2.2,7.2-1.8c1.3,0.2,2.3-0.2,3.4-0.9c2.4-1.6,3.5-1.5,5.8,0.3c0.4,0.3,0.9,0.7,1.3,1c0.8,0.5,1.7,0.5,2.4-0.2
		c0.5-0.4,1-0.8,1.4-1.3c1.2-1.2,2.6-1.6,4.2-1.1c1.3,0.5,2.5,0.3,3.6-0.6c1-0.9,2-0.7,3,0.1c2.6,1.9,3.9,1.7,5.9-0.7
		c0.9-1.1,1.8-1.8,3.2-1.7c1.2,0.1,2.2-0.4,3-1.2c0.9-1,1.9-1.2,3-0.5c1,0.6,1.9,0.5,3,0c2.1-0.9,4.1-2.2,6.6-1.6
		c0.4,0.1,0.9-0.2,1.3-0.4c0.9-0.5,1.7-0.6,2.7-0.3c1.7,0.5,2.2,0.3,3.1-1.3c0.4-0.8,0.7-1.6,1.1-2.4c0.3-0.4,0.7-0.8,1.3-1.3
		c0.4,0.7,0.7,1.1,0.9,1.5c0.7,2.1,2.1,2.7,4,1.8c0.6-0.3,1.1-0.7,1.6-1.1c1.2-1.1,2.6-1.4,4-0.9c2,0.7,3.4-0.2,4.6-1.6
		c0.4-0.4,0.7-0.9,1.1-1.3c0.8-0.7,1.8-1.1,2.9-0.5c2.7,1.8,5.2,0.8,7.6-0.7c1.4-1,2.8-1.7,4.5-2.1c2-0.5,2.6-1.4,2.5-3.5
		c0-0.5-0.1-1,0-1.4c0.3-1.3,1-1.7,2.3-1.3c1.9,0.6,3.4,1.7,4.7,3.1c1.9,2.1,4.5,1.6,5.7-0.8c0.5-1,0.6-2-0.1-2.9
		c-0.3-0.4-0.5-0.9-0.9-1.7c0.8-0.1,1.5-0.3,2-0.1c1.9,0.6,3.4-0.2,4.9-1.3c0.5-0.4,1-0.8,1.6-1c2.2-0.9,3.5-0.6,5,1.4
		c1.6,2,4.6,2.1,6.2,0.1c1-1.3,0.9-2.3-0.5-3.1c-0.3-0.2-0.6-0.3-0.9-0.4c-0.6-0.3-1.5-0.7-1.1-1.6c0.2-0.6,0.9-1.1,1.5-1.3
		c1.4-0.6,2.9-0.5,4,0.6c2.4,2.2,5.4,1.9,8.2,2.1c2,0.1,3.2-1.4,3.4-3.3c0-0.4-0.2-0.9,0-1.2c0.3-0.5,0.7-0.9,1.1-1.3
		c0.3,0.4,0.8,0.7,1,1.2c0.7,2.2,0.6,2.2,2.7,2.8c1.1-0.8,1.5-2,1.7-3.2c0.3-2.2,1.2-3.9,3.7-4.4c0.6-0.1,1.1-0.7,1.7-0.9
		c0.9-0.4,1.9-0.8,2.9-1.1c0.6-0.2,1.5-0.1,1.5,0.7c0,0.6-0.6,1.1-1.1,1.6c-0.2,0.2-0.6,0-0.9,0c-0.4,0-0.8,0-1.2,0
		c-1.1,0.2-2.3,1.7-2.3,2.8c0,0.9,1.6,2,2.7,1.9c0.8-0.1,1.5-0.5,2.2-0.8c0.6-0.3,1.1-1,1.6-1c3.3-0.2,5.9-2.3,9.1-2.7
		c0.6-0.1,1.3-0.2,1.9-0.2c1.6,0.2,3.1-0.3,4.3-1.2c1.5-1,3-1.2,4.8-1.1c2.3,0.2,3.4-0.7,3.1-3c-0.3-2.4,0.9-3.8,2.7-4.9
		c1.6-1,2.8-0.9,4.1,0.4c1.9,1.9,3,1.3,4.3-0.4c0.5-0.6,1-1.2,1.7-1.6c1.1-0.6,1.8,0,1.9,1.2c0,0.2-0.2,0.6-0.1,0.7
		c0.4,0.5,0.7,1,1.2,1.2c0.4,0.1,1-0.4,1.3-0.8c0.2-0.3,0.3-0.8,0.2-1.1c-0.1-2.9,1.8-4.5,4-5.8c1.8-1.1,3.1-0.3,3.2,1.8
		c0.1,0.8,0.1,1.8,0.5,2.5c0.6,0.9,1.7,1.1,2.8,0.6c0.9-0.4,1.7-1.7,1.5-2.8c-0.1-0.7-0.5-1.3-0.7-2c-0.1-0.4-0.1-1.1,0.1-1.3
		c0.4-0.3,1.1-0.3,1.5-0.2c0.7,0.3,1.4,0.8,2.1,1.1c1.8,0.8,2.5,0.7,3.5-1.1c0.8-1.5,1.7-2.5,3.6-1.9c1,0.3,1.7-0.1,2.2-1
		c1.5-2.7,3.9-4.1,7-4.5c0.3,0,0.6-0.2,0.9-0.3c1.5-0.9,3.2-5.7,2.5-7.3c-0.5-1.4-0.6-2.8-0.5-4.2c0.1-1.1-0.4-2.3-0.6-3.4
		c-0.3-1.3-0.8-2.6-1.1-3.9c-0.4-1.8-0.6-3.6-0.8-5.4c-0.2-1.8-0.4-3.6-0.7-5.4c-0.2-1.3-0.5-2.7-0.9-3.9c-0.8-1.9-1-3.6-0.1-5.5
		c0.9-1.8,0.7-3.6-0.3-5.3c-0.8-1.3-0.7-2.5-0.3-3.9c0.3-1,0.5-2.2,0.5-3.3c-0.2-2.8-0.6-5.5-1-8.3c-0.1-0.6-0.2-1.3-0.1-1.9
		c0.3-2.6,0.8-5.2,1-7.8c0.1-1.2,0.2-2.7-0.3-3.8c-1.5-3.5-0.9-7.1-0.4-10.6c0.3-2.2,0.9-4.4,0.6-6.6c-0.1-0.8,0.2-1.7,0.4-2.6
		c0.9-2.9,1.9-5.8,2.6-8.7c0.3-1.2,0.2-2.5,0.3-3.8c0.1-1.4-0.2-3,0.4-4.2c1.5-3.3,1-6.9,1.7-10.3c0.4-1.9,0.8-3.7,1.2-5.6
		c0.3-1.2,0.8-2.3,0.9-3.5c0.1-2.9,0-5.9-0.2-8.8c-0.1-1.1,0.2-2.1,0.9-2.9c1.5-1.8,2.3-3.8,2.2-6.2c0-0.2,0-0.5,0.1-0.7
		c1.5-3.5,2-7.3,2.7-11c0.1-0.5,0.4-1.1,0.5-1.6c0.6-3.9,1.9-7.6,4-11c0.5-0.9,0.8-1.9,1.1-2.9c1.1-3.5,2-7,3.1-10.6
		c0.3-0.9,0.8-1.7,1.3-2.6c1.1-1.9,2.3-3.8,2.7-6.1c0.1-0.6,0.5-1.2,0.8-1.7c1.1-1.7,1.9-3.5,2.2-5.5c0.3-1.8,1.1-3.3,2.6-4.5
		c1.3-1.1,1.9-2.5,2.5-4c1.2-3.3,2.7-6.5,4.1-9.7c1.4-3,2.8-5.9,4.3-8.8c1.4-2.7,3-5.3,4.4-7.9c1.6-2.9,3.1-5.9,4.8-8.8
		c0.8-1.4,1.9-2.6,2.8-3.9c1.2-1.8,2.3-3.7,3.3-5.5c1.7-3,3.3-6,5.1-8.9c0.7-1.2,1.5-2.2,2.3-3.4c4.4-6.7,8.7-13.4,13.1-20
		c2.5-3.6,5.1-7.1,7.8-10.6c2.5-3.2,5.2-6.3,7.8-9.4c1.3-1.5,2.6-3,3.9-4.5c0.5-0.6,1.2-1.2,1.5-1.9c1.2-2.5,3-4.5,5-6.3
		c0.1-0.1,0.1-0.1,0.2-0.2c3.2-3.9,6.5-7.6,10.4-10.9c0.9-0.8,1.3-2.2,2.2-3.1c3.1-3.2,6.3-6.2,9.5-9.3c2.7-2.6,5.3-5.3,8.1-7.8
		c2.3-2.1,4.6-4.1,7-6.2c0.5-0.5,1.2-0.8,1.7-1.3c4.1-5,10-7.9,14.6-12.3c1.6-1.6,3.6-2.9,5.4-4.3c0.5-0.4,1-0.9,1.6-1
		c2.4-0.5,4-2.2,5.9-3.6c2.8-2.1,5.5-4.4,8.4-6.3c2.3-1.5,4.8-2.7,7.3-4.1c0.7-0.4,1.4-0.8,2.1-1.2c1.1-0.6,2.2-1.2,3.4-1.8
		c3-1.5,6-2.8,9-4.4c1-0.5,1.9-1.4,2.8-2.2c1.6-1.4,3.2-2.7,5.3-3c0.1,0,0.2,0,0.2-0.1c2.9-1.6,5.9-3.2,8.8-4.7
		c0.6-0.3,1.2-0.8,1.9-1.1c2.7-1,5.5-1.8,8.2-2.8c1-0.3,1.9-0.8,2.7-1.4c1.3-1,2.6-1.6,4.2-1.3c1.5,0.3,2.7-0.2,3.7-1.3
		c1.5-1.7,3.4-2.5,5.6-3c1.3-0.3,2.4-1.1,3.6-1.7c0.9-0.4,1.9-0.8,2.9-1.1c1.1-0.4,2.3-0.6,3.4-1c0.4-0.1,0.7-0.5,1.1-0.5
		c3.9,0.2,6.9-2.7,10.6-3.4c3.7-0.6,7.2-2,10.9-2.9c6.4-1.6,12.9-3,19.4-4.5c0.6-0.1,1.3-0.3,1.9-0.2c4.2,0.7,8.3,0,12.4-0.2
		c3.5-0.2,7.1-0.7,10.7,0.1c1.1,0.2,2,0.1,3-0.5c1.5-1,3-0.8,4.5,0c1.6,0.9,3.2,1.7,4.9,2.6c1.4,0.7,2.8,1.2,4.1-0.2
		c0.9-0.9,1.9-0.7,2.7,0.2c0.3,0.3,0.6,0.5,0.9,0.8c1.3,1.1,1.9,1.1,3.4,0.2c2.5-1.5,2.6-1.5,4.4,0.9c1,1.4,1.6,1.6,3.2,0.8
		c1.4-0.7,2.7-0.6,3.9,0.2c2.4,1.6,5.1,2.5,7.9,3.4c1.9,0.6,3.6,2,5.3,3.1c1.1,0.7,2,1.6,3.1,2.3c2.7,1.8,5.5,3.6,8.2,5.4
		c0.9,0.7,1.8,0.8,2.9,0.5c2.1-0.6,2.5-0.4,3.3,1.6c0.6,1.6,1.8,2.5,3,3.6c2.8,2.3,5.4,4.7,8,7.2c0.7,0.7,1.1,1.7,1.4,2.7
		c0.4,1.2,1.1,2.1,2.3,2.1c2.7,0.1,3.9,2,5,3.9c1.3,2.1,2.6,4.2,3.9,6.3c0.7,1.2,1.7,1.9,3.2,1.5c1.5-0.3,2.1,0.6,2.7,1.8
		c1.3,2.4,2.6,4.7,4,7.1c1.3,2.2,2.8,4.3,4,6.5c0.8,1.5,1.7,2.9,3.1,3.9c1.6,1.2,2.4,2.7,2.5,4.7c0,2.3,0.7,4.4,1.9,6.4
		c0.1,0.2,0.3,0.4,0.3,0.6c0.6,2.5,2.2,3.7,4.8,4c2.1,0.2,3.2,1.9,3.9,3.6c1.2,3.2,2.1,6.5,3.1,9.8c0.2,0.5,0.2,1.2-0.1,1.6
		c-0.2,0.4-0.8,0.8-1.3,0.8c-0.3,0-0.9-0.4-1.1-0.7c-0.2-0.6-0.4-1.4-0.3-2.1c0.2-3.2-1.3-5.9-2.7-8.6c-0.2-0.3-0.5-0.7-0.8-0.8
		c-0.5-0.2-1.3-0.4-1.7-0.2c-0.3,0.2-0.5,1.2-0.3,1.6c0.8,1.5,0.7,3,0.7,4.7c0,2.4,0.3,4.8,0.7,7.1c0.2,1.4,0.9,2.7,1.6,4
		c0.7,1.3,1.6,2.4,2.4,3.5c0.9,1.2,2,1,2.5-0.4c0.2-0.6,0.1-1.3,0.3-1.9c0.3-1.4,1.3-1.8,2.5-1.2c1.8,0.9,3.2,2.2,3.7,4.2
		c1.4,5.3,2.9,10.6,4,16c0.5,2.6,0.3,5.4,0.5,8.1c0.1,1.7,0.1,3.3,0.1,5c0,1.4,0,2.7,0,4.1c0,2.3,0.2,4.6,0.1,6.9
		c-0.1,2.6-0.5,5.2-0.9,7.8c-0.3,2.8-0.7,5.7-1.1,8.5c-0.2,1.1-0.7,2.3-1.3,3.3c-0.8,1.3-1.3,2.6-1.2,4.3c0.1,2.2-0.3,4.4-0.5,6.7
		c-0.2,1.9-0.8,3.5-2.9,4.3c-0.6,0.2-1.2,1.1-1.5,1.8c-0.6,1.5,0,2.5,1.6,2.7c2.5,0.4,2.6,0.6,2.1,3c-0.1,0.5-0.2,1-0.4,1.4
		c-0.9,1.8-1,3.6-0.9,5.5c0.1,4.3-0.6,8.6-2.5,12.6c-1.1,2.4-2,4.8-2.7,7.4c-0.6,2.3-1.8,4.4-2.5,6.7c-1.4,4.5-3.9,8.4-6.9,12
		c-0.9,1.1-1.6,2.6-1.9,4.1c-0.8,3.3-2.4,6.1-4.2,8.9c-1.5,2.4-3.1,4.8-4.5,7.3c-1.6,2.9-3.2,5.7-5.4,8.2c-1.9,2.1-3.2,4.6-4.3,7.2
		c-0.6,1.4-1.2,2.8-2.1,4c-2.1,2.8-4.4,5.5-6.6,8.2c-0.6,0.7-1.1,1.3-1.7,2c-2.3,2.7-4.5,5.4-6.8,8.1c-1,1.2-1.9,2.4-2.8,3.6
		c-1.2,1.4-2.3,2.8-3.5,4.2c-3.5,3.8-6.6,8-10.9,11.1c-1.2,0.8-2.1,1.9-3.2,2.9c-0.4,0.4-0.8,0.9-1.3,1.1c-2.2,1.1-3.7,2.8-4.7,5.2
		c-0.6,1.6-2.3,2.5-4,2.7c-1.2,0.1-1.8-0.6-1.2-1.6c0.5-0.9,1.2-1.7,2.1-2.2c2-1.3,3.8-2.7,4.8-4.9c0.3-0.7,1.1-1.2,1.6-1.8
		c0.9-1,1.8-2.1,2.7-3.1c0.6-0.7,1.1-1.5,1.8-1.9c1.8-1.1,3-2.6,3.9-4.5c1.2-2.4,3.5-3.7,5.3-5.5c1.8-1.6,3.5-3.2,4.6-5.5
		c0.4-0.8,0.9-1.6,1.6-2c2.7-1.8,4.2-4.6,6.1-7c1.1-1.4,2.4-2.8,3.5-4.2c1.5-1.9,2.8-3.9,4.3-5.8c1.8-2.2,3.8-4.3,5.8-6.3
		c1.3-1.3,2.2-2.6,2.7-4.4c0.6-1.9,1.6-3.8,2.8-5.5c1.2-1.7,2.4-3.4,2.9-5.4c0.3-1,0.9-1.9,1.4-2.8c1.1-1.8,2.1-3.6,3.2-5.3
		c1-1.6,2.2-3.1,3.2-4.8c1.4-2.5,2.8-5.1,4-7.6c1.7-3.5,2.8-7.3,3.6-11.1c0.2-0.9,0.5-1.9,1-2.7c2.2-3.6,2.7-7.8,4-11.8
		c0.2-0.8,0.3-1.7-0.7-2c-1-0.4-1.6,0.3-1.9,1c-0.4,0.9-0.7,1.9-1,2.9c-0.4,1.2-0.6,2.5-1.2,3.6c-1.5,3.2-3.1,6.3-4.7,9.5
		c-0.2,0.5-0.4,1-0.6,1.6c-0.8,3.8-2.6,7.2-4.7,10.4c-1.6,2.6-3.2,5.2-4.6,7.9c-0.8,1.5-1.2,3.3-1.4,5c-0.2,1.4-0.6,2.4-2,2.9
		c-1.8,0.6-3.1,2-4.1,3.5c-2.7,4-5.2,8.1-7.9,12c-1.4,1.9-3.1,3.6-4.9,5.8c-0.3-0.8-0.6-1.3-0.5-1.7c0.3-1.1,0.9-2,1.4-3.1
		c0.2-0.5,0.6-1,0.7-1.5c0.1-0.2,0-0.7-0.2-0.8c-0.3-0.2-0.8-0.2-1.1-0.1c-0.3,0.1-0.6,0.5-0.8,0.8c-1.3,1.6-2.7,3.2-4,4.7
		c-0.2,0.2-0.4,0.3-0.5,0.5c-2.1,4-6,6.6-8.8,10c-0.9,1.1-2.1,1.9-3.2,2.9c-1.3,1.2-2.7,2.3-3.9,3.6c-1,1.1-1.9,1.7-3.5,1.1
		c-1.9-0.7-2.6-0.2-3,1.8c-0.2,0.8-0.2,1.6-0.4,2.4c-0.3,1.2-0.8,2.3-2.4,2.3c-1.3,0.1-2.1,1-2.5,2c-1.6,4.4-4.3,8-8.3,10.5
		c-0.6,0.4-1.1,1-1.4,1.6c-1.7,3.1-4.6,4.8-7.3,6.8c-1.3,0.9-2.5,2-3.3,3.4c-1.2,1.9-3,3.4-5.1,4.2c-1.4,0.5-2.3,1.3-3,2.6
		c-1,2-2.6,3-4.8,3.5c-2,0.4-3.9,1.4-5.6,2.5c-0.8,0.5-1.4,1.8-1.5,2.8c-0.3,1.9-1.3,3.1-2.8,4.2c-3.1,2.3-6.1,4.5-8.8,7.4
		c-1.8,1.8-3.9,3.4-5.8,5.2c-1.8,1.7-4,3.2-6.7,3.3c-1.4,0.1-2.3,1-3,2.1c-1.8,3.1-4.1,5.7-7.3,7.4c-0.8,0.4-1.5,1.1-2.3,1.7
		c-1.5,1.3-3.1,2.5-5.3,2.5c-0.6,0-1.4,0.6-1.9,1.2c-1.2,1.6-2.4,3.2-4.2,4.2c-0.3,0.2-0.6,0.5-0.9,0.8c-1.6,1.5-3.2,3.1-5,4.5
		c-2.2,1.7-4.6,3.2-6.8,4.8c-1.2,0.8-2.4,1.2-3.8,0.9c-1.5-0.3-2.8,0.1-4,1.1c-1.3,1-2.6,1.7-4.3,1.8c-2.1,0.2-3.6,1.5-4.8,3.3
		c-1.3,1.9-2.6,3.8-3.8,5.8c-0.9,1.5-2.1,2.4-3.9,2.5c-1.4,0.1-2.3,0.7-3.3,1.7c-0.7,0.8-1.7,1.4-2.7,2c-0.7,0.5-1.4,0.8-2,1.3
		c-1.7,1.5-3.6,2.5-5.9,3c-0.8,0.2-1.6,0.7-2.3,1.2c-0.9,0.6-1.8,1.3-2.6,2.1c-3,3-7,4-10.7,5.7c-1.1,0.5-2.1,1.1-2.9,2
		c-1.7,1.8-3.8,2.9-6.1,3.6c-1,0.3-2,0.6-2.8,1.2c-2.7,2.2-5.7,4-9,5.5c-1.9,0.8-3.8,1.6-5.8,2.1c-1.7,0.4-3.3,1-4.7,2.2
		c-2.2,1.8-4.6,3.4-7.5,4.1c-1.9,0.4-3.5,1.8-5.3,2.7c-1.1,0.5-2.2,1-3.3,1.5c-0.7,0.3-1.3,0.6-2,0.9c-1.2,0.5-2.4,1.1-3.7,1.6
		c-1.2,0.5-2.5,0.7-3.5,1.4c-2.4,1.7-5,2.9-7.8,3.6c-2.8,0.7-5.2,1.9-7.3,3.7c-0.6,0.5-1.6,0.7-2.4,1.1c-2.6,1.1-4.9,1.1-6.9-1.4
		c-0.8-1-2-1.3-3.3-0.9c-1.6,0.5-2,2.1-0.7,3.3c1.9,1.8,1.8,2.5-0.5,3.6c-2.1,1-4.2,1.9-6.3,2.8c-0.3,0.1-0.6,0.2-0.9,0.2
		c-3-0.2-5.3,1.3-7.7,2.8c-4.3,2.7-9.1,4.2-13.8,6c-1.8,0.7-3.5,1.5-5.1,2.5c-1,0.6-1.9,1.1-3.1,0.9c-1.7-0.3-3,0.4-4.1,1.5
		c-1.6,1.4-3.3,2.1-5.4,2.1c-1.1,0-2.3,0.6-3.4,1.1c-0.9,0.4-1.8,1-2.7,1.6c-0.6,0.5-1.2,1-1.6,1.7c-0.7,1.2-0.5,1.8,0.5,2.7
		c0.4,0.3,0.8,0.5,1.2,0.7c1.2,0.8,1.6,1.6,1,2.8c-1.2,2.3-0.3,4.3,0.4,6.4c0.4,1.1,0.9,2.2,1.1,3.4c0.5,2.9,2.2,5.1,3.5,7.6
		c1.5,3,3.1,5.9,5,8.7c3.1,4.6,6.1,9.2,10,13.1c6.2,6.3,13.2,11.6,20.5,16.5c2,1.4,4,3,5.9,4.5c0.7,0.5,1.4,1.2,2.2,1.5
		c3,1,5.2,3.1,7.5,5c1.1,0.9,2.2,1.5,3.7,1.6c1,0.1,2,0.6,2.9,1c1.7,0.7,3.3,1.5,5,2.2c0.8,0.4,1.6,0.6,2.4,1
		c4.1,2.1,8.3,4.2,12.4,6.2c0.4,0.2,0.7,0.3,1.1,0.4c5.3,1.9,10.6,3.9,16,5.7c3.5,1.1,7.1,1.9,10.6,2.9c1.4,0.4,2.7,0.8,4.1,1.2
		c0.4,0.1,0.7,0.4,1.1,0.4c3.1,0.5,6.1,1,9.2,1.5c2.8,0.4,5.7,0.8,8.5,1.2c2.8,0.4,5.5,0.7,8.3,1.2c1.1,0.2,2.2,0.6,3.3,0.8
		c1.5,0.2,3,0.5,4.5,0.3c2.1-0.3,4.1-0.2,6.1,0.6c1.8,0.7,3.6,1.1,5.6,0.6c0.7-0.2,1.4-0.1,2.1,0c2,0.2,4,0.3,5.9,0.7
		c0.9,0.2,1.7,0.7,2.4,1.4c1.4,1.3,1.8,1.3,2.7-0.2c1.2-1.9,1.8-2.2,3.9-1.5c1.8,0.6,3.6,1.1,5.6,0.8c1-0.2,2,0.2,3,0.5
		c1.8,0.6,3.6,0.7,5.4,0.1c2.9-1,5.7-0.6,8.4,0.4c1.6,0.6,3.2,1.1,4.7-0.3c0.4-0.3,1-0.5,1.6-0.5c2.8,0.2,5.5,0.4,8.3,0.6
		c0.9,0.1,1.9,0.1,2.8-0.1c1.5-0.3,2.8-0.3,4.2,0.2c1.8,0.6,3.5,0.6,5.3-0.2c1.7-0.7,3.6-0.7,5.4-1.1c2.3-0.5,4.5-0.9,6.2-2.8
		c1-1,2.2-0.8,3.4-0.3c1.6,0.7,2.7,0.4,4.2-0.6c1.5-1.1,3.5-1.6,5.3-2.2c0.6-0.2,1.3-0.3,1.9-0.1c0.7,0.2,1.6,0.5,1.9,1.1
		c0.2,0.3-0.4,1.2-0.7,1.8c-0.1,0.3-0.5,0.5-0.6,0.7c-0.6,1-0.1,1.8,1,1.8c2.2,0.1,3.2-1.2,2.5-3.3c-0.4-1.2-0.2-1.9,1-2.2
		c4-1,7.9-2,11.9-2.8c1.9-0.4,2.4,0.4,2,2.3c-0.4,1.7,0.5,2.9,2.2,2.6c1.8-0.3,3.4-0.3,5.2,0c1.9,0.3,3.5-1.5,3.5-3.4
		c0-0.5-0.1-1-0.1-1.4c0-1.6,0.5-2.5,2-2.8c3.6-0.9,7.3-1.6,11-2.5c2-0.5,3.9-1.2,5.9-1.8c3.1-0.9,6.3-1.8,9.4-2.7
		c1-0.3,2-0.6,2.8-1.1c1.3-0.9,2.6-1.4,4.1-1.8c4.1-1.1,8.1-2.3,12.2-3.5c0.5-0.1,0.9-0.4,1.4-0.5c4-0.3,7.5-2,11.3-3.1
		c1-0.3,1.9-0.7,2.8-1.3c2.2-1.3,4.4-2.2,6.8-2.8c2.1-0.5,4-1.5,6-2.4c1-0.4,1.9-0.9,2.8-1.2c2.7-0.9,5.3-1.6,8-2.5
		c0.6-0.2,1.2-0.5,1.7-0.8c0.3-0.2,0.6-0.6,1-0.7c5.2-1.3,9.1-5.3,14.3-6.4c3.2-0.7,5.6-2.6,8.3-4.1c3.4-2,6.5-4.6,10.6-5.3
		c0.7-0.1,1.5-0.3,2-0.7c3.6-2.9,8.2-4.2,11.8-7.3c1.7-1.5,4-2.3,6-3.4c6-3.1,11.5-7.1,17.1-11c3.3-2.3,6.7-4.3,10.1-6.5
		c0.1-0.1,0.3-0.1,0.4-0.3c3.3-3.5,7.9-5.1,11.5-8.1c1.3-1.1,3-1.8,4.5-2.7c0.6-0.3,1.2-0.6,1.7-1c2.8-2.2,5.7-4.4,8.5-6.6
		c5.7-4.5,11.4-9,17.1-13.5c1.9-1.5,3.9-3.1,5.9-4.6c3-2.2,6-4.2,9-6.3c0.1-0.1,0.3-0.2,0.4-0.3c2.6-2.4,5.1-4.7,7.7-7.1
		c0.5-0.4,0.9-1,1.4-1.3c2.2-1.4,4.1-3,5.7-5c0.4-0.5,1.2-0.8,1.7-1.2c1.1-0.9,2.3-1.8,3.1-2.9c2.4-3.1,4.9-6,8.5-7.9
		c1.5-0.8,2.7-2.2,4-3.4c2.2-2.1,4.4-4.2,6.6-6.2c1.2-1.1,2.6-2.1,3.9-3.2c0.3-0.3,0.6-0.6,1-0.7c2.8-0.6,4-2.9,5.5-5
		c1.5-2,3.4-3.8,5.1-5.7c3.6-3.8,7.2-7.5,11.3-10.7c0.7-0.5,1.1-1.3,1.6-2c1.2-1.7,2.2-3.5,3.6-5.1c2-2.4,4.2-4.6,6.3-6.9
		c1.8-2,3.4-4,5.1-6c0.3-0.3,0.4-0.7,0.7-0.9c5-4,7.7-10,11.8-14.8c2.1-2.5,4.3-4.9,6.4-7.4c2.1-2.4,4.1-4.9,6.1-7.3
		c1.8-2.2,3.7-4.4,5.6-6.6c0.6-0.6,1.2-1.4,2.2-1.1c1.1,0.3,1.4,1.3,1.5,2.3c0.5,2.4-0.4,4.4-2.1,5.8c-2.8,2.1-3.8,5.5-5.9,8.1
		c-0.5,0.6-0.5,1.5-0.7,2.3c-0.3,1.3-0.9,2.4-2.3,2.8c-1.3,0.4-1.8,1.4-2.4,2.5c-0.6,1.2-1.4,2.3-2.4,3.2c-1.2,1.1-2.1,2.4-2.7,3.9
		c-0.6,1.6-1.5,2.9-3.1,3.7c-1.9,1-3.2,2.8-3.7,5.1c-0.2,0.9-0.3,1.8,0.6,2.4c0.8,0.5,1.5,0.4,2.2-0.1c1.6-1.1,3.1-0.4,4.5,0.3
		c0.9,0.4,1.6,1.1,1.4,2.3c-0.2,1-1.4,2-2.4,2c-0.9,0-1.7-0.3-2.6-0.5c-2.1-0.4-2.7,0.1-3.2,2.1c-0.3,1.2-0.9,2.4-1.3,3.6
		c-0.4,1.1-0.8,2.3-1.1,3.4c-0.7,2.1-1.7,3.9-3.9,4.8c-2,0.8-3.3,2.6-3.5,4.8c-0.1,1.3-0.6,2-1.8,2.5c-0.7,0.2-1.3,0.8-1.9,1.3
		c-1.3,1.2-1.8,1.3-3.3,0.2c-0.3-0.2-0.5-0.4-0.7-0.6c-1.1-0.7-1.9-0.6-2.3,0.6c-0.6,1.6-0.9,3.4-1.1,5.1c-0.2,2.1,0.1,4.3-0.1,6.4
		c-0.3,2.5-1.7,4.5-3.8,5.9c-0.4,0.3-1.3,0.1-1.7-0.1c-0.3-0.2-0.3-1.1-0.1-1.5c0.4-0.8,1-1.4,1.5-2.1c1.3-1.9,0.9-3.3-1.1-4.2
		c-0.8-0.4-1.5-0.3-2.2,0.3c-2.7,2.3-2.9,6.7-0.4,9.2c0.8,0.8,1.7,1.4,2.4,2.3c0.6,0.8,1.1,1.8,1.2,2.7c0.1,0.6-0.5,1.6-1,2
		c-0.4,0.2-1.4-0.1-1.9-0.5c-2-1.3-3.9-2.8-5.8-4.2c-1.5-1.1-2.5-0.7-2.7,1.2c-0.2,1.3-0.2,2.7-0.3,4.1c-0.1,1.6-0.1,3.2-1.1,4.6
		c-0.7,0.9-0.5,2-0.1,3c0.5,1.4,1.1,2.8,1.7,4.2c0.5,1.2,0.9,2.7,2.4,2.7c1.6,0.1,3.1-0.7,4.1-2c0.5-0.7,0.7-1.6,0.8-2.4
		c0.4-2.4,0.9-2.9,3.3-2.7c0.2,0,0.5,0.1,0.7,0.1c2.9,0.3,4.5-1.1,4.7-4c0-0.4-0.1-0.8,0-1.2c0.3-1.7,1-3.1,2.9-3.5
		c2.6-0.5,4.4-2.2,6.5-3.5c1.3-0.8,1.9-2.2,1.5-3.8c-0.8-2.5-0.7-5-0.3-7.6c0.1-0.8,0-1.8-0.1-2.6c-0.2-1.7,0.2-3.2,1-4.6
		c0.8-1.5,2.4-2,3.6-1.2c1.2,0.8,1.3,2.1,0.2,3.5c-0.4,0.5-0.8,1-1.2,1.5c-1,1.5-1,2.2-0.1,3.2c1.2,1.3,2.6,2.3,4.4,1.9
		c0.7-0.2,1.5-1.1,1.7-1.9c0.6-2.7,2.1-5,3.3-7.4c0.7-1.4,1.5-2.7,2.5-4c0.9-1.1,1.9-1.7,3.2-1.9c0.5-0.1,1.2-0.1,1.6-0.4
		c1.8-1.3,3.6-2.5,5.7-3.4c1.4-0.6,1.7-2.4,1.2-4c-0.2-0.7-0.6-1.3-0.7-2c-0.4-1.9,0.8-3.3,2.7-3.1c2.8,0.3,2.8,0.2,3.5-2.6
		c0.9-0.5,1.7-0.4,2.4,0.3c0.8,0.8,1.2,1.7,0.7,2.8c-0.7,1.8-1.5,3.5-2.3,5.3c-0.6,1.4-1.2,2.8-1.6,4.2c-0.5,1.6-1.2,2.9-2.7,3.8
		c-1.5,0.9-2.5,2.2-3.1,3.9c-0.5,1.5-1.5,2.5-2.8,3.5c-1.1,0.8-2.1,2-2.9,3.1c-1,1.5-2,2.6-4,2.7c-1.8,0-2.5,1.6-2.6,3
		c-0.2,2.5-1.5,4.3-3.4,5.8c-0.2,0.2-0.5,0.4-0.7,0.7c-1.1,2.1-2.6,3.6-5.2,3.6c-0.9,0-2,1.7-1.7,2.8c0.6,2.7-0.9,4-3,5
		c-0.7,0.4-1.4,0.7-2.2,1c-1.7,0.8-2,1.8-1.4,3.5c0.8,2.1,0.6,2.3-1.4,2.6c-1,0.2-2,0.5-2.8,1.2c-3.1,2.7-6.3,5.4-8.2,9.2
		c-0.2,0.4-0.4,0.9-0.8,1.2c-2.1,1.8-4.1,3.7-6.3,5.4c-1.2,0.9-1.9,1.9-2.2,3.3c-0.1,0.6-0.2,1.3-0.5,1.8c-0.7,1.4-1.8,1.4-3.2,1.3
		c-2-0.3-3.1,0.6-3.5,2.4c-0.3,1.4,0,2.5,1.5,2.9c3.7,1,5.2,3.9,6.6,7c0.6,1.4,0.6,3-0.6,3.9c-1.9,1.3-3,3.2-4.5,4.9
		c-0.3,0.4-0.6,0.7-1,1.1c-1.3,1.2-1.9,1.3-3.3,0.3c-2-1.4-2.5-1.2-3.2,1.2c-0.4,1.3-0.8,2.6-1.5,3.8c-0.8,1.4-1.3,1.5-2.7,0.5
		c-0.3-0.2-0.5-0.4-0.7-0.6c-0.6-0.5-1.3-1-2.1-0.4c-0.9,0.7-1.3,2.1-0.8,3c0.2,0.3,0.5,0.6,0.7,0.9c1.1,1.5,1,2.2-0.4,3.5
		c-1.5,1.3-2.2,1.2-3.1-0.6c-1-2-2-2.3-3.8-0.9c-2.5,2.1-4.9,4.3-7.2,6.6c-0.6,0.6-1,1.5-1.3,2.3c-0.5,1.6-1.6,2.5-3.2,3
		c-1,0.3-1.9,0.8-2.7,1.4c-1.2,0.9-1.1,1.5,0,2.5c0.4,0.4,0.8,0.7,1.2,1c-0.4,1.2-1.4,1.2-2.2,1.1c-1.3-0.1-2.5-0.3-3.8-0.6
		c-1.4-0.3-2.4,0-3,1.3c-0.8,1.5-1.9,2.3-3.6,2.4c-0.7,0-1.3,0.5-1.9,0.9c-0.7,0.4-1.3,1-2,1.3c-1.2,0.4-2,1.3-2.5,2.4
		c-0.6,1.2-1.4,1.7-2.8,1.7c-2.3,0-3.8,2.2-3.1,4.5c0.1,0.4,0.4,0.7,0.4,1.1c0.3,1.3-0.3,2-1.7,1.9c-1.3,0-2.7,0-4,0
		c-4.7,0-7.4,3.2-10.2,6.3c-0.7,0.8-1.3,1.9-0.4,3c1,1.2,2.1,1.6,3.6,0.9c0.8-0.4,1.6-1,2.3-1.7c2-2.2,4.4-3.6,7.4-4.2
		c2.4-0.5,4.6-1.9,7.1-1.9c0.7,0,1.4-0.3,2,0.6c-0.4,1.5-1.6,2.5-3,2.7c-3.6,0.4-5.6,2.8-7.6,5.4c-1.5,1.9-3.2,3.3-5.8,3.2
		c-1.5,0-2.6,0.8-3.3,2.1c-0.4,0.7-0.8,1.4-1.2,2.1c-1.8,2.8-5.2,4.3-8.5,3.5c-0.5-0.1-0.9-0.3-1.3-0.5c-1-0.6-1-1.6-0.1-2.3
		c0.4-0.3,0.9-0.4,1.3-0.6c0.8-0.4,1.6-0.7,2.3-1.2c2-1.6,2.1-3.3,0.3-5.1c-0.6-0.6-1.4-1.1-2.2-1.5c-0.5-0.2-1.3-0.3-1.8,0
		c-2.7,1.6-5.4,3.4-8.1,5.1c-0.6,0.4-1.2,1-1.8,1.1c-2.8,0.4-4.7,2.2-6.9,3.7c-1.3,0.9-2.7,1.7-4.1,2.4c-1.5,0.8-2.6,2.5-2.4,4.1
		c0.1,1.1,0.4,2.2,0.8,3.3c0.7,1.7,2.1,2,3.4,0.7c0.5-0.5,1.1-1,1.5-1.5c2.2-2.6,5.4-3.3,8.3-4.6c0.5-0.2,1.3-0.2,1.9-0.1
		c1.7,0.4,2.2,1.4,1.3,3c-0.6,1.2-1.4,2.2-2.8,2.3c-2.7,0.2-4.6,2.1-6.8,3.2c-1.1,0.5-2.1,1.2-3,1.9c-1.3,1-2.7,2.1-3.6,3.4
		c-1.6,2.3-3.8,3.3-6.5,3.4c-1,0-2,0.3-3.1,0.4c-0.6,0.1-1.3,0.2-1.9,0c-1.2-0.3-1.6-1.3-1-2.4c0.6-1.2,1.7-1.6,2.9-1.8
		c1.2-0.1,2.4-0.4,3.5-0.6c0.4-0.1,0.8-0.2,1.1-0.4c1.1-0.5,1.9-1.7,1.7-2.6c-0.2-0.8-1.6-1.9-2.6-1.8c-1.6,0.3-3-0.1-4.4-0.9
		c-0.4-0.2-1-0.4-1.4-0.2c-1.7,0.9-3.3,1.9-4.8,3c-0.3,0.2-0.3,1.1-0.1,1.5c0.3,0.9,0.8,1.7,1.3,2.6c0.5,1,1.7,1.7,1.1,3
		c-1,1.8-1.1,4.3-3.3,5.3c-0.7,0.3-1.4,0.8-2,1.4c-2.9,3-6.7,4.2-10.6,5.1c-1.1,0.2-2,0.8-3,1.3c-0.6,0.3-1,0.8-1.6,1
		c-0.5,0.2-1.2,0.2-1.5,0c-0.3-0.3-0.3-1-0.5-1.5c0-0.1,0-0.2,0.1-0.2c1-1.8,0.2-3.1-1.2-4.2c-1.4-1.1-3-1.8-4.9-0.9
		c-1.1,0.6-2.4,0.8-3.7,1.1c-1.2,0.3-2.4,0.5-3.5,1c-1.4,0.7-2.8,1.1-4.4,0.9c-1.6-0.2-2.7,0.9-3.5,2.1c-0.7,1-1.3,2-1.8,3.1
		c-0.6,1.3-1.6,1.7-2.9,1.4c-0.5-0.1-1.1-0.2-1.6-0.3c-1.6-0.3-3.7,0.8-4.5,2.2c-0.4,0.8-0.1,1.6,0.8,1.5c2-0.1,3.8,0.6,5.5,1.5
		c0.7,0.4,1.4,0.4,1.9-0.3c1.2-1.6,2.7-1.7,4.5-1.4c1.7,0.3,2.9-0.5,3.6-2.1c0.8-1.8,1.9-2.6,4-2.7c1.7-0.1,3.4-1.1,5.1-1.7
		c0.4-0.2,0.8-0.6,1.3-0.7c0.7-0.1,1.5-0.1,2,0.2c0.8,0.5,0.5,1.4,0.1,2.2c-0.5,1-1,2-1.6,2.9c-0.8,1.3-1.9,2.1-3.6,1.6
		c-1.6-0.5-2.8-0.1-3.6,1.4c-0.8,1.5-2.1,2.4-3.8,2.7c-0.5,0.1-1.1,0.3-1.5,0.6c-3.1,1.8-6.1,3.7-9.2,5.5c-0.5,0.3-1.2,0.5-1.8,0.7
		c-0.5,0.2-1.2,0.2-1.6,0.5c-2.2,1.4-4.1,1.7-6-0.6c-1-1.2-2.2-0.8-3.3,0.5c-0.7,0.9-1.3,2-1.9,3.1c-0.7,1.1-1.6,1.8-3,1.6
		c-1.6-0.2-3,0.1-4.1,1.4c-0.8,0.9-1.8,0.8-2.8,0.2c-0.5-0.3-0.9-0.6-1.4-0.9c-1.6-0.9-2.1-0.7-3.1,0.9c-0.2,0.4-0.5,0.8-0.6,1.3
		c-0.4,1.3-1.3,1.8-2.6,1.4c-1.6-0.5-2.6,0.1-3.4,1.5c-0.6,1.1-1.5,1.7-2.8,1.4c-1.3-0.3-2.3,0.3-3.2,1.2c-1.4,1.3-2,1.2-3.1-0.3
		c-1.4-1.8-1.7-1.9-3.7-0.6c-0.8,0.5-1.5,0.5-2.2,0c-0.4-0.3-0.8-0.7-1.2-0.7c-0.4-0.1-1,0.2-1.2,0.5c-0.2,0.3,0,0.9,0.3,1.2
		c0.2,0.3,0.7,0.3,1.1,0.5c0.9,0.3,1.3,0.9,1.3,1.8c0,1-0.6,1.6-1.5,1.9c-0.4,0.1-0.8,0.3-1.2,0.3c-2,0.1-3.8,0.6-5.5,1.6
		c-0.9,0.5-1.8,0.5-2.8,0c-0.4-0.2-0.9-0.4-1.3-0.5c-2.4-0.9-2.5-0.9-3.8,1.3c-0.3,0.5-0.5,1.1-0.9,1.4c-0.4,0.3-0.9,0.4-1.4,0.6
		c-0.2-0.6-0.5-1.1-0.4-1.7c0.1-0.5,0.6-0.9,0.8-1.5c0.2-0.6,0.4-1.3,0.2-1.8c-0.2-1.1-1.5-1.6-2.4-0.8c-1.1,0.8-1.6,1.9-1.2,3.4
		c0.4,1.8,0,2.5-1.8,2.9c-0.8,0.2-1.7,0.4-2.4,0.9c-1.3,1-2.7,1.1-4,0.3c-1.9-1-3.8-0.9-5.8-0.4c-1.2,0.3-1.8,0.8-1.9,2.1
		c-0.2,2.6-0.5,2.9-3.1,3.4c-1,0.2-2,0.6-3,0.9c-1.3,0.3-2.6,0.6-3.9,0.9c-1.1,0.2-2.2,0.4-3.2,0.7c-1.7,0.5-2.9-0.3-2.7-2.1
		c0.1-1.2,0.3-2.3-1-2.9c-1-0.5-6.5,1.2-6.9,2.2c-0.3,0.6-0.3,1.2-0.4,1.8c-0.2,1.8-0.8,2.4-2.5,2.6c-0.9,0.1-1.8,0.3-2.6,0.2
		c-2.1-0.1-4,0.4-5.4,1.9c-1.3,1.4-2.8,1-4.2,0.5c-1.1-0.4-1.4-1.3-1.1-2.8c0.4-1.9,0-2.8-1.6-3.4c-1.2-0.5-4.3,1.1-4.5,2.3
		c-0.1,0.5,0.2,1.1,0.5,1.5c0.2,0.3,0.7,0.4,0.9,0.7c0.5,0.5,1.4,1.2,1.4,1.7c-0.1,1.2-1.3,1.3-2.2,1.4c-1.6,0.1-3.2,0.3-4.6,1.1
		c-0.4,0.2-1,0.4-1.4,0.3c-3.2-1.2-6.2,1.4-9.4,0.1c-1.2-0.5-2.5-0.5-3.7-0.8c-1.7-0.3-3.4-0.1-4.7,1.1c-2,1.8-4.2,1.7-6.5,1.2
		c-1.9-0.4-3.7-0.9-5.6-1.4c-1.6-0.4-2.9-0.4-3.9,1.3c-0.7,1.2-1.3,1.2-2.3,0.2c-1.3-1.3-2.6-1.8-4.3-0.8c-0.4,0.2-0.9,0.3-1.4,0.3
		c-3.9-0.2-7.8-0.5-11.7-0.8c-0.5,0-0.9-0.2-1.4-0.2c-2.2-0.2-3.4,0.8-3.1,3.1c0.1,1.3-0.2,2-1.3,2.5c-1.8,0.9-3.2,2.3-4.3,4
		c-1.1,1.6-1.7,1.6-3.5,0.9c-1.3-0.6-2.7-1.1-4-1.5c-1.8-0.5-3-1.3-3.1-3.4c-0.1-1.5-1.1-2.2-2.8-2.4c-0.9-0.1-1.8-0.1-2.6-0.2
		c-1.8-0.4-3.2,0-4.3,1.7c-1.2,1.8-3.2,2-5.1,2.2c-5.1,0.4-10-0.9-14.8-2.4c-1.9-0.6-3.9-1-5.8-1.5c-1.6-0.3-3-1-4.1-2.3
		c-1.4-1.8-3.3-2.4-5.5-2.2c-0.6,0.1-1.3,0.1-1.9-0.2c-4.3-1.9-8.6-3.9-12.9-5.8c-0.9-0.4-1.9-0.9-2.9-1c-3.8-0.7-7.2-1.9-9.7-5.2
		c-0.7-1-1.9-1.2-3.2-1.4c-3.5-0.6-7.1-1.3-9.8-3.9c-1.1-1.1-2.6-1.5-4.1-1.8c-1-0.2-2.1-0.4-2.9-1.1c-4.2-3.6-9.2-6.1-13.8-9
		c-0.1-0.1-0.3-0.1-0.4-0.3c-3.2-3.1-7-5.3-10.5-7.9c-1.4-1-2.7-2-4-3c-1.1-0.8-2.3-1.2-3.8-0.7c-1.5,0.6-2.2-0.1-2.7-1.8
		c-0.2-0.9-0.6-1.8-1.1-2.6c-2.6-3.9-6.6-6.3-10.2-8.9c-0.8-0.6-1.6-0.5-2.4,0.1c-2.1,1.5-2.5,1.4-4.2-0.3c-0.7-0.7-1.4-1.5-2.1-2.3
		c-3.9-4.6-7.7-9.2-11.5-13.8c-0.7-0.8-1-1.8-1.7-2.6c-0.9-1.2-1.9-2.3-3-3.4c-1.3-1.3-2.8-2.4-4.1-3.7c-3.1-3.4-6.1-7-9.2-10.5
		c-3.7-4.1-7.7-7.9-11.3-12.1c-4.3-4.9-8.6-9.9-12.6-15.1c-4.1-5.3-7.9-10.8-11.8-16.3c-0.8-1.2-1.9-1.9-3.3-2.2
		c-2.3-0.5-2.6-0.9-2.4-3.3c0.1-1.5-0.3-2.7-1.6-3.5c-1.3-0.7-1.6-1.9-1.5-3.3c0.1-2-1.3-3.3-3.3-3c-1.7,0.2-3.3,0.7-4.9,1.1
		c-0.6,0.1-1.3,0.4-1.9,0.3c-1.7-0.2-2.9,0.4-4.1,1.5c-0.8,0.7-1.8,1.3-2.9,1.6c-3.4,1.1-6.9,2.1-10.3,3.1c-0.5,0.2-1.1,0.3-1.5,0.7
		c-2.4,1.9-5.2,2.2-8.1,2.7c-1.5,0.3-2.8,0.9-4.3,1.4c-1.8,0.7-3.6,1.4-5.4,2c-1,0.4-2.2,0.5-3.2,0.8c-2,0.6-3.1-0.2-3.1-2.2
		c0-1.9-0.2-2.2-1.9-2.7c-4.2-1.3-5.3-0.4-4.9,3.9c0,0.2,0,0.3,0.1,0.5c0.5,3.3-0.2,4.4-3.4,5.4c-2.2,0.7-4.5,1.2-6.4,2.7
		c-0.5,0.4-1.2,0.5-1.8,0.6c-3.5,0.9-7,1.7-10.4,2.6c-1.9,0.5-3.8,1.3-5.6,1.9c-1.5,0.5-3.1,1.1-4.6,1.2c-2.6,0.2-4.9,0.9-7,2.6
		c-1,0.8-2.5,1.1-3.8,1.1c-2,0-3.8,0.5-5.4,1.6c-1.3,0.8-2.7,1.2-4.3,1c-0.8-0.1-1.7,0.2-2.6,0.4c-1.8,0.6-3.6,1.2-5.4,1.8
		c-2.3,0.7-4.6,1.5-6.9,2.1c-4.1,1.1-8.2,2.1-12.3,3.2c-1.4,0.4-2.6,1.1-4,1.6c-1,0.4-2.1,0.8-3.2,0.8c-2.2,0-4.1,0.4-5.9,1.5
		c-0.8,0.5-1.7,0.9-2.6,1.1c-3.5,0.9-7,1.6-10.5,2.5c-3.3,0.8-6.6,1.8-9.9,2.8c-0.8,0.2-1.6,0.5-2.3,0.5c-2-0.1-3.7,0.4-5.4,1.6
		c-0.6,0.5-1.6,0.4-2.5,0.5c-2.6,0-5.1,0.1-7.6,1.6c-1.5,0.9-3.7,1-5.5,1.3c-3.2,0.5-6.5,0.7-9.6,2.1c-0.6,0.3-1.2,0.5-1.8,0.6
		c-2.9,0.6-5.8,0.9-8.7,1.7c-3.1,0.8-6.2,1.5-9.4,1.5c-0.1,0-0.2,0-0.2,0c-4.1,1.9-8.7,1.8-13,2.8c-1.2,0.3-2.4,0.6-3.4,1.2
		c-0.8,0.5-1.6,1.3-2.1,2.2c-0.7,1.2-1.1,2.6-1.6,4c-0.4,1.1-0.1,1.8,1.2,2.2c1.9,0.5,3.7,0.6,5.7,0.1c2.7-0.7,5.5-0.9,8.2-1.1
		c0.8-0.1,1.6,0.2,2.3,0.5c0.4,0.2,0.9,0.8,0.9,1.2c0,0.4-0.7,1-1,1c-2.5,0.1-4.8,1.1-7.1,2c-2.4,0.8-5,0.9-7.5,1.4
		c-1.7,0.3-3.4,0.7-5.2,1c-2.3,0.3-4.6,0.6-6.9,0.7c-0.6,0-1.5-0.5-1.6-1c-0.3-1,0.6-1.4,1.4-1.6c0.8-0.2,1.7-0.4,2.6-0.6
		c1.9-0.5,2.8-1.6,2.6-3.5c-0.1-1.6,0.4-2.6,1.6-3.4c0.9-0.6,1.4-1.6,0.8-2.7c-0.5-0.9-1.6-1.1-3-0.8c-2.2,0.5-4.5,1.1-6.8,1.4
		c-1,0.1-2.1-0.6-3-1.2c-1.6-0.9-2.1-1-2.9,0.5c-1,1.8-2.6,2.2-4.3,2.6c-1.8,0.4-3.6,0.8-5.4,1.2c-0.5,0.1-1.1,0.2-1.7,0.3
		c-4.2,0.4-8.4,0.8-12.5,2.1c-3,0.9-6,1.5-9,2.3c-0.6,0.2-1.5,0.6-1.6,1.1c-0.1,0.5,0.5,1.3,1,1.7c0.9,0.7,1.3,1.4,1.4,2.6
		c0.1,1.8,1.4,2.8,3.2,2.9c0.6,0,1.1-0.2,1.7,0c0.4,0.1,0.9,0.5,1,0.8c0.1,0.3-0.3,1-0.6,1.1c-0.7,0.3-1.5,0.6-2.3,0.6
		c-1.6,0.1-3,0.4-4.2,1.5c-1.1,1-2.4,1.2-3.8,0.7c-0.4-0.2-0.9-0.2-1.4-0.4c-1.4-0.5-2.4-0.2-3.4,0.9c-2,2.1-2,2-4.7,0.9
		c-1.4-0.6-2-0.4-2.3,1c-0.3,1.8-1.4,2.2-3,2.5c-2.3,0.5-4.3,0.6-5.7-1.6c-0.1-0.1-0.2-0.2-0.4-0.3c-0.2-0.1-0.4-0.1-0.7-0.2
		c-0.2,0.1-0.4,0.1-0.5,0.2c-1.2,2.6-3.3,3.5-6.1,3.7c-2.1,0.2-4.2,0.7-6.4,0.6c-2.2-0.1-4.4,1-6.7,0.1c-0.2-0.1-0.5,0.1-0.7,0.2
		c-3,2.3-6.8,2.2-10.1,3.4c-2.2,0.7-4.3,0.5-6.3-0.3c-2.7-1.1-5-0.7-7.1,1.2c-0.4,0.3-0.7,0.6-1.2,0.9c-1.3,0.8-2.3,0.9-3.2-0.3
		c-1.8-2.5-3.9-2.5-6.5-1.8c-1,0.3-2,0.2-3.1,0.2c-0.6,0-1.1-0.1-1.7,0c-3.4,0.7-6.9,1.3-10.3,2.1c-2.2,0.5-4.4,1.1-6.6,1.5
		c-1.2,0.2-2.6,0.2-3.8,0c-1.8-0.3-3.2,0.2-4.5,1.6c-1.7,1.8-2,1.9-4.4,0.8c-1.6-0.7-2.9-0.6-4.3,0.4c-1.1,0.8-2.4,1.2-3.8,1.1
		c-0.4,0-0.9-0.1-1.2,0.1c-2,1.2-4.3,1.3-6.4,2c-2,0.7-4,1-6.1,0.7c-1.3-0.2-2.7,0.1-4,0.1c-0.6,0-1.3,0.2-1.9,0.1
		c-1.4-0.2-2.7,0.1-3.8,1c-0.9,0.7-1.8,0.7-2.7,0.4c-2-0.9-4.1-1-6.3-0.7c-2.7,0.4-5.4,0.4-8.1,0.5c-1.9,0.1-3.4,0.6-3.7,2.9
		c-0.1,0.9-0.8,1.3-1.7,1.5c-2,0.4-4.1,0.9-6.1,1.3c-1.2,0.3-2.4,0.1-3.6-0.6c0.2-0.5,0.4-1,0.5-1.5c0.5-1.5,0.1-2.1-1.4-2.3
		c-0.4-0.1-0.8,0-1.2,0c-3.1,0.2-3.3,0.7-1.6,3.3c0.1,0.1,0,0.3,0,0.6c-0.6,0.9-1.5,1-2.5,0.8c-2-0.3-3.9,0.2-5.9,0.7
		c-2.3,0.7-4.6,1.4-7.1,0.9c-0.8-0.1-1.7,0.2-2.6,0.3c-2.1,0.1-4.2,0.1-6.2,0.4c-2.7,0.4-5.3,1-8,1.4c-1.6,0.2-3.2,0.4-4.7,0.3
		c-1.9-0.2-3.5,0.1-4.9,1.4c-0.3,0.3-0.6,0.5-1,0.7c-1.6,1-3.3,1.5-5.2,0.5c-1.4-0.8-2.9-1.2-4.4,0.2c-0.4,0.4-1.5,0.3-2.2,0.2
		c-1.2-0.1-2.3-0.4-3.5-0.6c-0.8-0.2-1.5-0.4-2.3-0.6c-1.5-0.4-2.9-0.8-4.4-1.1c-1.2-0.3-2.2,0-3.2,0.8c-2.2,1.8-4.7,2.2-7.4,1.3
		c-3.4-1.2-6.8-0.5-10.2,0c-2.6,0.4-5,0.4-7.5-0.8c-0.9-0.4-2.1-0.9-3-0.7c-2.7,0.7-5.3,0.1-7.9-0.1c-2.7-0.2-5.4-0.4-8.1-0.9
		c-1.4-0.2-2.7-0.9-4-1.5c-1.4-0.7-2.8-1-4.4-0.8c-1,0.1-2.1,0.1-3.1-0.1c-2.1-0.4-4.1-0.5-6.1,0.2c-2,0.8-4,0.5-5.9-0.3
		c-2.4-0.9-4.8-1.9-6.6-3.8c-1.2-1.2-2.6-1.7-4.2-2.2c-1.7-0.5-3.4-1.2-5.2-1.8c-0.8-0.3-1.6-0.7-2.5-0.9c-1.5-0.3-2.8-1-3.6-2.2
		c-1.6-2.3-3.9-3.5-6.4-4.4c-2.3-0.8-4-2.2-5.2-4.4c-0.6-1-1.4-1.9-2.2-2.8c-2-2-4-3.9-6-5.8c-1-1-1.8-2.1-1.9-3.5
		c-0.1-1.9-1.1-3.1-2.7-3.9c-1.7-0.9-3.3-1.9-5-2.8c-1.5-0.8-2.6-2-3.6-3.4c-1-1.5-2-3.1-3.2-4.5c-1.2-1.3-2.6-2.3-3.9-3.5
		c-0.8-0.7-1.7-1.4-2.6-2.1c-0.5-0.4-0.9-0.9-1.5-1.2c-4.4-2.5-7.8-6.3-11.3-9.9c-0.5-0.5-1.1-0.9-1.8-1.2c-2.5-1.3-4.1-3.5-5.9-5.5
		c-0.5-0.5-0.8-1.5-0.7-2.2c0.5-5.4,2.4-10.2,6.6-13.9c1.5-1.3,3.1-1.8,5.1-1.4c2.1,0.4,4.3,0.6,6.4,1c1.6,0.3,3,0.9,4.6,1.4
		c1.3,0.4,2.5,0.9,3.9,1.2c3.7,0.8,7.5,1.5,11.3,2.4c1.6,0.3,3.1,0.7,4.7-0.2c1.1-0.6,2,0,2.9,0.6c1.3,1,2.5,1.4,4.1,0.2
		c0.8-0.6,2.3-0.7,3.4-0.6c6.3,0.8,12.6,1.8,19,2.7c0.9,0.1,1.9,0.2,2.8-0.1c1.6-0.4,3.1-0.3,4.7,0.1c3,0.6,6.1,1.1,9.3,0.5
		c1.3-0.3,2.5-0.6,3.3-1.6c1.2-1.3,2.7-1.6,4.4-1.4c2.6,0.4,5.2,0.7,7.8,1.1c0.5,0.1,0.9,0.6,1.3,0.9
		C143.7,591.4,144,591.8,144.4,592.4z M823.6,440.6c0.1,0.5,0.2,0.9,0.3,1.3c0.5,1.4,0.9,1.7,2.3,1.2c3.6-1.3,7.5-1.8,9.9-5.3
		c0.3-0.4,0.9-0.6,1.4-0.9c0.6-0.3,1.2-0.5,1.7-0.9c0.4-0.4,0.6-1,0.8-1.5c-0.5-0.2-1.2-0.8-1.6-0.6c-1.3,0.4-2.7,1-3.8,1.8
		c-1.7,1.3-3.5,2.2-5.6,2.5c-0.8,0.1-1.6-0.1-1.6-1c0-0.6,0.7-1.1,1.2-1.5c0.2-0.2,0.8,0,1.2-0.1c2.1-0.6,4.3-1.2,5.9-2.9
		c1-1,2-2,3.5-2.4c2.7-0.7,5.3-1.7,7.6-3.4c0.6-0.5,1.4-0.8,2.2-0.9c2.2-0.4,3.9-1.6,5.7-2.9c1.2-0.9,2.6-1.5,3.9-2.1
		c1.4-0.7,3-1.2,4.2-2.1c1.6-1.1,3.2-2,5.1-2.4c1.3-0.3,2.7-0.7,3.8-1.3c1.9-1.1,3.7-2.5,5.6-3.7c0.7-0.5,1.5-0.8,2.3-1.2
		c1.1-0.6,2.3-1.1,3.4-1.7c0.8-0.4,1.7-0.9,2.5-1.4c3-1.6,6.1-3.1,9-4.8c1.7-1,3.2-2.1,5.2-2.1c0.5,0,1.1-0.2,1.6-0.5
		c2.7-1.8,5.6-3.4,7.9-5.8c1-1,2.2-1.9,3.5-2.4c1.8-0.6,3.3-1.6,4.8-2.7c0.5-0.4,1-0.9,1.6-1c2.3-0.6,4-2,5.7-3.4
		c0.5-0.4,1-0.9,1.6-1.1c3.7-1.5,6.7-4,9.8-6.3c2-1.5,4-2.9,6.5-3.5c1.2-0.3,2.3-1.4,3.3-2.2c4-3.2,7.9-6.5,11.9-9.7
		c0.3-0.2,0.7-0.4,1-0.6c1.1-0.7,2.3-1.4,3.3-2.3c2.3-1.9,4.2-4.2,7-5.4c0.4-0.2,0.8-0.5,1.1-0.9c2-2.7,5-4.2,7.6-6.1
		c1.3-0.9,2.6-2,4-2.5c2-0.7,3.5-1.9,4.4-3.7c0.8-1.5,2-2.7,3.5-3.4c0.7-0.3,1.3-0.9,1.9-1.4c2.2-2.1,4.4-4.2,6.7-6.2
		c0.8-0.7,1.6-1.4,2.5-1.9c2.4-1.3,4.5-3,6.3-5.1c1.1-1.2,2.2-2.3,3.9-2.5c1.9-0.3,3-1.5,3.6-3.2c0.7-1.9,1.9-3.3,3.4-4.6
		c1.5-1.3,3.1-2.6,4.5-3.9c4-3.7,8-7.4,11.9-11.1c2.7-2.6,5.4-5.2,7.9-8c1.9-2.2,3.4-4.6,6-6.1c0.8-0.5,1.4-1.5,2.1-2.3
		c1.3-1.5,2.5-3.1,3.7-4.6c0.5-0.7,1.1-1.4,1.6-2.1c1.1-1.4,2.2-2.8,3.2-4.1c2-2.6,4.1-5.1,6.2-7.6c0.9-1.2,1.7-2.5,2.9-3.5
		c2.3-2.1,4-4.5,5.6-7.2c0.7-1.2,1.4-2.4,2.2-3.4c3.4-4.3,6.3-8.8,8.8-13.7c2.6-5.1,5.2-10.2,7.8-15.4c0.4-0.7,0.6-1.5,0.9-2.2
		c0.8-2.2,1.6-4.4,2.4-6.5c1.5-3.9,3.2-7.8,4.6-11.8c1.7-4.8,2.5-9.9,3.1-15c0.6-4.6,1-9.2,1.4-13.8c0.1-0.6,0-1.3,0-1.9
		c0-2.1,0.1-4.1,0.1-6.2c0-1.3,0.4-2.6,0.2-3.8c-1.1-5.5-2.5-10.9-3.7-16.4c-0.4-1.7-1.5-3-3-3.9c-2.8-1.6-5.7-3.2-9-3.7
		c-1.5-0.2-3-0.6-4.4-1.1c-6.6-2.6-13.2-5.4-20.5-4.9c-1,0.1-1.4-0.6-1.4-1.5c0-0.5,0.3-1.1,0.5-1.6c0.7-1.8-0.4-3.3-2.3-2.9
		c-0.9,0.2-1.9,0.9-2.6,1.5c-0.7,0.6-1.1,1.6-1.6,2.4c-0.5,0.8-1.1,1-2,1.1c-2.9,0.3-5.9,0.7-8.7,1.2c-3.5,0.7-6.8,1.7-10.3,2.3
		c-3,0.5-6.2-0.3-9.3,0.7c-0.4,0.1-0.8,0-1.2-0.1c-1.6-0.4-2.9,0.3-4.2,1.2c-1.6,1-3.3,2-5.1,2.6c-1.6,0.6-2.8,1.3-3.8,2.7
		c-1.7,2.1-3.9,3.3-6.7,2.5c-1.3-0.3-2,0.2-2.7,1.4c-0.5,0.9-1.4,1.7-2.3,2.3c-1.1,0.7-2.3,1.1-3.5,1.6c-3,1.2-6.1,2.3-9.1,3.5
		c-0.6,0.2-1.1,0.7-1.6,1.1c-1.5,1.2-1.6,1.3-0.5,3.1c0.5,0.9,0.7,1.7-0.2,2.3c-1.8,1.2-3.6,2.6-5.6,3.1c-4.7,1.2-8.5,3.8-12.6,6.2
		c-2.3,1.4-4.7,2.7-7.3,3.7c-2.3,0.9-4.5,1.9-6.5,3.4c-2.5,2-5.2,3.7-8.4,4.5c-2.5,0.6-4.4,2.1-6.4,3.7c-1.4,1.2-2.8,2.4-4.3,3.4
		c-3.4,2.3-7.1,4.4-10.1,7.3c-0.3,0.3-0.8,0.6-1.2,0.8c-2.8,1.7-5.6,3.3-7.7,6c-0.4,0.6-1.1,1-1.6,1.4c-3,2.4-6,4.8-9,7.1
		c-0.6,0.5-1.3,1-2,1.2c-4.3,1.7-7,5.4-10.5,8.1c-0.2,0.2-0.4,0.5-0.6,0.8c-1.2,1.4-2.3,2.9-3.5,4.2c-2.4,2.7-5,5.2-6.6,8.4
		c-0.5,1.1-1.3,2-2.1,2.9c-4.7,4.8-9.4,9.6-14,14.4c-0.4,0.5-0.9,1-1.2,1.5c-2.8,4.5-6.7,8.1-10.2,12c-1.2,1.3-2.5,2.5-3.6,3.9
		c-1.7,2.2-3.5,4.4-5,6.7c-3,4.6-5.5,9.6-8.8,14c-3.5,4.6-7,9.1-10.1,14c-2.1,3.4-5.2,6-7.2,9.5c-0.6,1.1-1.4,2.2-2.2,3.1
		c-2,2.2-3.3,4.7-4,7.5c-0.5,1.9-1.5,3.5-2.7,5c-1.9,2.3-3.6,4.7-4,7.8c-0.2,1.6-1.2,2.7-2.1,3.9c-1.6,2.3-3.2,4.6-4.2,7.2
		c-1.4,3.5-2.4,7.3-4.2,10.7c-1,2-1.6,4.2-2.4,6.3c-0.3,0.9-0.7,1.8-1,2.7c-0.6,1.5-1.2,3-1.7,4.5c-1.3,3.8-2.5,7.6-3.8,11.3
		c-1.2,3.5-2.5,6.9-3.6,10.4c-1.6,5.4-2.9,10.8-4.4,16.2c-1.2,4.7-2.5,9.4-3.5,14.2c-0.4,2-0.3,4.1-0.6,6.2
		c-0.9,6.3-1.8,12.6-2.8,18.9c-1,6.3-0.9,12.7-0.9,19.1c0,2,1.1,2.6,3,2c0.9-0.3,2-0.6,3-0.4c2.2,0.3,3.5-0.7,4.5-2.4
		c1.3-2.2,2.6-4.4,4-6.5c0.3-0.5,0.9-0.8,1.5-1.1c1-0.5,2-1.1,3-1.4c3.1-1,6.2-3.5,9.3,0.2c0.7,0.8,1.8,0.3,1.9-0.8
		c0.1-0.4,0-0.8-0.1-1.2c-0.2-1.3,0.3-2.1,1.4-2.7c1.7-1,3.4-2,5.1-3.1c2.3-1.5,2.5-1.5,4.6,0.2c0.2,0.1,0.4,0.3,0.5,0.5
		c2.6,1.8,4.7,1.1,5.7-1.8C820.2,440.8,820.8,440.4,823.6,440.6z M816.4,272.1c0.2,0.6,0.4,0.9,0.3,1.2c-0.6,2.3-2.3,4-3.8,5.7
		c-0.7,0.8-2.1,0.1-2.3-1.1c-0.1-0.5,0-1,0-1.4c-0.2-1.6-1-2.4-2.2-2.3c-1.1,0.1-1.7,1.2-1.8,2.7c0,1.2,0,2.4-0.5,3.5
		c-0.5,1.2-1.5,2.3-2.3,3.3c-1.4,1.8-2.6,3.6-3.2,5.8c-0.7,2.4-1.9,4.5-3.8,6.3c-0.9,0.8-1.6,2-2,3.2c-1,2.7-1.7,5.5-2.5,8.3
		c-0.5,1.8,1.1,4.4,2.9,4.8c0.3,0.1,0.7,0,0.9-0.1c1.9-1.1,4-2.1,4.7-4.5c1-3.2,3-6,4.7-8.8c1.8-2.9,3.1-6.1,4.8-9.1
		c2.7-4.6,5.7-9,8.9-13.3c1.5-2.1,2.9-4.2,4.2-6.4c2.5-4,4.9-8.1,7.3-12.1c1-1.7,2.3-3.2,3.8-4.6c0.8-0.7,1.3-1.8,2-2.6
		c1-1.4,2.1-2.8,3.2-4.2c0.9-1.2,1.9-2.3,2.8-3.6c0.5-0.8,0.7-1.6-0.2-2.4c-0.8-0.7-1.6-0.6-2.4,0.1c-0.7,0.7-1.3,1.4-2,2
		c-0.4,0.4-0.8,0.7-1.1,1c-1.2-0.9-0.7-1.7-0.2-2.4c1-1.8,2-3.7,3-5.5c1.5-2.8,3-3,5-0.5c0,0.1,0.1,0.1,0.1,0.2
		c1.1,1.3,2.1,1.4,3.1,0c0.8-1.1,1.4-2.3,2.1-3.5c0.4-0.7,0.2-1.4-0.5-1.9c-0.6-0.5-1.1-1-1.5-1.3c1.7-2.3,3.1-4.4,4.6-6.4
		c0.5-0.7,1.2-1.3,1.9-1.8c1.8-1.3,2.7-2.8,2.2-5.1c-0.3-1.6,0.3-2.4,1.8-2.4c2.1-0.1,3.4-1.3,4.4-2.9c1.3-2.1,2.4-4.3,3.5-6.5
		c0.9-1.7,1.7-2.4,3.5-2.3c3,0.2,3.3-0.1,4.1-3c0.3-0.9,0.7-2.1,1.5-2.6c1.6-1,3.4-1.8,5.2-2.4c2.5-0.8,3.7-3,2.7-5.5
		c-0.7-1.8-0.2-2.6,1.7-2.5c1.4,0.1,2.7,0.1,3.9-0.6c0.9-0.5,1.7-0.1,2.3,0.7c0.3,0.4,0.5,0.8,0.7,1.2c0.9,1.2,1.6,1.3,2.8,0.2
		c1.2-1.1,1.5-2.5,0.8-4.2c-1.4-3.6-0.9-4.7,2.6-6.7c1.1-0.6,2.1-1.5,3-2.3c1.1-1,2.2-2,3.3-3c0.7-0.6,1.4-0.9,2,0
		c0.5,0.8-0.1,1.3-0.7,1.8c-1,0.8-2,1.6-3,2.4c-0.6,0.5-1,1.1-0.5,1.9c0.5,0.8,1.3,0.9,2.1,0.6c0.5-0.2,0.9-0.6,1.4-1
		c2.9-2,5.9-4,8.8-6.1c0.7-0.5,1.3-1.2,1.8-1.8c1.8-2.4,1.8-2.4-0.7-4.1c-0.2-0.1-0.3-0.4-0.5-0.7c1-2.4,2.8-4.3,4.5-6.3
		c0.2-0.2,0.4-0.3,0.6-0.4c1-0.6,2-0.4,2.9,0.4c0.9,0.8,0.8,1.7,0.2,2.6c-0.8,1-1.6,1.9-2.5,2.9c-0.6,0.7-1.6,1.1-1.3,2.4
		c1.9,0.4,3.5-0.2,5-1.4c3-2.5,6.2-4.7,9.7-6.6c2.2-1.2,4.8-1.8,6.5-3.9c0.3-0.4,1.1-0.5,1.7-0.7c3.1-0.7,5.3-2.8,7.8-4.4
		c0.1-0.1,0.2-0.2,0.3-0.4c1-1.4,0.8-2.2-0.6-3.2c-0.6-0.4-1.2-0.9-2.4-1.7c2.5-2.1,4.6-4.1,7.2-5.4c0.4-0.2,1,0,1.4-0.1
		c0.6-0.1,1.5-0.2,1.8-0.6c1.4-1.8,3.7-2.2,5.5-3.2c1.4-0.8,2.9-1.3,4.6-1.1c1.8,0.2,3.1-0.6,3.9-2.2c0.4-0.8,0.9-1.5,1.4-2.2
		c1-1.4,3.3-2.1,4.9-1.6c1.3,0.4,1.9,1.4,1.5,2.8c-0.4,1.5-1.4,2.2-2.7,2.8c-1.3,0.5-2.6,1.2-3.9,1.7c-0.4,0.2-0.9,0.5-1.3,0.5
		c-3.3,0.1-5.8,2.1-8.6,3.4c-0.6,0.3-1.2,0.8-1.7,1.3c-1.2,1.6-2.7,2.4-4.8,2.2c-1.2-0.2-1.8,0.7-2,1.7c-0.1,0.5,0,1.3,0.4,1.6
		c0.7,0.7,1.6,0.9,2.6,0.3c2.5-1.4,5-2.8,7.5-4.1c3.8-2,7.6-4.1,11.4-6.1c0.9-0.5,1.9-0.7,2.9-1c1.3-0.3,2.8-0.2,4-0.8
		c3-1.3,5.9-2.8,8.9-4.1c2.7-1.3,5.3-2.9,8.6-2.5c1.4,0.2,2.7-0.5,3.7-1.4c1.1-1,2.3-1.4,3.7-1.4c2,0,3.7-0.6,5.5-1.3
		c2.4-1,5-1.6,7.5-2.3c1.2-0.3,2.5-0.7,3.7-0.8c2.7-0.4,5.2-1.5,8-0.8c0.7,0.2,1.6-0.1,2.3-0.4c1.4-0.5,2.7-1.3,4.1-1.7
		c1.4-0.4,2.3-1.1,2.7-2.5c0.2-0.6,0.4-1.2,0.6-1.8c0.4-1.6-0.2-2.5-1.8-2.7c-0.6-0.1-1.3,0.1-1.9,0.2c-1.4,0.1-2.8,0.2-4.3,0.3
		c-1.1,0.1-2.3,0-3.3,0.2c-0.5,0.1-1.1,0.7-1.3,1.2c-0.3,0.7,0.4,1,1,1.3c1.7,0.8,1.9,1.7,0.4,2.8c-0.6,0.4-1.3,0.7-2,0.8
		c-1.1,0.3-2.3,0.5-3.5,0.7c-2.4,0.5-3.5-0.6-3.2-2.9c0.4-2.8-1.3-4.6-4.1-4.5c-1.7,0-3.5,0-5.2,0c-0.7,0-1.4,0.2-2,0.5
		c-1.4,0.7-2.8,1.5-4.2,2.2c-2.5,1.3-2.8,2.8-1,4.9c0.2,0.2,0.3,0.3,0.5,0.5c1.2,1.6,0.7,3.6-1.2,4.3c-0.8,0.3-1.7,0.4-2.6,0.6
		c-1.9,0.3-3.7,0.8-5.4,1.8c-1.6,0.9-3.6,1.2-5.5,1.5c-0.6,0.1-1.4-0.2-2-0.5c-0.9-0.5-1-1.5-0.3-2.2c0.4-0.4,1.1-0.6,1.6-1
		c0.8-0.6,1.6-1.1,2.1-1.8c0.3-0.4,0.5-1.4,0.2-1.7c-0.3-0.5-1.2-0.9-1.8-0.8c-1,0.1-2,0.6-3,0.9c-1,0.3-2,0.8-3,0.7
		c-3.2-0.4-5.7,0.9-8.3,2.4c-1.3,0.8-2.7,1.3-4.1,1.8c-2.9,1.1-5.9,1.9-8.3,4.1c-0.7,0.6-1.8,0.8-2.8,1.2c-0.8,0.3-1.7,0.4-2.5,0.8
		c-1.5,0.7-2.9,1.7-4.4,2.5c-2.1,1.1-4.2,2.3-6.4,3.3c-0.8,0.4-1.9,0.5-2.8,0.4c-2.2-0.4-3.8,0.4-4.9,2.2c-1.7,2.9-4.4,4.4-7.6,4.9
		c-1.9,0.3-3.4,1.1-4.9,2.3c-1.8,1.5-3.5,3.2-5.5,4.2c-5.1,2.5-10,5.3-14.2,9.2c-0.9,0.8-2.1,1.4-3.3,1.9c-2.4,1.1-4.9,1.9-6.7,4
		c-0.4,0.5-1,0.8-1.6,1c-1.3,0.4-2,1.2-2.6,2.3c-0.4,0.7-1,1.6-1.7,1.9c-1.6,0.6-2.7,1.7-3.6,3.1c-0.3,0.5-0.7,1.1-1.1,1.2
		c-2.9,1-4.4,3.5-6.5,5.4c-2.1,2.1-4.9,3.5-6.9,5.8c-0.2,0.2-0.6,0.3-0.8,0.5c-2.2,1.7-4.1,3.5-5.4,6c-0.7,1.3-1.7,2.4-2.8,3.5
		c-1.8,2-4,3.7-4.7,6.5c-0.5,2.2-0.9,2.4-3.4,2.2c-0.8-0.1-1.8,0.1-2.4,0.5c-1,0.7-1.8,1.7-2.7,2.7c-0.8,1-1.5,2.1-2.4,2.9
		c-1.4,1.4-1.5,1.3-0.7,3.3c0.6,1.5,0.3,2.5-1,3.3c-1.8,1.1-3.7,2.2-5.6,3.1c-3,1.5-3.9,3.1-3.3,6.4c0.1,0.8,0.3,1.6,0.3,2.4
		c0,0.4-0.4,0.8-0.8,1.5c-0.5-0.5-0.7-0.8-1-1.1c-2-2.2-3.6-2-5.2,0.4c-1.1,1.6-0.7,2.7,1,3.4c0.5,0.2,1,0.3,1.5,0.4
		c0.4,1.4-0.3,2.1-1.1,2.8c-1.2,1.1-2.7,2-3.3,3.4c-1.1,2.4-2.8,4.2-4.7,6c-1.1,1-2.1,1.5-3.6,1.5c-2.6,0-3.6,1.2-2.9,3.6
		c0.5,1.8,0.4,3.4-0.4,5.1c-0.2,0.5-0.4,1.1-0.4,1.6c-0.1,2.1-1.2,3.6-2.9,4.7c-0.8,0.5-1.5,1.2-2,2c-1,1.5-1.9,3.1-2.7,4.8
		c-0.4,0.8-0.9,1.7-1,2.7c-0.2,1.6,0.9,2.5,2.6,2.1C815.2,272.4,815.7,272.2,816.4,272.1z M779.9,253.6c1.9-2.3,2-3,0.4-4.9
		c-1.1-1.5-1.2-1.9,0-3.3c0.6-0.7,1.3-1.4,2-2c0.3-0.3,0.9-0.7,1.2-0.6c2.3,0.6,3.8-0.5,5.2-2.1c0.2-0.3,0.8-0.3,1.1-0.5
		c1-0.8,2.1-1.6,2.7-2.6c0.7-1.2,1.2-2.6,1.5-4c0.4-2,1.2-3.8,2.8-5.1c1.5-1.2,1.8-2.7,1.4-4.7c-0.3-1.5,0-3.2,0.2-4.7
		c0.2-1.1,0.9-2.1,2.1-1.9c2.3,0.3,3.8-0.7,5.3-2.1c0.4-0.4,1.1-0.5,1.7-0.8c1.6-0.7,2.1-1.5,1.7-3.2c-0.4-1.7-0.6-3.3,0-4.9
		c0.1-0.3,0.1-0.6,0.1-0.9c0.1-0.9-0.1-1.6-0.9-2c-0.8-0.4-1.6-0.5-2.2,0.2c-0.8,0.9-1.6,1.8-2.1,2.8c-0.7,1.5-1.6,2.7-2.9,3.8
		c-1.2,1-2.2,2.3-3.2,3.5c-0.8,0.9-1.6,1.8-2.5,2.6c-0.7,0.6-1.5,0.6-2.2,0.1c-0.7-0.5-0.7-1.2-0.4-1.9c0.2-0.4,0.4-0.9,0.5-1.3
		c0.8-2.2-0.1-3.2-2.4-2.8c-2,0.3-3.3,1.6-4.2,3.2c-0.8,1.4-1.8,2.4-3.4,2.8c-1.4,0.3-2.4,1.3-3,2.6c-0.8,1.5-1.5,3-2.2,4.5
		c-0.6,1.2-0.7,2.5,0.1,3.7c0.9,1.4,0.5,2.5-0.4,3.7c-0.7,0.8-1.4,1.7-2.1,2.6c-1.2,1.7-1.5,1.8-3.6,1.3c-0.7-0.1-1.6-0.2-2.2,0.2
		c-1.6,0.9-2.9,5.1-2.2,6.8c0.3,0.7,0.8,1.6,0.7,2.2c-0.5,2.5-0.8,5.1-2.3,7.2c-0.7,1-1.5,1.7-2.8,1.1c-1.1-0.5-1.7,0-2.1,1.2
		c-0.4,1.1-1,2.1-1.5,3.2c-0.5,1.1-0.9,2.2-1.2,3.3c-0.3,1.1-0.7,1.8-1.9,1.8c-0.4,0-0.7,0.2-1.4,0.3c0.3,0.8,0.5,1.4,0.7,2.1
		c0.3,1,0.8,2,0.7,3c-0.1,1.9,0.7,3.4,1.8,4.8c1.6,2,1.5,2,0.3,4.2c-0.6,1-1.1,2.1-1.4,3.3c-0.1,0.4,0.3,1.1,0.6,1.4
		c0.4,0.2,1.3,0.2,1.5-0.1c1-1.2,2-1,3.2-0.4c1.1,0.5,1.9,0.1,2.8-0.6c2.7-2.3,3.3-5.6,4.1-8.7c0.1-0.5,0-1.4-0.3-1.8
		c-1.3-1.8-1.2-3.5-0.3-5.4c0.2-0.4,0.3-0.8,0.3-1.2c0-0.6,0-1.4-0.4-1.7c-0.3-0.3-1.2-0.2-1.7,0.1c-0.8,0.4-1.5,0.7-2.2,0
		c-0.7-0.7-0.8-1.5-0.5-2.4c0.1-0.3,0.2-0.6,0.4-0.9c0.7-1.2,1.5-2.3,2.2-3.4c1.1-1.9,2.2-3.9,3.2-5.8c0.6-1.1,1-2.3,1.7-3.4
		c1.4-2.2,2.9-4.4,4.6-6.4c1.3-1.5,2.8-2.8,4.4-4c0.5-0.4,1.4-0.5,2-0.2c0.8,0.4,0.4,1.2,0.2,1.9c-0.9,2.3-2.1,4.4-3.8,6.3
		c-1.9,2.1-3.5,4.3-5.1,6.6c-1,1.5-1.8,3.2-2.7,4.8c-0.9,1.5-0.9,2.5,0.3,3.7c1.1,1.1,1.9,2.1,1.4,3.7c-0.1,0.4,0.3,1.1,0.7,1.3
		c0.4,0.2,1.2,0,1.4-0.3c0.8-1,1.4-2.1,2-3.2c0.7-1.2,0.4-2-0.9-2.4c-0.7-0.2-1.3-0.6-1.2-1.5c0.1-1.8,1.5-2.6,3.1-1.9
		C779,253.2,779.4,253.4,779.9,253.6z M823.4,179c1-2,1.5-3.5,2.4-4.8c1.7-2.6,4.7-2.4,6,0.3c0.7,1.5,1.9,2,3.3,1.8
		c1.5-0.3,3-0.9,4.5-1.6c2.8-1.3,3.2-2.9,1.8-5.5c-0.6-1.2-1.2-2.5-1.4-3.8c-0.4-2.3,1-3.6,3.2-2.8c2.4,0.8,4.4,0.4,6.1-1.4
		c0.9-0.9,1.9-1.1,3.3-0.9c2.6,0.4,5.1-1.3,5.9-3.8c0.2-0.6,0-1.6-0.4-2.2c-0.6-0.7-1.5-1.2-2.5-0.5c-0.3,0.2-0.7,0.6-1,0.6
		c-2.7-0.2-5.1,0.6-7.3,2.3c-0.3,0.2-1.1,0.1-1.3-0.1c-0.3-0.4-0.5-1-0.4-1.5c0.1-0.5,0.5-1,0.9-1.4c0.8-0.7,1.8-1.4,2.7-2
		c1.6-1.1,2.6-2.6,3-4.4c0.3-1.3-0.5-2.6-1.8-3c-1.2-0.4-2.2,0.2-2.6,1.2c-0.9,2.4-2.3,3.9-5,3.9c-0.2,0-0.4,0.2-0.6,0.3
		c-1.7,0.6-2.7,0.1-3.3-1.7c-0.2-0.7-0.2-1.5-0.5-2.1c-0.2-0.4-0.8-0.9-1.2-1c-0.4,0-1,0.3-1.4,0.7c-0.7,0.8-0.6,1.7-0.1,2.7
		c1.4,2.9,0.3,5.2-1.8,7.3c-0.3,0.3-0.6,0.5-0.9,0.8c-1.7,1.3-2.7,3.1-3.6,5c-0.8,1.7-1.8,3.4-2.7,5.1c-0.8,1.5-1.7,2.9-2.5,4.3
		c-0.6,1.1-1.5,1.9-2.7,2.2c-1.6,0.3-3.3,0.8-5,0.7c-2-0.1-3,0.8-3.6,2.5c-1.4,3.7-1.7,7.6-2.2,11.5c-0.2,1.3,0.6,2.1,1.9,2.3
		c0.5,0.1,1,0,1.4,0c1.2-0.2,1.8,0.2,2,1.5c0.4,2.4,2.2,4,4.4,4.4c1,0.1,1.6-0.4,1.5-1.3c0-0.4-0.2-0.8-0.3-1.1
		c-1-2.9-0.2-4.3,2.9-4.7c1.3-0.2,2-0.7,2.3-2c0.4-1.5,0.9-3,1.5-4.5c0.8-1.8,0.2-2.8-1.7-2.8C825.7,179,824.8,179,823.4,179z
		 M756.7,387c0.6,0.6,1,1.1,1.4,1.6c0.5-0.5,1-0.9,1.4-1.4c0.2-0.3,0.3-0.7,0.5-1.1c2.1-5.3,2.5-10.9,3.3-16.4
		c0.5-3.2,0.7-6.5,2.4-9.4c0.6-0.9,0.8-2.1,1.2-3.1c0.7-2,1.7-4,1.9-6.1c0.3-2.7,1.3-5,2.5-7.4c1-2,1.9-4.1,2.3-6.2
		c0.3-1.6,0.9-3,1.5-4.5c0.4-1,0.8-2.1,1.2-3.1c0.9-3.1,1.8-6.1,3.6-8.8c0.8-1.2,1.2-2.8,1.8-4.1c0.8-1.7,1.5-3.5,2.3-5.2
		c1.6-3.5,3.3-7.1,4.9-10.6c0.5-1.1,1.1-2.1,1.6-3.1c0.7-1.3,1.6-2.6,2.3-3.9c0.3-0.6,0.3-1.6-0.5-1.8c-0.6-0.2-1.5-0.1-1.9,0.3
		c-1.3,1-1.9,2.5-2.1,4.2c-0.1,0.8-0.1,1.7-0.5,2.3c-1.6,2.1-2.2,4.6-3.5,6.7c-1.9,3.2-3.2,6.7-4.8,10c-1.8,3.6-3.7,7.1-5.5,10.6
		c-0.3,0.5-0.3,1.1-0.5,1.6c-0.5,1.2-1,2.4-1.5,3.5c-0.5,1.1-1.1,2.1-1.5,3.3c-1.2,3.2-2.2,6.5-3.4,9.7c-0.7,2-1.7,4-2.4,6
		c-0.4,1.2-0.6,2.5-0.8,3.7c-0.3,1.3-0.4,2.7-1,3.9c-1.1,2.2-1.8,4.4-2.1,6.8c-0.2,1.2-0.6,2.3-1,3.4c-0.6,1.9-1.1,3.9-0.5,5.9
		c0.6,2.1,0.1,4.1-0.6,6.1c-0.4,1.1-0.9,2-1.3,3.1C757.2,384.4,757,385.7,756.7,387z M1313.7,530.7c3.1-0.7,4.5-2.9,4-5.1
		c-0.3-1.1-0.9-2-1.4-3c-0.6-1-1.3-2-1.9-3c-0.7-1.3-0.6-2.4,0.5-3.4c0.5-0.4,1-1.2,0.9-1.8c-0.2-1.7-1.6-2.5-3.1-3
		c-1.3-0.5-2.8-0.8-3.7,0.5c-2.4,3.4-5.5,6.1-8.9,8.5c-1.5,1.1-2.6,2.7-4.6,3.2c-1.7,0.5-1.8,2-0.4,3.3c1.4,1.2,2.7,2.5,4,3.7
		c1.7,1.5,3,1.8,4.7,0.3c1.5-1.4,3-1.4,4.8-0.9C1310.6,530.5,1312.6,530.6,1313.7,530.7z M1095.5,270.9c0.3,0.2,0.9,0.9,1.4,0.9
		c0.5-0.1,1-0.8,1.4-1.4c0.1-0.1,0.1-0.5,0-0.7c-0.2-1.6,0.6-2.8,1.8-3.7c2.1-1.6,2.6-3.6,2.4-6.1c-0.2-2.3,0.8-4,2.9-5.1
		c0.8-0.5,1.8-0.8,2.6-1.3c1.9-1.1,2.7-2.9,2.8-5c0-1.7-1-2.5-2.7-2.1c-0.9,0.2-1.8,0.6-2.8,0.7c-1.9,0.4-2.8,1.3-2.5,3.3
		c0.3,2.2-0.7,3.8-2.1,5.4c-1,1.2-2.3,1.3-3.7,0.8c-0.6-0.2-1.1-0.6-1.7-0.8c-0.7-0.1-1.7-0.3-2.3,0c-1.6,0.8-2.8,2.1-3.5,3.8
		c-0.5,1.3-0.3,2.5,0.8,3.5c0.8,0.7,1.6,1.3,2.5,1.8c1.6,1,2.6,2.3,2.7,4.3C1095.4,269.8,1095.5,270.1,1095.5,270.9z M864.6,145.3
		c0.4-0.4,0.8-0.6,1.1-1c2-2.5,2-2.5,4.9-1.4c0.5,0.2,1.3,0.3,1.8,0.1c1.4-0.7,2.8-1.5,4.1-2.4c0.6-0.5,1.2-1.4,1.3-2.1
		c0.1-1.1-1.1-0.9-1.8-1.1c-2.2-0.5-2.9-1.5-2.4-3.8c0.2-0.9,0.5-1.7,0.7-2.5c0.3-1.5-0.3-2.8-1.6-3.4c-1.2-0.5-1.8-0.3-3,1.1
		c-0.1,0.1-0.2,0.3-0.3,0.4c-1,1.3-1.6,1.3-2.6,0.1c-2-2.5-2.9-2.6-4.9,0c-0.2,0.3-0.5,0.7-0.7,1c-1.7,2.9-1.7,4.4,0.6,6.9
		c1.4,1.5,1.8,3.3,1.8,5.3C863.6,143.4,863.3,144.4,864.6,145.3z M1338.7,498c0.1,0,0.1-0.1,0.2-0.1c-0.9-1.9-1.7-3.9-2.9-5.7
		c-0.4-0.6-1.6-1-2.5-1.1c-1.7-0.1-3,1.2-3.4,3.1c-0.3,1.4-0.6,2.8-0.9,4.2c-0.3,1.3,0.1,2,1.4,2.3c0.6,0.1,1.3,0,1.9,0.1
		c0.8,0.2,1.7,0.4,2.5,0.7c0.7,0.3,1,1,0.7,1.8c-0.3,0.8-0.9,0.8-1.6,0.6c-0.5-0.1-1.1-0.2-1.6-0.3c-1.9-0.2-2.9,1-2.1,2.8
		c0.3,0.8,0.9,1.5,1.4,2.2c1.7,2.1,3,2.2,4.4,0c1.5-2.3,3.2-2.9,5.6-2c0.2,0.1,0.5,0.1,0.7,0.2c1.4,0.4,2.3-0.1,3-1.3
		c0.7-1.3,1.6-2.6,2.3-3.9c1.1-1.9,0.7-2.9-1.4-3.5c-1.3-0.4-2.4,0-3.4,0.7c-0.5,0.4-0.9,0.9-1.5,1.2c-1.3,0.9-2.3,0.5-2.6-1
		C1338.7,498.7,1338.7,498.4,1338.7,498z M916.9,414.2c-0.4-1.7-1.5-2.1-2.8-1.1c-1.1,0.8-2.2,1.6-3.3,2.4c-1.1,0.8-1.7,1.9-1.3,3.3
		c0.5,1.7,0,3.1-0.9,4.5c-0.2,0.3-0.5,0.5-0.5,0.8c0,0.6,0,1.3,0.3,1.7c0.1,0.2,1,0,1.5-0.2c0.3-0.1,0.5-0.4,0.7-0.6
		c1.5-1.2,2-1.3,3.6-0.2c1,0.7,1.9,1.1,3.1,0.6c3.3-1.1,4.3-4.7,1.9-7.3C918,417,916.8,415.9,916.9,414.2z M784.9,328.4
		c-0.6,0.4-1.6,0.8-1.8,1.3c-0.6,1.7-1,3.5-1.1,5.3c-0.1,0.6,0.7,1.4,1.3,1.8c0.7,0.5,1.6,0.2,2.1-0.5c0.9-1.3,1.7-2.7,2.5-4
		c0.4-0.8,0.5-1.8,1.1-2.4c1.9-2.3,2.8-5,3.9-7.6c0.4-1,0.8-2.5,0.4-3.4c-0.8-1.5-1.5-2.9-1.7-4.7c0-0.4-0.5-0.9-0.8-1
		c-0.3-0.1-0.8,0.3-1.1,0.6c-1,1.2-0.6,2.5-0.3,3.9c0.4,1.8,0,2.2-1.8,2.6c-0.6,0.1-1.4,0.4-1.7,0.9c-0.6,0.8,0.2,1.5,0.8,2
		c0.3,0.3,0.8,0.6,1,1c0.2,0.4,0.4,0.9,0.4,1.3C787.9,327,786.5,328.3,784.9,328.4z M923.9,102.8c2-0.6,3.9-1.3,5.9-1.9
		c0.2,0,0.3-0.1,0.4-0.2c2.6-1.3,3.1-4,0.8-5.8c-1.4-1.1-3.1-1.9-4.8-2.4c-2.3-0.6-4.1,0.7-4.5,3c-0.2,1.1-0.6,1.9-1.5,2.5
		c-1.1,0.9-1.2,1.7-0.5,2.9C920.5,102.6,922.1,103.3,923.9,102.8z M1127.3,279.6c-0.3-1-1.3-1.4-1.9-0.9c-0.5,0.5-0.8,1.1-1.3,1.7
		c-0.6,0.9-1.3,1.8-1.9,2.7c-0.8,1.2-1.8,2.2-2.4,3.5c-1.5,3.2-2.9,6.4-5.1,9.2c-0.6,0.8-1.1,1.7-1.7,2.6c-1.9,3.1-2,3.1,0.9,4.8
		c0.4,0.2,0.7,0.6,1.1,0.9c1.1,0.6,2,0.5,2.3-0.7c0.3-1,0.4-2.2,0.1-3.2c-0.5-2.2-0.1-4.1,1.1-5.9c1.2-1.9,2.2-3.9,3.4-5.8
		c1.2-1.9,2.5-3.7,3.7-5.6c0.5-0.7,1-1.5,1.4-2.2C1127.1,280.3,1127.2,279.8,1127.3,279.6z M348.3,645.1c-1.8,0.4-2.6,1.1-2.4,2.1
		c0.2,0.9,1.2,1.5,2.5,1.3c0.9-0.1,1.8-0.5,2.8-0.7c3-0.7,5.9-1.8,9.1-0.9c0.8,0.2,2,0.2,2.5-0.2c2.3-2.1,4.8-2.5,7.7-1.6
		c1.3,0.4,2.2-1,1.8-2.3c-0.6-1.9-3.3-3.1-5.1-2.2c-2.2,1.1-4.4,2.2-6.6,3.4c-0.9,0.5-1.7,0.7-2.7,0.4c-1.4-0.4-2.8-0.3-4.2,0.4
		c-0.8,0.4-1.8,0.4-2.8,0.5C349.9,645.2,348.9,645.1,348.3,645.1z M1037.3,323.5c-0.1-0.2-0.3-0.3-0.4-0.5c-0.3,0-0.7-0.1-0.9,0.1
		c-1.4,1.9-3.5,2.1-5.6,2.1c-1.5,0-2.4,0.9-2.8,2.2c-0.7,1.8-1.9,3.1-3.1,4.5c-1,1.2-1.7,2.7-2.3,4.1c-0.3,0.8,0.1,1.6,0.9,2
		c0.9,0.5,1.4,0,2.1-0.6c0.8-0.7,1.6-1.6,2.6-1.9c1.4-0.5,2.2-1.4,2.6-2.8c0.3-1,0.9-2.2,1.7-2.7
		C1034.8,328.3,1035.4,325.5,1037.3,323.5z M1217.2,631.8c2.5-0.4,3.6-1.1,4.3-2.9c0.2-0.6,0.4-1.3,0.2-1.8c-0.6-1.5-2-2.3-3.4-2.9
		c-1.1-0.5-1.9,0.5-2.7,1.1c-0.8,0.6-1.7,1.3-2.6,1.5c-3.5,0.6-3.9,1.2-3,4.6c0.1,0.2,0.1,0.5,0.2,0.7c0.7,2.1,2,2.5,3.9,1.4
		C1215.2,632.9,1216.2,632.4,1217.2,631.8z M863.3,446.7c-1.3,0.2-1.8,0.9-2,1.9c-0.3,1.4-1.1,2.2-2.2,3c-0.6,0.4-1.2,0.9-1.5,1.5
		c-0.2,0.5-0.2,1.4,0.1,1.7c0.4,0.4,1.3,0.4,1.9,0.4c0.3,0,0.6-0.3,0.8-0.5c1.1-1.2,2.2-1.3,3.7-0.6c1.6,0.7,2.3,0.3,2.9-1.4
		c0.7-2.1,1.8-4.1,3.4-5.7c0.3-0.3,0.5-1.3,0.2-1.6c-0.3-0.4-1-0.6-1.6-0.7c-0.3-0.1-0.6,0.2-0.9,0.3
		C866.7,446,865.1,447,863.3,446.7z M1071.1,122.9c0.4,1.1,1.4,1.4,2.4,1.7c3.8,1.1,7.2,3.2,11.3,3c0.2,0,0.5,0.2,0.7,0.2
		c0.4-0.1,1-0.1,1.3-0.4c1-1.2,1.7-2.6,1.3-4.2c-0.3-1.4-1.6-1.9-2.8-2.3c-1.1-0.3-2.1-0.2-3.2,0.6c-2.6,1.9-5.3,3.1-8.2,0.7
		c-0.2-0.2-0.6-0.3-0.9-0.4C1072.1,121.7,1071.4,121.8,1071.1,122.9z M434.8,637c0.7-0.2,1.4-0.4,2-0.7c1.5-0.6,2.5-1.8,2.3-2.7
		c-0.2-0.9-1-1.2-2.9-1.3c-2.7-0.2-5.6,0.1-6.9-3.1c0-0.1-0.1-0.2-0.2-0.2c-0.6-0.2-1.4-0.6-1.9-0.5c-0.9,0.3-0.9,1.1-0.7,2
		c0.3,1.2,0.6,2.5,0.7,3.7c0.1,1.2,0.8,1.9,1.7,2.4C430.9,637.7,432.9,637.5,434.8,637z M1146.1,246.7c0.1,0,0.1-0.1,0.2-0.1
		c0-0.3,0-0.7-0.1-0.9c-0.3-0.4-0.6-1.1-1-1.1c-0.4,0-0.8,0.5-1.2,0.9c-0.1,0.1-0.1,0.5-0.2,0.7c-0.6,1.9-1.6,3.4-3.7,3.9
		c-1.4,0.3-2.5,1.2-2.7,2.7c-0.1,0.7,0,1.7,0.5,2.1c0.6,0.7,1.3-0.1,1.8-0.6c1.3-1.2,2.7-1.6,4.4-1.1c0.7,0.2,1.3,0.6,2,0.9
		c1.2,0.4,1.7,0.2,2.3-0.9c0.7-1.3,0.3-2.4-0.5-3.5C1147.2,248.6,1146.7,247.6,1146.1,246.7z M850.4,188.8c-4.6,1-5.2,1.3-7,4.4
		c-0.2,0.4-0.5,0.8-0.6,1.3c-0.7,1.8-1.8,3.1-3.8,3.6c-1.4,0.4-2.5,1.4-3.1,2.8c-0.3,0.7-0.5,1.4,0.2,2c0.7,0.6,1.5,0.6,2.2,0.1
		c0.4-0.3,0.9-0.7,1.2-1.1c0.9-1.1,1.7-2.3,2.6-3.4c0.8-0.9,1.5-2,2.5-2.5c2.7-1.2,3.9-3.7,5.6-5.8
		C850.4,189.9,850.3,189.3,850.4,188.8z M895.4,118.2c0.5,0.6,0.9,1.3,1.4,1.8c0.9,0.7,1.9,0.5,2.4-0.5c0.9-1.7,1.7-3.4,2.5-5.1
		c0.4-0.8,0.3-1.6-0.3-2.2c-0.8-0.8-1.6-1.6-2.5-2.2c-1.6-1.2-3-0.5-3.2,1.5c-0.1,1.3-0.3,2.5-0.4,3.8
		C895.4,116.1,895.5,117.1,895.4,118.2z M897.2,430c0.8,2.8,1.4,3.9,2.8,4.7c2,1.3,3.4,0.7,3.8-1.6c0.3-1.7,0.4-3.5,0.5-5.2
		c0.1-1.1-0.6-1.8-1.6-2.1c-1.5-0.4-4.9,1.4-5.3,2.9C897.2,429.2,897.2,429.8,897.2,430z M964.3,391.7c1.5-0.2,2.4-1.5,1.8-2.9
		c-0.5-1.2-0.9-2.4-0.3-3.7c0.1-0.2-0.2-0.7-0.4-1c-0.2-0.1-0.6-0.1-0.9,0c-0.3,0.1-0.5,0.4-0.7,0.6c-1,1.6-2.5,1.9-4.2,1.3
		c-1-0.4-1.9-0.5-2.5,0.6c-0.6,1.1-0.3,2,0.5,2.8C959.5,391.4,961.6,392.5,964.3,391.7z M339,645.2c0.5-0.4,0.9-0.6,1.3-0.9
		c0.5-0.3,1-0.5,1.4-0.9c0.9-0.8,0.8-1.8-0.2-2.3c-1.6-0.9-5.3,0.6-5.5,2.4c-0.2,1.6-0.9,2.6-2.4,3.2c-0.4,0.2-0.9,0.5-1.1,0.8
		c-0.3,0.5-0.8,1.2-0.6,1.5c0.2,0.4,1,0.8,1.5,0.8c1.7-0.1,3.5-0.4,5.2-0.7c1.2-0.2,1.5-0.8,1.1-1.9
		C339.6,646.5,339.3,645.9,339,645.2z M1089.6,279c-0.3-1.1-1.2-1.5-2-0.9c-1.7,1.3-3.5,1.3-5.5,0.8c-0.5-0.1-1-0.2-1.4-0.1
		c-1.7,0.3-2.3,1.9-1.2,3.2c0.8,1,1.8,1.8,2.7,2.7c0.9,0.8,2,0.8,2.8,0c1.4-1.3,2.7-2.7,3.9-4.2
		C1089.3,280.1,1089.4,279.4,1089.6,279z M885.3,119.1c-0.4-1.5-1.4-2-2.8-1.5c-1,0.3-2.1,0.6-3.1,1c-0.7,0.3-1.5,0.7-1.7,1.3
		c-0.2,0.4,0.4,1.2,0.9,1.7c0.9,1.1,2.4,1.8,2.7,3.5c0.2,1,0.8,1.5,1.8,1.5c1-0.1,1.5-0.9,1.6-1.8c0.2-1.6,0.5-3.1,0.6-4.7
		C885.4,119.8,885.4,119.4,885.3,119.1z M850.5,454.4c-2.1,0.9-3.8,1.7-5.5,2.4c-0.4,0.2-0.9,0.5-1.1,0.9c-0.4,0.8-1,1.8-0.9,2.6
		c0.2,1.1,1.3,1.6,2.3,1.7c0.7,0,1.4-0.2,2-0.5c0.7-0.3,1.3-1.1,2.1-1.2c2.5-0.3,2.7-2.1,2.9-4C852.4,454.9,851.4,454.1,850.5,454.4
		z M1012.4,362.6c0.6-0.7,0.9-1,1.2-1.4c0.6-1.1,1.7-2.1,1-3.5c-0.8-1.4-2.3-1.5-3.7-1.7c-0.3,0-0.6,0-0.9,0.1
		c-1.7,0.5-3.5,1-5.2,1.6c-0.6,0.2-1.1,0.7-1.4,1.2c-0.3,0.5-0.4,1.3-0.1,1.7c0.3,0.5,1,0.8,1.6,0.8c0.4,0,1-0.5,1.3-0.8
		c1.9-1.9,2.3-1.9,4.1,0.1C1010.7,361.3,1011.5,361.9,1012.4,362.6z M910.9,107.5c-1-1.6-1.9-3.2-3.1-4.6c-0.7-0.9-2.4-1-3.1-0.4
		c-1,0.7-0.9,1.7-0.6,2.8c0.3,1.1,0.6,2.3,0.6,3.4c0.1,1,0.3,1.9,1.3,2.3c1.2,0.5,2.3,0.5,3.3-0.5
		C910.3,109.7,911,108.8,910.9,107.5z M1325.8,503.5c-0.4-1.4-1.9-1.9-2.6-0.9c-0.8,1.1-1.6,2.3-1.8,3.6c-0.2,1.7-0.5,3.3-1.2,4.8
		c-0.2,0.5-0.2,1.3,0.1,1.7c0.5,0.7,1.4,0.7,2.2,0.3c0.6-0.3,1-0.7,1.6-1c1.4-0.8,1.9-2,1.7-3.6c-0.2-1.2,0-2.4,0-3.5
		C1325.7,504.2,1325.8,503.8,1325.8,503.5z M838.6,488.3c-1.8,0.4-2.4,1.4-2.8,2.6c-0.4,1.2,0.3,2,1.2,2.6c1.2,0.8,2.4,1.6,3.7,2.2
		c1.4,0.7,2.4,0,2.4-1.5c0-0.8-0.1-1.6-0.2-2.4C842.6,489.2,840.7,487.8,838.6,488.3z M1136.5,260.6c-0.6-0.4-1.2-1-2-1.2
		c-1.1-0.2-1.8,0.5-2.2,1.5c-0.8,2.6-1.6,5.2-2.4,7.7c-0.3,0.8-0.2,1.8,0.7,2c0.5,0.2,1.3-0.3,1.9-0.6c0.3-0.1,0.5-0.4,0.6-0.7
		c1.1-2.4,2.2-4.8,3.2-7.2C1136.5,261.8,1136.5,261.4,1136.5,260.6z M1050.6,316.8c-0.8,1-1.6,1.9-2.3,2.9c-0.3,0.5-0.6,1.4-0.3,1.9
		c0.3,0.8,1.3,0.8,2.1,0.6c1.3-0.5,2.7-1,4-1.5c1.2-0.5,1.5-1.7,0.7-2.7c-0.3-0.4-0.8-0.8-1.3-1.1c-1.1-0.6-1.8-1.4-2.1-2.7
		c-0.1-0.6-0.6-1.3-1.1-1.8c-0.6-0.6-1.5-1-2.1-0.1c-0.3,0.4-0.2,1.4,0.1,1.9C1049,315,1049.7,315.7,1050.6,316.8z M1068.6,300.1
		c-0.7-1.5-1.3-2.9-2.2-4.1c-0.4-0.5-1.4-1-2-0.9c-0.5,0.1-0.8,1-1.1,1.6c-0.1,0.2,0,0.6,0,0.9c0,1.2-0.1,2.4-0.1,3.6
		c0,0.7-0.2,1.4-0.1,2.1c0.1,1.1,1.2,1.8,2.2,1.7C1066.9,304.8,1069,301.4,1068.6,300.1z M1057.2,303.5c-1.1-1.5-2.2-3.1-3.4-4.4
		c-0.8-0.9-2.3-0.2-2.1,1c0.2,2-0.2,3.8-0.7,5.6c-0.2,0.8-0.1,1.6,0.8,2.1c0.7,0.4,1.6,0.7,2.2,0.1c1.1-0.9,2-2,2.9-3.1
		C1057.2,304.6,1057.1,304,1057.2,303.5z M932.1,90c1.6,1.3,3,2.5,4.5,3.5c1.2,0.9,2,0.7,2.4-0.7c0.6-1.9,0.7-4,0.1-5.9
		c-0.4-1.4-1.6-1.8-2.8-1c-1,0.7-2.1,1.5-3,2.3C932.7,88.8,932.5,89.5,932.1,90z M1291.5,543.2c-0.7-2.6-3.5-3.4-5.3-1.5
		c-1,1-1.7,2.3-2.4,3.5c-0.5,0.7-0.3,1.6,0.3,2.2c0.7,0.7,1.5,0.7,2.4,0.2c1.2-0.6,2.4-1.2,3.6-1.8
		C1291.3,545.3,1291.8,544.4,1291.5,543.2z M978.4,377.4c1.8-1.5,3.6-2.9,5.1-4.4c0.6-0.6,0.8-1.5,1.2-2.3c0.3-0.7,0.4-1.5-0.4-1.8
		c-0.4-0.2-1.1,0.2-1.6,0.4c-0.2,0.1-0.3,0.3-0.5,0.5c-0.9,1.3-2,2.2-3.6,2.5c-1.4,0.3-2.1,1.3-2.5,2.6c-0.1,0.5,0,1.2,0.3,1.5
		C976.9,376.9,977.6,377.1,978.4,377.4z M858.2,140.3c-0.4-1.8-1.7-2.7-3.3-3c-0.6-0.1-1.6-0.1-1.9,0.3c-0.3,0.4-0.3,1.3-0.1,1.9
		c0.5,1.7,1.2,3.3,1.8,4.9c0.1,0.4,0.3,0.8,0.5,1.1c0.6,0.8,1.4,0.9,1.9,0C858.1,143.9,858.6,142.1,858.2,140.3z M947.1,85.1
		c0-0.8-0.1-1.9-1.4-1.9c-1.3-0.1-1.7,1.1-2,2.1c-0.9,2.9,0.8,5.4,4.1,6.1c0.9,0.2,1.8,0.1,2.3-0.8c0.5-1.1-0.2-1.6-1-2.1
		C947.9,87.7,947.3,86.7,947.1,85.1z M753.7,302c-0.8-0.6-1.5-1.4-2.3-1.7c-1.1-0.4-1.7,0.5-2.2,1.4c-0.4,0.8-0.8,1.6-1.1,2.4
		c-0.3,0.8-0.7,1.6-0.9,2.4c-0.2,0.9,0.3,1.5,1.1,1.8c0.8,0.3,1.4,0.1,1.9-0.6c0.8-1.1,1.7-2.1,2.4-3.2
		C753.1,303.9,753.3,303,753.7,302z M815.3,255.7c-0.2-1.4-1.4-2-2.6-1c-1.3,1.1-2.3,2.5-2.6,4.2c-0.3,1.4,1,2.8,2.7,3
		c1.3,0.2,2.3-0.6,2.4-2.1C815.4,258.5,815.3,257.1,815.3,255.7z M1057.5,308.2c-1.6,0.5-2.6,2.3-2.2,4c0.4,1.4,2.2,2.5,3.6,2
		c1.4-0.4,3.2-3.2,2.8-4.4C1061.3,308.8,1058.9,307.8,1057.5,308.2z M819.1,481c-1,0.9-2.1,1.7-2.9,2.7c-0.9,1.2-0.7,2.6,0.4,3.4
		c1.1,0.8,2.5,0.8,3.4-0.3c0.7-0.8,1.2-1.7,1.7-2.6c0.5-0.8,0.8-1.6,0.1-2.4C821.2,481,820.3,480.9,819.1,481z M804.3,248.8
		c0.3-0.5,1-1.2,1.1-2c0.6-2.4,2.2-4.2,3.7-6c0.5-0.6,1-1.2,1.4-1.9c0.5-1,0-1.9-1.1-1.7c-0.7,0.1-1.7,0.4-2.1,0.9
		c-0.6,0.9-1.2,2-1.3,3c-0.1,1.9-1,3.3-2.4,4.5c-0.6,0.5-1,1.2-1.3,1.9C802.1,248.4,803.1,249.3,804.3,248.8z M1080.3,287.8
		c-0.2-1.5-1.5-2.3-2.6-1.6c-1.5,1-2.5,2.4-2.8,4.3c-0.2,1.1,0.6,2.1,1.7,2.6c1.1,0.4,1.8,0,2.5-0.8
		C1080.3,290.9,1080.4,289.3,1080.3,287.8z M755.5,294.3c0.3-0.3,0.7-0.7,1.1-1.2c1.5-2,1.3-4.4,1.6-6.6c0.1-0.5-0.3-1.1-0.5-1.7
		c-0.5,0.3-1.3,0.5-1.5,0.9c-1,2.2-1.9,4.5-2.7,6.8C753.2,293.5,754.4,294.5,755.5,294.3z M891.1,476.5c-0.2-1-1.5-1.8-2.4-1.4
		c-1.2,0.5-2.3,1.2-3.3,2c-1.2,1-1,2,0.4,2.9c0.6,0.4,1.2,0.8,1.9,1c0.4,0.1,1,0.1,1.4-0.1C890.1,480.3,891.3,477.6,891.1,476.5z
		 M1155.4,172.5C1155.4,172.5,1155.4,172.5,1155.4,172.5c0-0.2,0-0.5-0.1-0.7c-0.4-0.4-0.9-1.1-1.3-1.1c-0.9,0.1-0.6,0.9-0.6,1.5
		c0.1,1.9,0.1,3.8,0.2,5.7c0,1,0.1,1.9,0.3,2.9c0.1,0.8,0.2,1.7,1.3,1.6c1-0.1,1.3-0.8,1.4-1.7c0-0.3,0.1-0.6,0-1
		C1156.2,177.4,1155.8,175,1155.4,172.5z M726.3,339.4c1-0.8,1.9-1.8,3-2.5c1.2-0.8,1.6-1.7,1.2-3c-0.2-0.6-0.3-1.2-0.3-1.9
		c-0.1-1-0.5-1.8-1.6-1.7c-1.1,0-1.3,0.9-1.5,1.8c-0.4,1.7-0.8,3.3-1.3,5C725.8,337.9,725.4,338.7,726.3,339.4z M1151.4,661.2
		c0.1-0.1,0.3-0.1,0.4-0.2c1-0.7,2.1-4,1.8-5.2c-0.3-1-1.6-1.8-2.4-1.3c-1.1,0.6-2.5,4.1-2.2,5.3
		C1149.3,660.7,1150.5,661.4,1151.4,661.2z M858.4,424.3c-1.3,0.6-2.2,1.1-3.1,1.5c-0.7,0.3-1.5,0.6-2.1,1c-0.4,0.3-0.8,1.1-0.7,1.5
		c0.1,0.5,0.8,1.1,1.3,1.2c0.7,0.1,1.5-0.2,2.2-0.5c0.9-0.4,1.8-1,2.6-1.6c0.4-0.3,0.9-0.5,1.1-0.9c0.2-0.5,0.3-1.3,0.1-1.7
		C859.4,424.5,858.7,424.4,858.4,424.3z M956.9,397.9c-0.7-1-1.1-1.9-1.7-2.6c-0.8-1-1.8-1.1-2.7-0.4c-0.8,0.6-1.3,2.1-0.6,3
		c0.5,0.8,1.3,1.4,2,2c0.7,0.6,1.7,1,2.4,0.3C956.7,399.6,956.7,398.6,956.9,397.9z M869.6,487.6c-0.3-1.2-2.1-2.1-3.2-1.8
		c-1.3,0.4-2.3,2-2,3.1c0.3,1.2,2.2,2.3,3.4,1.9C868.9,490.6,869.9,488.8,869.6,487.6z M997.2,366.3c0.2-0.2,0.4-0.3,0.6-0.5
		c-0.2-1.4-0.3-2.8-0.5-4.2c-0.2-1.4-1.1-2.1-2.2-1.9c-1,0.2-2.1,1.6-1.7,2.5c0.4,1.1,1.1,2.1,1.9,3
		C995.7,365.7,996.5,365.9,997.2,366.3z M826.6,212.8c0.4,2.2,1.7,2.7,2.9,1.8c0.6-0.5,1.2-1.1,1.6-1.8c0.8-1.2,0.6-2-0.3-2.7
		c-1.1-0.8-2.5-0.8-3.2,0.2C827,211.2,826.8,212.3,826.6,212.8z M744.1,294.7c-1.2,0.3-3,2.8-2.9,4.1c0.1,1.1,1.6,1.9,2.6,1.2
		c1.3-0.9,2-2.3,2.1-3.9C745.9,295.2,744.9,294.5,744.1,294.7z M789.3,514.4c1-0.3,1.7-2,1.4-3.2c-0.4-1.2-1.6-1.9-2.8-1.6
		c-1,0.3-2,1.9-1.7,2.8C786.4,513.6,788.2,514.7,789.3,514.4z M864.6,462.2c-1.2,0.2-2.2,1.5-2,2.5c0.2,0.9,1.8,1.8,2.9,1.6
		c1.3-0.2,2.6-1.8,2.4-2.8C867.6,462.6,866.1,462,864.6,462.2z M1078.9,626.6c0.3-0.1,0.7-0.2,1-0.4c1.1-0.6,1.6-1.7,1.1-2.6
		c-0.4-0.9-1.5-1.1-2.7-0.6c-0.8,0.4-1.6,0.7-2.2,1.3c-0.4,0.3-0.6,1.1-0.4,1.6c0.1,0.3,0.8,0.7,1.3,0.8
		C1077.5,626.9,1078.2,626.7,1078.9,626.6z M796.9,201.9c0.7,0.5,1.2,1.1,1.8,1.2c0.9,0.2,1.3-0.6,1.4-1.3c0.2-1.3,0.3-2.7,0.3-4
		c0-0.4-0.5-1-1-1.1c-0.3-0.1-1,0.2-1.1,0.5C797.8,198.7,797.4,200.2,796.9,201.9z M1063.8,281.6c-0.8,0.2-2.3,2.3-2.4,3.6
		c0,0.6,0.2,1.4,0.5,1.6c0.4,0.3,1.2,0.1,1.7-0.1c1-0.5,2-2.7,1.8-3.9C1065.4,282,1064.6,281.5,1063.8,281.6z M887.8,438.8
		c-0.3-1-1.9-1.9-2.9-1.6c-1,0.3-1.7,1.7-1.4,2.7c0.3,1.1,1.8,2.1,2.8,1.9C887.2,441.4,888.1,439.8,887.8,438.8z M796.8,284.5
		c0.8-1,1.6-1.8,2.1-2.7c0.3-0.5,0.4-1.3,0.2-1.7c-0.3-0.4-1-0.7-1.6-0.7c-1.2-0.1-1.9,0.7-2.3,1.8
		C794.8,282.3,795.2,283.3,796.8,284.5z M1206.5,638.5c1-0.2,1.9-1.8,1.7-2.8c-0.2-1.1-1.6-2.1-2.7-1.9c-0.9,0.2-1.7,1.5-1.5,2.7
		C1204.2,637.6,1205.5,638.7,1206.5,638.5z M1002.1,117.4c1.1-0.3,1.8-1.2,1.5-2c-0.3-1.1-2.1-2.2-3.3-1.9c-1,0.2-1.6,1.1-1.3,2.2
		C999.4,116.8,1000.8,117.7,1002.1,117.4z M980.2,367c1-0.2,2-2,1.8-3.1c-0.2-0.9-0.9-1.4-1.8-1.3c-1.3,0.1-2.4,1.9-2,3.1
		C978.4,366.6,979.3,367.2,980.2,367z M972.5,698.7c-1.3,0-2.4,0-3.5,0.1c-0.5,0.1-1.2,0.5-1.4,1c-0.2,0.3,0.1,1.1,0.4,1.4
		c1,1,2.3,0.5,3.3,0C972.4,700.8,973,700,972.5,698.7z M1344.3,488.1c0.9-0.2,1.8-1.5,1.6-2.4c-0.2-0.9-1.7-1.8-2.7-1.6
		c-0.9,0.2-1.6,1.2-1.4,2.2C1342,487.5,1343.1,488.4,1344.3,488.1z M878.3,473.9c-0.2-0.7-1.4-1.3-2.2-1c-1.1,0.4-2,2.1-1.6,3.1
		c0.4,0.8,1,1.3,1.9,1C877.4,476.6,878.6,474.7,878.3,473.9z M1279.7,552.1c-0.2-0.7-1.3-1.2-2.2-1c-1.2,0.3-1.9,1.6-1.6,2.8
		c0.3,0.9,1.1,1.4,2,1.1C1279,554.5,1280,553,1279.7,552.1z M811.9,502.5c-0.2-0.1-0.4-0.5-0.8-0.6c-1.3-0.4-3.1,1.1-3,2.4
		c0.1,0.8,0.4,1.4,1.3,1.4C810.6,505.9,812.3,503.8,811.9,502.5z M793.7,453.2c-1.1,0.3-2,1.6-1.7,2.5c0.2,0.7,1.4,1.3,2.1,1.1
		c1-0.3,2.1-1.9,1.8-2.8C795.6,453.2,794.7,452.9,793.7,453.2z M1034.4,377.3c-0.2-0.9-1.2-1.5-2-1.3c-1,0.2-2,1.6-1.8,2.5
		c0.2,0.8,1.2,1.3,2.1,1.1C1033.8,379.3,1034.6,378.1,1034.4,377.3z M878.7,485.9c0.8-0.2,1.4-1.4,1.2-2.1c-0.3-0.9-1.9-1.8-2.8-1.5
		c-0.9,0.3-1.3,1-1.1,1.9C876.2,485.2,877.9,486.2,878.7,485.9z M1324.2,538.5c-0.4-0.2-1.1-0.7-1.7-0.7c-1,0.1-2.1,1.8-1.8,2.7
		c0.3,0.9,1,1.1,1.9,0.9C1323.7,541.1,1324.6,539.8,1324.2,538.5z M1335.5,530.9c0.9-0.2,1.7-1.4,1.6-2.1c-0.1-0.8-1.4-1.5-2.3-1.3
		c-0.9,0.2-1.9,1.5-1.7,2.3C1333.3,530.5,1334.6,531.2,1335.5,530.9z M1052.6,122.7c-1.4-1.7-3-0.4-4.4-0.7c-0.3-0.1-0.9,0.5-1,0.7
		c0,0.3,0.4,0.9,0.7,1.1c0.8,0.3,1.7,0.3,2.6,0.5C1051.7,124.5,1052.2,123.8,1052.6,122.7z M1011.5,347.4c-0.3-0.9-1.3-1.2-1.9-0.6
		c-0.6,0.7-1.1,1.6-1.5,2.4c-0.3,0.9,0.6,1.7,1.6,1.5C1010.7,350.5,1011.8,348.4,1011.5,347.4z M391.5,638.8
		c-0.8,0.2-1.6,1.7-1.4,2.5c0.2,0.7,1.3,1.4,2.1,1.2c0.9-0.2,1.6-1.5,1.3-2.5C393.2,639.2,392.2,638.6,391.5,638.8z M1017.5,342.5
		c-0.2-0.8-1.4-1.4-2.1-1.2c-0.8,0.3-1.4,1.8-1,2.7c0.3,0.8,1,1.3,1.9,1C1017.1,344.9,1017.8,343.4,1017.5,342.5z M1127.2,665.1
		c0.8-0.2,1.5-1.2,1.3-2c-0.2-0.9-1.6-1.7-2.4-1.4c-0.8,0.3-1.3,1.2-1,2.1C1125.2,664.7,1126.3,665.3,1127.2,665.1z M942.3,404.6
		c0.4-0.5,1-0.8,1-1.2c0-0.4-0.5-1-0.9-1.1c-0.7-0.3-1.5-0.4-2.3-0.3c-0.4,0.1-0.8,0.7-1,1.1c-0.1,0.2,0.4,0.8,0.8,1
		C940.7,404.3,941.4,404.4,942.3,404.6z M577.2,532.1c-0.2-0.9-1.1-1.3-1.8-1c-0.8,0.3-1.3,1.6-1.1,2.6c0.2,0.7,0.6,1.3,1.5,1.1
		C576.8,534.7,577.5,533.1,577.2,532.1z M1120,664.6c-0.8,0.2-1.4,1.3-1.2,2.1c0.2,0.7,1.3,1.5,2.1,1.3c0.8-0.2,1.5-1.5,1.3-2.3
		C1121.9,664.8,1120.9,664.3,1120,664.6z M815.7,464.5c-0.1,0.3-0.5,0.9-0.4,1.3c0.1,0.8,1.6,2.1,2.4,2c0.5-0.1,1.1-0.6,1.2-1
		C819.1,465.9,817.1,464.3,815.7,464.5z M809.9,475.5c1.2-0.4,1.8-2.9,1-3.7c-0.2-0.2-0.4-0.3-0.6-0.3c-1-0.1-1.3,0.7-1.5,1.5
		c-0.2,0.9-0.6,1.9,0.5,2.5C809.5,475.5,809.8,475.5,809.9,475.5z M880.7,197.1c-0.4-0.2-1-0.7-1.6-0.8c-0.7-0.1-1.4,1.3-1.3,2.2
		c0.1,0.8,1,1.4,1.7,1.2C880.4,199.7,881,198.5,880.7,197.1z M947.6,74.7c-0.5-0.1-1.2-0.5-1.8-0.4c-0.9,0.1-1.6,1.2-1.4,1.9
		c0.2,0.8,1.2,1.3,2.1,1C947.3,76.8,947.9,75.8,947.6,74.7z M1293.1,537.8c1.1-0.3,2-1.7,1.6-2.3c-0.3-0.5-1.1-0.9-1.7-1
		c-0.8-0.1-1.6,1.1-1.2,1.9C1292.1,537,1292.8,537.4,1293.1,537.8z M943.3,437.1c-0.5-0.2-1.1-0.6-1.8-0.6c-0.8,0-1.7,1.6-1.3,2.2
		c0.3,0.5,1.1,0.9,1.7,1C942.7,439.7,943.6,438.4,943.3,437.1z M808,309.8c1.2-0.6,1.4-1.8,1.6-2.9c0.1-0.7-0.8-1.3-1.2-0.9
		c-0.6,0.6-1.1,1.4-1.4,2.2C806.8,308.9,807,309.6,808,309.8z M1024.6,343.7c-0.3-0.1-0.7-0.5-1.2-0.5c-0.8,0-1.9,1.9-1.5,2.6
		c0.2,0.4,0.8,0.8,1.2,0.8C1023.9,346.7,1024.9,344.8,1024.6,343.7z M925.4,415c-0.4-0.2-1-0.7-1.6-0.6c-0.9,0.1-1.4,0.8-1.3,1.7
		c0.1,0.9,0.8,1.1,1.6,1C925,416.8,925.5,416.3,925.4,415z M705.7,552.3c-0.3-0.1-0.8-0.5-1.4-0.5c-0.8,0.1-1.5,1.5-1.2,2.2
		c0.2,0.4,0.9,0.9,1.4,0.9C705.3,554.9,706,553.4,705.7,552.3z M1092.8,621.7c1.2-0.2,1.9-1.1,1.7-2c-0.1-0.7-0.6-1.1-1.3-1
		c-0.9,0.1-1.8,1.3-1.4,2.1C1092,621.2,1092.6,621.5,1092.8,621.7z M1112.4,614.1c-0.4-0.1-1-0.5-1.6-0.4c-0.8,0-1.5,1-1.2,1.7
		c0.3,0.8,0.9,1,1.7,0.8C1112.2,616,1112.7,615.2,1112.4,614.1z M951.4,86.4c1,0.5,1.7,1.1,2.3,1c0.4-0.1,0.9-1,1-1.7
		c0.1-0.7-1.2-1.3-1.9-0.9C952.3,85,952,85.6,951.4,86.4z M905.4,457.9c1.3,0.6,2.2,0.1,3.1-0.4c0.2-0.1,0.4-0.5,0.4-0.8
		c0-0.2-0.3-0.6-0.5-0.7C907.4,455.8,906.1,456.5,905.4,457.9z M1347.4,534.3c-1-0.2-1.6-0.5-2.1-0.4c-0.9,0.2-1.3,1-0.9,1.8
		c0.2,0.4,1.3,1,1.4,0.8C1346.3,536.1,1346.7,535.3,1347.4,534.3z M1272.7,545.6c0.5-1,1-1.5,1-2.1c0-0.3-0.9-0.9-1.4-0.9
		c-0.8,0-1.4,0.6-1.1,1.4C1271.4,544.6,1272,544.9,1272.7,545.6z M1165.6,639.4c-1-0.5-1.6-1-2.3-1.1c-0.2,0-0.8,0.7-0.8,1.2
		c-0.1,0.7,0.9,1.4,1.7,1.2C1164.6,640.5,1164.9,640,1165.6,639.4z M823.9,508.1c0.3-1,0.6-1.7,0.6-2.4c0-0.2-0.7-0.6-1.1-0.5
		c-0.7,0-1.4,1.1-1,1.8C822.7,507.3,823.2,507.6,823.9,508.1z M816.8,228c-1.6,0.9-2.1,1.6-1.7,2.4c0.1,0.3,0.6,0.6,0.9,0.5
		c0.9-0.1,1.3-1.3,1.1-2.7C817.1,228.2,817,228.2,816.8,228z M514.9,604.7c-0.8-0.4-1.3-0.7-1.8-0.7c-0.7,0-1.4,1.4-1.1,1.8
		c0.3,0.3,1.1,0.7,1.4,0.6C514,606.1,514.3,605.5,514.9,604.7z M1095.2,299.8c-0.9-0.3-1.5-0.7-1.7-0.5c-0.4,0.2-0.9,0.8-1,1.3
		c0,0.3,0.6,0.7,1,1.1C1094,301.1,1094.5,300.6,1095.2,299.8z M314,651.4c-0.8-0.3-1.4-0.8-1.6-0.7c-0.5,0.2-1,0.9-1,1.3
		c0,0.8,0.8,0.9,1.5,0.7C313.2,652.6,313.4,652,314,651.4z M1001,374c-1-0.4-1.6-0.8-2-0.7c-0.4,0.2-0.8,0.9-0.8,1.4
		c0,0.2,0.9,0.8,1.2,0.7C999.9,375.4,1000.2,374.8,1001,374z M398.3,636.2c0.2-1,0.5-1.7,0.3-1.9c-0.3-0.4-1-0.5-1.5-0.8
		c-0.1,0.4-0.5,0.9-0.4,1.2C397,635.1,397.6,635.4,398.3,636.2z M802.3,518.9c0.3-0.8,0.6-1.2,0.6-1.5c0-0.7-0.5-1.3-1.3-1
		c-0.4,0.1-0.9,0.9-0.8,1.2C801.1,517.9,801.7,518.3,802.3,518.9z M724,446.5c-0.9-0.3-1.5-0.7-1.8-0.5c-0.4,0.2-0.8,0.8-0.7,1.2
		c0,0.3,0.8,0.9,1.1,0.8C722.9,447.8,723.3,447.2,724,446.5z M813.1,199c-0.8-0.2-1.4-0.6-1.7-0.5c-0.3,0.2-0.6,0.8-0.5,1.3
		c0,0.2,0.8,0.6,1.1,0.5C812.2,200.2,812.5,199.7,813.1,199z M1231.2,586.3c-0.7-0.2-1.1-0.5-1.5-0.4c-0.3,0-0.5,0.5-0.7,0.8
		c0.3,0.2,0.7,0.7,1,0.7C1230.4,587.3,1230.7,586.8,1231.2,586.3z M349.3,641.1c-0.7-0.3-1.2-0.6-1.6-0.6c-0.2,0-0.5,0.5-0.7,0.8
		c0.4,0.3,0.7,0.8,1.2,0.9C348.4,642.2,348.7,641.7,349.3,641.1z M1049.6,113.3c-0.5-0.3-1-0.7-1.1-0.6c-0.3,0.3-0.6,0.7-0.6,1.1
		c0,0.2,0.7,0.7,0.8,0.6C1049,114.2,1049.2,113.8,1049.6,113.3z M870.5,166.4c0.6,0.2,1.1,0.4,1.3,0.3c0.3-0.2,0.4-0.7,0.6-1.1
		c-0.3-0.1-0.8-0.5-1-0.4C871.1,165.4,870.9,165.8,870.5,166.4z M524.9,601.6c-0.6-0.2-1.1-0.4-1.4-0.3c-0.2,0.1-0.4,0.6-0.5,0.9
		c0.4,0.2,0.8,0.5,1.2,0.5C524.3,602.6,524.5,602.1,524.9,601.6z M1054.9,691.7c0.3-0.5,0.7-1,0.6-1.2c-0.2-0.3-0.6-0.6-0.9-0.8
		c-0.2,0.3-0.5,0.7-0.5,1C1054.2,691,1054.5,691.3,1054.9,691.7z M611.2,524.4c-0.9-0.3-1.4,0-1.5,0.7c0,0.2,0.3,0.6,0.5,0.6
		C611,525.8,611.3,525.3,611.2,524.4z M1028.8,633.1c-0.2,0.7-0.4,1.1-0.4,1.4c0,0.2,0.7,0.5,0.9,0.4c0.2-0.1,0.5-0.6,0.4-0.9
		C1029.7,633.8,1029.2,633.6,1028.8,633.1z M987.6,376.9c-0.2-0.2-0.3-0.3-0.5-0.5c-0.3-0.1-0.7-0.3-1-0.2c-0.1,0-0.4,0.7-0.3,0.7
		c0.3,0.2,0.6,0.4,1,0.4C987.1,377.3,987.4,377,987.6,376.9z M1051.3,655.7c-0.1,0.5-0.3,0.9-0.1,1c0.1,0.2,0.5,0.4,0.7,0.3
		c0.2,0,0.5-0.6,0.4-0.6C1052.1,656.2,1051.8,656,1051.3,655.7z M1341.3,492.8c-0.3-0.1-0.5-0.3-0.6-0.3c-0.1,0-0.2,0.3-0.3,0.5
		c0.2,0.1,0.4,0.3,0.5,0.3C1341,493.3,1341.1,493,1341.3,492.8z M1004.7,693.2c0.3,0.1,0.5,0.3,0.6,0.3c0.2-0.1,0.2-0.3,0.4-0.5
		c-0.2-0.1-0.4-0.3-0.7-0.4C1004.9,692.8,1004.8,693,1004.7,693.2z M733.5,337.1c-0.5-0.1-0.8-0.2-1-0.1c-0.1,0-0.3,0.2-0.3,0.3
		c0.1,0.2,0.2,0.4,0.4,0.5C732.7,337.7,732.9,337.5,733.5,337.1z"/>
	<path class="st0" d="M1371,513.6c-0.7,0-1-0.1-1.3-0.1c-2.3,0-3.1,0.7-3.3,3.1c-0.1,0.7,0,1.5-0.2,2.1c-0.3,0.8-0.8,1.5-1.8,1.3
		c-1-0.2-1.9-0.7-1.8-1.9c0.1-1.7,0.1-3.5,0.4-5.2c0.1-0.8,0.8-1.6,1.4-2.1c1.7-1.4,2.7-3.1,2.8-5.3c0-0.6,0.7-1.1,1.1-1.6
		c0.5,0.4,1,0.8,1.5,1.3c0.2,0.3,0.2,0.8,0.4,1.1c0.8,1.4,2.5,1.4,3.2-0.1c0.4-0.9,0.6-2,0.6-3c0.1-2,0.7-3.2,2.7-3.8
		c1.4-0.4,2.3-1.3,3.2-2.3c1.2-1.2,2.6-2.3,4-3.3c0.9-0.7,1.8-0.3,2.6,0.4c0.7,0.7,0.4,1.5,0.1,2.2c-0.6,1.3-1.5,2.3-2.9,2.7
		c-2.4,0.6-3.9,2-4.3,4.6c-0.2,0.9-0.8,1.7-1.4,2.4c-1.7,2.1-3.5,4.1-5.3,6.1C1372,512.7,1371.4,513.2,1371,513.6z"/>
	<path class="st0" d="M475.6,632.6c-3.1,0.7-6.2,1.6-9.3,2c-2.9,0.4-5.8,0.4-8.8,0.6c-0.8,0.1-1.5,0.4-2.3,0.6
		c-0.6,0.2-1.2,0.5-1.8,0.5c-0.5,0-1.2-0.4-1.4-0.9c-0.2-0.3,0.2-1.2,0.5-1.4c2-0.9,3.5-2.6,6.1-2.1c1.7,0.3,3.6,0,5.4-0.2
		c0.8-0.1,1.5-0.5,2.2-0.8c0.4-0.2,0.8-0.6,1.2-0.8c0.5-0.3,8.3-1,8.9-0.9c0.8,0.2,1.7,0.5,1.6,1.4c-0.1,0.7-0.7,1.3-1.2,1.8
		c-0.2,0.3-0.7,0.3-1.1,0.4C475.6,632.7,475.6,632.6,475.6,632.6z"/>
	<path class="st0" d="M1066.2,378.8c0.6,1,0.3,1.9-0.4,2.5c-2.8,2.4-4.9,5.5-8.3,7.1c-1,0.5-1.7,1.7-2.5,2.5
		c-1.2,1.2-2.5,2.5-3.7,3.7c-0.8,0.7-1.6,1.3-3,1c0.5-2.1,1.6-3.8,3.2-5.1c0.3-0.3,0.7-0.4,1-0.6c2.4-1.3,4.4-2.9,6-5.3
		c1.2-1.9,3-3.5,4.5-5.2C1063.8,378.1,1065,378.4,1066.2,378.8z"/>
	<path class="st0" d="M564.8,612c1.1-0.4,2.2-0.8,3.3-1.1c3.9-1.1,7.8-2.1,11.8-3.1c1.2-0.3,2.3-0.6,3.5-0.7
		c0.5-0.1,1.3,0.2,1.4,0.5c0.2,0.5,0.1,1.4-0.3,1.7c-1.5,1.1-2.9,2.4-5.1,2.1c-1.2-0.1-2.5,0.2-3.6,0.7c-2.2,1-4.4,1.7-6.9,1.2
		c-0.8-0.2-1.6,0-2.4-0.1c-0.6-0.1-1.1-0.3-1.6-0.5C564.8,612.5,564.8,612.3,564.8,612z"/>
	<path class="st0" d="M1071.6,362.4c0.1-1.9,0.8-2.8,1.8-3.6c1.9-1.7,4-3.2,5.3-5.5c0.1-0.2,0.3-0.4,0.5-0.5
		c2.8-1.7,4.4-4.5,5.7-7.3c0.6-1.2,1.4-2.2,2.7-2.6c0.6-0.2,1.4,0,1.9,0.4c0.2,0.1,0,1.2-0.3,1.7c-1.7,2.4-3.7,4.5-6,6.4
		c-0.9,0.8-1.5,2-2.3,3c-0.7,0.9-1.2,1.9-2,2.6c-1.8,1.6-3.6,3.1-5.5,4.6C1073,361.8,1072.5,361.9,1071.6,362.4z"/>
	<path class="st0" d="M613.7,602c-0.9,0.4-1.7,0.8-2.6,1.1c-1,0.3-2.1,0.7-3.2,0.7c-0.5,0-1.2-0.5-1.4-0.9c-0.1-0.3,0.3-1.1,0.7-1.3
		c1.4-0.8,2.8-1.6,4.3-2.1c1.3-0.4,2.6-0.6,4-0.6c0.5,0,1.3,0.5,1.4,0.9c0.1,0.4-0.2,1.3-0.6,1.6c-0.7,0.5-1.6,0.6-2.4,0.9
		C613.8,602.2,613.7,602.1,613.7,602z"/>
	<path class="st0" d="M987.1,444.4c-0.5,0.7-0.8,1.1-1.2,1.5c-1.7,1.4-3.4,2.9-5.2,4.3c-0.4,0.3-1,0.6-1.5,0.7
		c-1,0.2-1.5-0.4-1.2-1.4C978.8,447,984.2,443.8,987.1,444.4z"/>
	<path class="st0" d="M629.9,594.5c1.6-0.3,3.3-0.6,4.9-0.8c0.5-0.1,1.3,0.3,1.4,0.5c0,0.5-0.2,1.2-0.5,1.6
		c-0.3,0.4-0.9,0.6-1.5,0.7c-1.7,0.3-3.4,0.6-5.2,0.8c-0.9,0.1-1.9,0-2.1-1.1c-0.2-1,0.7-1.3,1.5-1.5
		C628.9,594.7,629.4,594.6,629.9,594.5z"/>
	<path class="st0" d="M531.2,618.7c1.3-0.2,2.5-0.4,3.8-0.6c0.9-0.1,1.6,0.3,1.8,1.2c0.1,0.9-0.5,1.5-1.4,1.7
		c-0.4,0.1-0.8,0.2-1.2,0.2c-1.7,0.2-3.5,0.3-5.2,0.5c-0.2,0-0.5,0.2-0.7,0.1c-0.4-0.2-1-0.4-1-0.7c-0.1-0.3,0.2-1,0.6-1.1
		c1.1-0.5,2.3-0.8,3.4-1.2C531.2,618.8,531.2,618.8,531.2,618.7z"/>
	<path class="st0" d="M799,540.5c-0.3,0.1-0.4,0.1-0.6,0.1c-1,0.3-2.1,0.6-2.9-0.4c-0.3-0.3-0.4-1.1-0.1-1.5
		c0.6-1.1,1.4-2.1,2.9-2.1c1.7,0,3.1,0.9,3.1,1.9C801.4,540.3,799.8,540,799,540.5z"/>
	<path class="st0" d="M1298.2,587.2c-0.4-0.2-1.3-0.4-1.6-0.9c-0.5-0.7,0.2-1.3,0.7-1.8c1.1-1,2.2-2.1,3.3-3
		c0.4-0.3,1.1-0.4,1.7-0.5c0.1,0.6,0.4,1.3,0.2,1.7C1301.6,584.5,1300.5,586.2,1298.2,587.2z"/>
	<path class="st0" d="M521.2,623.9c-0.2,0.1-0.5,0.1-0.7,0.2c-1.4,0.2-2.2-0.2-2.4-1c-0.1-1.2,0.7-1.7,1.6-2.1
		c0.3-0.1,0.6-0.2,0.9-0.2c1.3-0.1,2.4,0.5,2.6,1.3C523.4,622.9,522.8,623.5,521.2,623.9z"/>
	<path class="st0" d="M939.9,474.9c-0.5,0.5-0.9,1-1.4,1.2c-1.3,0.7-2.5,1.3-3.9,1.8c-0.4,0.2-1,0-1.5,0c0.1-0.5,0.1-1.1,0.4-1.5
		C934.6,475,937.6,474.2,939.9,474.9z"/>
	<path class="st0" d="M702.2,574.9c-0.9,0.1-1.9,0.7-2.4-0.6c-0.3-0.7,0.7-1.8,1.8-2.1c0.4-0.1,0.8-0.2,1.2-0.2
		c0.8-0.1,1.5,0.3,1.5,1.1c0,0.5-0.5,1-0.9,1.4C703.1,574.7,702.6,574.8,702.2,574.9z"/>
	<path class="st0" d="M1017.2,421.9c-0.5-1.4,0.3-2.1,1.2-2.7c0.8-0.5,1.8-0.9,2.8-1c0.6-0.1,0.9,0.8,0.5,1.2
		C1020.4,420.6,1019.1,421.6,1017.2,421.9z"/>
	<path class="st0" d="M663.6,586.6c0.4-1.9,1.6-2.5,3.1-2.6c0.4,0,1,0.3,1.2,0.6c0.2,0.3,0.1,0.9-0.2,1.3
		C666.8,587.2,665.5,587.4,663.6,586.6z"/>
	<path class="st0" d="M657.2,588.1c0.7-1.8,1.4-2.4,2.7-2.3c1,0.1,1.5,0.9,1,1.8C660.2,589.2,658.7,589.4,657.2,588.1z"/>
	<path class="st0" d="M1104.2,327c-0.6,1.9-1.7,2.8-3.4,3.1C1100.7,327.9,1101.5,327.2,1104.2,327z"/>
	<path class="st0" d="M1003.6,433.3c-0.8,0.6-1.6,1.1-2.4,1.6c-0.2,0.1-0.7,0.1-0.9-0.1c-0.2-0.2-0.4-0.7-0.3-0.8
		c0.4-0.6,0.8-1.2,1.4-1.5C1002.1,432.1,1002.9,432.2,1003.6,433.3z"/>
	<path class="st0" d="M924.1,483.2c-0.9,1-1.3,1.7-1.9,2c-0.3,0.1-1.1-0.5-1.3-0.9c-0.4-0.9,0.3-1.4,1-1.5
		C922.4,482.7,922.9,482.9,924.1,483.2z"/>
	<path class="st0" d="M162.5,590.7c-0.3,1.4-1.2,1.7-2,1.8c-0.3,0.1-0.9-0.4-1.2-0.8c-0.1-0.2,0.3-1,0.6-1
		C160.7,590.6,161.5,590.7,162.5,590.7z"/>
	<path class="st0" d="M1060.3,375.2c-0.6-0.5-1.1-0.6-1.3-1c-0.3-0.6,0.4-1.8,1.3-1.9c0.3,0,1.1,0.5,1.1,0.5
		C1061.1,373.6,1060.7,374.3,1060.3,375.2z"/>
	<path class="st0" d="M640.4,594.5c-0.6-0.5-1.4-0.9-1.3-1.1c0.2-0.5,0.5-1.1,1-1.3c0.3-0.1,1.2,0.4,1.2,0.7
		C641.2,593.3,640.8,593.7,640.4,594.5z"/>
	<path class="st0" d="M1353.7,527.9c0.7,0.5,1.3,0.8,1.3,1c-0.1,0.5-0.5,1-0.7,1.5c-0.4-0.2-1-0.4-1-0.7
		C1353.2,529.3,1353.5,528.7,1353.7,527.9z"/>
	<path class="st0" d="M817.6,530.3c-0.7,0.8-1.1,1.3-1.5,1.6c-0.2,0.1-1-0.4-1-0.6c0-0.4,0.3-1.1,0.7-1.2
		C816,529.8,816.6,530.1,817.6,530.3z"/>
	<path class="st0" d="M1059.5,626c0.7,0.2,1.1,0.6,0.7,1.3c-0.1,0.1-0.5,0.3-0.6,0.2C1058.9,627.1,1059,626.6,1059.5,626z"/>
	<path class="st0" d="M648.4,591c-0.3,0.3-0.6,0.7-0.7,0.7c-0.3-0.1-0.6-0.3-0.9-0.5c0,0,0.3-0.6,0.4-0.6
		C647.5,590.5,647.9,590.7,648.4,591z"/>
	<path class="st0" d="M1027.9,402.3c0.2-0.4,0.4-0.9,0.8-1.6c0.7,1.1,0.5,1.6-0.2,1.9C1028.3,402.5,1028.1,402.4,1027.9,402.3z"/>
	<path class="st0" d="M503.1,619.6c-0.4-0.3-0.7-0.4-0.8-0.6c-0.1-0.2,0.1-0.5,0.2-0.8c0.2,0.1,0.6,0.2,0.7,0.4
		C503.3,618.8,503.2,619.1,503.1,619.6z"/>
	<path class="st0" d="M728.7,563.6c-0.4,0.3-0.6,0.5-0.8,0.7c-0.2-0.2-0.4-0.4-0.5-0.6c0-0.1,0.2-0.5,0.3-0.5
		C728.1,563.2,728.3,563.4,728.7,563.6z"/>
	<path class="st0" d="M482.4,380.8c0.3,0,0.7,0,1,0c-0.2,0.2-0.3,0.4-0.5,0.6c-0.1,0-0.3-0.1-0.4-0.1
		C482.5,381.1,482.4,381,482.4,380.8z"/>
	<path class="st0" d="M938.2,150.9c-0.8,0.5-1.5,1-2.3,1.5c-1.4,0.9-2.8,1.7-4.3,2.5c-0.5,0.3-1.1,0.7-1.7,0.8
		c-0.5,0.1-1.2-0.2-1.4-0.6c-0.2-0.3-0.1-1.1,0.1-1.4c0.6-0.9,1.3-1.6,1.9-2.4c0.9-1.2,2-1.7,3.5-1.4c0.8,0.1,1.6-0.2,2.4-0.1
		c0.6,0,1.1,0.2,1.6,0.3C938.1,150.3,938.2,150.6,938.2,150.9z"/>
	<path class="st0" d="M792.9,220.1c-0.2,1.2-0.8,2.1-2,2.8c-3,1.7-3.6,3.6-2.4,6.7c0.2,0.4,0.4,0.8,0.4,1.1
		c-0.1,0.6-0.2,1.4-0.6,1.7c-0.4,0.2-1.2,0-1.7-0.2c-1.4-0.8-2.2-1.8-1.8-3.5c0.4-1.8,0.4-3.6,0.6-5.4c0-0.2,0.1-0.5,0.1-0.7
		c0.4-1.1,1.1-1.9,2.3-2.3C790.5,219.3,791.4,219.3,792.9,220.1z"/>
	<path class="st0" d="M833.7,167.8c0.5,0.4,0.9,0.6,1.1,1c0.1,0.2-0.4,0.9-0.6,0.8c-0.4-0.1-0.8-0.4-1-0.7
		C833.1,168.7,833.4,168.3,833.7,167.8z"/>
</g>
</svg>
