<?xml version="1.0" encoding="utf-8"?>
<!-- Generator: Adobe Illustrator 23.0.6, SVG Export Plug-In . SVG Version: 6.00 Build 0)  -->
<svg version="1.1" id="Layer_1" xmlns="http://www.w3.org/2000/svg" xmlns:xlink="http://www.w3.org/1999/xlink" x="0px" y="0px"
	 viewBox="0 0 253.2 172.5" style="enable-background:new 0 0 253.2 172.5;" xml:space="preserve">
<style type="text/css">
	.st0{fill:#D3C9B3;}
</style>
<g>
	<path class="st0" d="M32.2,124.4c-0.2-0.5-0.1-1.1,0.1-1.7c0.1-0.4,0.1-0.7,0-1.1c-0.1-0.2-0.1-0.4-0.1-0.6
		c0.2-0.1,0.3-0.3,0.5-0.4c0.3-0.2,0.3-0.4,0.2-0.8c-0.3-0.9-0.3-1.9,0.3-2.7c0.2-0.3,0.3-0.7,0.2-1.1c-0.1-0.3,0-0.6,0.2-0.9
		c0.1-0.1,0.2-0.3,0.2-0.4c0.2-0.2,0.2-0.4,0.2-0.6c0-0.1,0-0.3,0-0.4c0-0.3,0.1-0.5,0.3-0.6c0.2-0.1,0.4-0.2,0.4-0.6
		c-0.1-0.1-0.2-0.3-0.3-0.4c-0.2-0.2-0.2-0.5-0.2-0.7c0.1-0.4,0.3-0.7,0.4-1.1c0.2-0.5,0.4-1.1,0.6-1.6c0,0,0-0.1,0-0.2
		c0,0-0.1-0.1-0.1-0.1c-0.1,0-0.2-0.1-0.4-0.1c-0.6,0.3-1.2,0.7-1.8,1c-2.1,1.2-4.2,2.3-6.3,3.5c-0.9,0.5-1.8,0.9-2.7,1.3
		c-1.2,0.5-2.3,0.9-3.6,1c-0.9,0.1-1.9,0-2.8-0.4c-1-0.4-1.8-1.1-2.6-1.9c-0.4-0.5-0.7-1.1-0.9-1.7c-0.4-1-0.8-2-1.2-3
		c-0.1-0.3-0.2-0.6-0.3-1c0-0.1,0-0.2,0-0.3c0-0.1,0-0.1,0.1-0.2c0.1-0.1,0.1-0.1,0.2-0.2c0.1,0.1,0.3,0.1,0.4,0.2
		c0.5,0.3,1,0.6,1.4,0.9c0.7,0.4,1.4,0.4,2,0.2c0.9-0.3,1.7-0.6,2.5-1c1.5-0.7,3-1.4,4.5-2.1c0.6-0.3,1.1-0.6,1.7-0.9
		c1.8-1.1,3.7-2.1,5.5-3.2c1.1-0.6,2.1-1.3,3.2-1.9c1.1-0.7,2.2-1.4,3.4-2.1c0.5-0.3,1-0.6,1.5-0.9c0.3-0.2,0.6-0.4,0.8-0.6
		c0.4-0.3,0.8-0.7,0.9-1.3c0-0.2,0.2-0.4,0.4-0.5c0.3,0,0.6,0.2,0.9,0c-0.1-0.3-0.1-0.3-0.4-0.7c-0.1-0.8,0.3-1.7,0.9-2
		c0.2,0.1,0.4,0.1,0.5,0.2c0.3-0.1,0.3-0.3,0.4-0.5c0-0.1,0-0.3-0.2-0.4c-0.1,0.1-0.3,0.1-0.4,0.2c-0.3-0.2-0.3-0.4-0.1-0.6
		c0.1-0.2,0.3-0.5,0.5-0.7c0.2-0.2,0.4-0.5,0.4-0.9c0-0.2,0-0.5,0.2-0.6c0.1-0.1,0.1-0.2,0.2-0.3c0.4-0.4,0.6-0.8,0.5-1.2
		c0.2-0.4,0.5-0.5,0.8-0.5c0.1-0.2,0.1-0.3,0-0.5c0-0.1-0.1-0.3-0.1-0.4c0.1-0.2,0.2-0.3,0.3-0.5c0-0.1,0-0.2,0-0.4
		c0-0.2,0-0.4,0.2-0.6c0.2-0.2,0.3-0.4,0.5-0.7c0.2-0.5,0.5-1,0.7-1.6c0.1-0.2,0.3-0.3,0.5-0.4c0.1,0,0.3-0.1,0.4-0.1
		c0.2-0.3,0.4-0.6,0.6-0.9c0.1-0.2,0.1-0.4,0.1-0.6c0-0.1-0.1-0.1-0.1-0.2c-0.2-0.4-0.2-0.4,0.2-0.8c0.3-0.1,0.5,0.2,0.7,0.4
		c0.2-0.1,0.3-0.2,0.3-0.4c-0.1-0.1-0.3-0.2-0.5-0.4c0-0.2-0.1-0.4-0.1-0.6c0.2-0.1,0.3-0.2,0.5-0.3c0.2,0.1,0.3,0.1,0.4,0.2
		c0.3,0.1,0.6,0.1,0.7-0.2c0.1-0.2,0.1-0.5-0.2-0.6c-0.1-0.1-0.2-0.1-0.3-0.2c-0.1-0.1-0.1-0.2-0.1-0.2c0-0.1,0-0.1,0-0.1
		c0.3-0.3,0.6-0.6,0.7-1.1c0.1-0.2,0.3-0.4,0.5-0.5c0.5-0.3,0.7-0.7,0.7-1.3c0-0.2-0.1-0.5,0.2-0.7c0.1,0.1,0.2,0.1,0.3,0.2
		c0.5,0.3,0.7,0.3,1-0.3c0-0.2-0.1-0.3-0.2-0.4c-0.3-0.4-0.3-0.5,0-0.9c0.1-0.2,0.2-0.3,0.2-0.5c0.1-0.3,0.3-0.6,0.6-0.7
		c0.1,0,0.2-0.1,0.4-0.2c-0.1-0.3-0.1-0.5-0.2-0.8c0.1-0.1,0.2-0.2,0.3-0.4c0.2,0,0.3,0.1,0.5,0.1c0.4,0.1,0.7,0,1-0.4
		c-0.1-0.3-0.1-0.5-0.2-0.8c0.1-0.3,0.3-0.4,0.6-0.5c0.3-0.1,0.4-0.3,0.5-0.5c0.1-0.2,0.2-0.4,0.3-0.6c0.1-0.1,0.2-0.2,0.2-0.3
		c0-0.4-0.3-0.7-0.1-1c0.1,0,0.1-0.1,0.2-0.1c0.7-0.1,1.1-0.6,1.3-1.2c0.1-0.3,0.2-0.5,0.4-0.7c0.2-0.1,0.4-0.4,0.3-0.6
		c0-0.4,0.2-0.7,0.6-0.8c0.4-0.2,0.7-0.5,0.8-0.9c0-0.4-0.5-0.7-0.1-1.1c0.2,0,0.4,0,0.5,0c0.1,0,0.1,0,0.1-0.1
		c0.2-0.4,0.4-0.8,0.8-1c0-0.2,0.1-0.5,0.2-0.8c0.1-0.1,0.1-0.3,0.3-0.5c0.2-0.5,0.7-0.7,1.1-0.9c0.4-0.2,0.7-0.3,0.8-0.7
		c0.1-0.2,0.3-0.5,0.6-0.6c0.1-0.1,0.3-0.2,0.3-0.3c0.1-0.3,0.3-0.7,0.6-0.9c0.1-0.1,0.2-0.3,0.2-0.5c0-0.1,0-0.2,0-0.3
		c0-0.3,0.1-0.5,0.4-0.6c0.2-0.1,0.4-0.3,0.6-0.4c0.1-0.1,0.2-0.1,0.2-0.2c0.2-0.5,0.6-0.7,1-1c0.1,0,0.1-0.1,0.1-0.1
		c0-0.3-0.2-0.4-0.3-0.5C68,49,67.9,48.8,68,48.5c0.3-0.2,0.8-0.4,0.8-0.9c-0.3-0.8-0.2-0.6,0-1.4c0.1-0.3,0.1-0.3,0.5-0.5
		c0.2,0.1,0.4,0.2,0.7,0.4c0.4-0.1,0.6-0.4,0.8-0.8c0.1-0.2,0.1-0.5,0.4-0.6c0.2,0,0.2,0.2,0.3,0.3c0,0.2,0,0.4,0.3,0.6
		c0.3-0.1,0.4-0.3,0.5-0.5c0-0.3-0.2-0.4-0.4-0.5c-0.2-0.1-0.3-0.1-0.5-0.2c-0.4-0.2-0.5-0.7-0.2-1c0.1-0.1,0.1-0.2,0.2-0.2
		c0.6-0.4,1-1.1,1.4-1.7c0.3-0.4,0.6-0.8,1.1-1.1c0.2,0.2,0.4,0.3,0.5,0.5c0.4,0,0.5-0.3,0.7-0.5c-0.1-0.3-0.3-0.6-0.4-0.9
		c0.5-0.7,1-1.3,1.5-1.8c0.3-0.3,0.5-0.3,0.9-0.2c0.1,0.1,0.3,0.1,0.4,0.1c0.2-0.3,0.2-0.3-0.1-1.1c0.1-0.2,0.3-0.4,0.5-0.6
		c0.6-0.4,1-1,1.5-1.6c0.2-0.2,0.3-0.3,0.5-0.5c0.1-0.1,0.2-0.2,0.3-0.3c0.6-0.9,1.4-1.5,2.1-2.2c1.6-1.7,3.3-3.2,5-4.8
		c1.5-1.4,3.1-2.8,4.7-4.2c1-0.8,2-1.7,3-2.5c0.9-0.7,1.9-1.4,2.8-2.1c0.7-0.5,1.4-1,2.1-1.5c1-0.7,2.1-1.3,3.1-1.9
		c0.2-0.1,0.5-0.3,0.7-0.4c0.3-0.2,0.6-0.4,1-0.6c0.4-0.3,0.9-0.6,1.3-0.8c0.3-0.2,0.6-0.3,0.9-0.4c0.2-0.1,0.5-0.2,0.7-0.3
		c0.3-0.1,0.5-0.3,0.8-0.4c0.9-0.5,1.8-0.4,2.8-0.3c0.3,0,0.6,0.2,0.8,0.3c0.5,0.4,1,0.8,1.5,1.3c0.4,0.4,0.7,0.8,1.1,1.1
		c1,0.9,1.8,2,2.6,3.1c0.5,0.8,1,1.6,1.3,2.5c0.1,0.2,0.2,0.4,0.2,0.6c0.6,1.2,0.9,2.4,0.9,3.7c0,0.3,0,0.6-0.1,0.9
		c0,0.3-0.1,0.6-0.1,1c-0.1,0.4-0.1,0.8-0.2,1.2c-0.6,1.8-1.5,3.5-2.5,5.1c-0.7,1.1-1.4,2.1-2.1,3.1c-0.2,0.3-0.4,0.6-0.4,0.9
		c0,0.2-0.1,0.5-0.2,0.7c-0.3,0.5-0.7,1-1,1.6c-0.1,0.1-0.2,0.2-0.2,0.4c-0.6,0.9-1.2,1.7-1.6,2.6c-0.1,0.2-0.2,0.3-0.3,0.5
		c-0.8,1.2-1.6,2.3-2.5,3.5c-0.6,0.9-1.3,1.8-2,2.7c-0.7,0.9-1.4,1.9-2.2,2.8c-1,1.3-2.1,2.5-3.2,3.8c-0.3,0.3-0.6,0.7-0.9,1
		c-1.9,2.1-3.9,4.1-5.9,6.1c-0.2,0.2-0.4,0.5-0.7,0.7c-0.3,0.3-0.5,0.6-0.8,0.8c-0.7,0.6-1.3,1.2-2,1.9c-0.5,0.4-0.9,0.8-1.4,1.3
		c-2.6,2.5-5.3,4.9-7.9,7.4c-1.6,1.4-3.1,2.8-4.7,4.3c-1.2,1.1-2.3,2.1-3.5,3.2c-0.9,0.8-1.8,1.5-2.7,2.3c-0.8,0.7-1.6,1.4-2.4,2.1
		c-2,1.7-4,3.5-6.1,5.1c-2.2,1.8-4.5,3.6-6.7,5.3c-1.4,1.1-2.9,2.1-4.4,3.2c-1.4,1-2.9,2-4.4,2.9c-0.5,0.3-0.8,0.7-1,1.2
		c-1,2.4-2,4.8-2.8,7.2c-0.6,1.7-1.2,3.5-1.8,5.2c-0.3,0.9-0.5,1.8-0.7,2.7c-0.3,1.2-0.6,2.3-0.8,3.5c-0.3,1.6-0.7,3.2-1,4.7
		c-0.2,1-0.3,2-0.4,3c-0.3,2.2-0.3,4.3-0.2,6.5c0.2,2.4,0.6,4.8,1.6,7.1c0.6,1.4,1.4,2.8,2.4,3.9c1.1,1.3,2.4,2.2,3.9,2.8
		c1.2,0.5,2.5,0.9,3.8,1.1c0.6,0.1,1.3,0.2,1.9,0.1c0.1,0,0.2,0,0.3,0c0.6,0,1.2,0,1.8-0.1c2.2-0.3,4.3-0.7,6.4-1.4
		c1.4-0.4,2.7-1,4-1.6c1.9-0.9,3.7-1.7,5.6-2.6c0.7-0.4,1.4-0.8,2.1-1.2c0.9-0.5,1.7-1,2.6-1.5c1-0.6,1.9-1.2,2.9-1.8
		c0.2-0.1,0.3-0.2,0.5-0.3c1.1-0.5,2.2-1.2,3.2-1.9c1.1-0.7,2.2-1.4,3.3-2.1c0.3-0.2,0.6-0.4,1-0.6c0.5-0.3,1-0.7,1.5-1
		c0.7-0.5,1.5-0.9,2.2-1.4c0.3-0.2,0.6-0.4,1-0.6c0.6-0.4,1.2-0.8,1.7-1.2c0.6-0.5,1.2-0.8,1.8-1.3c0.2-0.1,0.3-0.2,0.5-0.3
		c0.5-0.4,1.1-0.7,1.6-1.1c0.2-0.1,0.3-0.2,0.4-0.3c0.3-0.3,0.7-0.5,1.1-0.7c0.5-0.3,0.9-0.6,1.3-1c0.7-0.5,1.4-1,2.1-1.5
		c0.3-0.2,0.6-0.4,0.9-0.5c0.7-0.4,1.3-0.8,1.9-1.4c0.5-0.4,1.1-0.8,1.6-1.1c0.4-0.3,0.8-0.5,1.3-0.6c0.3,0,0.4-0.3,0.6-0.5
		c0.4-0.5,0.9-0.9,1.5-1.2c0.3-0.1,0.5-0.4,0.7-0.6c0.2-0.2,0.4-0.4,0.6-0.5c0.6-0.4,1.3-0.8,1.9-1.3c0.9-0.7,1.8-1.4,2.8-2.1
		c0.4-0.3,0.8-0.5,1.2-0.8c0.4-0.3,0.9-0.6,1.3-1c0.2-0.1,0.4-0.3,0.6-0.4c0.7-0.4,1.1-1,1.3-1.8c0.1-0.5,0.3-0.9,0.6-1.3
		c0-0.1,0.1-0.1,0.1-0.2c0.1-0.8,0.5-1.6,0.8-2.3c0.1-0.3,0.2-0.6,0.4-0.9c0.2-0.5,0.4-1.1,0.6-1.6c0-0.1,0.1-0.2,0.2-0.3
		c0.4-0.4,0.5-0.9,0.6-1.4c0.1-0.4,0.3-0.7,0.5-1c0.1-0.1,0.3-0.2,0.4-0.4c0.1,0,0.2,0,0.3,0c0.5,0,0.8-0.3,0.6-0.8
		c0-0.1-0.1-0.1-0.1-0.2c-0.2-0.4-0.2-0.6,0.1-0.9c0.1-0.1,0.1-0.1,0.2-0.2c0-0.2,0-0.4,0-0.6c0-0.4,0.1-0.5,0.5-0.7
		c0.1,0,0.2,0.1,0.3,0.1c0.3,0.1,0.5,0,0.6-0.3c0.2-0.4,0.4-0.7,0.6-1c0.2-0.3,0.3-0.6,0.4-0.9c0.1-0.4,0.2-0.8,0.5-1.1
		c0.2-0.2,0.3-0.5,0.4-0.8c-0.1-0.3-0.5-0.4-0.3-0.8c0.1-0.2,0.3-0.2,0.5-0.2c0.4-0.1,0.6-0.3,0.8-0.6c0.2-0.3,0.4-0.6,0.6-0.9
		c0.2-0.3,0.3-0.7,0.4-1c0-0.1,0.1-0.2,0.1-0.3c0.2-0.3,0.4-0.6,0.4-1c0.3-0.2,0.6-0.4,0.6-0.8c-0.1-0.1-0.2-0.2-0.3-0.3
		c-0.1-0.1-0.2-0.2-0.3-0.3c0-0.5,0.2-0.8,0.4-1.2c0-0.1,0.2-0.2,0.3-0.3c0.2,0.1,0.3,0.2,0.5,0.3c0.4-0.1,0.8-0.5,1.1-0.8
		c0.1-0.1,0-0.2,0.1-0.3c-0.3-0.3-0.5,0-0.8,0c-0.3-0.2-0.4-0.3-0.3-0.5c0.1-0.2,0.3-0.3,0.5-0.3c0.2,0,0.4,0.1,0.6,0.2
		c0.2-0.1,0.2-0.3,0.1-0.4c-0.2-0.2-0.4-0.4-0.6-0.6c0.1-0.5,0.3-0.9,0.6-1.2c0.5-0.1,0.5,0.5,1,0.6c0.6-0.2,0.8-0.4,0.6-0.9
		c-0.2-0.1-0.4-0.2-0.6-0.3c-0.1-0.3-0.1-0.5,0-0.7c0-0.1,0.1-0.1,0.1-0.2c0.5-0.6,0.8-1.3,1.2-2c0.1-0.1,0.1-0.2,0.2-0.3
		c0.3-0.4,0.7-0.7,0.9-1.2c0,0,0-0.1,0.1-0.1c0.3-0.2,0.6-0.5,0.7-0.9c0-0.1,0.1-0.1,0.1-0.1c0.2,0,0.3,0.1,0.3,0.3
		c-0.1,0.3-0.5,0.5-0.2,0.8c0.3,0.1,0.5-0.1,0.7-0.4c0.2-0.2,0.2-0.5,0.1-0.8c-0.1-0.1-0.1-0.3-0.2-0.4c0.2-0.4,0.8-0.3,1-0.7
		c0.2-0.4,0.7-0.4,0.8-0.8c0-0.2-0.2-0.4-0.3-0.4c-0.3-0.1-0.4-0.3-0.5-0.6c0.1-0.3,0.2-0.5,0.4-0.8c0.2-0.2,0.3-0.4,0.5-0.6
		c0.2-0.3,0.3-0.6,0.6-0.8c0,0,0.1-0.1,0.1-0.1c0.2-0.6,0.6-1,1-1.5c0.3-0.5,0.6-1,1.1-1.3c0.1,0,0.3,0,0.4-0.1
		c0.4-0.1,0.5-0.3,0.6-0.6c0,0,0-0.1,0-0.1c-0.1-0.6,0.2-1,0.6-1.3c0.3-0.2,0.6-0.6,0.7-1c0.1-0.3,0.3-0.5,0.7-0.5
		c0.4,0,0.6-0.3,0.7-0.6c-0.1-0.2-0.1-0.3-0.2-0.5c0,0,0-0.1,0.1-0.1c0.2-0.2,0.4-0.4,0.7-0.6c0.4-0.2,0.7-0.4,0.9-0.8
		c0.4-0.6,0.8-1.2,1.5-1.4c0.1,0,0.1-0.1,0.2-0.1c-0.2-0.3-0.3-0.5-0.4-0.8c0.1-0.1,0.2-0.2,0.2-0.3c0.2,0,0.3,0,0.5,0
		c0.3-0.1,0.4-0.3,0.3-0.6c-0.1-0.4,0-0.7,0.3-1c0.1-0.1,0.3-0.3,0.4-0.4c0.2-0.3,0.5-0.4,0.8-0.3c0.1,0,0.2,0,0.4,0.1
		c0.1-0.1,0.3-0.2,0.3-0.4c0.2-0.4,0.4-0.7,0.6-1.1c0.2-0.2,0.2-0.5,0.4-0.8c0.3-0.6,0.7-1.2,1.2-1.7c0.2-0.1,0.3-0.3,0.4-0.5
		c0.3-0.3,0.6-0.6,0.9-0.7c0.2,0,0.3,0.2,0.4,0.3c0.1,0.1,0.2,0.1,0.4,0.2c0.4-0.1,0.6-0.4,0.7-0.7c0.1-0.4,0.3-0.9,0.4-1.4
		c0.1-0.5,0.4-0.9,0.8-1.2c0.2-0.1,0.4-0.3,0.6-0.5c0.6-0.6,1.3-1.3,2-1.9c0.3-0.3,0.7-0.6,1-0.8c1.3-1.1,2.7-2.1,4-3.2
		c0.9-0.7,1.7-1.3,2.6-1.9c1-0.8,2.1-1.6,3.1-2.3c0.2-0.2,0.5-0.3,0.7-0.5c0.7-0.5,1.5-1.1,2.2-1.7c0.1-0.1,0.3-0.2,0.4-0.3
		c1.2-0.8,2.5-1.7,3.7-2.5c0.7-0.5,1.3-1.1,2-1.5c0.8-0.5,1.5-1,2.3-1.5c0.8-0.5,1.5-1,2.3-1.5c0.3-0.2,0.6-0.4,0.9-0.5
		c0.6-0.3,1.2-0.6,1.8-0.9c0.8-0.4,1.6-0.8,2.5-1.1c0.5-0.2,1-0.5,1.5-0.7c0.5-0.3,1.1-0.4,1.7-0.3c0.3,0,0.5,0.2,0.8,0.3
		c0.2,0.1,0.3,0.2,0.4,0.3c1,0.9,2.1,1.7,3,2.7c0.6,0.6,1.1,1.2,1.7,1.8c0.5,0.5,0.8,1.2,1,1.9c0.2,0.4,0.3,0.9,0.6,1.3
		c0.1,0.1,0.2,0.3,0.2,0.5c0.3,0.9,0.4,1.8,0.4,2.8c0,1.1,0,2.2-0.1,3.4c-0.1,0.9-0.4,1.8-0.7,2.7c-0.6,1.8-1.5,3.4-2.4,5
		c-0.5,0.9-1,1.8-1.6,2.6c-0.9,1.4-1.9,2.8-2.9,4.1c-0.5,0.7-1.1,1.4-1.6,2.1c-1,1.2-1.9,2.4-2.9,3.6c-0.6,0.7-1.2,1.4-1.8,2.1
		c-0.8,0.9-1.6,1.7-2.5,2.6c-1.4,1.5-2.7,3-4.1,4.4c-0.7,0.7-1.4,1.5-2.1,2.2c-1,0.9-1.9,1.9-2.9,2.8c-0.7,0.7-1.4,1.3-2,1.9
		c-0.5,0.4-0.9,0.9-1.3,1.4c-0.7,0.7-1.5,1.4-2.2,2.2c-0.3,0.3-0.6,0.5-0.8,0.8c-0.3,0.3-0.7,0.5-1.1,0.2c0,0-0.1,0-0.1,0
		c-0.3,0.3,0,0.5,0,0.8c-0.1,0.1-0.1,0.2-0.2,0.3c-0.3,0.3-0.6,0.6-0.9,0.9c-0.5,0.5-1,1-1.5,1.4c-0.3,0.3-0.7,0.5-1.2,0.8
		c-0.1,0.3-0.3,0.5-0.6,0.7c-0.1,0-0.2,0.1-0.2,0.2c-0.3,0.6-0.8,0.9-1.3,1.3c-0.4,0.4-0.8,0.7-1.2,1c-0.2,0.2-0.5,0.5-0.8,0.4
		c-0.4-0.3-0.4-0.7-0.1-1c0.2-0.1,0.4-0.3,0.5-0.4c0.1-0.1,0.3-0.2,0.5-0.3c0.1-0.5,0.4-0.9,0.6-1.3c0.4-0.1,0.9-0.1,1.3-0.1
		c0.4-0.2,0.1-0.5,0.2-0.8c0.1-0.1,0.3-0.2,0.5-0.2c0.1-0.2,0-0.3-0.1-0.4c-0.1-0.1-0.2-0.2-0.4-0.2c-0.2,0-0.4,0-0.5-0.2
		c0-0.2,0.1-0.3,0.3-0.4c0.1-0.1,0.3-0.3,0.4-0.4c0.1-0.1,0.3-0.2,0.4-0.3c0.4,0.2,0.1,0.5,0.2,0.7c0,0,0.1,0.1,0.2,0.2
		c0.1,0,0.1,0,0.1,0c0.3-0.3,0.7-0.6,0.7-1.1c-0.1-0.2-0.2-0.3-0.3-0.5c0.3-0.4,0.6-0.9,1-1.1c0.4-0.2,0.6-0.5,0.8-0.8
		c0.1-0.2,0.3-0.3,0.4-0.5c1.5-1.3,2.9-2.8,4.3-4.2c0.2-0.2,0.3-0.5,0.6-0.6c0.6-0.3,1-0.9,1.5-1.4c0.5-0.5,0.9-1,1.3-1.7
		c0.1-0.2,0.3-0.4,0.5-0.5c0.2-0.2,0.4-0.4,0.4-0.7c0.1-0.3,0.2-0.5,0.4-0.6c0.4-0.3,0.9-0.7,1.3-1c0.3-0.2,0.6-0.5,0.8-0.9
		c0.1-0.2,0.2-0.3,0.3-0.4c0.2-0.2,0.4-0.4,0.4-0.7c0-0.2,0.1-0.4,0.2-0.5c0.3-0.4,0.6-0.8,1.1-1c0.3-0.2,0.6-0.4,0.7-0.8
		c0.1-0.4,0.3-0.8,0.6-1.1c0.1-0.1,0.1-0.2,0.1-0.3c0-0.3,0.1-0.6,0.2-0.9c0.2-0.3,0.1-0.6-0.1-0.9c-0.2-0.2-0.3-0.5-0.2-0.8
		c0.1-0.3,0.4-0.6,0.7-0.6c0.4-0.1,0.7-0.4,0.9-0.7c0.3-0.4,0.6-0.8,1-1.1c0.1-0.1,0.3-0.2,0.5-0.2c0.1,0,0.2-0.1,0.4-0.1
		c0.1-0.3,0.1-0.7,0.2-1.1c0,0,0,0,0-0.1c-0.1-0.6-0.6-0.8-1.2-0.5c-0.3,0.2-0.6,0.4-0.7,0.8c-0.1,0.4-0.3,0.7-0.7,0.8
		c-0.3,0.1-0.7,0.3-0.9,0.4c-0.2,0.3,0.2,0.6-0.1,0.8c-0.4-0.1-0.9-0.2-1.4-0.3c-0.1,0.3-0.1,0.6-0.2,0.9c-0.4,0.1-0.7-0.1-1-0.4
		c-0.2-0.2-0.2-0.4,0-0.6c0.4-0.4,0.8-0.8,1.4-0.9c0.2,0,0.3,0.1,0.6,0.2c0-0.2,0-0.3-0.1-0.3c-0.1-0.1-0.2-0.2-0.3-0.3
		c0.3-0.5,0.5-1,0.9-1.4c0.4-0.4,0.7-0.8,1.1-1.2c0-0.1,0.1-0.1,0.1-0.2c0.6-1,1.4-1.7,2.1-2.6c0.1-0.1,0.2-0.2,0.2-0.3
		c0.2-0.4,0.5-0.7,0.8-1c0.2-0.2,0.4-0.5,0.5-0.7c0.2-0.4,0.5-0.7,0.7-1c0.2-0.4,0.5-0.7,0.7-1.1c0.3-0.4,0.5-0.8,0.8-1.2
		c0.7-1,1.5-2,2-3.1c0-0.1,0.1-0.2,0.2-0.3c0.3-0.5,0.6-1,0.9-1.5c0.4-0.7,0.8-1.5,1.2-2.2c0.5-1,1-2,1.3-3c0-0.1,0.1-0.2,0.1-0.4
		c-0.1-0.1-0.2-0.2-0.3-0.3c-0.1,0-0.1,0-0.2,0c-1.8,0.4-3.5,1.2-5.1,2c-2.3,1.2-4.4,2.7-6.5,4.2c-1.2,0.8-2.3,1.6-3.5,2.4
		c-0.6,0.4-1.2,0.9-1.7,1.3c-1.3,0.9-2.6,1.8-3.9,2.8c-1.7,1.2-3.3,2.5-5,3.8c-1.5,1.1-2.8,2.4-4.2,3.6c-1.2,1.1-2.4,2.2-3.6,3.3
		c-0.1,0.1-0.3,0.2-0.4,0.4c-0.9,1.2-2,2.1-3,3.2c-0.4,0.5-0.8,1-1.2,1.4c-1,1.2-2,2.4-3,3.6c-0.5,0.6-1,1.2-1.5,1.8
		c-0.8,1.1-1.6,2.2-2.5,3.2c-0.7,0.9-1.4,1.8-2.1,2.8c-1,1.5-2,3-3,4.5c-1.2,1.9-2.5,3.7-3.7,5.6c-0.2,0.3-0.4,0.6-0.5,0.9
		c-0.9,1.6-1.9,3.1-2.9,4.7c-0.4,0.6-0.6,1.2-1,1.8c-1.1,2-2.2,4-3.3,5.9c-0.4,0.8-0.8,1.6-1.2,2.4c-0.1,0.2-0.2,0.4-0.1,0.7
		c0.2,0.1,0.4,0,0.6-0.1c0.3-0.2,0.5-0.4,0.8-0.6c0.3-0.2,0.6-0.4,0.9-0.6c0.2-0.1,0.4-0.3,0.5-0.4c0.2-0.2,0.4-0.4,0.6-0.6
		c0.5-0.4,0.9-0.7,1.4-1.1c0.1-0.1,0.2-0.2,0.4-0.2c0.1-0.1,0.2-0.1,0.3-0.2c0.3-0.5,0.8-0.7,1.3-1.1c0.4-0.3,0.7-0.6,1.1-0.9
		c0.2-0.1,0.4-0.3,0.7-0.3c0.1,0.1,0.2,0.2,0.4,0.2c0.2,0.1,0.3,0.1,0.5-0.1c0.1-0.1,0.2-0.2,0.1-0.5c-0.2,0-0.3-0.1-0.6-0.2
		c0.1-0.1,0.1-0.2,0.2-0.3c0.1-0.1,0.2-0.2,0.3-0.3c0.6-0.5,1.2-0.9,1.8-1.3c0.1-0.1,0.2-0.1,0.3-0.2c0.2-0.3,0.5-0.5,0.7-0.6
		c0.6-0.5,1.1-1,1.6-1.4c0.1-0.1,0.2,0,0.3-0.1c0.2,0.3,0.5,0.6,0.7,0.9c0.3,0,0.4-0.1,0.3-0.3c0-0.2-0.1-0.3-0.2-0.4
		c-0.1-0.1-0.2-0.2-0.3-0.3c0-0.6,0.1-0.7,0.6-0.8c0,0.1,0.1,0.2,0.1,0.3c0.1,0.1,0.1,0.3,0.1,0.4c0.2,0.4,0.6,0.4,0.9,0.1
		c0.1-0.2,0.2-0.3,0.3-0.5c0.3,0,0.5,0,0.7-0.1c0,0,0.1-0.1,0.1-0.1c0-0.3-0.2-0.4-0.5-0.4c-0.4-0.1-0.7-0.4-0.7-0.8
		c0.2-0.3,0.5-0.4,0.8-0.6c0.2-0.1,0.4-0.3,0.5-0.5c0.2-0.3,0.5-0.5,0.8-0.8c0.2-0.2,0.5-0.4,0.8-0.6c0.1-0.1,0.3-0.3,0.4-0.4
		c0.3-0.3,0.5-0.6,0.9-0.8c0.3-0.2,0.5-0.4,0.7-0.6c0.2-0.2,0.4-0.4,0.7-0.5c0.4,0.3,0.9,0.2,1.2,0.1c0.7,0.5,0.7,0.7,0.3,1.5
		c0,0.3,0.5,0.5,0.2,0.9c-0.1,0-0.2,0.1-0.4,0c-0.2,0-0.4-0.1-0.6-0.1c-0.2,0-0.4,0-0.6,0.1c-0.1-0.1-0.2-0.2-0.2-0.3
		c-0.1-0.1-0.1-0.2-0.2-0.3c-0.5-0.1-0.9-0.2-1.3,0.2c-0.1,0.3-0.1,0.6,0.1,0.9c0.2,0.3,0.2,0.5-0.1,0.8c-0.4,0-0.6-0.2-0.9-0.4
		c-0.4-0.3-0.7-0.4-1.1,0c-0.2,0.1-0.3,0.3-0.4,0.4c-0.2,0.3-0.2,0.5,0.2,0.7c0.3,0.1,0.5,0.2,0.8,0.3c0.1,0,0.2,0.1,0.3,0.1
		c0.1,0.4-0.3,0.6-0.5,0.8c-0.2,0.2-0.5,0.4-0.8,0.4c-0.1,0.1-0.1,0.3-0.2,0.4c-0.1,0.2-0.2,0.4-0.5,0.5c-0.1,0-0.3,0.1-0.3,0.3
		c0.1,0.3,0.4,0.3,0.6,0.5c0.1,0.5,0,0.6-0.4,0.7c-0.1,0-0.2,0-0.4,0.1c-0.1-0.1-0.2-0.1-0.3-0.2c-0.1-0.1-0.1-0.1-0.2-0.2
		c-0.5,0-1,0.2-1.2,0.7c-0.2,0.5-0.5,0.8-0.7,1.3c-0.1,0.2-0.3,0.3-0.6,0.5c0.1,0.5-0.2,0.8-0.6,1c-0.1,0.3-0.1,0.5-0.2,0.8
		c-0.3-0.2-0.5-0.5-0.9-0.5c-0.1,0-0.2,0.1-0.3,0.2c-0.1,0.3-0.1,0.6-0.1,0.8c-0.1,0.3-0.3,0.5-0.6,0.6c-0.6,0.1-1,0.4-1.2,1
		c-0.1,0.3-0.4,0.5-0.7,0.5c-0.2-0.1-0.4-0.1-0.6-0.2c-0.1,0.1-0.1,0.3-0.2,0.4c0.2,0.5,0.7,0.7,0.9,1.2c-0.1,0.4-0.4,0.6-0.9,0.6
		c-0.4-0.5-1-0.9-1.6-1.2c-0.3,0.1-0.5,0.3-0.6,0.6c0.1,0.1,0.2,0.3,0.3,0.4c0,0.3-0.2,0.4-0.5,0.6c-0.1,0-0.2,0-0.4,0
		c-0.3,0-0.5,0.2-0.5,0.4c0,0.2,0,0.5-0.1,0.7c0,0.2,0,0.4,0,0.6c0.1,0.5,0,0.6-0.5,0.8c-0.3,0.1-0.5,0.3-0.6,0.7
		c-0.1,0.5-0.5,0.7-1.1,0.5c-0.2-0.1-0.5-0.2-0.8-0.3c-0.2,0.1-0.4,0.1-0.6,0.2c-0.2,0.1-0.3,0.1-0.5,0.2c-0.2,0.1-0.4,0.2-0.5,0.4
		c-0.1,0.1-0.1,0.3,0,0.5c0.3,0,0.4-0.1,0.6-0.3c0.2-0.1,0.4-0.2,0.6-0.1c0.1,0.2,0.1,0.3,0,0.5c-0.2,0.3-0.9,0.9-1.3,1
		c-0.3-0.1-0.4-0.3-0.6-0.5c-0.2-0.2-0.3-0.3-0.6-0.4c-0.2-0.1-0.4-0.2-0.6-0.2c-0.2-0.1-0.5-0.1-0.6,0.1c0,0.3,0.1,0.4,0.3,0.4
		c0.5,0,0.8,0.3,1.2,0.6c0.3,0.3,0.4,0.7,0.1,1c-0.3,0.4-0.9,0.6-1.3,0.3c-0.3-0.2-0.6-0.3-1-0.4c0,0.1,0,0.2,0,0.3
		c0.1,0.1,0.2,0.2,0.3,0.3c0.3,0.3,0.3,0.3,0.1,0.8c-0.2,0.2-0.6,0.2-0.9,0.3c-0.3,0-0.5,0.1-0.7,0.4c-0.2,0.3-0.4,0.7-0.4,1.1
		c0,0.1,0.1,0.3,0.2,0.4c0.4,0.4,0.8,0.6,1.4,0.4c0.1,0,0.2,0.1,0.3,0.1c0.2,0.1,0.4,0.1,0.6-0.1c0.2-0.1,0.5-0.3,0.7-0.4
		c0.3-0.2,0.6-0.4,1-0.7c0.2,0,0.5-0.2,0.7-0.4c0.7-0.5,1.4-1.1,1.9-1.8c0.2,0,0.3,0.1,0.4,0.1c0.5-0.3,0.8-0.9,1.4-1
		c0.1-0.1,0.1-0.3,0.2-0.4c0.1-0.2,0.3-0.3,0.5-0.3c0.3,0,0.5-0.1,0.7-0.3c0.1-0.1,0.1-0.1,0.2-0.1c0.2-0.2,0.4-0.2,0.5,0
		c0.2,0.1,0.2,0.4,0.1,0.6c-0.1,0.1-0.1,0.2-0.2,0.3c-0.8,0.6-1.5,1.2-2.3,1.8c-0.2,0.2-0.5,0.4-0.7,0.5c-0.2,0.1-0.5,0.1-0.8,0.1
		c-0.3,0.2-0.3,0.6-0.4,0.9c-0.1,0-0.1,0.1-0.2,0.2c-0.7,0.5-1.3,1-2,1.5c-0.8,0.7-1.7,1.3-2.5,1.9c-0.7,0.5-1.3,1-2,1.4
		c0,0-0.1,0-0.1,0.1c-0.6,0.3-1,0.7-1.5,1.1c-0.6,0.5-1,1.1-1.2,1.8c-0.2,0.8-0.5,1.6-0.7,2.5c-0.7,2.3-1.3,4.6-1.9,6.9
		c-0.4,1.6-0.7,3.3-1,5c-0.2,1-0.3,1.9-0.4,2.9c-0.2,1.3-0.2,2.7-0.2,4c0,1.9,0.4,3.8,1.1,5.6c0.5,1.3,1.5,2.2,2.8,2.7
		c0.5,0.2,1.1,0.4,1.7,0.5c0.7,0.1,1.4,0.2,2,0.3c0.2,0,0.3,0,0.5,0c0.1,0,0.3,0,0.4,0c1.5,0,2.9-0.3,4.4-0.7
		c0.4-0.1,0.9-0.2,1.3-0.3c1.1-0.4,2.2-0.7,3.3-1.2c0.2-0.1,0.4-0.2,0.6-0.3c1.7-0.6,3.3-1.5,4.9-2.3c0.9-0.5,1.8-1,2.7-1.5
		c1.8-1,3.6-2.1,5.3-3.2c0.6-0.4,1.2-0.7,1.8-1.1c0.5-0.3,1-0.6,1.4-1c0.2-0.1,0.4-0.2,0.6-0.3c0.2-0.1,0.4-0.3,0.6-0.5
		c0.7-0.5,1.3-0.9,2-1.4c0.4-0.3,0.8-0.5,1.2-0.8c0.1-0.1,0.2-0.2,0.3-0.2c0.4-0.1,0.6-0.3,0.9-0.6c0.1-0.2,1.1-0.6,1.4-0.7
		c0.1,0.1,0.3,0.3,0.4,0.4c0.2,0.2,0.4,0.2,0.7,0.1c0.1-0.1,0.3-0.1,0.4-0.2c0.2-0.2,0.3-0.3,0.2-0.6c-0.1-0.1-0.1-0.3-0.2-0.4
		c0,0,0-0.1,0-0.1c0.2-0.2,0.5-0.3,0.7-0.4c0.2,0.1,0.3,0.1,0.5,0.2c0.1-0.1,0.2-0.2,0.4-0.3c0-0.1-0.1-0.2-0.1-0.2
		c-0.2-0.4-0.2-0.6,0.2-0.8c0.2-0.1,0.3-0.1,0.5-0.3c0.1-0.1,0.2-0.2,0.4-0.4c0.1,0.1,0.2,0.1,0.3,0.2c-0.3,0.4-0.7,0.5-1,0.8
		c0,0.1,0.1,0.2,0.1,0.3c0.5,0.1,0.7-0.2,1-0.4c0.1,0,0.1,0,0.1,0c0.4,0.1,0.7,0,0.9-0.4c0.1-0.2,0.3-0.4,0.5-0.5
		c0.3-0.1,0.5-0.3,0.8-0.5c0.5-0.4,0.9-0.6,1.5-0.4c0.5-0.3,0.6-0.7,0.4-1.3c-0.1-0.3-0.2-0.5-0.3-0.8c0.1-0.3,0.3-0.5,0.6-0.7
		c0.7-0.5,1.4-1,2.2-1.6c0.1-0.1,0.3-0.2,0.4-0.3c0.2-0.1,0.3-0.3,0.6-0.3c0,0.1,0,0.2-0.1,0.3c-0.2,0.2-0.4,0.4-0.5,0.7
		c-0.1,0.1-0.1,0.2-0.2,0.3c0.2,0.3,0.4,0.3,0.7,0.2c0.2-0.1,0.5-0.2,0.7-0.4c0.5-0.4,0.6-0.5,1.2-0.6c0.4-0.4,0.4-0.6,0.2-1.1
		c-0.3-0.1-0.7,0.2-1-0.1c0-0.4,0.3-0.5,0.5-0.7c0.2-0.2,0.4-0.2,0.7,0c0,0.2-0.1,0.4-0.1,0.5c0.1,0.2,0.2,0.3,0.3,0.4
		c0.3,0.1,0.4,0.3,0.4,0.6c0,0.2,0,0.4,0.1,0.5c0.2,0.4,0.6,0.4,0.9,0.1c0.1-0.1,0.1-0.2,0.2-0.3c0.2-0.2,0.3-0.4,0.5-0.6
		c0.3-0.3,0.3-0.3,0.5-0.8c-0.1-0.2-0.3-0.4-0.5-0.6c0.1-0.1,0.1-0.2,0.2-0.4c0.4-0.1,0.9,0,1.2-0.4c0.1-0.2,0.1-0.6,0.4-0.8
		c0.3-0.1,0.6,0,0.9,0.2c0.1,0.1,0.1,0.1,0.2,0.2c0.2,0.2,0.5,0.2,0.6,0c0.3-0.3,0.6-0.5,0.9-0.7c0.2-0.1,0.3-0.4,0.5-0.6
		c0.1,0,0.3,0,0.6-0.1c0.4,0,0.6-0.1,0.7-0.6c0.1-0.2,0.1-0.2,0.2-0.5c0.3-0.1,0.6,0.3,1,0.2c0.2-0.6,0.7-0.9,1.1-1.3
		c0.2-0.2,0.4-0.4,0.7-0.4c0.2,0,0.3-0.1,0.5-0.2c0.1-0.1,0.3-0.1,0.4-0.2c0.3,0.1,0.4,0.2,0.4,0.5c-0.1,0.1-0.2,0.3-0.3,0.5
		c0,0.3,0,0.5,0.3,0.6c0.3,0.1,0.5,0,0.7-0.2c0.5-0.4,0.6-0.9,0.7-1.4c0-0.2-0.1-0.3-0.2-0.4c-0.1-0.1-0.2-0.1-0.3-0.2
		c-0.4-0.2-0.8-0.4-1.1-0.8c-0.1-0.1-0.1-0.2-0.2-0.2c-0.2-0.1-0.3-0.1-0.5,0c-0.1,0.1-0.1,0.1-0.2,0.2c-0.1,0-0.1,0.1-0.2,0.1
		c-0.4-0.1-0.4-0.1-0.6-0.5c0.1-0.3,0.4-0.2,0.7-0.4c0.2-0.4,0.1-0.7-0.1-1.1c0-0.1-0.1-0.2-0.2-0.3c-0.2-0.3-0.1-0.5,0.3-0.7
		c0.1,0.1,0.1,0.2,0.2,0.2c0.1,0.4,0.4,0.6,0.7,0.8c0.2,0.1,0.4,0.2,0.5,0.5c0,0.2-0.1,0.4-0.2,0.6c0.2,0.3,0.4,0.2,0.6,0.2
		c0.5-0.2,0.9-0.4,1.1-0.9c0-0.3-0.1-0.5-0.3-0.6c-0.1,0-0.1-0.1-0.2-0.1c-0.2-0.1-0.2-0.3-0.2-0.5c0.1-0.2,0.3-0.3,0.5-0.2
		c0.2,0,0.3,0.1,0.5,0.2c0.2,0.1,0.4,0.3,0.6,0.3c0.3-0.2,0.3-0.5,0.4-0.9c-0.2-0.2-0.4-0.5-0.6-0.8c0.1-0.4,0.2-0.6,0.5-0.9
		c0.4-0.3,0.4-0.8,0.5-1.2c0-0.1-0.1-0.3-0.1-0.5c-0.1-0.3-0.1-0.5,0.1-0.7c0.5-0.5,0.7-1.2,0.9-1.9c0.2-0.9,0.4-1.7,0.7-2.6
		c0-0.1,0-0.1,0-0.2c0-0.7,0.3-1.4,0.5-2c0.1-0.3,0.2-0.5,0.3-0.8c0.1-0.2,0.1-0.4,0.2-0.7c0.2-0.6,0.4-1.2,0.6-1.8
		c0.1-0.2,0.2-0.3,0.2-0.5c0.6-1.8,1.4-3.5,2.2-5.2c0.5-1,1-2,1.5-3c0.4-0.6,0.7-1.3,1.2-1.8c0-0.1,0.1-0.1,0.1-0.2
		c0.1-0.4,0.3-0.8,0.6-1.1c0.1-0.1,0.1-0.2,0.2-0.3c0.2-0.6,0.6-1.1,1-1.6c0.3-0.4,0.6-0.9,0.9-1.3c0.4-0.7,0.9-1.4,1.4-2
		c0.2-0.3,0.5-0.6,0.7-0.8c0.3-0.3,0.6-0.6,0.8-1c0.1-0.2,0.3-0.4,0.4-0.6c0.5-0.6,1-1.2,1.5-1.8c0.2-0.3,0.5-0.6,0.8-0.8
		c0.3-0.3,0.6-0.6,0.8-0.9c0.4-0.4,0.7-0.9,1.1-1.3c1.2-1.4,2.5-2.7,3.9-4c0.7-0.6,1.3-1.3,1.9-1.9c0.3-0.3,0.6-0.5,0.9-0.8
		c0.4-0.4,0.8-0.8,1.2-1.1c0.3-0.3,0.7-0.6,1-0.9c0.3-0.3,0.6-0.6,0.9-0.9c1.5-1.5,3-2.9,4.6-4.2c0.5-0.4,0.9-0.8,1.4-1.1
		c0.7-0.4,1.2-1,1.8-1.5c0.2-0.1,0.3-0.3,0.5-0.5c0.3-0.3,0.8-0.3,1.1-0.1c0,0,0.1,0.1,0.1,0.1c1.2,1,2.4,1.9,3.4,3
		c0.5,0.5,1,1.1,1.5,1.7c0.3,0.3,0.5,0.7,0.6,1.2c0.1,0.2,0.1,0.5,0.3,0.6c0.4,0.7,0.7,1.4,0.9,2.3c0.2,1,0.2,2.1,0.1,3.1
		c-0.2,1-0.5,2-0.8,3c-0.1,0.2-0.2,0.4-0.2,0.6c-0.4,1.5-1.1,2.9-1.9,4.2c-0.8,1.3-1.7,2.5-2.6,3.7c-1.2,1.6-2.5,3.2-3.9,4.7
		c-1.4,1.7-2.9,3.3-4.4,4.9c-1.8,2-3.6,3.9-5.5,5.8c-0.7,0.8-1.5,1.5-2.3,2.3c-1,1-2.1,2.1-3.1,3.1c-0.9,0.9-1.8,1.9-2.8,2.8
		c-0.7,0.6-1.4,1.3-2.1,1.9c-0.3,0.2-0.5,0.5-0.7,0.8c-0.5,0.6-1,1.1-1.7,1.5c-0.3,0.2-0.6,0.5-0.8,0.8c-0.7,0.7-1.5,1.5-2.2,2.2
		c-0.9,0.9-1.9,1.8-2.9,2.7c-0.4,0.4-0.7,0.9-0.8,1.5c-0.2,1.2-0.2,2.3-0.2,3.5c0,0.9,0.2,1.8,0.4,2.7c0.2,1.1,0.6,2.1,1.3,3.1
		c0.6,0.9,1.4,1.5,2.4,1.7c1.3,0.3,2.6,0.4,3.9,0.1c1-0.3,2-0.5,3-0.8c1.2-0.4,2.3-1,3.5-1.6c1.9-1,3.6-2.1,5.4-3.3
		c1.1-0.7,2.2-1.5,3.3-2.3c0.8-0.5,1.5-1.1,2.3-1.5c0.2-0.1,0.3-0.3,0.5-0.4c1.2-0.9,2.4-1.8,3.7-2.7c0.8-0.6,1.6-1.2,2.5-1.8
		c0.3-0.2,0.5-0.3,0.8-0.5c0.6-0.3,1-0.8,1.5-1.1c0,0,0.1,0,0.1-0.1c1.3-0.8,2.3-1.9,3.6-2.7c0.3-0.2,0.6-0.5,0.9-0.7
		c0.9-0.8,1.9-1.5,2.9-2.2c0.5-0.3,0.9-0.7,1.3-1.1c0.6-0.7,1.3-1.1,2.1-1.5c0.2,0,0.4,0.1,0.6,0.1c0.1,0.2,0.1,0.4,0.2,0.6
		c-0.2,0.3-0.5,0.6-0.7,0.9c-0.1,0.1-0.2,0.2-0.3,0.3c-0.3,0.5-0.7,0.8-1.3,0.9c-0.2,0-0.4,0.2-0.5,0.3c-0.2,0.1-0.3,0.3-0.5,0.5
		c-0.2,0.3-0.5,0.4-0.8,0.5c-0.2,0-0.3,0.1-0.5,0.2c-0.2,0.2-0.4,0.3-0.6,0.5c-0.2,0.2-0.4,0.3-0.5,0.5c-0.3,0.3-0.5,0.6-0.9,0.7
		c-0.2,0-0.3,0.2-0.5,0.3c0,0.3-0.1,0.6-0.1,0.9c-0.2,0.1-0.3,0.1-0.5,0.2c-0.4,0.1-0.7,0.2-1.1,0.4c-0.3,0.1-0.5,0.2-0.8,0.3
		c-0.4,0.1-0.7,0.3-0.9,0.6c-0.3,0.4-0.6,0.8-1,1.2c-0.2,0-0.3,0-0.4,0c-0.2,0.1-0.4,0.2-0.4,0.5c-0.1,0.4-0.4,0.6-0.7,0.8
		c-0.2,0-0.4,0-0.5,0c-0.4,0.3-0.4,0.3-0.3,0.7c0.2,0.6,0.1,0.8-0.4,1.1c-0.4,0.2-0.8,0.5-1.2,0.9c-0.2,0.2-0.5,0.4-0.8,0.7
		c0,0-0.1,0.1-0.1,0.2c-0.2,0.3-0.4,0.5-0.7,0.6c-0.2,0-0.4,0.1-0.5,0.4c0,0.2,0.1,0.4,0.2,0.6c0,0.2-0.2,0.2-0.4,0.2
		c-0.3,0-0.5,0.2-0.7,0.4c-0.3,0.4-0.6,0.7-0.9,1c-0.1,0.1-0.2,0.3-0.3,0.4c-0.2,0.6-0.7,1.1-1.1,1.5c-0.2,0.3-0.4,0.5-0.6,0.8
		c-0.1,0.1-0.2,0.3-0.3,0.4c-0.5,0.4-1,0.8-1.6,1.1c-0.1,0.2-0.2,0.3-0.3,0.6c-0.4,0.3-0.9,0.6-1.2,1.1c0,0.2,0.1,0.3,0.1,0.5
		c0,0.2,0,0.4-0.2,0.4c-0.6,0.3-1,0.9-1.4,1.3c0,0-0.1,0-0.1,0.1c-0.4,0-0.8,0.1-1,0.7c0.1,0.1,0.1,0.3,0.2,0.4c0.5,0.1,1,0.1,1.4,0
		c0.2,0,0.4-0.2,0.6-0.4c0.3-0.3,0.3-0.3,0.7-0.4c0.2,0.1,0.1,0.3,0,0.4c-1.1,0.6-1.9,1.5-3.1,2.1c0,0-0.2,0-0.4,0
		c-0.2,0-0.4,0.1-0.5,0.2c-0.5,0.4-1.1,0.6-1.7,0.8c-0.5,0.2-0.9,0.5-1.4,0.7c-0.3,0.1-0.7,0.3-1.1,0.4c-0.8,0.2-1.6,0.4-2.4,0.6
		c-0.5,0.1-1,0.1-1.5,0.2c-1.1,0.1-2.2,0-3.2-0.4c-1.2-0.4-2.4-0.9-3.6-1.6c-0.9-0.5-1.6-1.1-2.4-1.8c-1.5-1.4-2.6-3.2-3.5-5.1
		c-0.1-0.3-0.3-0.6-0.5-0.9c-0.7-1.2-1-2.5-1.4-3.8c-0.1-0.3-0.2-0.5-0.6-0.6c-0.1,0.1-0.3,0.2-0.4,0.3c-1.1,1-2.3,2-3.4,3
		c-1.5,1.3-3.1,2.6-4.7,3.9c-1.4,1.2-2.9,2.3-4.3,3.4c-0.1,0.1-0.2,0.2-0.3,0.2c-0.6,0.4-1.2,0.8-1.8,1.3c-0.2,0.2-0.4,0.3-0.6,0.4
		c-0.5,0.4-1.1,0.8-1.6,1.1c-0.6,0.4-1.2,0.9-1.8,1.3c-0.7,0.5-1.4,1-2.2,1.6c-0.6,0.4-1.2,0.9-1.8,1.3c-0.1,0.1-0.2,0.1-0.3,0.2
		c-0.4,0.1-0.6,0.3-0.9,0.6c-0.4,0.4-0.8,0.6-1.2,0.9c-0.3,0.2-0.5,0.3-0.8,0.5c-0.1,0.1-0.1,0.1-0.2,0.2c-0.7,0.5-1.3,1-2,1.4
		c-0.6,0.4-1.2,0.7-1.8,1.1c-0.1,0.1-0.3,0.1-0.4,0.1c-0.3,0.1-0.5,0.2-0.7,0.4c-0.1,0.2-0.3,0.3-0.5,0.3c-0.1,0-0.3,0-0.4,0.1
		c-0.4,0.3-0.8,0.5-1.3,0.7c-0.1,0-0.2,0.1-0.3,0.2c-0.3,0.3-0.6,0.5-1.1,0.6c-0.1,0-0.1,0-0.1,0.1c-0.8,0.6-1.8,0.9-2.6,1.6
		c-0.1,0.1-0.1,0.1-0.2,0.1c-0.9,0.3-1.5,0.9-2.3,1.4c-1,0.5-1.9,1.1-2.9,1.6c-0.3,0.2-0.7,0.4-1,0.6c-0.1,0.1-0.3,0.2-0.4,0.2
		c-1.1,0.4-2.1,1.1-3.2,1.6c-0.6,0.3-1.3,0.5-1.9,0.8c-0.3,0.1-0.7,0.3-1,0.4c-0.4,0.2-0.9,0.3-1.3,0.5c-1.3,0.5-2.6,0.8-4,1.2
		c-0.4,0.1-0.8,0.1-1.2,0.2c-0.7,0.2-1.3,0.3-2,0.3c-0.7,0.1-1.4,0.1-2.2,0.1c-0.5,0-0.9,0-1.3-0.1c-0.3,0-0.6-0.1-0.9,0
		c-0.4,0.1-0.7,0-1-0.1c-1.5-0.3-2.9-0.9-4.3-1.6c-0.5-0.2-0.9-0.5-1.3-0.9c-0.2-0.2-0.4-0.4-0.7-0.5c-0.2-0.1-0.3-0.2-0.5-0.3
		c-0.7-0.6-1.3-1.3-1.9-2.1c-0.3-0.3-0.5-0.7-0.8-1c0,0-0.1-0.1-0.1-0.1c-0.6-1.1-1.4-2-1.8-3.2c-0.2-0.7-0.6-1.3-0.8-2
		c-0.3-0.8-0.6-1.7-0.8-2.5c-0.2-0.8-0.4-1.6-0.5-2.5c-0.1-0.5-0.1-1-0.1-1.5c0-1.4-0.1-2.8,0-4.1c0.1-0.7,0.1-1.4,0.2-2.2
		c0.1-1,0.2-2.1,0.5-3.1c0.1-0.2,0.1-0.5,0.1-0.7c0.1-0.6,0.2-1.2,0.3-1.8c0-0.1,0-0.3-0.1-0.4c0-0.1-0.2-0.2-0.3-0.2
		c-0.3,0.2-0.6,0.4-0.9,0.6c-1.7,1.2-3.5,2.4-5.2,3.6c-0.5,0.4-1,0.7-1.5,1.1c-0.1,0.1-0.2,0.2-0.4,0.3c-1,0.6-1.9,1.3-2.9,2
		c-1.4,1-2.9,2-4.4,3c-2.1,1.4-4.3,2.9-6.4,4.3c-1.2,0.8-2.4,1.5-3.5,2.2c-1.6,1-3.3,2.1-4.9,3.1c-1.3,0.8-2.7,1.6-4.1,2.4
		c-1.1,0.6-2.1,1.2-3.2,1.8c-1.2,0.6-2.4,1.3-3.6,1.9c-0.7,0.3-1.3,0.6-2,0.9c-1.6,0.7-3.3,1.3-4.9,2c-0.7,0.3-1.3,0.5-2,0.8
		c-0.3,0.1-0.6,0.2-0.9,0.3c-0.9,0.2-1.8,0.5-2.7,0.7c-0.6,0.1-1.3,0.2-1.9,0.3c-0.5,0.1-1,0.1-1.6,0.1c-0.2,0-0.4,0-0.5,0.1
		c-0.5,0.1-1,0.2-1.6,0.1c-0.3,0-0.5-0.1-0.8-0.1c-1.3,0.1-2.6-0.2-3.8-0.5c-1.5-0.3-2.9-0.8-4.2-1.4c-1.6-0.7-3.1-1.6-4.4-2.7
		c-1.2-1-2.3-2-3.3-3.2c-1-1.1-1.8-2.3-2.4-3.7c-0.3-0.5-0.5-1-0.8-1.5c-0.3-0.5-0.5-1-0.7-1.6c-0.3-0.8-0.6-1.6-0.9-2.4
		c-0.4-1.1-0.6-2.2-0.8-3.3c-0.2-0.7-0.2-1.4-0.3-2.1c-0.1-0.3-0.1-0.7-0.2-1c-0.1-0.3-0.1-0.6,0-0.9c0-0.2,0.1-0.3,0.1-0.5
		c0.1-0.4,0.1-0.8-0.2-1.2c-0.2-0.2-0.2-0.5-0.1-0.8c0.1-0.1,0.1-0.3,0.1-0.5c0-0.3,0.1-0.5,0.2-0.7c0.1-0.3,0.1-0.6,0-0.9
		c-0.2-0.5-0.2-1-0.2-1.5c0-0.3,0-0.7-0.1-1c-0.1-0.3,0-0.6,0.2-0.8C32,125,32.1,124.7,32.2,124.4z M53.1,86.1
		c0.2,0,0.4-0.1,0.6-0.2c0.5-0.4,1-0.8,1.5-1.1c0.4-0.3,0.7-0.5,1-0.9c0.1-0.1,0.2-0.2,0.3-0.3c0.6-0.4,1.1-0.9,1.6-1.4
		c0.2-0.2,0.5-0.4,0.7-0.6c0.8-0.7,1.6-1.4,2.5-2.1c0.5-0.4,1.1-0.9,1.6-1.3c0.1-0.1,0.2-0.2,0.3-0.2c0.7-0.6,1.3-1.3,2-1.9
		c1.6-1.4,3.2-2.8,4.8-4.2c1.6-1.4,3.1-2.8,4.6-4.2c1-0.9,1.9-1.8,2.9-2.7c1.9-1.7,3.7-3.4,5.6-5.2c1-1,2-2,3-3
		c0.9-0.9,1.7-1.7,2.6-2.6c0.7-0.8,1.5-1.5,2.2-2.3c0.5-0.5,0.9-1,1.4-1.5c1.3-1.4,2.5-2.8,3.8-4.3c1.2-1.3,2.3-2.7,3.5-4
		c1.3-1.6,2.6-3.2,3.8-4.8c0.7-0.9,1.3-1.8,2-2.8c0.3-0.4,0.6-0.7,0.8-1.1c0.3-0.4,0.6-0.9,0.9-1.4c0.4-0.6,0.7-1.1,1.1-1.7
		c1.1-1.6,2.1-3.2,3.1-4.9c0.8-1.4,1.6-2.9,2.1-4.4c0.1-0.2,0.1-0.3,0.1-0.5c0.1-0.5-0.2-0.8-0.7-0.8c-0.2,0-0.4,0-0.5,0.1
		c-1.4,0.2-2.7,0.5-3.9,1.2c-1.9,1.1-3.8,2.3-5.6,3.5c-0.2,0.2-0.5,0.3-0.7,0.5c-0.7,0.5-1.3,1-2,1.5c-1.3,1-2.7,2-3.9,3.2
		c-1.7,1.6-3.5,3.1-5.3,4.6c-1.5,1.4-3.1,2.8-4.5,4.3c-1.8,1.8-3.4,3.6-5.1,5.4c-1.1,1.2-2.2,2.4-3.2,3.5c-0.6,0.6-1.1,1.3-1.6,1.9
		c-0.3,0.3-0.6,0.7-0.8,1c-0.4,0.5-0.8,0.9-1.2,1.4c-0.6,0.7-1,1.4-1.6,2.1c-0.4,0.4-0.7,0.9-1,1.4c-0.2,0.3-0.4,0.7-0.6,1
		c-0.6,0.8-1.2,1.5-1.7,2.2c-0.5,0.6-0.9,1.2-1.3,1.9c-1,1.5-2.2,3-3.1,4.5c-0.5,0.9-1.2,1.7-1.7,2.6c-1.6,2.5-3.2,5-4.7,7.6
		c-0.8,1.4-1.6,2.9-2.4,4.3c-0.8,1.6-1.6,3.2-2.4,4.7c-0.2,0.5-0.5,1-0.8,1.4C53,85.7,52.9,85.9,53.1,86.1z M225,72.2
		c-0.3,0-0.5,0.2-0.7,0.4c-1.9,1.8-3.8,3.5-5.6,5.3c-1.3,1.3-2.5,2.6-3.8,3.9c-0.3,0.3-0.6,0.7-0.9,1c-0.3,0.4-0.7,0.7-1,1.1
		c-0.7,0.8-1.4,1.5-2,2.4c-0.7,0.9-1.4,1.7-2.1,2.5c-1.3,1.5-2.4,3.1-3.4,4.8c-0.3,0.6-0.7,1.1-1,1.7c-0.3,0.5-0.6,1.1-0.9,1.6
		c-0.1,0.1-0.1,0.3-0.2,0.4c-0.1,0.2-0.1,0.3-0.3,0.5c-0.3,0.4-0.4,0.7-0.1,1.2c0,0,0,0.1,0,0.2c-0.1,0.1-0.2,0.1-0.4,0.2
		c-0.3,0.1-0.4,0.2-0.5,0.5c-0.2,0.4-0.4,0.7-0.5,1.1c-0.1,0.1,0,0.3,0,0.5c0,0,0.1,0.1,0.1,0.1c0.1,0,0.1,0,0.2-0.1
		c0.1,0,0.2,0,0.2,0c0.2,0.5,0.2,0.6-0.3,0.9c-0.1,0-0.1-0.1-0.2-0.1c-0.1,0-0.2-0.1-0.2-0.1c-0.3,0-0.4,0.2-0.5,0.4
		c-0.3,0.6-0.5,1.1-0.7,1.7c0,0.1,0,0.2,0,0.3c0.5,0.3,0.9,0.6,1.3,0.9c0.2,0.5-0.2,0.8-0.2,1.2c0.1,0.1,0.1,0.1,0.2,0.2
		c0.2-0.1,0.3-0.3,0.4-0.4c0-0.2,0.1-0.3,0.1-0.5c0.2-0.3,0.4-0.4,0.7-0.5c0.3,0,0.5-0.2,0.6-0.6c-0.1-0.1-0.3-0.3-0.4-0.4
		c-0.2,0.1-0.4,0.2-0.6,0.3c-0.2,0.1-0.3,0.1-0.4-0.1c0.2-0.3,0.4-0.5,0.5-0.8c0.1-0.3,0.3-0.5,0.6-0.7c0.3-0.1,0.5-0.3,0.7-0.5
		c0.4-0.3,0.8-0.7,1.2-1c0.2-0.1,0.3-0.2,0.5-0.3c0-0.2-0.1-0.3-0.1-0.5c0.2-0.3,0.6-0.4,0.8-0.8c0-0.3-0.3-0.6,0.1-0.9
		c0.3,0.1,0.7,0.3,1,0.4c0.1-0.2,0.1-0.3,0.2-0.5c0.3-0.4,0.5-0.8,0.2-1.3c0.4-0.2,0.8-0.2,1.3-0.1c0.2,0.3,0.1,0.8,0.4,1
		c0.3,0,0.4-0.1,0.4-0.3c0.1-0.3,0-0.5-0.1-0.7c-0.1-0.1-0.1-0.2-0.2-0.3c0.2-0.1,0.3-0.1,0.5-0.2c0.3-0.3,0.4-0.8,1-0.6
		c0.1,0.1,0.2,0.3,0.3,0.4c0.4,0,0.4-0.4,0.6-0.5c0.2-0.1,0.5-0.2,0.6-0.5c-0.1-0.1-0.2-0.1-0.2-0.2c-0.3,0.1-0.4,0.5-0.8,0.4
		c-0.1-0.2-0.3-0.5-0.5-0.7c-0.2-0.2-0.2-0.5,0-0.7c0.3-0.2,0.4,0,0.6,0.1c0.2,0.2,0.4,0.4,0.6,0.6c0.4-0.1,0.4-0.6,0.8-0.7
		c0.2,0,0.5,0.1,0.7,0.1c0.1-0.1,0.2-0.3,0.2-0.4c0-0.3-0.2-0.6-0.1-0.9c0.3-0.3,0.7-0.2,1-0.2c0.3-0.1,0.4-0.3,0.4-0.6
		c0-0.3,0-0.5,0.1-0.8c0.1-0.3,0.1-0.6-0.1-0.9c-0.1-0.1-0.1-0.2-0.1-0.2c0.2-0.5,0.2-0.5,0.9-0.9c0.1-0.2,0.2-0.3,0.3-0.4
		c0.9-0.4,1.5-1,1.8-2c0.3-0.2,0.7-0.5,1.1-0.7c0.4-0.2,0.6-0.6,0.6-1c0-0.3,0-0.7,0.2-1c0.1-0.3,0-0.6-0.4-0.6
		c-0.2,0-0.4-0.1-0.5-0.1c-0.2,0.1-0.3,0.3-0.5,0.4c-0.5,0-1-0.3-1.5,0.1c0,0.1,0,0.2-0.1,0.3c0,0.1-0.1,0.3-0.1,0.4
		c-0.2,0.1-0.4,0.1-0.6,0.1c-0.3,0.1-0.5-0.1-0.7-0.3c-0.2-0.2-0.2-0.5-0.1-0.7c0.2-0.3,0.4-0.6,0.9-0.6c0.2,0,0.4,0,0.5,0
		c0.2-0.3,0.4-0.5,0.5-0.7c0-0.1-0.1-0.3-0.1-0.4c0.3-0.4,0.5-0.8,1-1c0.2-0.1,0.5-0.4,0.6-0.6c0.1-0.3,0.3-0.5,0.5-0.7
		c0.2-0.2,0.4-0.5,0.5-0.8c0-0.2,0.1-0.3,0.2-0.4c0.6-0.8,1.3-1.5,1.9-2.3c0.6-0.7,1.2-1.5,1.8-2.2c0.5-0.6,0.9-1.3,1.3-2
		C224.9,72.5,224.9,72.3,225,72.2z M218.9,83.3c0.2,0,0.4-0.1,0.6-0.1c0.2,0.2,0.4,0.4,0.6,0.6c0.2,0.1,0.5,0.1,0.8,0.2
		c0.2-0.1,0.3-0.3,0.5-0.4c0.4-0.1,0.5-0.4,0.5-0.8c0-0.1,0-0.2-0.1-0.2c-0.2-0.4-0.3-0.7-0.1-1.1c0.1-0.1,0.1-0.3,0-0.5
		c-0.1-0.3-0.3-0.6-0.6-0.7c-0.5,0.3-0.5,0.4-0.6,1.1c0.2,0.5,0.5,1,0,1.4c-0.5-0.1-0.7-0.3-0.8-0.7c0-0.2,0-0.3,0-0.5
		c0-0.1-0.1-0.2-0.1-0.4c-0.1,0-0.2,0.1-0.3,0.1c0,0.3,0.1,0.6,0.1,0.9C219.4,82.6,218.7,82.7,218.9,83.3z M149.4,147.6
		c-0.3,0-0.5,0.2-0.6,0.4c-0.1,0.4-0.3,0.5-0.6,0.6c-0.5,0.1-0.9,0.4-1.2,0.8c-0.1,0.8-0.3,1.1-1,1.4c-0.2,0.1-0.4,0.2-0.6,0.4
		c-0.1,0.1-0.1,0.2-0.1,0.3c0.3,0.2,0.5,0.1,0.7,0c0.3-0.2,0.6-0.3,0.9-0.4c0.3-0.1,0.5-0.3,0.6-0.5c0-0.1,0-0.1,0-0.1
		c0-0.1,0-0.1-0.1-0.2c-0.2-0.6-0.1-0.7,0.5-1c0.2,0.1,0.5,0.3,0.7,0.5c0.2,0.1,0.5,0.1,0.7-0.1c0.3-0.2,0.4-0.5,0.5-0.8
		c0.2-0.1,0.3-0.1,0.5-0.2c0-0.1,0-0.3,0-0.4C150.1,148,149.7,147.8,149.4,147.6z M199.4,106.4c-0.3,0.1-0.4,0.2-0.4,0.4
		c-0.1,0.4-0.3,0.9-0.4,1.3c-0.1,0.2,0,0.4,0.2,0.6c0.1,0,0.3,0,0.4-0.1c0.3-0.4,0.6-0.6,0.9-0.9c0.2-0.2,0.3-0.4,0.1-0.7
		C200,106.8,199.7,106.6,199.4,106.4z M133.5,86.6c0.6-0.1,0.8-0.3,1-0.5c0.1-0.2,0.1-0.4,0-0.6c-0.1-0.1-0.2-0.1-0.3-0.2
		c-0.4,0.1-0.7,0.3-0.9,0.6c-0.2,0.2-0.2,0.4,0,0.6C133.3,86.5,133.4,86.6,133.5,86.6z M205.8,101.1c0.1,0.3,0.3,0.3,0.5,0.4
		c0.4-0.2,0.8-0.4,1-0.8c0-0.2-0.1-0.4-0.1-0.6c-0.3-0.1-0.5-0.1-0.6,0.1c-0.2,0.2-0.5,0.5-0.7,0.7
		C205.8,100.9,205.8,101,205.8,101.1z M126.5,114.5c-0.1-0.3-0.3-0.4-0.6-0.4c-0.6,0-1,0.6-0.9,1.2c0.2,0.1,0.2,0.1,0.5,0.1
		c0.1-0.1,0.2-0.3,0.3-0.4c0.1-0.1,0.3-0.2,0.5-0.3C126.4,114.7,126.5,114.6,126.5,114.5z M72.2,43.1c-0.1,0.4,0,0.6,0.4,0.7
		c0.5,0.1,1-0.3,1.1-0.8c-0.2-0.4-0.4-0.4-0.6-0.2C72.8,43,72.5,43,72.2,43.1z M151.6,147.3c-0.6,0.3-0.7,0.6-0.4,1.1
		c0.1,0,0.2,0,0.3,0c0.2-0.1,0.4-0.3,0.5-0.6C151.9,147.6,151.8,147.5,151.6,147.3z M114.7,121.2c-0.4,0.6-1,0.9-0.8,1.6
		c0.2,0.1,0.3,0,0.4-0.2c0.2-0.3,0.3-0.5,0.5-0.8C114.8,121.7,114.9,121.5,114.7,121.2z M143.6,151.9c0.2,0.4,0.2,0.5,0.4,0.4
		c0.2,0,0.3-0.1,0.3-0.5C144,151.6,143.9,151.6,143.6,151.9z M138.7,77.9c-0.3,0.1-0.5,0.3-0.4,0.6c0,0.2,0.1,0.2,0.3,0.2
		C138.9,78.4,138.9,78.3,138.7,77.9z M179,123.6c-0.1-0.2-0.3-0.3-0.5-0.2c-0.1,0-0.1,0.2-0.2,0.3c0.1,0.1,0.2,0.2,0.3,0.3
		C178.8,123.9,179,123.8,179,123.6z M144.7,150.4c0.3,0.3,0.5,0.2,0.7-0.3c-0.1-0.1-0.1-0.1-0.2-0.2
		C144.9,150,144.8,150.2,144.7,150.4z M204.6,103.1c-0.2-0.1-0.3-0.2-0.4-0.2c-0.1,0-0.2,0-0.2,0.1c0,0.1-0.1,0.2-0.1,0.2
		c0,0.1,0.1,0.2,0.2,0.3C204.3,103.4,204.4,103.3,204.6,103.1z M172,128.4c0.2-0.2,0.3-0.4,0.1-0.6c-0.2-0.1-0.4,0-0.5,0.3
		C171.8,128.2,171.9,128.3,172,128.4z M218.2,83.3c-0.3-0.3-0.3-0.3-0.6-0.1C217.8,83.6,217.8,83.6,218.2,83.3z M167.3,81
		c-0.1-0.2-0.2-0.2-0.3-0.2c-0.2,0.1-0.2,0.2,0,0.4C167.1,81.3,167.2,81.2,167.3,81z M110.2,125.8c0.1,0.1,0.2,0.2,0.3,0.4
		c0.1-0.1,0.2-0.2,0.2-0.3C110.6,125.6,110.5,125.6,110.2,125.8z M170.1,127.9c0.2,0,0.3-0.1,0.4-0.3c-0.1,0-0.1-0.1-0.2-0.1
		C170.1,127.6,170,127.7,170.1,127.9z M48.1,82.1c0-0.2-0.1-0.3-0.2-0.2c-0.1,0-0.1,0.1-0.2,0.2C47.8,82.2,47.9,82.2,48.1,82.1z
		 M130.5,87.6c0,0.1-0.1,0.2-0.1,0.3c0.1,0,0.2,0.1,0.3,0.1C130.8,87.8,130.8,87.7,130.5,87.6z M160.7,136.2c0.1,0,0.2,0,0.3-0.1
		c0.1-0.1,0.1-0.2-0.1-0.3C160.7,135.9,160.6,136,160.7,136.2z M200.2,105.5c-0.3-0.1-0.3-0.1-0.4,0.2
		C200,105.8,200,105.8,200.2,105.5z M104.3,130.7c-0.1-0.1-0.1-0.1-0.2-0.2c-0.1,0.1-0.1,0.2-0.1,0.3
		C104.1,131,104.2,130.9,104.3,130.7z M133.7,101.6c0,0,0,0.1,0,0.1c0.1,0,0.2,0.1,0.3,0.2c0-0.1,0-0.2,0-0.3
		C133.9,101.5,133.8,101.5,133.7,101.6z M158.6,135.9c-0.2-0.1-0.2-0.2-0.4-0.3c0,0.2,0,0.2,0,0.4C158.3,136,158.4,136,158.6,135.9z
		 M166.7,43.4c-0.1-0.3-0.2-0.3-0.3,0C166.5,43.4,166.6,43.4,166.7,43.4z M136,99.8c0.3-0.2,0.3-0.2,0-0.4
		C136,99.5,136,99.6,136,99.8z M133.1,84.9c-0.1-0.1-0.1-0.1-0.1-0.1c0,0-0.1,0.1-0.1,0.1c0,0,0,0.1,0.1,0.1
		C133,85,133,84.9,133.1,84.9z"/>
	<path class="st0" d="M152.1,94.1c0.2,0.1,0.4,0.2,0.5,0.3c0.4,0,0.6-0.3,0.6-0.6c0.2-0.1,0.3-0.2,0.4-0.3c0-0.1,0-0.1,0-0.2
		c-0.1-0.2-0.2-0.3-0.3-0.5c-0.2-0.3-0.1-0.5,0.1-0.7c0.2-0.2,0.4-0.4,0.7-0.6c0.1,0.1,0.3,0.1,0.4,0.2c0,0.1-0.1,0.2-0.1,0.3
		c-0.1,0.3,0,0.6,0.2,0.8c0.1,0.1,0.2,0.2,0.4,0c0-0.1,0-0.3,0-0.4c0.1-0.3,0.4-0.4,0.7-0.4c0.2-0.2,0.3-0.4,0.5-0.6
		c0.4,0.1,0.8,0,0.9,0.4c-0.1,0.3-0.3,0.4-0.5,0.6c-0.4,0.4-0.9,0.7-1.3,1c0,0-0.1,0-0.1,0.1c-0.7,0.8-1.5,1.5-2.3,2.2
		c-0.5,0.5-1.1,0.9-1.7,1.3c-0.2,0.2-0.5,0.1-0.7-0.1c-0.1-0.2-0.1-0.5,0.1-0.7c0.1-0.1,0.2-0.2,0.4-0.2c0.4-0.2,0.6-0.5,0.6-0.9
		C151.6,94.8,151.8,94.5,152.1,94.1z"/>
	<path class="st0" d="M158,83.2c-0.3,0.2-0.6,0.4-0.9,0.6c-0.1,0.1-0.3,0.2-0.3,0.3c-0.3,0.5-0.8,0.8-1.2,1.1
		c-0.2,0.2-0.4,0.3-0.6,0.4c-0.6,0-0.9-0.2-1-0.7c0-0.2-0.1-0.3-0.2-0.4c-0.1-0.3-0.1-0.5,0.1-0.7c0.1-0.2,0.3-0.3,0.5-0.4
		c0.4-0.3,0.8-0.6,1.1-1c0.1-0.2,0.3-0.3,0.4-0.4c0.2-0.1,0.4-0.3,0.6-0.4c0,0.1,0.1,0.1,0.1,0.1c0.1,0.3,0.4,0.5,0.6,0.7
		c0.2,0.1,0.3,0.2,0.5,0.3C157.8,82.8,157.8,82.8,158,83.2z M155.6,84.1c-0.2-0.3-0.2-0.6-0.5-0.8c-0.3,0.1-0.3,0.1-0.4,0.3
		C154.8,84.2,155.1,84.4,155.6,84.1z"/>
	<path class="st0" d="M176.9,61.7c0.5,0.1,0.9-0.3,1.2-0.6c0.3,0,0.6,0.1,0.7,0.4c0,0.3-0.2,0.4-0.3,0.5c-0.2,0.1-0.4,0.3-0.5,0.6
		c-0.2,0.4-0.4,0.7-0.7,0.8c-0.3,0.4,0.1,1-0.4,1.3c-0.3,0-0.5-0.4-0.9-0.1c-0.1,0.2-0.1,0.5-0.1,0.8c0,0.3,0,0.3-0.2,0.6
		c-0.6,0.1-0.9,0-1.2-0.5c0.3-0.6,0.9-1.1,1.3-1.7c-0.1-0.3-0.3-0.5-0.4-0.7c0.1-0.3,0.3-0.4,0.5-0.5c0.4,0.1,0.2,0.4,0.3,0.6
		c0.1,0,0.2,0,0.3,0c0.2-0.2,0.5-0.5,0.6-0.8C177.1,62.1,177,61.8,176.9,61.7L176.9,61.7z"/>
	<path class="st0" d="M143.4,102.5c0-0.2,0.1-0.3,0.3-0.4c0.2-0.1,0.3-0.2,0.4-0.3c0.3-0.2,0.4-0.5,0.4-0.8c0-0.3,0-0.3,0.2-0.5
		c0.3,0,0.6-0.1,0.8-0.1c0.4-0.1,0.7-0.4,0.9-0.8c0.1-0.2,0.1-0.4,0.2-0.6c0.1,0,0.2,0,0.2,0.1c0.2,0.2,0.4,0.4,0.6,0.5
		c0.2,0.1,0.3,0.4,0.1,0.6c-0.2,0.2-0.4,0.4-0.6,0.6c-0.2,0.1-0.4,0.2-0.5,0.4c-0.5,0.4-1,0.9-1.6,1.3
		C144.5,102.8,144,102.8,143.4,102.5C143.4,102.6,143.4,102.5,143.4,102.5z"/>
	<path class="st0" d="M159.8,80.8c-0.1,0.7-0.5,1.1-1.1,1.3c-0.1,0.1-0.3,0-0.4,0c-0.2-0.1-0.3-0.2-0.5-0.3c0-0.2-0.1-0.3-0.1-0.4
		c0-0.1,0-0.3,0-0.4c-0.1-0.1-0.2-0.2-0.3-0.3c0-0.1,0.1-0.2,0.2-0.3c0.1,0.1,0.3,0.1,0.4,0.2c0.3-0.1,0.7-0.3,1.1-0.4
		C159.4,80.4,159.6,80.6,159.8,80.8z"/>
	<path class="st0" d="M180.8,120.4c0.3,0.1,0.4,0.3,0.4,0.5c-0.1,0.3-0.4,0.2-0.6,0.5c-0.1,0.2-0.3,0.6-0.7,0.6
		c-0.5-0.3-0.5-0.3-0.4-0.8c0.3-0.2,0.6-0.4,0.9-0.6C180.5,120.5,180.7,120.5,180.8,120.4z"/>
	<path class="st0" d="M182.1,117.3c0,0.1,0.1,0.1,0.1,0.2c0,0.1,0.1,0.1,0.1,0.2c-0.2,0.4-0.4,0.8-0.6,1.1c-0.6,0.2-0.8,0.1-1.1-0.3
		c0.1-0.3,0.4-0.4,0.6-0.6C181.5,117.6,181.7,117.4,182.1,117.3z"/>
	<path class="st0" d="M141.7,104.6c-0.1-0.1-0.2-0.2-0.3-0.3c0.1-0.4,0.3-0.6,0.6-0.9c0.2-0.2,0.5-0.2,0.8-0.1
		C142.8,104,142.4,104.4,141.7,104.6z"/>
	<path class="st0" d="M157.7,91.3c-0.1-0.2-0.1-0.4-0.1-0.7c0-0.4,0.2-0.6,0.5-0.6c0.3,0,0.6,0,0.8,0.2
		C158.8,90.8,158.4,91.2,157.7,91.3z"/>
	<path class="st0" d="M182,120c-0.1-0.1-0.1-0.1-0.1-0.2c0-0.1,0-0.1,0-0.2c0-0.1,0.1-0.1,0.1-0.1c0.4-0.2,0.7-0.6,0.9-1
		c0.1-0.1,0.2-0.3,0.4-0.3c0.1,0.1,0.2,0.2,0.4,0.3c0,0.3-0.2,0.4-0.4,0.5c-0.4,0.2-0.7,0.4-0.9,0.7C182.3,119.9,182.1,120,182,120z
		"/>
	<path class="st0" d="M140.8,104.9c-0.2,0.3-0.3,0.5-0.5,0.8c-0.1,0.2-0.3,0.3-0.6,0.3c-0.1-0.1-0.1-0.3-0.2-0.4
		c0.2-0.4,0.5-0.7,0.8-0.8C140.5,104.7,140.6,104.7,140.8,104.9z"/>
	<path class="st0" d="M149.8,98.2c-0.3,0.6-0.5,0.6-1,0.5c-0.2-0.4-0.1-0.7,0.2-0.8c0.2-0.1,0.4-0.1,0.5,0
		C149.7,97.8,149.8,98,149.8,98.2z"/>
	<path class="st0" d="M163,76.7c0.3,0.4,0.2,0.7,0.2,1.1c-0.4,0.2-0.4,0.2-0.8-0.3C162.4,77.2,162.7,76.9,163,76.7z"/>
	<path class="st0" d="M167.9,128.9c0,0.4-0.3,0.5-0.5,0.7c-0.3,0.1-0.5,0.2-0.8,0c0.2-0.4,0.6-0.6,0.9-0.8
		C167.6,128.8,167.8,128.8,167.9,128.9z"/>
	<path class="st0" d="M180.1,118.9c0.3,0.5,0.3,1-0.2,1.1c-0.2,0.1-0.4,0-0.5-0.1c-0.1-0.1-0.1-0.3,0.1-0.5
		C179.6,119.3,179.8,119.1,180.1,118.9z"/>
	<path class="st0" d="M184.5,117.6c0.3,0.2,0.6,0.2,0.5,0.6c-0.2,0.2-0.4,0.1-0.6,0C184.3,118,184.3,117.8,184.5,117.6z"/>
	<path class="st0" d="M136.6,103.4c0.2-0.3,0.3-0.5,0.4-0.7c0.1,0.1,0.2,0.1,0.3,0.2c0.1,0.3-0.1,0.5-0.4,0.7
		C136.8,103.6,136.8,103.5,136.6,103.4z"/>
	<path class="st0" d="M160.2,78.5c-0.1-0.1-0.1-0.1-0.2-0.2c0.1-0.3,0.2-0.5,0.4-0.7C160.7,78.1,160.6,78.2,160.2,78.5z"/>
	<path class="st0" d="M173.1,65.3c0,0.5,0,0.5-0.3,0.8c-0.1-0.1-0.2-0.2-0.3-0.3C172.7,65.5,172.9,65.4,173.1,65.3z"/>
	<path class="st0" d="M160.9,77.6c0.1-0.3,0.3-0.7,0.7-0.8C161.4,77.4,161.3,77.5,160.9,77.6z"/>
	<path class="st0" d="M174.2,66.1c0.1,0.1,0.1,0.2,0.2,0.3c-0.2,0.2-0.3,0.2-0.6,0.1C173.8,66.3,174,66.2,174.2,66.1z"/>
	<path class="st0" d="M155.7,90.9c0-0.1,0-0.2,0.1-0.3c0.3-0.1,0.4,0.1,0.5,0.3C156,91.1,155.9,91,155.7,90.9z"/>
	<path class="st0" d="M171.7,66.9c-0.1,0.2-0.2,0.3-0.4,0.4c0-0.1-0.1-0.2,0-0.3C171.4,66.8,171.5,66.7,171.7,66.9z"/>
	<path class="st0" d="M60,59.5c0,0.2,0,0.3,0,0.5c-0.1,0-0.1,0-0.1-0.1C59.8,59.8,59.7,59.7,60,59.5z"/>
	<path class="st0" d="M176.5,122c0.1-0.1,0.2-0.1,0.3-0.2C176.7,122,176.7,122,176.5,122z"/>
	<path class="st0" d="M158.3,79.8c-0.1,0.1-0.1,0.2-0.2,0.3C158.1,79.9,158.1,79.8,158.3,79.8z"/>
	<path class="st0" d="M177,61.6C176.9,61.6,176.9,61.6,177,61.6C176.9,61.6,176.9,61.6,177,61.6L177,61.6z"/>
	<path class="st0" d="M205.6,96.8c0.2-0.2,0.5-0.2,0.7-0.2c0.3,0,0.5,0.2,0.6,0.5c0.1,0.3,0.1,0.4-0.3,0.7c-0.3,0-0.6-0.1-0.9-0.1
		C205.5,97.3,205.5,97,205.6,96.8z"/>
	<path class="st0" d="M211.8,88.1c0.2,0,0.3,0.1,0.4,0.3c-0.2,0.2-0.3,0.5-0.3,0.9c0,0.2-0.1,0.3-0.2,0.5c-0.4,0-0.7,0.1-0.9-0.3
		c0.1-0.4,0.5-0.4,0.7-0.7C211.6,88.4,211.6,88.4,211.8,88.1z"/>
	<path class="st0" d="M214.4,92.3c0,0-0.1,0.1-0.1,0.1c0,0-0.1-0.1-0.1-0.1c0,0,0.1-0.1,0.1-0.1C214.3,92.2,214.4,92.2,214.4,92.3z"
		/>
</g>
</svg>
