<?xml version="1.0" encoding="utf-8"?>
<!-- Generator: Adobe Illustrator 23.0.6, SVG Export Plug-In . SVG Version: 6.00 Build 0)  -->
<svg version="1.1" id="Layer_1" xmlns="http://www.w3.org/2000/svg" xmlns:xlink="http://www.w3.org/1999/xlink" x="0px" y="0px"
	 viewBox="0 0 1939.9 579.1" style="enable-background:new 0 0 1939.9 579.1;" xml:space="preserve">
<style type="text/css">
	.st0{fill:#F8BEAA;}
</style>
<g>
	<path class="st0" d="M389.9,436.6c-0.2,0.8-0.4,1.5-0.6,2.5c-3.4-1.5-3.4-5.3-5.3-7.6c-2-2.4-2.8-5.7-4-8.6c-1.2-2.9-2.1-6-3.2-8.9
		c-1.2,0.2-2.2,0.7-2.9,0.5c-1.4-0.5-2.3-1.8-2.6-3.2c-0.3-1.4-0.7-2.3-2.4-2.3c-0.5,0-1.2-1-1.5-1.6c-0.9-1.5-0.6-3.5-2.2-4.6
		c-0.2-0.1,0.1-0.9,0.1-1.3c0-4.3-1.1-8.5-2.1-12.6c-0.4-1.4-0.9-2.7-1-4.1c-0.2-2.9-0.8-5.7-2.1-8.3c-0.7-1.4-0.9-2.6-0.3-4.1
		c0.4-1.1,0.3-2.5,0.3-3.8c-0.1-4-0.1-8-0.3-12c-0.1-1.4-0.4-2.8-0.4-4.2c-0.1-1.4,0-2.7,0-4.6c-1.2,0.8-2.1,1.2-2.9,2
		c-3.7,3.7-7.2,7.7-11.1,11.3c-6.6,6.3-13.2,12.6-20.1,18.6c-9.9,8.6-20,17-30.2,25.2c-5.5,4.4-10.5,9.4-15.8,14
		c-1,0.8-1.9,1.8-2.5,2.8c-0.7,1.1-1.1,2.3-1.7,3.7c-3.7,1.4-6.9,3.5-9.5,6.6c-1.7,2-3.8,3.8-5.5,5.9c-1.6,1.9-3.8,3.5-6,4.7
		c-2.9,1.6-5.3,3.7-7.4,6c-3.5,4-7,7.8-11.5,10.7c-0.7,0.4-1.4,0.9-1.7,1.6c-1.3,2.4-3.4,3.8-5.8,4.8c-2.1,0.9-3.3,2.7-4.8,4.6
		c1.8,0.4,2.7-0.7,3.7-1.3c1-0.7,2-1.5,3-2.2c1,0.8,0.4,1.3,0,1.7c-4,3.5-8,6.9-12,10.3c-16.6,13.8-33.6,27.2-51,39.9
		c-7.4,5.4-14.9,10.5-22.3,15.8c-5.5,3.9-10.6,8.3-15.6,12.7c-1.3,1.1-2.8,2.1-4.3,2.9c-1.7,0.8-3,0.4-4.2-1
		c-0.5-0.6-1.1-1.2-1.5-1.9c-2-3.8-4.7-7.1-7-11c-1.1-0.5-2.4-1.1-3.4-1.6c-1-1.6-1.6-3.1-2.6-4.2c-3-3.1-4.3-7.3-6.8-10.7
		c-0.7-1-1.4-2.1-2.3-3c-1.8-1.9-3.5-3.7-3.8-6.5c-1.1-0.3-2-0.5-2.9-0.7c-1.2-0.3-2.1-1-2.1-2.3c0-2.5-1.5-3.7-3.3-4.8
		c-0.4-0.2-0.8-0.6-1.3-1.1c0-0.9-0.1-2-0.2-3.2c-1.5-1.6-3.6-1.4-5.8-1.7c-1.1-2.6-2.2-5.2-3.4-7.9c-1.8-1-3.1,0.8-4.8,1.3
		c-0.3-1.2-0.3-2.5-0.9-3.5c-0.5-1.1-1.6-1.9-2.5-2.9c0.3-1,0.6-2,0.8-3c-3.6-3.8-7.1-7.4-9.4-12.1c-1.2-2.4-3.3-4.3-5-6.4
		c-0.4-0.4-1.1-0.7-1.7-0.8c-1.1-0.3-2.2-0.5-3.5-0.8c-0.3-1.2-0.5-2.4-0.9-3.6c-0.3-0.9-0.7-1.9-1.3-2.4c-1.1-0.9-1.8-1.7-1.7-3.2
		c0-0.5-0.6-1.1-1-1.5c-3.6-2.6-5.9-6.7-9.6-9.1c-1-1.9-3.2-3.3-3-5.8c0.2-2.3,2.4-2.8,3.9-3.9c24.9-17.4,49.6-35.1,73.2-54.3
		c17.1-13.9,34.1-28,50.6-42.7c25.2-22.4,50.4-44.9,75.5-67.4c8-7.2,15.7-14.6,23.6-21.9c8-7.4,16-14.7,24-22.1
		c11.5-10.6,23-21.3,34.6-31.9c9-8.2,18.1-16.2,27.2-24.3c19.6-17.4,38.7-35.5,57.4-53.9c11.4-11.2,23-22.2,34.5-33.3
		c4.6-4.4,9.5-8.6,14-13.1c9.8-10.1,20-19.8,28.9-30.7c2.3-2.8,4.5-5.8,7.9-7.5c1.5-0.7,2.8-1.4,4.5-1.2c1.2,0.2,2.5,0,4,0
		c1.7,3.1,1.6,7.4,5.3,9.5c-0.1,4.3,2.3,7.5,4.3,11c0.5,0.8,1.1,1.6,1.8,2.2c2.9,2.8,4,6.4,4.9,10.1c0.8,3.6,1.7,7.1,4.3,10
		c0.7,0.7,1,2,1,3.1c0.1,2.9,1.4,4.9,3.7,6.4c1.9,1.2,2.2,2.6,1.3,4.4c-0.2,0.4-0.3,0.9-0.4,1.4c1.1,0.6,2.5,0.7,2.8,2.2
		c0.5,2.3,2.4,4.2,2.3,6.7c0,0.3,0.1,0.8,0.3,0.9c2.5,1.5,1.3,4,1.5,5.7c1.8,1.9,3.7,3.3,5,5.2c1.7,2.2,3.8,4.1,4.9,6.8
		c0.2,0.6,0.6,1,0.3,1.7c-0.3,0.6-0.3,1.3,0.4,1.6c2.2,0.7,2.9,2.6,3.3,4.4c0.4,1.8,2.2,3.2,1.5,5.4c-0.1,0.2,0.1,0.7,0.3,0.8
		c1.8,1.6,2,3.9,2.2,6.1c1.6,1.2,3.8,1.1,4.8,3.1c0.6,1.1,1.5,2,0.8,3.5c-0.2,0.4-0.2,1.2,0.1,1.3c2,1.2,0.9,3.6,2,5.2
		c1,1.4,1.4,3.2,2.1,4.7c0.8,1.7,1.9,3.4,2.7,5.1c0.6,1.3,1.1,2.7,1.4,4.1c0.1,0.7,0,1.8-0.5,2.2c-2.9,2.7-4.2,6.4-6.2,9.6
		c-4.9,8-9.7,16.2-14.6,24.2c-1.9,3.1-4,6.1-5.5,9.5c-1.9,4.2-4.4,8.1-6.5,12.3c-3.3,6.4-6.4,12.9-9.6,19.3
		c-2.9,5.9-5.8,11.8-8.6,17.6c-1.3,2.6-2.5,5.2-3,8.1c-0.3,1.7-1,3.4-1.6,5c-1.8,4.9-3.4,10-5.5,14.8c-2.9,6.8-4.9,13.8-7.2,20.8
		c-3.8,11.7-7.3,23.5-11,35.2c-3.6,11.6-6.8,23.3-9.6,35.1c-3.3,13.8-6.8,27.6-8.9,41.7c-0.6,4.1-1.1,8.2-1.5,12.4
		c-0.2,1.6,0,3.2,0.1,4.6c1.8,1.7,3.6,1.8,5.5,1.1c5.9-1.9,11.9-3.6,17.8-5.7c19.4-6.9,37.2-16.9,54.7-27.6
		c6.3-3.8,12.5-7.7,18.6-11.8c8.6-5.8,17.1-11.8,25.7-17.6c3-2.1,6.1-4,9.2-6.1c2.9-2,5.7-4.1,8.5-6.2c5-3.7,9.9-7.6,15-11.1
		c5.8-4,11-8.8,16.6-13c3.9-3,7.9-5.9,11.9-8.9c1.7-1.3,3.2-2.6,4.8-3.9c5-4.2,10.1-8.4,15.1-12.6c2.4-2.1,4.8-4.2,7.1-6.4
		c4-3.7,8-7.3,12-11c2.6-2.4,5.2-4.7,7.8-7c3.5-3.1,7-6,10.4-9.1c3.7-3.3,7.3-6.7,10.9-10.1c6.3-5.9,12.5-11.9,18.7-17.9
		c6.6-6.5,13.2-13.1,19.8-19.6c10-9.9,20-19.8,29.9-29.8c6.2-6.3,12.2-12.7,18.2-19.1c2.6-2.8,4.9-5.9,7.4-8.7
		c1.5-1.7,3.2-3.1,4.8-4.6c1-1,2.2-1.9,2.9-3.1c4.6-7.4,10.9-13.3,16.2-20.1c1.9-2.4,3.6-4.9,4.4-7.9c0.1-0.3,0.1-0.7,0.3-0.9
		c3.5-5.4,4.8-11.8,8.2-17.2c1.1-1.7,2.4-3.4,4-4.8c5-4.5,6.2-7,6.3-13.8c1.3-1.3,2.5-2.8,4-4c2.2-1.8,4.8-3,7.6-3.7
		c1.1-0.3,2.2-0.2,3.3-0.3c1.7-0.1,2.4,0.4,2.9,1.9c0.2,0.8,0.2,1.6,0.5,2.3c0.7,2.1,1.1,4.3,2.9,5.9c0.7,0.6,0.8,2,1,3.1
		c0.3,1.9,0.4,3.9,2.2,5.1c1,3.6,3.6,6.2,5.5,9.4c0.9,1.6,1.5,3.6,1.6,5.4c0.1,2.4,0.9,4.6,1.5,6.9c0.5,1.9,0.9,3.6,1.9,5.3
		c0.7,1.2,0.7,2.8,1,4.1c0.5,2.3,0.8,4.7,3.5,5.9c0.7,0.3,1.3,1.5,1.4,2.3c0.3,3.5,1.5,6.7,2.9,10c1.2,2.8,1.2,6.1,1.9,9.9
		c0.1,0,0.8,0.3,1.4,0.8c0.6,0.4,1.5,1,1.6,1.6c0.4,3.2,3.5,4.6,4.5,7.2c1,2.5,1.5,5.2,3.7,7.1c0.2,0.2,0.5,0.5,0.5,0.8
		c1.3,5.4,3.7,10.4,4.5,16c0,0.2,0.1,0.3,0.3,0.8c1,0.3,2.2,0.6,3.6,1c0.2,0.8,0.4,1.7,0.5,2.6c0.4,4,0.9,7.9,1.2,11.9
		c0.1,1.4,0.9,2.3,1.8,3.2c1.2,1.2,1.9,2.5,1.9,4.2c0,0.9,0.5,1.8,0.7,2.8c0.6,2.3,0.2,4.3-1.1,6.4c-1.7,2.7-3.1,5.6-4.7,8.3
		c-3.9,6.8-7.7,13.6-11.6,20.4c-3.5,6.1-5.9,12.7-8.4,19.3c-1.9,5.1-3.8,10.2-5.7,15.3c-0.6,1.6-0.9,3.4-1.5,5
		c-1.8,5.5-3.6,10.9-5.3,16.4c-0.8,2.6-1.9,5.1-1.9,7.9c0,0.3,0,0.7-0.2,0.9c-2.1,3.9-1.8,8.4-3,12.5c-1.2,4.1-2.2,8.3-3.1,12.6
		c-0.8,3.7-1.5,7.5-2.3,11.3c-0.7,3.5-0.7,6.9-0.1,10.4c0.4,2.7,0.3,5.5-2,7.5c-1,1-1.4,2.1-1.5,3.4c-0.5,4.1-0.9,8.2-1.1,12.3
		c-0.1,1.8-0.6,3.4-1.1,5.1c-1,3,1,5.8,4.2,6c0.6,0,1.3,0,1.9,0c7.3-0.9,14.5-1.9,21.7-3.6c12.3-2.9,24.3-6.8,35.9-11.8
		c7.4-3.3,15.2-5.9,22.3-10c1.4-0.8,3-1,4.5-1.7c6.3-3.1,12.5-6.3,18.8-9.5c4.3-2.2,8.7-4.1,12.8-6.5c9.4-5.5,19.1-10.3,28.2-16.4
		c3.3-2.2,6.9-3.9,10.3-6c4.2-2.6,8.3-5.4,12.4-8.2c8.7-5.9,17.3-12.1,26.2-17.7c6.9-4.3,13.1-9.6,19.8-14.3
		c5.9-4.1,11.8-8.2,17.5-12.6c8.7-6.5,17.5-12.8,25.4-20.3c0.2-0.2,0.5-0.5,0.7-0.6c10.8-7.2,20.2-16.1,30-24.5
		c5.7-4.9,11.3-9.9,16.9-14.9c1.1-0.9,2-2.1,3-3.1c1.9-1.8,3.7-3.5,5.6-5.2c1.1-1,2.2-1.8,3.2-2.9c4.4-4.9,9.2-9.3,14.2-13.6
		c3.1-2.7,6.1-5.7,9-8.6c8.2-8.3,16.5-16.5,24.6-24.9c5.7-5.9,10.9-12.1,16.6-17.9c6.7-6.8,12.9-14.2,19.2-21.4
		c1.1-1.3,1.9-2.9,2.9-4.3c1.3-2,2.7-3.9,4.1-5.9c3.9-6,7-12.4,9.7-19.1c2.6-6.5,5.2-13,8.9-19.1c1.8-3.1,2.8-6.5,3.1-10
		c0.2-2,0.8-3.7,1.9-5.3c1.1-1.6,2-3.3,3.2-4.8c1.2-1.5,2.5-3.2,4.1-3.9c3.5-1.5,4.8-4.5,6-7.6c0.6-1.6,0.8-3.4,1.1-5.1
		c0.3-1.7,1-2.9,2.8-3.4c0.9-0.2,2-0.5,2.5-1.2c1.8-2.5,4.7-2.5,7.2-3.6c0.7-0.3,1.6-0.2,2.3,0c1.7,0.4,3.4,0.9,5.1,1.3
		c0.5,1.9,0.9,3.8,1.4,5.6c0.3,0.9,0.5,1.9,1.2,2.5c2.2,2.1,2.6,4.6,2.5,7.5c0,0.8-0.1,1.6-0.1,2.4c0.1,1.6,0.5,3.4,1.8,4.3
		c2.5,1.8,2.8,4.5,3.4,7.1c0.9,3.9,1.7,7.8,1.5,11.8c-0.1,0.9,0.1,2,0.5,2.8c1.2,2.8,2.2,5.6,2.1,8.8c0,0.8,0.6,1.8,1.2,2.5
		c2.3,2.9,3.2,6.2,3,9.9c-0.1,2.9,0.3,5.7,1.8,8.3c1.3,2.2,1.7,4.8,1.5,7.4c-0.2,2.4,0.1,4.8,0.6,7.1c0.6,2.6,0.7,5.3,1,8.1
		c0.7,0,1.4,0,2.5,0c0,1,0.4,2.1,0.1,2.7c-2.5,4.1-0.5,7.8,1.3,11.2c1.2,2.3,1.7,5.2,4.2,6.7c0.6,2.3,1.2,4.6,1.7,6.9
		c0.3,1.5-0.5,3.3,1.5,4.2c0.3,1.4,0.8,2.8,0.7,4.2c-0.1,1.7,0.3,3.2,1.2,4.5c1.7,2.6,1.2,5.2,0.1,7.8c-0.6,1.5-1.5,2.8-2.3,4.2
		c-3,6-6.3,11.8-9.9,17.5c-0.7,1.1-1.2,2.3-1.6,3.5c-1.2,3.9-3,7.4-5.2,10.7c-2.5,3.8-4.1,7.9-5.4,12.2c-2.1,6.9-4.7,13.6-7.8,20.1
		c-0.5,1-0.7,2.1-1,3.2c-1.5,4.2-2.1,8.7-4.7,12.5c-0.3,0.4-0.4,0.9-0.4,1.3c0,5.2-2.5,9.8-4,14.6c-0.8,2.6-1.4,5.2-2.1,7.8
		c-0.6,2.3-1.1,4.6-1.7,7c-0.9,4.2-2.5,8.2-3,12.5c-0.3,2.8-1.1,5.7-2,8.4c-0.5,1.7-0.8,3.4-1,5.1c-0.2,2-0.7,4.1-1.1,6.1
		c-1,6-2.8,11.8-2.5,18c0,0.9-0.2,1.9-0.3,2.9c-0.8,6.7-1.6,13.3-2.4,20c-0.1,1.1-0.2,2.2-0.4,3.3c-1.2,5.4-0.6,10.8-1.1,16.2
		c-0.3,3.3,1.2,5.6,4.3,6.7c2.9,1,5.7,2,8.6,3c0.3,0.1,0.7,0.2,0.9,0.1c2.7-1.2,5.3,0,8,0.2c2.7,0.2,5.2,1.4,7.9,1.7
		c7.1,1,14.3,1.8,21.4,2.5c13.3,1.3,26.6,0.4,39.7-1.5c11.9-1.7,23.6-4,35.2-7.2c7.9-2.2,15.8-4.1,23.6-6.4c6.6-2,13-4.4,19.5-6.6
		c2-0.7,4-1.2,5.9-1.9c9.7-3.3,19.3-6.8,28.7-10.9c5.6-2.4,11.3-4.5,16.8-7c11.2-5.1,22.5-10,33.5-15.5
		c15.4-7.7,30.8-15.6,45.7-24.4c12.9-7.6,26-15.1,38.9-22.8c8.5-5.1,16.8-10.6,25.1-15.9c6.2-4,12.3-8,18.5-12
		c2.5-1.7,4.9-3.6,7.3-5.4c1.5-1.1,3-2.4,4.6-3.5c8.5-5.9,17.1-11.8,25.6-17.8c4.5-3.2,8.9-6.8,13.3-10.2c3.3-2.5,6.5-5.2,9.9-7.6
		c3-2.1,5.9-4.4,8.4-7.1c3.6-3.9,7.8-7,12.1-10.1c2.3-1.7,4.2-3.9,6.3-5.9c1.3-1.2,2.4-2.6,3.7-3.8c6-5.5,12.1-10.9,18.1-16.4
		c3.2-2.9,6.4-5.8,9.4-8.9c1.8-1.8,3.3-3.9,5-5.8c2.2-2.5,4.6-4.9,6.8-7.3c3.1-3.4,6.2-6.9,9.3-10.4c2.3-2.6,4.6-5.3,6.8-8
		c5.4-6.6,9.4-14.1,13.1-21.7c1.6-3.4,2.4-7.3,3.3-11c0.9-3.7,1.6-7.5,2.2-11.3c0.3-2,1-3.3,3-3.8c2.3-0.6,4.8-0.8,6.4-2.9
		c2.3-0.4,4.6-1,7-1.1c1.4-0.1,2.8,0.5,4.2,0.8c1.1,0.2,1.7,1,1.9,2c0.2,0.8,0.2,1.6,0.2,2.4c0.1,2.4,0.3,4.7,2.1,6.7
		c0.7,0.8,0.9,2.4,0.7,3.6c-0.5,4.4-0.2,8.6,2.5,12.3c0.4,0.6,0.5,1.5,0.5,2.3c-0.1,3.1,0.1,6.1,0.9,9c0.2,0.8,0.2,1.6,0.1,2.4
		c-0.4,4,0.4,8,0.8,11.9c0.2,2.2,0.9,4.3,2.5,6.1c1.9,2.1,2.7,4.7,2.3,7.6c-0.2,2.1,0,4.2-0.5,6.2c-1,3.6,0.7,6.8,0.8,10.3
		c0,0.4,0.4,0.9,0.6,1.3c0.9,1.5,2.1,2.9,2.5,4.5c0.3,1.4-0.7,3.1,0.3,4.6c0.2,0.3,0.3,1,0.1,1.4c-0.7,1.5-0.2,2.6,0.8,3.9
		c1.4,1.7,1.3,1.8,1,5.8c2.8,2,3.3,5.1-0.1,9.7c0.7,0.8,1.4,1.6,2.1,2.4c2.1,2.4,2.1,2.4,2.4,5.9c0.6,0.4,1.3,0.8,2.2,1.3
		c0.4,3.1,1.6,6.3,1.3,9.7c-0.1,1.5,0.1,2.7,1.8,3.5c0.7,0.3,0.6,2,1.1,3c1.2,2.1,1.4,4.2,1,6.5c-0.3,1.5,0,2.9,1,4.1
		c1.2,1.3,1.2,2.9,1,4.5c-0.3,3.4-1.3,6.6-3.1,9.5c-2.6,4-5.2,8-8,12c-13.1,18.8-27.8,36.3-44.3,52.3c-16.1,15.6-32,31.3-48.3,46.7
		c-7.5,7.1-15.7,13.6-23.6,20.4c-2.4,2.1-4.9,4.2-7.3,6.2c-10.4,8.4-20.9,16.8-31.4,25.3c-3.8,3.1-7.9,6-11.9,8.9
		c-5.2,3.7-10.6,7.1-15.3,11.5c-1.2,1.1-2.6,1.9-3.9,2.8c-21,15.2-42.7,29.3-64.3,43.7c-4.9,3.3-9.7,6.9-14.8,9.7
		c-16.5,9.2-32.7,18.8-49.6,27.3c-6.4,3.2-13,6-19.7,8.7c-5.3,2.1-10.5,4.7-15.8,6.8c-6.2,2.5-12.4,5.3-18.8,7
		c-5.3,1.4-10.8,3-16.5,2.7c-1.5-0.1-3.1,0.5-4.7,0.9c-3.9,1.1-7.7,1.8-11.8,2c-8.3,0.4-16.6,1-24.9,1.5c-1.3,0.1-2.6,0.2-3.8,0.1
		c-13.3-0.4-26.5-0.9-39.7-2.7c-1.4-0.2-2.8-0.6-4.2-0.9c-6.7-1.7-13.5-2.6-20.1-4.1c-7.6-1.7-15.3-3.2-22.6-6.1
		c-3.7-1.4-7.6-2.4-11.1-4.3c-11.2-5.8-22.4-11.7-32-20c-1-0.8-1.9-1.7-2.8-2.6c-4-3.7-7.6-7.8-11.5-11.5c-3.4-3.2-6.2-6.9-8.5-10.9
		c-1.7-2.9-4.1-5.3-5.4-8.4c-1.8-4.4-4-8.7-5.8-13.2c-1.3-3.3-2.6-6.5-4.6-9.5c-2.2-3.3-4-6.9-6-10.3c-0.2-0.3-0.4-0.6-0.4-0.9
		c-1.6-6.3-5.6-11.5-8.1-17.3c-0.9-2-1.6-4.2-2.4-6.2c-0.5-1.2-0.9-2.4-1.5-3.5c-0.3-0.7-1-1.4-1-2.1c0.1-2.8-1.6-4.7-2.8-7
		c-3.3-6.7-6.6-13.5-9.6-20.3c-1.5-3.5-2.8-7.1-3.8-10.8c-1-3.6-2.4-7-4.5-9.9c-3.1-4.2-4.7-9-6.3-13.8c-1-3-2.3-6-3.5-8.9
		c-0.4-0.8-1-1.6-1.7-2.5c-0.9,0.7-2.1,1.1-2.3,1.8c-0.9,2.3-2.7,3.4-4.6,4.6c-1.6,1-3,2.2-3.5,4.3c-0.4,1.5-1.5,2.8-2.5,4
		c-1.9,2.1-4,4.1-6.2,6c-5.3,4.8-10.6,9.6-16,14.3c-3.6,3.2-7.4,6.1-11.1,9.2c-4.1,3.5-8.2,7.1-12.3,10.7c-0.6,0.5-1.1,1.2-1.6,1.8
		c-2.6,3.8-3.1,4.1-7.6,5.3c-0.1,0.5-0.1,1.1-0.2,1.7c-0.3,1.2-1.2,2.2-2.3,2c-2.2-0.4-3.6,0.8-5.1,2c-6.8,5.1-13.5,10.3-20.3,15.3
		c-11.5,8.4-23,16.8-35.2,24.2c-5.5,3.3-10.7,7-16.1,10.4c-2.8,1.8-5.8,3.3-8.7,5.1c-2,1.2-4,2.7-6,3.9c-0.9,0.6-1.9,1.1-2.9,1.6
		c-0.6,0.3-1.2,0.5-1.7,0.8c-6.9,4.9-14.1,9.2-21.2,13.7c-0.8,0.5-1.7,0.8-2.6,1.2c-3.5,1.6-7,3.2-10.4,5c-1.2,0.6-2.1,1.9-3.2,2.8
		l0.1-0.1c-2.6-0.3-4.6,1-6.8,2.1c-2.7,1.4-5.3,3-8.3,3.6c-0.2,0-0.3,0-0.5,0.1c-3.8,3.2-8.6,4.2-12.8,6.4c-1.6,0.8-2.3,2.1-2.6,3.7
		c-1.5-0.1-2.7-0.3-4.1,0.5c-4.3,2.4-8.7,4.5-13.8,5.2c-2.8,0.4-5.6,1.1-7.7,3.3c-0.5,0.5-1.4,0.7-2.2,0.9
		c-3.4,0.8-6.9,1.5-10.3,2.4c-1.9,0.5-3.7,1-4.7,2.9c-0.6,1.2-2,1.6-3.2,2c-6.8,2.3-13.7,4.4-21,4.3c-5,1.4-10.2,0.5-15.2,0.5
		c-3.9,0-8-0.2-11.8-1.6c-1.6-0.6-3.2-0.4-4.1,1.8c-3.6-0.6-7.2-1.2-10.8-1.9c-0.8-0.1-1.5-0.5-2.2-0.9c-1.5-0.9-3.2-1.5-5-1.6
		c-2.4-0.2-4.6-1.3-6.6-2.6c-1.5-0.9-3-1.7-4.6-2.6c-0.6-0.3-1.3-0.5-1.6-1c-1.6-2.8-4.5-4-6.8-5.9c-4.9-4.2-9.1-8.9-13-14
		c-1.6-2.2-3.3-4.3-4.9-6.5c-0.6-0.8-1-1.7-1.4-2.5c-1-1.8-2.1-3.6-3.1-5.4c-1.1-1.8-2.1-3.6-3.2-5.3c-0.4-0.7-0.8-1.4-1.4-1.9
		c-2.7-2.2-4-5.3-5.5-8.3c-1-1.8-1.7-3.8-2.9-5.5c-1-1.4-2.3-2.6-3.7-3.7c-2.4-1.8-4.1-4-5.2-6.7c-0.8-2.1-1.6-4.2-2.7-6.1
		c-1.7-2.9-2.7-6.2-5.6-8.2c-0.5-0.3-0.8-1-1-1.6c-0.9-2.3-2.3-4.2-3.6-6.2c-2-3.1-3.5-6.4-5.2-9.7c-1.5-3.1-3.4-6.2-4.3-9.6
		c-1-3.6-3.5-6.8-3.6-10.7c-0.1-2.3-1.8-4-2.9-5.9c-0.8-1.4-1.8-2.6-2.9-3.8c-2.8-3.2-4.6-6.9-5.8-10.9c-0.4-1.5-0.9-3.1-1.6-4.5
		c-1.4-3.4-3.8-3.8-6.2-1.2c-0.1,0.1-0.2,0.3-0.3,0.4c-1,1-2.3,1.8-3.1,2.9c-0.8,1.1-1.1,2.5-1.8,3.7c-1,1.7-2.3,3-3.8,4.2
		c-2.2,1.8-4.2,3.9-6.3,5.9c-0.3,0.3-0.6,0.9-1,1c-2.9,1.3-4.5,4-6.6,6.2c-1.3,1.4-2.4,3-4.5,3.3c-0.7,0.1-1.3,0.8-1.9,1.3
		c-1.6,1.3-3.3,2.5-4.9,3.8c-0.4,0.3-0.9,0.5-1.1,0.9c-2.2,3.4-5.9,5.3-8.9,7.9c-1.4,1.2-2.4,2.5-3,4.4c-3.1,0-5,1.8-7,3.7
		c-4,3.9-8.1,7.7-11.9,11.8c-1.7,1.7-3.2,3.5-5.4,4.7c-0.6,0.4-1,1.2-1.5,1.8c-0.7,0.7-1.3,1.5-2.1,1.9c-1.8,0.9-3,2.3-4.2,3.8
		c-1.6,1.9-3.7,3.5-5.7,5.1c-2.3,1.8-4.7,3.4-7,5c-0.4,0.3-0.7,0.7-1.1,0.9c-4.2,1.8-7.2,5.1-10.6,8c-1.7,1.5-3.8,2.4-5.5,3.8
		c-5.1,4.2-10.7,7.4-16.1,11c-1.1,0.7-2,1.6-3,2.3c-2.1,1.5-4.1,3.1-6.2,4.5c-5.1,3.5-10.6,6.6-15.4,10.5c-4.5,3.6-9.4,6.7-14.2,9.7
		c-4.5,2.8-9.3,5-13.9,7.5c-1.3,0.7-2.5,1.3-3.8,2c-10,5.7-20.5,10.5-31.3,14.4c-5.6,2-11,4.2-16.6,6.3c-2.2,0.8-4,2.5-6.3,3.3
		c-2.9,1.1-5.8,1.8-8.8,2.4c-4.7,0.9-9.4,1.8-14.1,2.6c-0.9,0.2-1.9,0.5-2.8,0.5c-1.8,0-3.3,0.6-4.8,1.7c-2.1,1.7-4.4,2.4-7.2,1.3
		c-1-0.4-2.2-0.4-3.3-0.4c-5,0-9.9-0.2-14.8-1.2c-1.2-0.2-2.6-0.2-3.8,0.1c-2,0.4-3.8,0.2-5.6-0.7c-2.2-1-4.4-1.9-6.6-2.8
		c-1-0.4-2.2-0.8-3.2-0.6c-1.4,0.3-2.5-0.2-3.6-0.8c-4.1-2.2-7.7-5.2-11.1-8.3c-4.4-4.1-8.9-8.3-11.4-14.1c-0.4-1-1.3-1.8-2.1-2.6
		c-2.9-2.8-5.5-5.8-7.6-9.2c-1.3-2.2-2.5-4.4-5.2-5.4c-0.7-0.2-1.2-1.1-1.7-1.6c-2.6-2.9-5.3-5.6-7.6-8.6c-2-2.7-3.6-5.6-5.2-8.5
		c-1.6-3-3.7-5.5-5.9-8c-4.6-5.1-9.6-9.9-12.8-16.1c-0.8-1.6-1.7-3.1-2.3-4.7c-1.1-3.1-2.8-5.7-4.9-8.2c-2.9-3.2-5.7-6.5-8.5-9.7
		c-0.8-0.9-1.2-1.7-1.2-2.9c-0.1-2.2-1.5-4.1-2.7-5.9c-0.1-0.1-0.1-0.3-0.2-0.4c-0.2-0.2-0.3-0.4-0.5-0.6c-0.1,0.1-0.2,0.3-0.2,0.4
		c0.1,0.2,0.3,0.5,0.5,0.6C389.5,436.7,389.7,436.6,389.9,436.6z M1565.3,495.8c0.6-0.4,1.2-0.7,1.9-1.1c1.8-0.6,3.6-1.2,5.3-1.9
		c1.6-0.6,3.1-1.4,4.7-2.2c0.3-0.2,0.5-0.9,0.4-1.2c-0.1-0.3-0.9-0.6-1.2-0.5c-2.7,1.2-5.4,2.5-8.1,3.9c-0.5,0.3-0.7,1.2-1.1,1.9
		C1566.1,494.3,1565.8,495.2,1565.3,495.8c-0.5-0.1-0.9-0.3-1.4-0.4c0,0.1-0.1,0.3-0.1,0.4C1564.3,495.8,1564.8,495.8,1565.3,495.8z
		 M1061.2,420c0.1-0.3,0.2-0.6,0.2-0.9c0-0.1-0.1-0.2-0.2-0.2C1061.2,419.3,1061.2,419.7,1061.2,420c-1-0.7-1.9-0.3-2.9,0
		c-0.8,0.9-2.2,1.1-2.4,2.5c-0.9,0.1-1.9,0.1-2.7,0.4c-3.5,1.7-7,3.4-9.9,6c-1.3,0.3-2.2,1-2.1,2.5c-0.3-0.1-0.5-0.2-0.8-0.2
		c-0.1,0-0.3,0.1-0.4,0.2c0.1,0,0.3-0.1,0.4-0.1c0.3,0,0.5,0.1,0.8,0.1c0.5-0.5,1.1-1,1.6-1.6c0.2-0.3,0.3-0.8,0.4-1.1
		c0.7,0,1.7,0.3,2.2,0c3.5-2.1,7-4.2,10.4-6.4c1.1-0.5,2.8-0.5,2.5-2.4C1059.2,420,1060.2,420,1061.2,420z M1036.4,464.2
		c0.5-0.5,1-0.9,1.5-1.4c0.3-0.1,0.6-0.1,0.8-0.2c0.1-0.1,0.1-0.4,0.1-0.6c-0.1,0-0.4-0.1-0.4-0.1c-0.2,0.3-0.3,0.6-0.5,1
		C1036.9,462.7,1036.9,463.8,1036.4,464.2c-0.3-0.1-0.6-0.2-0.8-0.3c-0.2,0-0.3,0.2-0.5,0.3c0.2,0,0.3-0.1,0.5-0.1
		C1035.8,464.1,1036.1,464.2,1036.4,464.2z M758.2,383.9c1.8-0.7,1.8-0.7,1.4-2.5c0.6-0.6,1.6,1.2,2-0.4c-0.7,0.1-1.3,0.3-1.9,0.5
		C759.2,382.4,758.8,383.2,758.2,383.9c-0.4,0.4-0.9,0.6-1.3,0.9c-0.1,0,0.1,0.5,0.2,0.7c0,0,0.3,0,0.4-0.1
		C757.8,384.9,758,384.4,758.2,383.9z M1126.7,402.9c-0.3,0.4-0.7,0.7-1,1.1c0.1,0,0.3,0.1,0.4,0.1
		C1126.9,403.9,1126.9,403.4,1126.7,402.9c0.3-0.1,0.6-0.1,1-0.1c-0.1-0.1-0.2-0.3-0.2-0.3C1127.2,402.6,1126.9,402.8,1126.7,402.9z
		 M654.2,448c-0.3-1.3,1-1.7,1.4-2.5c2.2-0.5,3.9-2.1,5.8-3.1c0.5-0.3,1-0.8,0.1-1.6c-2.3,1.2-4.7,2.2-5.9,4.8
		C654.3,445.9,654.3,445.9,654.2,448c-0.2-0.1-0.5-0.3-0.7-0.3c-0.1,0-0.3,0.2-0.5,0.3c0.1,0,0.3-0.1,0.4-0.1
		C653.7,447.8,654,447.9,654.2,448z M765.7,315.6c1.1,0.2,1.7,0,1.6-1.6c-0.6,0.7-1.1,1.2-1.5,1.8c-0.4,0.2-0.8,0.4-1.2,0.7
		c-0.2,0.1-0.2,0.5-0.3,0.8c0.4-0.1,0.9-0.1,1.1-0.3C765.8,316.6,765.7,316,765.7,315.6z M1083,374.6c0.6-0.4,1.1-0.8,2.1-1.6
		C1083.4,373.1,1083.1,373.8,1083,374.6c-0.3,0.1-0.6,0-0.9,0c0.1,0.1,0.1,0.2,0.2,0.2C1082.5,374.8,1082.8,374.7,1083,374.6z
		 M618.9,444.9c0.2-0.5,0.5-1,0.7-1.6C618.2,443.4,618.9,444.3,618.9,444.9c-0.9,0.1-1.9,0.3-2.9,0.4c-0.9,0-1.8,0.1-1.8,1.5
		c1.1,0.1,1.7-0.4,1.7-1.5C616.9,445.1,617.9,445,618.9,444.9z M1723,415.5c1.1-0.1,2.4,0.1,2.4-1.6c-1.4-0.2-1.7,0.9-2.3,1.8
		c-0.6,0.2-1.1,0.4-1.7,0.7c-0.1,0-0.1,0.4-0.1,0.4c0.2,0.1,0.7,0.3,0.7,0.3C1722.4,416.5,1722.7,416,1723,415.5z M1184.5,380.1
		c-1.4,0-2.5,0.5-2.8,1.9c-3.6,1.4-6.6,3.9-8.6,7c4.2-1,6.4-4,8.5-7.1c1.4,0,2.3-0.7,2.8-2c1.1,0.2,2-0.1,2.7-1.4
		C1185.7,378.6,1184.8,379,1184.5,380.1z M1650.1,448.3c-0.6,0.1-1.2,0.2-1.7,0.5c-0.3,0.1-0.4,0.6-0.6,0.9c0.1,0.1,0.3,0.2,0.4,0.3
		C1648.9,449.4,1649.5,448.8,1650.1,448.3c1.4,0,2.4-0.6,2.8-2c0.5,0,1,0.1,1.4-0.1c4.4-2.6,8.8-5.1,13.1-7.9
		c6.8-4.4,13.6-8.9,20.3-13.6c14.2-9.9,28.3-19.8,42.3-29.8c6.1-4.4,12-9.1,17.9-13.7c5-4,9.9-8.1,14.9-12.1
		c6.5-5.4,13.1-10.8,19.6-16.2c0.7-0.5,1.1-1.3,1.9-2.1c-1.3-0.4-1.9,0.1-2.5,0.5c-2.3,1.7-4.6,3.5-6.8,5.3c-2.9,2.3-5.5,5-8.5,7
		c-3.5,2.3-6.6,5-9.8,7.7c-3.7,3-7.3,6.1-11.1,9.2c-0.6,0.5-1.4,0.8-2.1,1c-2.2,0.4-3.8,1.9-5,3.5c-1.2,1.6-2.6,2.8-4.1,3.9
		c-2.1,1.7-4.3,3.3-6.5,5c-0.8,0.6-1.6,1.3-2.5,1.4c-3.1,0.4-5.2,2.4-7.2,4.4c-3.4,3.5-7.2,6.3-11.1,9.1c-4.5,3.1-8.9,6.2-13.4,9.3
		c-3.4,2.4-6.6,5-10.1,7.3c-9.4,6.3-18.9,12.5-28.4,18.8c-0.9,0.6-1.5,1.5-2.3,2.3C1651.6,446.4,1650.5,446.8,1650.1,448.3z
		 M601.7,454.9c-1.3,0.1-2.2,0.9-3,1.8c-0.5,0.4-1.1,0.8-1,0.7c0,0.1,1.6,0.7,0.9-0.8C600.6,456.9,601,456.6,601.7,454.9
		c0.9,0.1,1.7,0.2,1.9-1.6C602.8,454,602.2,454.5,601.7,454.9z M1115.3,392.5c1.1,0,2.1-0.1,2.1-2c-0.8,0.9-1.4,1.5-2,2.2
		c-0.3,0-0.6,0.1-0.8,0.2c-0.1,0-0.2,0.2-0.3,0.3c0.2,0.1,0.6,0.2,0.7,0.1C1115.2,393.1,1115.2,392.8,1115.3,392.5z M631.9,503.4
		c-0.4,0.6-0.8,1.3-1.3,2.1C632.2,504.9,632.2,504.9,631.9,503.4c0.3,0.1,0.6,0.3-0.1,0C632.6,503.6,632.3,503.5,631.9,503.4z
		 M1095.2,397.4c1.6,0.4,2.1-1.1,3.2-1.7c8.4-5.5,16.9-10.8,25.1-16.6c6.5-4.6,12.7-9.6,19-14.4c3.1-2.4,6.1-5,9.1-7.4
		c-0.2-0.8-0.3-1.3-0.5-1.8c1.6,0.9,2.8-0.2,4-0.9c1.1-0.8,2.3-1.5,3.3-2.4c0.5-0.4,0.7-1.2,1.1-1.8c1.8,0.2,2.7-1,3.4-2.4
		c-1.5,0.2-2.7,1-3.3,2.5c-2.1,0.3-3.4,1.7-4.5,3.4c-0.1,0.2,0.1,0.6,0.1,0.8c-0.8-0.5-1.4-0.1-2.1,0.2c-0.6,0.3-1.3,0.4-2,0.6
		c-2.3,2.4-4.9,4.3-7.7,6.2c-1.3,0.9-2.7,1.7-3.9,2.7c-3.2,2.6-6.3,5.5-9.7,7.8c-6.1,4.1-12.1,8.2-17.9,12.7
		c-3.5,2.7-7.3,5.1-10.9,7.7c-1.1,0.8-2.5,1.4-2.5,3.2c-1.5-0.2-2.7,0.1-3.2,1.7c-1.5-0.1-2.3,0.8-3,1.8c-1.5,0-2.5,1-3.9,2.1
		c2.7-0.7,2.7-0.7,3.8-2.2C1093.6,399.3,1094.6,398.7,1095.2,397.4z M700.5,360.8c-1.8,0.6-2.8,1.7-2.2,3.7c-1-0.5-2.1-0.9-3.1,0.1
		c-1.4,1.3-2.9,2.5-4.3,3.8c-0.3,0.2-0.3,0.8-0.5,1.7c3.5-1.2,5.3-3.9,7.9-5.6c0.4-0.6,0.9-1.1,1.3-1.8c0.4-0.6,0.6-1.3,0.9-1.9
		c1.8-0.4,1.8-0.4,2.2-2.2C701.7,359.5,701.1,360.2,700.5,360.8z M1095,430.4c0.7-0.5,1.4-0.9,2.1-1.4
		C1095.7,428.7,1094.8,428.9,1095,430.4c-1.1,0-2.3,0.1-3.4,0.2c-0.3,0.8-0.6,1.6-1,2.5c1.8-0.4,1.6-1.3,0.9-2.4
		C1092.7,430.5,1093.9,430.4,1095,430.4z M1212.6,350.9c-0.9,0.8-1.7,1.7-3.2,3.1C1211.9,353.5,1212.4,352.4,1212.6,350.9
		c0.7-0.1,1.8,0.6,2.2-0.7C1214,350.5,1213.3,350.7,1212.6,350.9z M1150.9,423.3c-1.2,0.4-2.8,0.5-2.6,2.4
		C1149.3,425,1150.6,424.7,1150.9,423.3c0.8,0.2,1.3-0.1,1.7-1.7C1151.7,422.5,1151.3,422.9,1150.9,423.3z M1068.5,465.9
		c-0.7,0.7-1.5,1.5-2.7,2.7C1068.8,467.5,1068.8,467.5,1068.5,465.9c1,0.4,2,0.6,3-0.2c1.8-0.9,3.7-1.8,5.5-2.8
		c0.3-0.2,0.3-1.1,0.4-1.6c0.2,0,0.5,0,0.7,0c0,0,0,0.1,0,0.1c-0.2-0.1-0.5-0.1-0.7-0.2c-1.3,0.8-2.7,1.5-3.9,2.3
		c-0.8,0.5-2.1,0.8-1.9,2.3C1070.5,465.8,1069.5,465.9,1068.5,465.9z M1765.3,291.7c1-0.5,2.1-0.8,3-1.4c0.4-0.3,0.5-1,0.7-1.5
		c1.9-0.6,1.9-0.6,2.7-2.4c-0.8,0.8-1.7,1.7-2.5,2.5c-1.8,0.2-2.8,1.6-3.7,2.9c-1.7,0.5-3.5,0.7-4,2.9c-2,0-3.4,0.8-3.7,2.9
		c-1.8,0.2-3.2,1.1-4,2.8c-0.4,0.2-0.7,0.3-1.1,0.5c0.2,0.1,0.4,0.3,0.6,0.4c0.1-0.3,0.3-0.7,0.4-1c2,0,3.2-1.1,4-2.8
		c1.6-0.5,3.2-1,3.7-2.9C1763.4,294.6,1764.6,293.4,1765.3,291.7z M1513.7,483.7c-1.5,0.4-3.2,0-4.7,2.1c2-0.9,3.6-0.9,4.6-2.2
		c0.7,0,1.4,0.1,2.5,0.2C1514.9,482.4,1514.3,482.8,1513.7,483.7z M721.5,372c0.8-1.3,1.6-2.5,2.5-3.8c-1.1,0.3-1.7,0.9-2.4,1.6
		C720.8,370.5,721.3,371.2,721.5,372c-0.7,0.2-1.7-1-2.3,0.4C720,372.3,720.7,372.2,721.5,372z M1022.9,470.9c0.9-0.3,1.8-0.5,2.6-1
		c0.5-0.2,1.1-0.7,0.4-1.6C1024.5,468.6,1022.7,468.5,1022.9,470.9c-0.4-0.1-0.8-0.2-1.1-0.3c0,0,0,0.1,0,0.1
		C1022.2,470.8,1022.6,470.8,1022.9,470.9z M1110.3,419.1c1.1,0,2.1,0.1,3.1-0.2c0.5-0.1,0.7-0.9-0.1-1.6c-0.9,0.6-1.9,1.3-2.9,1.9
		c-0.6,0.8-2.1,0.7-2.3,2c1.1,0.9,1.6,0.1,2-0.8C1110.3,420.1,1110.3,419.6,1110.3,419.1z M758.2,396.4c2.5-1,2.5-1,3.6-3.5
		c-1.4,1.5-2.5,2.6-3.5,3.7c-1.6-0.1-2.5,0.6-2.5,2.4C757.1,398.3,758.1,397.8,758.2,396.4z M1140.2,426.2c-1.7,0.3-3.3,0.7-4.1,2.7
		c3.4-0.8,3.1-0.9,4-2.9c1.7,0,2.9-0.6,3.3-2.6C1141.6,423.7,1140.9,424.9,1140.2,426.2z M1186.4,328.3c-3.5,1.5-3.5,1.5-5.1,4.9
		C1183.3,331.1,1185.8,330.7,1186.4,328.3c1.9-0.4,3-1.8,3.9-3.4C1188.5,325.5,1186.8,326.1,1186.4,328.3z M1224.7,301.9
		c-0.8,0.7-2,1.2-1.5,2.7C1225.1,304.3,1224.7,303,1224.7,301.9c-1.7-0.6,0.7-1.9-0.7-2.8c-1.4,1.3-2.8,2.6-4.3,4
		c-3.1,1.8-3.1,1.8-4.1,4.3c2.8-1.1,3.3-1.5,4.2-3.1c0.2-0.3-0.1-0.9-0.2-1.3C1221.6,303.6,1223,302.1,1224.7,301.9z M770.5,321.1
		c-0.2-1.4,1.2-1.7,1.9-2.5c1.2-1.3,2.7-2.4,3.9-5.1c-2.8,1.8-4.5,3.3-5.7,5.2C770.2,319.4,770.5,320.4,770.5,321.1
		c-0.4-0.1-0.8-0.3-1.2-0.3c-0.1,0-0.3,0.1-0.4,0.1c0.1,0.1,0.3,0.3,0.4,0.3C769.6,321.2,770.1,321.2,770.5,321.1z M303.2,334
		c1.5,0.3,2.2-0.7,3.2-1.6c1.7-1.6,2.9-3.7,5.2-4.6c3.5-3.2,7-6.3,10.5-9.5c0.5-0.4,0.9-1-0.1-1.9c-3.8,2.9-7.4,6.1-10.3,10.1
		c-0.2,0.3,0,0.9-0.1,1.3c-0.6-0.1-1.3-0.4-1.7-0.1C307.2,329.4,304.7,331.3,303.2,334c-0.4,0.4-1,0.6-1.5,0.9c-0.1,0.1,0,0.5,0,0.8
		c0.3,0,0.7,0.1,0.8-0.1C302.8,335.1,302.9,334.5,303.2,334z M1241.9,337.5c1.7-1.2,3.4-2.3,5-3.5c0.5-0.3,0.9-1,0.2-1.6
		c-2.6,1.5-2.7,1.7-5.1,5.2c-1.1,1.1-3,1.5-3.4,3.7C1241.1,339.8,1241.1,339.8,1241.9,337.5z M1078.2,407.3
		c-2.4,1.7-4.9,3.5-7.3,5.2c-1.7,0.9-3.4,1.7-5.1,2.7c-0.6,0.3-1.5,0.9-0.7,2.1c1.8-1.1,3.5-2.1,5.2-3.3c0.4-0.3,0.3-1.1,0.5-1.6
		c0.1,0.1,0.3,0.2,0.4,0.2c3.1-0.1,5.1-2,7.2-4C1078.6,408.4,1078.3,407.7,1078.2,407.3c0.2,0.2,0.5,0.4,0.7,0.5
		c0.1,0,0.3-0.2,0.5-0.3c-0.1,0-0.3,0.1-0.4,0C1078.8,407.4,1078.5,407.3,1078.2,407.3z M1232.9,364.4c-1,0.9-2.1,1.8-3.1,2.8
		c-0.8,0.7-1.5,2-2,3.3c1-0.6,1.8-1.3,2.8-1.7C1232.6,367.8,1233,366.3,1232.9,364.4c2.1,0.1,3.9-0.7,5.2-2.4c0.4-0.5,0.8-1-0.1-1.8
		c-0.5,0.4-1.2,0.7-1.7,1.2C1235.1,362.4,1234,363.4,1232.9,364.4z M1143.4,372.6c5-3.1,5-3.1,6.6-6.2c-2.4,1.6-4.4,2.8-6,4.7
		c-0.4,0.4-0.4,1.1-0.6,1.7c-1.1-0.3-1.9,0-2.9,2C1142.1,373.6,1142.8,373.1,1143.4,372.6z M789.3,369c1.3-1.2,2.5-2.4,3.8-3.6
		c2.2-1.9,2.2-1.9,2.9-4.2c-2.6,1.7-4.4,3.9-6.5,5.8C788.9,367.4,788.9,368.3,789.3,369c-1.9,0.1-1.9,0.1-3.4,2.6
		C787.2,370.6,788.3,369.8,789.3,369z M1169.1,342.6c3.4-1.8,6.5-4,9.4-7.4c-2.1,0.5-3.6,0.8-5.1,1.2c-0.3,0.1-0.5,0.3-1.1,0.6
		C1172.2,339.3,1170.6,340.9,1169.1,342.6c-2.5,1.3-2.5,1.3-3.7,3.6C1166.6,345.1,1168.7,344.8,1169.1,342.6z M1488.3,495.7
		c2-0.3,4.1-0.5,6.1-1.1c3.4-0.9,6.6-2.3,10.2-2.4c1.4-0.1,3-0.5,3.3-2.6c-1.4,0.3-2.7,0.4-3.9,0.7c-3.7,1-7.4,2-11.1,3
		c-1.4,0.4-2.8,0.8-4.1,1.3C1488.6,494.7,1488.6,495.4,1488.3,495.7c-2.5-1-4.9-0.2-7.4,1C1483.7,497.1,1483.7,497.1,1488.3,495.7z
		 M1814.3,268.8c-0.3,0-0.7-0.2-0.9,0c-2.4,1.5-4.8,3.1-7.1,4.7c-2.8,2-3.4,3-5.1,7.7c4.4-4,8.6-7.8,12.8-11.6
		C1814.2,269.4,1814.1,269,1814.3,268.8c0.8,0.3,1.2-0.2,1.3-1.1C1814.9,267.8,1814,267.6,1814.3,268.8z M1220,358
		c0.7-0.3,1.5-0.5,2.1-1c3.2-2.7,6.3-5.4,9.3-8.2c0.7-0.6,1.3-1.4,2-2.1c0.5-0.6,1.1-1.1,1.7-1.7c0.6-0.6,1.7-0.7,1.6-2
		c-2,1.1-3.9,2.1-5.7,3.2c-0.4,0.2-0.8,0.6-1,1c-1.8,3.3-5.1,5.2-7.6,7.9C1221.5,356.1,1220.8,357.1,1220,358
		c-0.4,0.3-0.9,0.4-1.4,0.7c-0.1,0,0.1,0.5,0.1,0.8c0.1,0,0.3,0,0.4-0.1C1219.4,358.9,1219.7,358.5,1220,358z M571.1,455
		c0.9-0.3,1.9-0.5,2.7-0.9c3.3-1.9,6.6-3.9,9.9-5.8c2.6-1.6,5.2-3.1,7.7-4.7c0.8-0.5,1.7-0.9,1.7-2.1c1.9,0.2,2.9-0.9,3.7-2.4
		c-1.7,0.1-3.3,0.4-3.7,2.5c-2,0-3.6,0.9-5.2,2.1c-1.3,1-2.6,1.8-3.9,2.7c-4,2.6-8.1,5.1-12.1,7.7c-0.3,0.2-0.5,0.7-0.7,1.1
		c-3,0.9-3,0.9-4.6,2.9C568.7,457.8,569.9,456.4,571.1,455z M725.1,397.9c-3.7,2.9-6.9,6.4-10.6,9.3c-2.1,1.6-3.8,3.8-5.6,5.8
		c-0.5,0.5-0.6,1.1,0.3,1.5c1.6-1.4,3.3-2.8,5-4.2c3.4-3,6.1-6.8,10-9.2C725.3,400.4,725.7,399.2,725.1,397.9
		c1.8,0.3,1.8,0.3,2.5-1.4C726.7,397,725.9,397.5,725.1,397.9z M650.4,401c-1,0.4-2.2,0.6-3.1,1.2c-5.7,4.1-11.3,8.3-17,12.5
		c-0.7,0.5-1.1,1.3-1.9,2.2c2.2,0.4,3.3-1,4.8-1.4c4.1-1,6.8-3.9,9.6-6.8c0.7-0.8,1.5-1.6,2.4-2.2c1.3-0.9,2.7-1.6,4.1-2.4
		C650.8,403.4,651.1,402.3,650.4,401c1.8-0.4,3.6-0.6,5.5-1c1.4-0.3,2.1-1.3,2.6-2.5c0.3-0.6,0.5-1.2-0.3-1.6
		C655.2,397,652.7,398.8,650.4,401z M687.2,393.6c-0.7,0.3-1.5,0.5-2.1,0.9c-3.1,2.3-6.1,4.6-9.3,6.7c-3.6,2.3-6.7,5.2-10.4,7.4
		c-0.8,1.7-2.5,1.7-4,1.9c-0.5,1.1-0.8,2.3-1.6,2.9c-1.9,1.4-4,2.5-6,3.7c-0.7,0.4-1.5,0.7-1.9,1.3c-1,1.8-2.6,2.2-4.4,2.3
		c-1.1,0.1-2.2,0.4-2.7,1.9c0.3,0.5,0.6,1.2,1,1.9c2.2-0.2,3.8-1.2,5.3-2.4c3.9-2.8,7.7-5.6,11.5-8.6c7.4-5.7,14.9-11.5,22.2-17.3
		C685.8,395.6,687.2,395.1,687.2,393.6c1.9-0.5,3.3-1.7,4.8-3.6C689.3,390.8,689.3,390.8,687.2,393.6z M1500,520.9
		c-2.6,1.1-5.2,2.3-7.8,3.4c-2.6,1-5.7,0.3-8.1,2.2c0.5,1.2,1.5,1.3,2.4,1.1c2.8-0.7,5.7-0.5,8.3-1.8c5.8,0.1,11-3,16.7-3.2
		c0.2,0,0.6-0.4,0.5-0.7c0-0.4-0.2-1.1-0.5-1.2c-0.9-0.3-1.8-0.6-2.7-0.4c-1.4,0.2-2.7,0.9-4.1,1.2c-1.7,0.4-3.4,0.9-4.9-0.6
		c3.6-1.6,7-3.7,11.2-3.6c1.2,0,2.5-0.6,3.6-1.2c0.6-0.3,1.4-1.1,1.4-1.7c0-1.2,0.8-2.5-0.6-3.8c-2,0.7-4,1.4-6.6,2.3
		c1.1,0.4,1.5,0.6,1.9,0.7c0.6,0.1,1.2-0.4,1.9,0.6c-2.9,0.2-5.2,1.8-8.1,2c0-1,1.2-1.5,0.2-2.6c-2-0.3-4.2-0.6-6.4,0.2
		c-4.6,1.8-9.2,3.5-14.2,3.8c-0.5,0-0.9,0.3-1.3,0.5c-1.6,0.6-1.9,2.3-0.5,3.4c0.6,0.5,1.4,0.9,2.1,1c1.2,0.2,2.6,0.4,3.8,0
		C1492.1,521.3,1496.2,521.5,1500,520.9z M1240.2,319.9l-0.1-0.1c-0.2,0.6-0.5,1.2-0.7,1.8c-0.9,2.5-2.3,4.5-4.6,6
		c-1.5,1-2.8,2.1-4.2,3.2c-0.7,0.6-1,1.3-0.4,2.1c0.5,0.7,1.4,0.9,2.1,0.5c0.8-0.5,1.5-1.1,2.2-1.8c2.4-2.3,4.7-4.7,7.1-7.1
		c0.6-0.5,1.3-0.9,2.1,0.3c-0.5,0.8-0.9,2.1-1.7,2.6c-3.1,2-5,5.3-8.2,7.2c-0.8,0.5-1.5,1.2-2.1,1.9c-0.2,0.3,0,1.1,0.1,1.9
		c2.3-0.6,3.5-2.3,4.8-3.5c2.9-2.7,5.9-5.4,8.6-8.3c2.3-2.5,4.9-4.5,7.4-6.7c0.5-0.5,1-1.4,0.9-2.1c-0.1-0.6-1-1-1.5-1.6
		c2.7-3.7,2.7-3.7,0.6-7.8c1.5-2.3,1.9-5.1,1.9-8c0-1.3,0.1-2.6-0.4-3.8c-0.4-0.9-1.5-1.4-2.2-2c0.1-1.8,1.3-2.7,2.2-3.9
		c0.8-1.2,0.5-3-0.4-3.9c-1.3,0-2.5,0-3.7,0c-5.5,7-12.2,12.8-18.3,18.9c0.3,0.9,0.4,1.6,0.6,2.3c-4.1,0.5-4.1,0.5-6.9,4.3
		c1.3,1.2,1,2.4-0.3,3.5c-1.2,1-2.4,2.1-3.6,3.1c-0.9,0.7-1.9,1.2-2.7,2c-3.5,3.4-6.8,7.1-10.9,9.9c-0.4,0.3-0.7,0.7-1,1
		c-3.9,3.5-7.8,7.1-11.8,10.6c-5.6,4.8-11.2,9.5-16.8,14.3c-0.5,0.4-1.4,0.8-0.8,2c0.9-0.6,1.7-1,2.4-1.6c1.4-1.2,2.8-1.4,4.4-0.7
		c0.2,0.1,0.5-0.2,1-0.5c0-1,0-2,0-3.2c1.2-0.6,2.6-0.9,3.4-1.8c4-4.3,8.6-8,13-11.9c3.8-3.4,7.8-6.6,11.5-10.1
		c5.2-4.9,10.4-9.9,15.3-15.2c2.1-2.2,4.3-4.3,6.8-5.9c2.8-1.8,5.4-3.9,7.6-6.5c1.7-2.1,2.8-2.5,5.4-2.7c-2,3.2-4.4,5.9-7.8,7.5
		c-0.3,0.2-0.4,0.8-0.6,1.1c0.8,0.6,1.5,1.2,2.4,1.9c-1.4,1.7-2.5,3.2-3.7,4.7c0.4,0.6,0.8,1.2,1.2,1.9c-1.1,0.5-2.6,0.7-2.9,1.4
		c-0.8,1.6-2,2.8-3.1,4.2c-0.3,0.3,0,1.1,0,2.2c1.2-0.8,2.1-1.2,2.7-1.9C1237.5,320.6,1238.7,320,1240.2,319.9z M281.9,399.8
		c0.2,0.3,0.3,0.6,0.5,0.8c2.2-1.1,4.6-1.9,6-4.2c0.4-0.7,1.1-1.1,1.7-1.6c2-1.6,4.1-3,6-4.7c10.4-9.5,21.1-18.6,30.7-28.8
		c5.2-5.6,11.2-10.5,16.8-15.7c1.1-1,2.2-1.8,3.3-2.8c2-1.9,3.9-3.8,5.8-5.7c2.4-2.3,4.8-4.7,7.2-7.1c0.4-0.4,0.9-1-0.1-1.6
		c-0.9,0.7-1.9,1.5-2.9,2.3c-3.1,2.4-6,5.2-9.3,7.3c-3.3,2.1-6.4,4.7-8.2,8.5c-0.4,0.9-1.4,2.1-2.3,2.3c-3.6,0.8-5.5,3.6-7.7,6.1
		c-2.2,2.5-4.2,5.2-6.5,7.6c-2.4,2.5-5.2,4.7-7.7,7.2c-1.6,1.5-3,3.3-4.7,4.8c-8.2,7.3-16.5,14.5-24.8,21.8
		C284.4,397.5,283.1,398.7,281.9,399.8z M1241.8,276.7c-3.1,0.9-3.5,1-5.2,2.6c-3.3,3.2-6.6,6.5-9.9,9.7c-1.7,1.7-3.5,3.3-5.3,4.9
		c-1.5,1.4-3.1,2.8-4.6,4.1c-4.7,4.1-8.6,9-13.8,12.5c-1.5,1-2.9,2.7-3.6,4.4c-0.9,2.3-2.3,3.7-4.2,5c-0.5,0.3-0.9,0.9-0.1,1.5
		c0.2,0,0.4,0,0.5-0.1c1.8-1.6,3.6-3.2,5.4-4.7c13.1-11,25.3-22.9,37.9-34.5c1.2-1.1,2.2-2.3,3.1-3.6
		C1242.1,278.1,1241.9,277.4,1241.8,276.7z M1819.2,317.4c0.2,0.2,0.4,0.5,0.7,0.7c0.6-0.5,1.3-0.9,1.8-1.4c3.1-3,6.2-5.9,9.3-8.9
		c5.7-5.5,11.5-11,17.2-16.6c4.9-4.8,9.4-10,14-15.1c5.4-5.9,10.2-12.2,15.5-18.2c0.6-0.6,1.4-1.3,0.8-2.4c-2.2,1-2.2,1-3.2,2.5
		c-2,2.8-4,5.7-6.3,8.3c-2.7,3.1-5.6,6-8.2,9.3c-2.2,2.7-4.5,5.7-7.3,7.5c-3.3,2.1-4.9,5.4-7.6,7.7c-0.2,0.2-0.5,0.4-0.7,0.6
		c-2.3,2.2-4.6,4.4-6.9,6.6c-5.1,5-10.2,10.1-15.3,15.2C1821.7,314.6,1820.5,316,1819.2,317.4z M310.9,379.3c-1.5,1.7-3,3.5-4.6,5.3
		c0.2,1.1,0.6,2.2-0.6,3.4c-1.2,1.1-2,2.7-2.9,4c2.7-1.1,4.9-2.9,7-4.8c4.5-4.2,8.5-9,13.8-12.4c0.4-0.2,0.6-0.7,1-1
		c1.9-1.9,3.8-3.9,5.7-5.8c2.3-2.2,4.5-4.5,6.8-6.7c0.2-0.2,0.3-0.7,0.4-1c-1.5,0.5-2.6,1.4-3.6,2.3c-3.3,2.9-6.6,5.8-11,7.3
		c-2.1,0.7-3.8,2.7-5.6,4.3c-0.7,0.6-0.4,1.4-0.2,2.2c0.5,1.9-0.9,2.8-2.2,3.7C313.6,381,312.8,379.7,310.9,379.3z M729.8,356.8
		c-3.7,1-6.9,3.1-8.8,5.9c-0.4,0.7-0.7,1.6-1.3,1.9c-4.7,2.5-8.2,6.4-12,10c-0.7,0.6-1.5,1.2-2.2,1.8c-0.5,0.4-1.2,0.7-1.5,1.2
		c-1.9,3.1-5,4.9-7.6,7.1c-0.7,0.6-1.5,1.2-2.1,1.9c-0.4,0.4-1,0.9,0,1.6c12-9.6,24-19.3,34.9-30.2
		C729.6,357.8,729.6,357.3,729.8,356.8z M1589.9,474.4c-4.7-0.6-8,1.3-11.4,2.5c-4.6,1.7-9,4-13.5,6.2c-0.8,0.4-1.6,1.1-2.2,1.7
		c-0.7,0.8-0.8,1.7,0.3,2.5c3.1,0.1,5.8-1.5,8.4-2.9c3.7-1.9,7.2-4.1,11.1-5.7C1584.9,477.6,1587.1,476.5,1589.9,474.4z
		 M1218.5,336.8c0.4-2.1,1.3-3.5,2.9-4.5c1.4-0.9,2.2-2.2,1.8-4.1c-2,0-3.2,0.7-4.5,2.5c-2,3-4.9,5.3-8.9,6
		c-0.5,2.7-2.5,4.2-4.8,5.5c-1.5,0.8-2.6,1.9-3.4,3.3c-0.3,0.5-0.7,1.1,0.4,1.6c3.2-2.2,6.5-4.6,9.9-6.9c0.3,0.7,0.5,1.3,0.9,2.1
		c1-0.9,1.8-1.7,2.7-2.5c-0.6-0.7-1-1.1-1.4-1.6C1214.9,336.5,1216.1,335.9,1218.5,336.8z M1264.2,294.3c-0.5-2.5-1-4.4-1.4-6.4
		c-0.4,0.2-0.9,0.2-0.9,0.4c-1.1,3.1-2.1,6.3-3.2,9.4c-0.1,0.4-0.2,1-0.1,1.4c1.2,3.9,0.6,7.9,1,11.8c0.1,0.6,0.3,1.1,0.5,1.8
		c2.2-0.5,2.7-2.1,2.3-3.6c-0.4-1.8-0.3-3.4,0.2-5.1c0.3-1,0.3-2.3-0.1-3.2c-0.7-2-0.4-3.7,0.8-5.4
		C1263.8,295.1,1264,294.7,1264.2,294.3z M1845.1,312.2c5.6-3.8,21.2-19.7,23.3-22.8c0.1-0.1-0.2-0.5-0.4-1
		c-2.5,2.1-4.6,4.6-7.6,5.8c-4.2,4.2-8.5,8.2-11.8,13.1C1847.4,309,1846.2,310.6,1845.1,312.2z M1771.9,378.9
		c-0.1-0.2-0.3-0.4-0.4-0.6c-0.6,0.4-1.3,0.7-1.9,1.2c-6.7,5.4-13.3,11-20.5,15.7c-2.1,1.4-4.1,3.1-6.1,4.6
		c-0.5,0.4-0.9,1.1-0.2,1.6c0.3,0.2,1,0.1,1.3-0.1c2.6-1.8,5.2-3.6,7.7-5.6c6.6-5.3,13.1-10.7,19.7-16
		C1771.7,379.6,1771.8,379.2,1771.9,378.9z M1163.4,368.6c-3.8,2.8-7.3,5.2-10.7,7.8c-4.1,3-8.1,6.1-12.1,9.2c-1,0.8-2,1.6-2.9,2.4
		c-0.4,0.4-0.6,1.1,0.4,1.6c0.4-0.2,1.1-0.4,1.5-0.8c7.9-6.1,15.8-12.2,23.7-18.4c0.2-0.2,0.3-0.5,0.4-0.8
		C1163.8,369.6,1163.7,369.4,1163.4,368.6z M719.3,344.1c2.1-0.1,3.2-1.5,4.5-2.6c1.3-1.2,2.7-2.3,4-3.5c1.2-1.1,2.4-2.1,3.5-3.2
		c1.3-1.2,2.5-2.5,3.8-3.6c1.2-1.1,2.9-1.6,3.1-4.1c-1.1,0.7-2,1.1-2.7,1.6c-1.5,1.2-2.8,2.6-4.3,3.8c-3.4,3.1-6.9,6.2-10.3,9.3
		C720.3,342.5,719.9,343.4,719.3,344.1z M1677.9,448.6c1.6,0.8,2.9-0.2,3.6-1.2c1.5-2,3.6-3.1,5.8-4c3.3-1.4,5.3-4.1,6.9-7.1
		c-2.2,1-4.2,2.2-6.1,3.5c-1.3,0.9-2.7,1.8-3.7,3c-1.3,1.5-2.8,2.5-4.5,3.4C1678.9,446.6,1677.8,447.1,1677.9,448.6z M1140.8,398.8
		c2.4,0.3,4.1-0.3,5.9-0.8c0.6-0.2,1.1-0.7,1.5-1.2c1.4-1.7,2.7-3.5,4-5.2c0.4-0.5,0.6-1.1,0-1.6
		C1147.1,391.2,1144.4,395.2,1140.8,398.8z M640,429.2c-3.6-0.3-6.3,0.3-7.8,3c-1,1.8-2.3,3-3.9,4.1c-1.4,1-2.5,2.2-4.4,3.9
		c3.5-1.4,10.6-5.7,14-8.5C638.5,431.1,639.1,430.3,640,429.2z M1525.7,511.3c2.8-1.6,5.7-3.2,8.5-4.8c-5.2,0.6-10,2.3-14.9,4.1
		c-0.1,1-0.1,1.9-0.2,2.7c2.5,0.7,2.4-1.6,3.5-2.7C1523.5,510.8,1524.6,511.1,1525.7,511.3z M1792.9,343.1
		c3.5-2.4,15.2-12.8,17.8-15.8c0.1-0.1-0.1-0.5-0.1-0.7c-0.3,0-0.7,0-0.9,0.1c-5.5,5-11.1,10-16.5,15
		C1792.9,341.9,1793,342.3,1792.9,343.1z M1554.3,499.7c-6.4-0.1-11.3,3.2-16.7,4.8c-0.3,0.1-0.5,0.6-0.8,1c0.4,0.2,0.7,0.4,1,0.4
		c5-1.5,10-3.1,14.9-4.7C1553.4,501,1553.8,500.3,1554.3,499.7z M598.8,437.3c1,0.1,1.4,0.3,1.6,0.2c4.6-2.3,8.4-5.8,12.6-8.6
		c1-0.7,1.9-1.5,3.5-3c-1.4,0.4-1.9,0.4-2.2,0.6c-3.5,2.5-7.1,4.9-10.9,6.8c-0.9,0.4-1.7,0.9-2.4,1.5
		C600.3,435.5,599.8,436.3,598.8,437.3z M756.5,311c-1.3,0.5-1.8,0.6-2.1,0.8c-4.5,4-9,8.1-13.4,12.2c-0.4,0.4-1,0.9-0.1,1.9
		C746,321.4,751.3,317,756.5,311z M1493.9,503.7c1.5,0.9,2.6,1.8,3.8,2.4c1,0.4,2.1,0.7,3-0.7c-0.2-1.5-0.7-2.9-1.9-4
		c-1.4-1.2-2.3-1.2-3.6,0.2C1494.8,502.1,1494.5,502.7,1493.9,503.7z M1298.2,96.9c2.4-2.7,4.3-4.8,5.2-7.5c0.6-1.7,1.6-3.4,1-5.8
		c-3.5,3.1-4,7.4-6.2,10.8C1298,94.8,1298.2,95.5,1298.2,96.9z M1563.4,459.6c0.9,0,1.6,0.2,2.1,0c2.9-1.5,5.8-3,8.7-4.6
		c0.1-0.1,0.1-0.5,0.1-1c-1.4,0.6-2.7,1.3-4,1.6c-1.5,0.4-3.1,0.2-4.6,0.6C1564.2,456.4,1563.3,457.4,1563.4,459.6z M768,360.4
		c-4.2,1.9-8.1,5.2-9.3,8.6c0.9-0.2,1.6-0.3,2.4-0.5c0.4-0.1,0.9-0.4,1.2-0.8C764.1,365.3,766,362.9,768,360.4z M1079.7,387.9
		c3.7-0.9,8.1-3.8,11.8-7.6c-3.2,0.4-3.2,0.4-9.1,4.5C1081.4,385.6,1080,386.2,1079.7,387.9z M1097.4,376c0.7,0,1.4,0.2,1.8,0
		c3.6-2.6,7.2-5.2,10.8-7.8c0.3-0.2,0.2-0.7,0.4-1.1c-0.6,0-0.9-0.1-1.1,0c-3.8,2.6-7.5,5.3-11.2,8
		C1097.8,375.1,1097.7,375.4,1097.4,376z M341.5,264.4c0.8-0.9,1.4-1.9,2.2-2.5c0.9-0.7,2.1-1.1,3.7-2c-1.6-0.7-0.1-2.3-2.1-2.9
		c-1.7,1.9-4.4,3-5.6,6C340.3,263.5,340.8,263.9,341.5,264.4z M1220.1,276.2c-3.2,2.9-6.4,5.7-9.6,8.6c-0.4,0.4-1.1,0.9-0.3,1.6
		C1214.4,283.9,1217.3,280.1,1220.1,276.2z M759.9,389.5c-0.2-0.2-0.4-0.7-0.6-0.7c-0.4,0-1.1,0-1.3,0.3c-1.3,2.3-3.2,3.8-5.6,5
		c-0.2,0.1-0.4,1.1-0.2,1.2c0.4,0.3,1.3,0.8,1.6,0.6c2-1.8,4-3.6,5.9-5.5C760,390.2,759.9,389.8,759.9,389.5z M720.7,423.5
		c-4.1-0.4-5.5,2.6-7.8,4.5c0.6,0.7,0.8,1.3,1.3,1.6c1.6,1.1,3.1,0.5,3.4-1.5c0.1-0.5-0.3-1-0.1-1.4c0.2-0.7,0.5-1.4,1-2
		C718.9,424.3,719.7,424.1,720.7,423.5z M1133.7,410.6c0.1,0.3,0.2,0.5,0.3,0.8c0.5-0.2,1.2-0.2,1.6-0.5c2.4-1.6,4.8-3.2,7.2-4.8
		c0.4-0.3,0.7-0.6,1-1c0.1-0.1,0.2-0.4,0.1-0.4c-0.2-0.2-0.5-0.6-0.7-0.5c-0.8,0.1-1.7,0.1-2.2,0.5
		C1138.5,406.5,1136.1,408.6,1133.7,410.6z M1700.1,431.9c2.8-0.4,4.2-2,5.7-3.1c1.5-1.2,3.4-2,4.9-4.1
		C1706.1,425.9,1702.6,427.6,1700.1,431.9z M676.1,382.1c-0.2-0.3-0.5-0.5-0.7-0.8c-3.1,2.3-6.1,4.5-9.2,6.8
		c-0.4,0.3-0.7,0.7-0.9,1.1c-0.1,0.2,0,0.6,0.1,1.4C669,387.5,673.2,385.5,676.1,382.1z M1121.7,388.3c4.3-2.3,8.3-4.9,12.5-9
		C1130.4,381.1,1124.2,385.5,1121.7,388.3z M1117.2,386.7c3.6-0.8,6.3-3,9-6c-1,0-1.6-0.2-1.9,0C1121.9,382.6,1119,384,1117.2,386.7
		z M1542,493.9c0.2,0.3,0.2,0.8,0.4,0.8c2.1,0.5,3.9-0.3,5.5-1.7c0.2-0.2,0.1-0.9-0.1-1.2c-0.2-0.3-0.8-0.7-1.1-0.6
		C1544.8,491.5,1543.1,492.2,1542,493.9z M1820.1,264.2c2.2-2,4.5-3.9,6.6-6c0.4-0.4,0.9-0.9,0.1-1.7
		C1823.8,258.2,1821.7,261,1820.1,264.2z M1640.6,445.4c-0.2-0.3-0.4-0.6-0.6-0.8c-2.5,1.4-5,2.7-7.5,4.1c-0.4,0.2-1.2,0.8-0.3,1.6
		C1635.2,449,1638.1,447.7,1640.6,445.4z M1563.5,511.9c-1.9,1-3.4,1.7-4.8,2.6c-0.3,0.2-0.4,0.9-0.3,1.2c0.1,0.3,0.7,0.8,1,0.7
		c1-0.2,2.1-0.5,3-1C1563.4,514.9,1563.8,513.9,1563.5,511.9z M647.7,391.8c-0.7,0-1.3-0.2-1.6,0c-2.6,2-5.2,4-7.8,6
		c-0.1,0.1,0.2,0.5,0.3,1.1C641.4,396.3,645.1,395,647.7,391.8z M741.1,346.6c4.1-2,6.8-4.6,7.5-7.2
		C745.7,341.3,743.5,343.6,741.1,346.6z M1503.1,534.9c-0.4-1-0.5-1.9-1-2.6c-0.3-0.3-1.2-0.4-1.7-0.2c-1,0.4-1.8,1-3,1.6
		C1499.2,535.6,1500.9,535.4,1503.1,534.9z M1335.8,415.5c-3.3-2.4-7.2-3.6-9.8-3.3C1329.6,413.4,1332.7,414.4,1335.8,415.5z
		 M880.9,414.3c-5.4-0.7-6.9-0.6-9.9,0.8C874.4,415.8,877.1,415.1,880.9,414.3z M1843.4,314.3c-2.8,1.7-5.3,3.5-6.7,6.6
		C1839.4,319.3,1841.5,316.9,1843.4,314.3z M720.8,375.6c4.2-2.3,5.6-3.7,6.6-6.2C724.3,371.2,722.4,373,720.8,375.6z M300.4,337.7
		c-0.2-0.3-0.5-0.5-0.7-0.8c-2.4,1.6-4.6,3.6-6.6,5.8c-0.4,0.4-0.8,1,0.2,1.6C295.6,342.1,298,339.9,300.4,337.7z M744.9,381.5
		c0.7,0.1,1.4,0.4,1.5,0.2c1.5-1.7,2.8-3.4,4.2-5.1c0.1-0.2,0-0.5,0-1.2C748.4,377.3,746.5,379,744.9,381.5z M687.7,372.3
		c-3,1.1-4.1,1.9-6.2,4.4c-0.1,0.1,0.2,0.5,0.3,1C684.3,376.5,685.7,374.2,687.7,372.3z M621.6,482.8c-2.7,0.4-4.3,1.7-5.5,4.4
		C618.3,485.5,620,484.2,621.6,482.8z M347.6,351.4c-5.1,3.2-5.1,3.2-5.8,5.5C344,354.8,345.8,353.1,347.6,351.4z M1718.6,418.9
		c-2,0.2-2,0.2-5.3,3.7C1717.2,420.8,1717.2,420.8,1718.6,418.9z M1209,327.4c1.5-1.4,4.6-1,4.7-4.2
		C1211,323.6,1210.3,325.9,1209,327.4z M1506.7,485.7c-3.8,0.3-6.5,1.2-10.1,2.6C1500.6,488.4,1503.3,487.9,1506.7,485.7z
		 M769.7,298.5c-3.4,0.8-4.4,1.8-5,4.7C766.4,301.7,767.8,300.3,769.7,298.5z M292.6,401.5c2.6-1.1,4-2.8,5.2-4.7
		C295.7,397.8,294,399.2,292.6,401.5z M715.8,375.4c-4.1,2.8-4.5,3.1-5.8,6C711.9,379,714.1,378,715.8,375.4z M1168.5,410.6
		c-0.3-0.2-0.5-0.5-0.8-0.7c-1.3,1.5-3.6,1.9-4.5,4.9C1165.3,413.1,1166.9,411.9,1168.5,410.6z M528.5,476.3
		c2.6-0.2,2.6-0.2,4.5-1.9C531.3,474.5,530.1,475.1,528.5,476.3z M625.1,420.8c-0.1-0.3-0.2-0.7-0.3-1c-1.7,0-2.6,1.3-3.3,2.9
		C622.7,422.1,623.9,421.5,625.1,420.8z M1255,339.2c1.6-0.6,1.7-1.7,1.6-2.8c-0.1-0.5-0.5-1.3-0.9-1.4c-0.8-0.2-1.1,0.5-1.1,1.2
		C1254.6,337.1,1254.8,338.1,1255,339.2z M780.6,286.6c3.5-2.2,3.5-2.2,5.1-5.6C783.2,282.7,781.4,284.1,780.6,286.6z M1147.1,402.9
		c1.4-0.1,2.2-1.1,3-2.1c0.1-0.1-0.1-0.7-0.3-0.8c-1.3-0.4-2.8,0.5-3.4,1.8c-0.1,0.1-0.1,0.4,0,0.5
		C1146.5,402.6,1146.8,402.7,1147.1,402.9z M1148,388.6c-4.4,1.3-4.4,1.3-5.7,4.1C1144.4,391.1,1146.2,389.9,1148,388.6z
		 M709.2,353.4c-3.1,1.8-3.1,1.8-3.8,4.1C706.9,356.4,708.3,355.7,709.2,353.4z M767.4,382.7c-1.1,0.1-1.5,0-1.9,0.1
		c-0.7,0.2-1.5,0.4-1.5,1.4c0,0.1,0.1,0.3,0.2,0.3c0.7-0.1,1.4,0,2-0.3C766.6,384.2,766.8,383.7,767.4,382.7z M1059.6,401.4
		c-1.6-0.3-2.8,0.3-3.9,1c-0.4,0.3-1.2,0.6-0.3,1.5C1056.8,403.1,1058.2,402.2,1059.6,401.4z M374.1,401.2c-1.1,2.4-0.4,3.5,1.2,4.7
		C375.9,404,375.4,402.9,374.1,401.2z M1533.3,511.9c0.6-0.8,1.1-1.2,1.5-1.8c0,0-0.7-0.8-0.9-0.7c-0.6,0.2-1.2,0.6-1.8,1
		C1532.4,510.8,1532.7,511.2,1533.3,511.9z M743.2,382.5c-0.6,0.3-1.3,0.6-1.8,1c-0.5,0.5-0.4,1.1,0.1,1.6c0.5,0.5,1.1,0.4,1.6-0.1
		C743.8,384.5,744,383.6,743.2,382.5z M630.8,404c2.3-0.9,3.6-1.5,4.6-3.6C633.1,400.8,632.1,401.8,630.8,404z M1253.3,329.5
		c-0.3,0.5-0.7,0.8-0.6,1c0.3,0.7,0.5,1.4,1,1.9c0.2,0.2,0.9,0.3,1.2,0.1c0.2-0.2,0.4-0.9,0.2-1.2
		C1254.5,330.7,1253.9,330.1,1253.3,329.5z M734.9,376.2c-2.8,1-2.8,1-4.2,3.7C732.5,378.3,733.7,377.2,734.9,376.2z M384.4,425.4
		c-0.4-1.4,0.1-3.2-2.3-3.9C382.1,423.4,382.6,424.8,384.4,425.4z M702,419.2c0.9-0.3,1.8-0.5,2.5-0.9c0.4-0.2,0.5-0.9,0.8-1.3
		c-0.4-0.1-0.9-0.3-1.3-0.2C703,417,702,417.4,702,419.2z M328.4,276.7c-1.9-0.2-2.5,0.5-2.8,2.4C327.1,278.7,328,278.4,328.4,276.7
		z M97.1,486.3c-3.1,1.2-3.1,1.3-4,3.8C95,488.9,96.4,488,97.1,486.3z M1805.4,350.5c2.2-1,3.4-1.8,4-3.9
		C1807.4,347.3,1806.3,348.1,1805.4,350.5z M1006.7,477.3c0.9,0.6,1.6-0.1,2.2-0.3c0.6-0.2,1.5-0.4,1.4-1.8
		C1009,475.9,1007.5,475.8,1006.7,477.3z M1229.1,340.3c-0.5-0.3-1-0.7-1.5-0.9c-0.2,0-0.5,0.6-0.8,0.9c0.5,0.3,1,0.6,1.6,0.7
		C1228.5,341.1,1228.7,340.7,1229.1,340.3z M1220,318c-2.7,0.7-2.7,0.7-4.2,3.6C1217.9,321.2,1218.9,320.1,1220,318z M1523.9,481.1
		c-2.4-0.3-3.7-0.3-4.8,1.3C1520.7,482.6,1521.8,481.9,1523.9,481.1z M1213.1,296.6c2.2-0.8,2.2-0.8,2.9-2.6
		c-0.7,0.5-1.2,0.8-1.7,1.2C1213.9,295.7,1213.5,296.2,1213.1,296.6z M529.1,492.8c-1.8-0.6-3-0.1-4.4,1.4
		C526.7,494.5,528,494.2,529.1,492.8z M772.7,308.4c2-0.6,2-0.6,3-2.6C774.8,306.5,773.9,307.3,772.7,308.4z M782.1,346.5
		c-2.1,0.9-2.8,1.9-3.2,4.1C780.6,349.4,781.2,348.3,782.1,346.5z M1157.8,393.9c0.8-0.6,1.5-1.2,2.5-2
		C1158.5,391.4,1157.9,392.3,1157.8,393.9z M1228.4,326.2c1.5,0.2,2.7,0,2.6-1.8C1230,325.1,1229.2,325.7,1228.4,326.2z
		 M1234.4,349.2c2-0.5,2-0.5,3.7-3.2C1236.4,347.5,1235.6,348.2,1234.4,349.2z M752.2,389.1c-1.7,0.6-2,1.7-2.3,3.2
		C751.5,391.5,752,390.6,752.2,389.1z M1136.9,402.9c-0.3-0.6-0.4-0.8-0.5-1.1c-0.5,0.3-1,0.6-1.5,0.8c0.1,0.2,0.3,0.7,0.4,0.7
		C1135.8,403.2,1136.3,403,1136.9,402.9z M1190.4,383.3c0.9-0.6,1.4-0.8,1.8-1.1c0.2-0.2,0.1-0.7,0.2-1c-0.4,0.2-0.8,0.3-1.1,0.5
		C1191,382,1190.9,382.4,1190.4,383.3z M721.1,411.5c-1.2,0.1-1.7,0-2,0.2c-0.4,0.2-0.6,0.6-0.9,0.9c0.4,0.2,0.8,0.6,1.1,0.4
		C719.8,412.8,720.2,412.3,721.1,411.5z M1237.8,287.4c0.9-0.6,1.5-1,2-1.5c0.1-0.1,0.1-0.6,0-0.8c-0.1-0.2-0.6-0.3-0.7-0.3
		c-0.5,0.3-1,0.6-1.4,1.1C1237.4,286.2,1237.7,286.7,1237.8,287.4z M1833.2,324c-1.2,0.9-1.2,0.9-1.3,1.9
		C1832.5,325.4,1833.6,325.2,1833.2,324z M710.3,384c0.1,0.2,0.2,0.3,0.4,0.5c0.4-0.3,0.9-0.5,1.3-0.9c0.1-0.1,0-0.5-0.1-0.8
		c-0.1,0-0.3,0-0.4,0.1C711.1,383.2,710.7,383.6,710.3,384z M1571,511.3c-0.2-0.5-0.5-0.9-0.5-0.9c-0.5,0.2-1,0.4-1.5,0.7
		c0.1,0.2,0.3,0.7,0.4,0.7C1569.9,511.6,1570.4,511.4,1571,511.3z M1260.7,325.9c0.4-0.2,0.6-0.3,0.6-0.4c0.2-0.5,0.4-1.1,0.5-1.6
		c0-0.1-0.5-0.4-0.6-0.4c-0.9,0.3-1,1-0.8,1.8C1260.4,325.5,1260.5,325.6,1260.7,325.9z M356.6,319.4c-1.5-0.1-2.4,0.4-2.4,1.8
		c0.5-0.3,0.9-0.4,1.2-0.6C355.9,320.2,356.3,319.8,356.6,319.4z M1787.9,346.8c1.3,0,2.3-0.3,2.7-2.5
		C1789.2,345.5,1788.5,346.2,1787.9,346.8z M338.2,304.5c1.7-0.2,2.4-0.4,2.4-1.8C339.9,303.2,339.4,303.6,338.2,304.5z
		 M628.4,406.2c-0.2-0.3-0.4-0.5-0.6-0.8c-0.7,0.6-1.4,1.2-2.1,1.8c0.1,0.2,0.3,0.3,0.4,0.5C626.8,407.2,627.6,406.7,628.4,406.2z
		 M1249.1,270.5c2.6-1,2.6-1,2.1-2.9C1250.5,268.5,1250,269.3,1249.1,270.5z M1473.1,528.8c-1-0.1-1.8-0.4-2.6,1
		C1471.5,529.5,1472.3,530.3,1473.1,528.8z M1749.2,302.7c-0.3,0.5-0.7,1-1,1.5c0,0,0.3,0.3,0.3,0.3c0.5-0.3,0.9-0.7,1.4-1.1
		C1749.8,303.3,1749.6,303.1,1749.2,302.7z M1227.2,335.4c-0.1,0.1-0.2,0.2-0.3,0.3c0.2,0.1,0.4,0.3,0.6,0.4c0,0,0.2-0.2,0.2-0.3
		C1227.6,335.7,1227.4,335.6,1227.2,335.4z M1239.6,272.4c0.6-0.2,0.8-0.1,0.9-0.2c0.3-0.3,0.6-0.7,0.9-1c-0.2-0.1-0.5-0.4-0.6-0.4
		c-0.4,0.2-0.7,0.6-1,0.9C1239.8,271.7,1239.8,271.9,1239.6,272.4z M1538.3,520c0.9,0,1.3,0.1,1.6,0c0.2-0.1,0.4-0.4,0.6-0.6
		c-0.2-0.1-0.5-0.3-0.6-0.3C1539.5,519.3,1539.1,519.5,1538.3,520z M764.2,326.1c-2.2,0.4-2.8,0.9-2.8,2.6
		C762.4,327.8,762.9,327.3,764.2,326.1z M316.8,287.8c-0.1-0.1-0.3-0.3-0.4-0.4c-0.4,0.3-0.8,0.6-1.1,1c-0.1,0.1-0.1,0.4-0.1,0.4
		c0.2,0.1,0.6,0.3,0.7,0.2C316.2,288.6,316.5,288.2,316.8,287.8z M1204.8,305.1c0-0.1,0-0.3-0.1-0.3c-0.1-0.1-0.4-0.1-0.4,0
		c-0.1,0.4-1.3,0.5-0.4,1.2C1204,306,1204.5,305.4,1204.8,305.1z M1815,323.2c-0.2-0.2-0.4-0.4-0.7-0.7c-0.5,0.7-1.9,0.6-1.5,2.5
		C1813.7,324.3,1814.4,323.7,1815,323.2z M213.6,394.3c-0.2-0.3-0.4-0.5-0.4-0.5c-0.4,0.3-0.9,0.7-1.3,1c0.1,0.1,0.2,0.3,0.3,0.3
		C212.6,394.9,213.1,394.6,213.6,394.3z M1129.1,395.9c0.3-0.2,0.5-0.3,0.7-0.5c0.1-0.1-0.2-0.4-0.3-0.6c0,0-0.3,0.1-0.3,0.2
		C1129,395.3,1129.1,395.6,1129.1,395.9z M557.4,395.7c-0.1-0.3-0.2-0.5-0.2-0.6c-0.4,0.3-0.7,0.5-1.1,0.8c0.1,0.1,0.2,0.3,0.2,0.3
		C556.7,396,557.1,395.8,557.4,395.7z M1164.5,395.7c-1.8,0.2-2.2,0.6-2.3,1.8C1163,396.9,1163.4,396.5,1164.5,395.7z M1138.7,394.4
		c0,0.1,0,0.3,0,0.4c0.2-0.1,0.5-0.2,0.7-0.3c0.1-0.1,0.1-0.4,0.1-0.6C1139.2,394,1139,394.2,1138.7,394.4z M373.9,397.2
		c-0.2,0-0.4,0-0.5,0c0,0.6,0.1,1.2,0.1,1.9c0.1,0,0.3,0,0.4,0C373.9,398.5,373.9,397.8,373.9,397.2z M1530.8,522.7
		c-1.1-0.2-1.5-0.3-2-0.3c-0.2,0-0.3,0.3-0.5,0.5c0.1,0.1,0.3,0.2,0.4,0.2C1529.3,522.9,1529.7,522.9,1530.8,522.7z M1462.8,522.7
		c-0.1-0.1-0.2-0.4-0.2-0.4c-0.5,0-1.1,0.1-1.6,0.1c0,0,0,0.3,0,0.3c0.5,0.1,1.1,0.2,1.6,0.2C1462.5,523,1462.7,522.8,1462.8,522.7z
		 M1236.2,292.7c0-0.1,0-0.3,0-0.4c-0.2,0.1-0.4,0.2-0.6,0.3c-0.1,0.1,0,0.3,0,0.4C1235.8,292.9,1236,292.8,1236.2,292.7z
		 M779.5,302.4c-0.3,0.3-0.5,0.6-0.8,0.9c0.2,0.1,0.5,0.2,0.6,0.2c0.2-0.1,0.4-0.3,0.7-0.5C779.8,302.8,779.7,302.6,779.5,302.4z
		 M331.7,310.9c1-0.5,1.4-0.7,1.7-0.9c0.1-0.1,0.1-0.5,0.1-0.7c-0.2,0-0.4,0-0.4,0.1C332.7,309.6,332.5,310,331.7,310.9z
		 M753.4,401.2c-0.4-0.2-0.7-0.4-0.8-0.3c-0.3,0.2-0.6,0.5-0.9,0.8c0.2,0.1,0.5,0.3,0.7,0.3C752.8,401.9,753,401.5,753.4,401.2z
		 M734,392.1c-0.2-0.4-0.3-0.7-0.5-0.9c-0.4,0.3-0.8,0.5-1.1,0.8c-0.1,0.1,0.2,0.5,0.4,0.8C733.3,392.5,733.7,392.3,734,392.1z
		 M350.1,313.9c-0.1-0.1-0.1-0.2-0.2-0.4c-0.2,0.2-0.4,0.4-0.6,0.6c0,0,0.1,0.2,0.2,0.3C349.7,314.3,349.9,314.1,350.1,313.9z
		 M1206.4,316.8c0.4-0.5,0.8-0.9,1.2-1.3c0,0-0.1-0.2-0.2-0.4c-0.5,0.3-0.9,0.6-1.4,0.9C1205.9,316,1206.1,316.4,1206.4,316.8z
		 M1720.9,319.1c0.2-0.3,0.5-0.6,0.8-0.9c-0.1-0.1-0.3-0.2-0.4-0.2c-0.3,0.3-0.6,0.6-0.9,0.9C1720.6,318.9,1720.7,319,1720.9,319.1z
		 M1156.2,401.9c-0.1-0.1-0.1-0.3-0.2-0.3c-0.3,0-0.6,0-0.8,0.2c-0.2,0.1-0.3,0.4-0.4,0.7c0.1,0.1,0.2,0.2,0.3,0.2
		C1155.5,402.4,1155.9,402.2,1156.2,401.9z M758.5,323.5c0.4-0.3,0.8-0.5,1-0.8c0.1-0.2,0-0.5-0.1-0.8c-0.4,0.2-0.8,0.4-1.1,0.7
		C758.2,322.7,758.4,323.1,758.5,323.5z M1048.7,477.4c0.1,0.1,0.3,0.3,0.3,0.3c0.4-0.2,0.7-0.3,1.1-0.5c-0.1-0.2-0.2-0.3-0.3-0.5
		C1049.4,476.9,1049,477.2,1048.7,477.4z M1217.1,341.8c-0.1-0.2-0.3-0.4-0.4-0.6c-0.1,0.1-0.3,0.2-0.3,0.3c0,0.2,0.1,0.5,0.1,0.7
		C1216.6,342.1,1216.9,341.9,1217.1,341.8z M653.7,346.4c-0.1-0.2-0.1-0.4-0.1-0.5c-0.3,0.2-0.6,0.4-0.9,0.6c0,0,0,0.2,0.1,0.4
		C653,346.8,653.3,346.6,653.7,346.4z M592.9,460.4c-0.1,0.1-0.3,0.1-0.4,0.2c0,0.2,0,0.4,0,0.6c0.1-0.1,0.2-0.2,0.3-0.3
		C592.9,460.7,592.9,460.5,592.9,460.4z M1128.6,407.8c0.3-0.4,0.6-0.7,0.8-1c0,0-0.2-0.3-0.2-0.3c-0.4,0.1-0.7,0.3-1.1,0.5
		C1128.3,407.2,1128.4,407.4,1128.6,407.8z M622.1,409.8c0,0.1,0,0.2,0,0.4c0.2-0.1,0.5-0.1,0.6-0.3c0.1-0.1,0-0.4,0-0.6
		C622.5,409.5,622.3,409.7,622.1,409.8z M655.5,385.9c-0.1-0.2-0.3-0.3-0.4-0.5c-0.1,0.1-0.3,0.2-0.3,0.3c0,0.2,0,0.5,0,0.7
		C655.1,386.2,655.3,386.1,655.5,385.9z M645.5,452.5c-0.3,0.3-0.7,0.6-1,0.9c0,0,0.1,0.3,0.2,0.3
		C645.4,453.6,645.8,453.3,645.5,452.5z M655.4,411.2c-0.2,0.1-0.5,0.3-0.7,0.5c0,0,0.1,0.3,0.1,0.4c0.2-0.2,0.5-0.3,0.7-0.5
		C655.5,411.6,655.4,411.4,655.4,411.2z M1674.8,449.9c-0.3,0.1-0.6,0.2-0.8,0.4c-0.1,0.1,0,0.5,0,0.7c0.3-0.1,0.7-0.1,0.8-0.3
		C1675,450.5,1674.9,450.2,1674.8,449.9z M611.9,448.8c-0.1-0.1-0.3-0.3-0.4-0.4c-0.4,0.2-0.7,0.4-1.1,0.7c-0.1,0.1-0.2,0.2-0.2,0.4
		c0.2,0.1,0.5,0.3,0.7,0.2C611.3,449.4,611.6,449.1,611.9,448.8z M615.7,414.2c-0.2,0.2-0.4,0.5-0.6,0.7c0.1,0.1,0.3,0.2,0.3,0.2
		c0.2-0.2,0.4-0.4,0.6-0.7C615.9,414.3,615.8,414.3,615.7,414.2z M773.5,355.5c0.3-0.1,0.6-0.2,0.8-0.4c0.1-0.2-0.1-0.5-0.2-0.8
		c-0.3,0.1-0.6,0.2-0.8,0.4C773.2,354.8,773.4,355.2,773.5,355.5z M904.8,416.3c-0.3-0.5-0.5-0.9-0.6-0.9c-0.4,0-0.9,0.2-1.3,0.3
		c0,0,0.1,0.6,0.1,0.6C903.6,416.4,904.1,416.4,904.8,416.3z M1033.3,416.1c-0.3-0.1-0.7-0.2-0.8-0.1c-0.2,0.2-0.3,0.6-0.4,1
		c0.3-0.1,0.5-0.1,0.7-0.2C1033,416.5,1033.1,416.3,1033.3,416.1z M1158.1,418.4c-0.4-0.3-0.6-0.4-0.6-0.4c-0.3,0.3-0.5,0.6-0.8,0.9
		c0.1,0.1,0.3,0.2,0.3,0.2C1157.3,418.9,1157.7,418.7,1158.1,418.4z M1187.2,358.1c0-0.1,0-0.3-0.1-0.4c-0.3,0.2-0.7,0.4-1,0.5
		c0.2,0.1,0.4,0.4,0.5,0.4C1186.8,358.5,1187,358.3,1187.2,358.1z M1078.2,377.8c0.2-0.2,0.4-0.3,0.6-0.5c-0.2-0.1-0.3-0.2-0.5-0.4
		c-0.1,0.2-0.3,0.4-0.4,0.6C1077.9,377.7,1078.1,377.8,1078.2,377.8z M1139,376c-0.2-0.2-0.4-0.4-0.5-0.4c-0.5,0.3-0.9,0.7-1.3,1
		c0.1,0.1,0.3,0.3,0.3,0.3C1138,376.6,1138.5,376.3,1139,376z M1025,438.8c0.1,0.1,0.2,0.2,0.2,0.4c0.3-0.2,0.6-0.5,0.9-0.7
		c0,0,0-0.2-0.1-0.3C1025.8,438.4,1025.4,438.6,1025,438.8z M643.8,431.8c-0.1-0.1-0.3-0.2-0.4-0.2c-0.2,0.2-0.3,0.5-0.4,0.7
		c0.1,0.1,0.4,0.2,0.4,0.2C643.6,432.3,643.7,432.1,643.8,431.8z M1169,365.3c-0.4-0.1-0.8-0.3-1-0.2c-0.2,0.1-0.3,0.5-0.5,0.7
		c0.2,0.1,0.5,0.4,0.6,0.4C1168.5,366,1168.7,365.7,1169,365.3z M756.1,372.1c-0.4-0.2-0.8-0.5-0.9-0.4c-0.4,0.2-0.6,0.6-0.9,1
		c0.3,0.1,0.6,0.4,0.8,0.4C755.4,372.8,755.7,372.5,756.1,372.1z M883.1,422.8c-1.4-0.2-1.8-0.3-2.3-0.4c0,0.2,0,0.5,0,0.7
		C881.3,423.1,881.7,423,883.1,422.8z M973.9,399.2c0.1-0.1,0.2-0.2,0.4-0.3c-0.2-0.1-0.5-0.3-0.7-0.3c-0.1,0-0.2,0.2-0.4,0.3
		C973.4,399,973.7,399.1,973.9,399.2z M1194.2,365.9c-0.1,0-0.3,0-0.4,0.1c0.1,0.2,0.1,0.3,0.2,0.5c0.1-0.1,0.3-0.1,0.4-0.2
		C1194.4,366.2,1194.3,366,1194.2,365.9z M778.3,289.5c-0.4,0-0.7-0.2-0.9-0.1c-0.2,0.1-0.4,0.5-0.6,0.7c0.2,0.1,0.5,0.4,0.6,0.3
		C777.7,290.2,778,289.9,778.3,289.5z M1545.5,518.5c0-0.1,0-0.3-0.1-0.4c-0.2,0.1-0.4,0.1-0.5,0.2c0.1,0.1,0.1,0.3,0.2,0.3
		C1545.2,518.6,1545.4,518.5,1545.5,518.5z M765.7,400.4c0.1-0.1,0.1-0.2,0.2-0.4c-0.2,0-0.3,0-0.5,0c0,0.1,0,0.3,0,0.4
		C765.5,400.5,765.6,400.4,765.7,400.4z M772.4,295.4c0.3-0.4,0.6-0.7,0.9-1c-0.2-0.1-0.5-0.4-0.6-0.4c-0.3,0.3-0.6,0.6-0.9,0.9
		C772,295,772.2,295.2,772.4,295.4z M1115.9,363.9c-0.1-0.4-0.1-0.6-0.2-0.9c-0.3,0.1-0.6,0.1-0.8,0.3c-0.1,0.2-0.1,0.5-0.1,0.8
		C1115.2,364.1,1115.5,364,1115.9,363.9z M629.1,509.7c-0.1,0.1-0.3,0.1-0.4,0.2c0,0.1,0.1,0.2,0.1,0.4c0.1-0.1,0.3-0.1,0.4-0.2
		C629.2,510,629.1,509.8,629.1,509.7z M1481.7,507.3c0.2-0.1,0.4-0.3,0.7-0.4c-0.1-0.2-0.2-0.4-0.4-0.5c0,0-0.3,0.1-0.3,0.2
		C1481.6,506.8,1481.7,507.1,1481.7,507.3z M758.7,308.7c0.3-0.2,0.5-0.3,0.7-0.5c0.1-0.1-0.2-0.4-0.3-0.6c-0.1,0.1-0.3,0.1-0.4,0.2
		C758.6,308.2,758.7,308.4,758.7,308.7z M511.4,497.5c-0.1,0-0.2-0.1-0.4-0.1c0,0.2-0.1,0.3-0.1,0.5c0.1,0,0.3,0,0.4-0.1
		C511.4,497.8,511.4,497.6,511.4,497.5z M1533.9,498.1c0.3-0.3,0.5-0.5,0.8-0.8c0,0-0.2-0.3-0.2-0.3c-0.4,0.1-0.7,0.3-1,0.4
		C1533.6,497.6,1533.7,497.8,1533.9,498.1z M1223,360c-0.3,0.3-0.5,0.6-0.8,0.9c0,0,0.2,0.2,0.3,0.3c0.3-0.3,0.7-0.6,1-0.8
		C1223.4,360.3,1223.3,360.2,1223,360z M742.3,310.7c-0.1,0.1-0.1,0.2-0.2,0.4c0.2,0.1,0.3,0.1,0.5,0.2c0-0.1,0.1-0.3,0-0.4
		C742.5,310.7,742.4,310.7,742.3,310.7z M1204.4,318.1c-0.2-0.1-0.5-0.2-0.7-0.3c-0.1,0-0.2,0.2-0.4,0.2c0.1,0.2,0.3,0.4,0.4,0.6
		C1203.9,318.5,1204.1,318.3,1204.4,318.1z M751.3,414.1c-0.1,0.1-0.2,0.2-0.3,0.2c0.2,0.1,0.3,0.1,0.5,0.2c0-0.1,0.1-0.2,0.1-0.3
		C751.5,414.2,751.4,414.2,751.3,414.1z M770.2,330.5c0-0.1-0.1-0.2-0.1-0.4c-0.1,0.1-0.3,0.1-0.4,0.2c0.1,0.1,0.1,0.3,0.2,0.4
		C770,330.7,770.1,330.6,770.2,330.5z M1168.3,336.1l-0.1,0.3l0.3-0.2L1168.3,336.1z M703.4,346.4c0.2-0.2,0.5-0.5,0.7-0.8
		c0,0-0.3-0.3-0.3-0.3c-0.3,0.2-0.6,0.5-1,0.8C703,346.2,703.1,346.2,703.4,346.4z M746.8,387.1c-0.2-0.2-0.3-0.4-0.5-0.5
		c-0.1,0.1-0.2,0.3-0.2,0.3c0.1,0.2,0.3,0.3,0.5,0.5C746.6,387.3,746.7,387.2,746.8,387.1z M1112.1,353.9c0-0.1-0.1-0.2-0.1-0.3
		c-0.2,0.1-0.5,0.2-0.7,0.3c0,0,0.1,0.2,0.1,0.3C1111.6,354.1,1111.9,354,1112.1,353.9z M1203.1,350.6c-0.2,0.1-0.4,0.2-0.7,0.4
		c0.1,0.1,0.2,0.3,0.2,0.3c0.2-0.1,0.5-0.2,0.7-0.4C1203.2,350.8,1203.2,350.7,1203.1,350.6z M533.6,459.4c0-0.1,0-0.3,0-0.3
		c-0.3,0-0.6,0-0.8-0.1c0,0.2,0,0.4,0,0.6C533.1,459.6,533.4,459.5,533.6,459.4z M1050.2,456.7c0.1-0.2,0.3-0.4,0.4-0.5
		c-0.1-0.1-0.3-0.2-0.3-0.2c-0.2,0.1-0.4,0.3-0.6,0.4C1049.8,456.5,1050,456.6,1050.2,456.7z M537.5,457.2l-0.4,0.2l0.4,0.1
		L537.5,457.2z M1085.5,457.4l0.3,0.2l0.1-0.2L1085.5,457.4z M1664,457.5c-0.1-0.1-0.2-0.3-0.3-0.3c-0.3,0.1-0.5,0.2-0.8,0.3
		c0.1,0.1,0.2,0.3,0.3,0.3C1663.5,457.7,1663.7,457.6,1664,457.5z M1051.9,405.5l0.3,0.2l0.1-0.3L1051.9,405.5z M1643.1,452.7
		c0.1,0,0.2,0.1,0.3,0.1c-0.1-0.1-0.1-0.2-0.2-0.3C1643.2,452.5,1643.1,452.6,1643.1,452.7z M1150.1,386.2l0,0.3l0.3-0.1
		L1150.1,386.2z M617.2,471.9l0-0.3l-0.4,0.1L617.2,471.9z M738.5,387.9l0.2-0.3l-0.3-0.1L738.5,387.9z M780.3,341.1l0,0.3l0.4-0.1
		L780.3,341.1z M1045.4,479.6l0-0.2l-0.3,0.1L1045.4,479.6z M728.4,381.7c0-0.1,0-0.3-0.1-0.3c-0.1-0.1-0.3,0-0.4-0.1
		c0,0.2,0.1,0.4,0.1,0.6C728.2,381.9,728.3,381.8,728.4,381.7z M598.6,483.4c0.1,0,0.2,0.1,0.4,0.1c-0.1-0.1-0.2-0.3-0.2-0.4
		C598.7,483.2,598.6,483.3,598.6,483.4z M1160.6,416c-0.1,0-0.3-0.1-0.4-0.1c-0.1,0-0.1,0.2-0.1,0.3c0.1,0,0.3,0.1,0.4,0.1
		C1160.5,416.3,1160.5,416.1,1160.6,416z M1558.9,486.3l-0.2-0.2l-0.1,0.3L1558.9,486.3z M1028.7,487.1l0,0.3l0.3-0.1L1028.7,487.1z
		 M663.3,418.1l0.3-0.1l-0.3-0.1L663.3,418.1z M1555.9,489.8l0,0.3l0.4-0.1L1555.9,489.8z M995.8,388.3c0-0.1,0-0.3-0.1-0.3
		c-0.1-0.1-0.2,0-0.4-0.1c0,0.2,0.1,0.3,0.1,0.5C995.6,388.4,995.7,388.4,995.8,388.3z M566.3,389.2l-0.3,0.1l0.3,0.1L566.3,389.2z
		 M1198.9,362.5c0.1,0,0.2,0.1,0.4,0.1c0,0,0.1-0.2,0.1-0.3c-0.1,0-0.2-0.1-0.3-0.1C1198.9,362.2,1198.9,362.4,1198.9,362.5z
		 M1454.7,501.5c0.1,0.1,0.3,0.3,0.3,0.3c0.3,0,0.5-0.2,0.8-0.3c-0.1-0.1-0.2-0.3-0.3-0.3C1455.3,501.3,1455,501.4,1454.7,501.5z
		 M1131.7,399.9c0.1,0,0.2,0.1,0.3,0.1c0,0,0.1-0.2,0.1-0.3c-0.1,0-0.2-0.1-0.3-0.1C1131.8,399.6,1131.8,399.8,1131.7,399.9z
		 M335.8,307.5l-0.4,0.2l0.4,0.1L335.8,307.5z M1010.5,509.1l0,0.3l0.4-0.1L1010.5,509.1z M560.4,393.2l0-0.2l-0.3,0.1L560.4,393.2z
		 M1007.2,510.1l-0.4,0.2l0.4,0.2L1007.2,510.1z M898,420.8c0,0.1,0,0.3,0.1,0.3c0.1,0.1,0.3,0.1,0.4,0.1c0-0.2-0.1-0.4-0.1-0.5
		C898.3,420.7,898.1,420.7,898,420.8z M1144.7,427.6l0.3,0.2l0-0.3L1144.7,427.6z M385.2,428.3l0.2-0.3l-0.3-0.1L385.2,428.3z
		 M875.9,422.7c0,0.1,0,0.3,0.1,0.3c0.1,0.1,0.3,0.1,0.4,0.1c0-0.2-0.1-0.4-0.1-0.6C876.1,422.6,876,422.7,875.9,422.7z
		 M1222.7,288.3l0,0.2l0.3-0.1L1222.7,288.3z M1468.6,521.6l0,0.2l0.3-0.1L1468.6,521.6z M1128.8,367l0,0.2l0.3-0.1L1128.8,367z
		 M729.8,395.4c0.1,0,0.3-0.1,0.3-0.1c0-0.1-0.1-0.2-0.1-0.4c-0.1,0-0.2,0.1-0.3,0.1C729.7,395.2,729.7,395.3,729.8,395.4z
		 M1798,261.7l0-0.3l-0.4,0.1L1798,261.7z M1476.2,550.4c0,0.1,0,0.3,0.1,0.3c0.1,0.1,0.3,0.1,0.4,0.1c0-0.2-0.1-0.4-0.1-0.6
		C1476.5,550.3,1476.3,550.4,1476.2,550.4z M1294.2,101.7c0,0.1-0.1,0.2-0.1,0.4c0.2,0,0.3,0,0.5,0c0-0.1,0-0.3-0.1-0.4
		C1294.5,101.6,1294.3,101.7,1294.2,101.7z"/>
	<path class="st0" d="M1050.7,497.5c1.6-0.4,3.2-0.8,4.8-1.2c0.1,0.2,0.2,0.4,0.3,0.6c-0.5,0.4-1,1-1.5,1.2
		c-1.2,0.6-2.4,0.2-3.4-0.7C1050.8,497.4,1050.7,497.5,1050.7,497.5z"/>
	<path class="st0" d="M234.4,462.8c0.1,0.2,0.3,0.3,0.4,0.5c-0.2,0.1-0.5,0.2-0.7,0.3c0,0-0.2-0.3-0.2-0.3
		C234,463.1,234.2,463,234.4,462.8z"/>
	<path class="st0" d="M1240.2,319.9c0.1-0.4,0.3-0.9,0.4-1.3c0.3-0.8,0.8-1.3,1.7-1.1c0.1,0,0.3,0.2,0.3,0.3c0.2,1-0.6,1.2-1.3,1.5
		c-0.4,0.1-0.9,0.3-1.3,0.5C1240.1,319.7,1240.2,319.9,1240.2,319.9z"/>
	<path class="st0" d="M1247.5,322c-0.4,0.3-0.8,0.7-1.3,1c-0.2,0.1-0.8,0-0.8,0c-0.1-0.4-0.1-0.9,0.1-1.2c0.2-0.4,0.7-0.6,1.1-0.8
		c0.2-0.1,0.5,0.2,0.8,0.3C1247.4,321.3,1247.4,321.6,1247.5,322z"/>
</g>
</svg>
