<?xml version="1.0" encoding="utf-8"?>
<!-- Generator: Adobe Illustrator 23.0.6, SVG Export Plug-In . SVG Version: 6.00 Build 0)  -->
<svg version="1.1" id="Layer_1" xmlns="http://www.w3.org/2000/svg" xmlns:xlink="http://www.w3.org/1999/xlink" x="0px" y="0px"
	 viewBox="0 0 1747.7 1207.2" style="enable-background:new 0 0 1747.7 1207.2;" xml:space="preserve">
<style type="text/css">
	.st0{fill:#EFABC2;}
</style>
<g>
	<path class="st0" d="M249.8,1114c-0.7,2.5-2.5,4-4.6,5.3c-6.1,3.7-12.2,7.6-18.4,11.2c-6.8,3.9-13.7,7.6-20.5,11.5
		c-2.5,1.4-4.8,3.2-7.1,4.8c-4.4,3-9.1,5.3-14.2,6.9c-2.9,0.9-5.6,2.3-8.2,3.9c-6.4,4-13,7.6-19,12.1c-2.8,2.1-6.2,3.2-9.4,4.6
		c-7.2,3.1-14.5,6-22,8.3c-3.6,1.1-6.8,1.2-10.1-0.9c-3.1-2-6.3-3.8-9.5-5.6c-1.1-0.6-2.3-1.2-3.4-1.7c-8-3.3-15.4-7.7-22.4-12.8
		c-1.7-1.3-3.3-2.4-5.6-2.3c-1,0-2.1-0.6-3.1-1.1c-1.1-0.6-2.2-1.3-3.1-2.2c-3.1-3.1-7.2-4.8-10.6-7.4c-1-0.7-2.3-1.3-3.5-1.4
		c-1.8-0.2-3.3-1-4.8-1.9c-2-1.2-4.2-2.3-6.4-3.1c-2.3-0.9-4.3-2.1-5.8-4.1c-2-2.7-4.5-5-7.5-6.7c-0.7-0.4-1.3-0.9-1.9-1.5
		c-1.1-1-1.3-2.1-0.8-3.5c1.8-4.5,3.5-8.9,5.3-13.4c1.5-3.7,6-6.3,10-5.9c1.4,0.2,2.8,0.6,4.3,0.6c2.2,0.1,4.6,0.4,6.7-0.2
		c4.6-1.2,9.2-2.6,13.6-4.5c11.2-4.8,22.3-9.6,33.3-14.8c10.7-5.1,21.2-10.6,31.6-16.2c13-6.9,25.8-14.1,38.4-21.7
		c15.3-9.3,29.8-19.8,44.7-29.8c2-1.3,4.1-2.6,6-3.9c5.4-3.7,10.8-7.5,16.1-11.3c13.3-9.7,26.6-19.4,39.8-29.2
		c9.1-6.8,18.1-13.8,27.1-20.6c10-7.7,20.2-15.2,30.1-23c7.4-5.8,14.6-11.9,21.9-17.9c6.4-5.3,12.8-10.6,19.2-16
		c7.8-6.6,15.6-13.2,23.2-20.1c11.9-10.7,23.7-21.5,35.3-32.5c9.3-8.8,18.3-17.9,27.5-26.8c3-2.9,6-5.8,8.8-8.8
		c7.9-8.2,15.7-16.4,23.5-24.6c3.9-4.1,5.1-6,1-12.2c-0.8-1.2-1.2-2.6-2-3.8c-0.6-0.9-1.4-1.9-2.3-2.3c-3.6-1.2-5.7-4-7.2-7.2
		c-1.8-4.1-3.5-8.2-5.6-12.2c-0.9-1.7-1.6-3.4-2.9-4.9c-0.7-0.8-1.2-1.9-1.5-2.9c-0.5-1.4-0.8-2.8-1.1-4.2c-0.9-4-1.7-8-4.1-11.6
		c-1.9-2.8-3-6.3-4.1-9.7c-0.5-1.6-0.4-3.5-0.4-5.2c0.1-2.3-0.3-4.4-0.9-6.6c-1.2-4.4-2.1-9-2.9-13.6c-0.8-4.7-0.9-9.6-2.7-14.1
		c-0.3-0.7-0.3-1.6-0.3-2.4c0.3-4.2-0.4-8.3-1.3-12.3c-0.3-1.5-0.5-3.2-0.1-4.7c0.4-2,0-3.7-0.6-5.6c-1.3-4.1-1.9-8.3-1.3-12.7
		c0.6-4.3,0.6-8.6,0.8-12.9c0.1-2.7-0.8-5-3.7-6.3c1.3-3.3,0.2-6.4,0.3-9.6c0.2-4.3,0.2-8.6,1-12.9c0.4-2.3,0.6-4.8,0.4-7.2
		c-0.2-3.4,0.2-6.8,1.3-9.9c1.5-4.1,1.4-8.2,1.1-12.3c-0.2-3.1,0.2-5.9,1.4-8.8c1.2-2.9,1.9-6.1,3.6-8.8c1.1-1.7,0.6-3.8,0-5.6
		c-0.8-2.4-0.1-4.7,0.1-7c0.4-4.1,2.3-7.9,2.4-12.1c0-1.2,0.7-2.4,1.2-3.6c0.5-1.2,1.4-2.3,1.5-3.5c0.6-4.2,2.4-7.9,4.1-11.7
		c1.6-3.7,2.5-7.6,3.9-11.3c1.8-4.8,3.9-9.5,5.9-14.2c1.4-3.2,2.9-6.4,4.2-9.7c1.9-5.1,4.9-9.7,7.2-14.6c4.4-9.4,10-18.2,14.5-27.6
		c0.3-0.6,0.5-1.2,1-1.6c3.6-3.7,5.5-8.6,8.5-12.8c3.1-4.4,6.4-8.7,9.6-13.1c2-2.7,3.3-5.9,5.1-8.7c2.9-4.4,5.7-8.8,9.3-12.7
		c2.1-2.3,3.8-5.1,5.5-7.8c1-1.6,1.9-3.3,3.4-4.6c0.8-0.7,1.3-1.8,2.1-2.6c0.6-0.7,1.3-1.4,2-2c2.3-2,4.6-3.9,6.9-5.9
		c0.5-0.4,1-0.9,1.2-1.5c0.9-2.6,2.4-4.4,5-5.4c1.1-0.4,1.4-1.6,1.8-2.7c1-2.7,2.9-4.4,5.8-5.1c3.5-0.9,5.9-3.3,7.2-6.4
		c0.8-2,2.1-3.1,3.8-4.1c4-2.3,8.1-4.5,11.9-7c3.2-2.1,6.1-4.6,8-8.1c0.5-0.9,1.4-1.8,2.3-2.4c2.4-1.6,4.8-3.1,7.2-4.7
		c2.5-1.7,5.1-3.3,8.2-3.7c1.2-0.2,2.4-0.9,3.4-1.6c4.8-3.7,10.3-5.7,16.1-7c3.4-0.8,6.9-1.4,9.9-3.3c1.3-0.8,3-1.5,4.5-1.4
		c3.1,0,6-1,8.9-1.7c1.1-0.3,2.2-0.5,3.1-1.2c1.8-1.4,3.7-1.6,5.9-1.2c2,0.4,4.1,0.5,6.2,0.7c7.4,0.8,14.3,3.2,21,6.5
		c1,0.5,1.9,1.2,2.8,1.9c1.9,1.2,3.7,2.4,5.6,3.7c1.7,1.1,3.6,2.1,5.2,3.5c7.3,6.2,14.3,12.8,19.6,20.9c2.7,4.1,5.7,8.1,8.9,11.9
		c5.2,6,9.3,12.6,13.3,19.3c2.7,4.5,4.5,9.5,6.8,14.3c1.2,2.6,2,5.4,4.8,6.9c0.5,0.3,0.9,1,1.1,1.5c1.1,3.8,3.7,6.7,5.6,10
		c0.6,1.1,1.5,2.2,1.7,3.4c0.4,2.3,1.2,4.2,3.3,5.5c0.5,0.3,0.9,1.4,0.8,2.1c-0.3,2.6,0.1,5.5-2.3,7.6c-0.3,0.3-0.4,0.8-0.6,1.5
		c0.6,0.5,1.1,1.1,1.8,1.4c2.4,1,3.5,2.9,3.2,5.3c-0.4,2.5,0.2,4.7,0.8,7c0.9,3.4,1.5,6.8,1.3,10.4c-0.2,3.5,0.3,7.1-0.6,10.5
		c-0.8,2.8-1.4,5.6-0.8,8.5c-1.1,6.6-1.2,13.4-3.8,19.7c-0.7,1.6-1.1,3.3-1.1,5.1c0,1.7-0.5,3.4-1,5.1c-0.3,1.1-1.1,2-2.4,2.1
		c-1.7,0.1-2.5,1.2-3,2.6c-0.9,2.7-2,5.4-2.8,8.1c-0.5,1.7-1.1,2.9-3.2,2.9c-0.6,0-1.6,0.5-1.9,1.1c-0.8,1.3-1.4,2.8-2.1,4.4
		c0.9,0.9,1.7,1.6,2.4,2.4c0.7,0.8,0.7,1.7,0.3,2.7c-0.4,1-1.1,1.6-2.2,1.4c-1-0.2-2-0.4-2.5,0.6c-0.3,0.7-0.3,1.5-0.5,2.5
		c0.9,0.4,1.8,0.7,2.7,1.1c0,1.7,0,3.4,0,5.7c1.3-1.1,2.1-1.9,3-2.7c1.2,0.4,0.9,1.3,0.7,2c-1.7,5.5-3.4,11-5.2,16.4
		c-1.5,4.5-3,9.1-4.6,13.6c-0.9,2.5-2.3,4.9-2.5,7.7c0,0.5-0.7,1.1-1.1,1.6c-2.2,2.8-3.8,5.8-3.8,9.6c0,1.2-0.5,2.5-1,3.7
		c-1.2,2.8-2.5,5.5-3.8,8.3c-0.7,1.6-1.6,3.2-1.9,4.9c-0.7,3.7-2.7,6.8-4.6,9.9c-0.6,1-1.4,1.8-1.9,2.8c-1,2.4-2.2,4.5-4.9,5.6
		c-1.6,0.7-2.2,2.4-2.2,4c0.1,3-1.1,5.6-2.6,8.1c-1,1.7-1.6,3.5-2.3,5.3c-0.8,2.1-1.5,4.2-3.1,5.9c-0.4,0.4-0.7,1.1-0.8,1.7
		c-0.5,3-2.4,5.1-4.1,7.5c-2.7,3.8-5.1,7.7-7.7,11.5c-1.2,1.7-2.1,3.8-3.7,5c-3.4,2.6-4.8,6.2-6.3,9.9c-0.9,2.4-2.2,4.6-3.5,6.8
		c-2.7,4.1-5.6,8.2-8.4,12.2c-0.3,0.4-0.4,0.9-0.8,1.2c-3.3,2.8-4.7,6.7-6.7,10.3c-1.4,2.5-3.1,5-5.2,6.8c-3.2,2.6-4.8,6-6.4,9.4
		c-1.6,3.4-3,6.7-6.1,9c-0.5,0.4-0.9,0.9-1.2,1.5c-1.7,3.2-3.7,6.3-6.2,9.1c-1.7,1.9-3,4.1-4.8,5.9c-2.7,2.6-4.9,5.5-6.5,8.8
		c-2,3.9-4.6,7.3-8.2,9.8c-0.8,0.5-1.7,1.2-2.1,2c-1.5,3-4.2,4.8-6.3,7.1c-2.7,3-5.2,6.1-7.5,9.4c-4.6,6.6-10.6,12-15.3,18.4
		c-5.2,7-11.7,12.7-17.1,19.4c-0.8,1-1.8,1.9-2.5,2.9c-0.9,1.2-0.6,2.7,0.7,3.2c3.6,1.2,7.2,2.6,11.2,2.1c1-0.1,2.2,0.2,3.2,0.4
		c2,0.4,4,1.2,6,1.3c6.7,0.2,13.4,0.4,20.1,0.2c9.6-0.3,19.2-1,28.7-1.6c2.7-0.2,5.4-0.8,8-1.2c3.6-0.6,7.2-1.2,10.9-1.6
		c2.9-0.3,5.7-0.8,8.3-2.1c1.4-0.7,3-1.3,4.5-1.4c10.9-0.6,21.5-3,32.1-5.4c3.1-0.7,6.1-1.6,8.5-4c0.9-0.9,2.5-1.4,3.9-1.6
		c7.6-1.3,14.8-3.7,21.7-7.1c2.1-1.1,4.5-1.6,6.8-2.2c4.3-1.1,8.7-2.2,12.4-5c0.9-0.7,2-1.3,3-1.4c2.9-0.4,5.4-2,8.1-3
		c4.6-1.8,9.2-3.6,13.7-5.5c1-0.4,2.1-0.9,2.9-1.6c2.4-2,5.2-3,8.1-4c1.4-0.4,2.9-0.8,3.9-1.6c2.3-1.9,5-2.8,7.7-3.8
		c3.4-1.3,6.9-2.5,10.4-3.7c0.6-0.2,1.2-0.4,1.8-0.7c3.3-1.8,6.7-3.7,10-5.6c1.1-0.6,2.3-1.1,3.5-1.6c5-2.1,9.7-4.8,14.3-7.7
		c3.8-2.4,7.8-4.3,11.7-6.4c1.8-1,3.6-2.1,5.3-3.3c2.6-1.9,5.2-3.7,8.4-4.5c1.2-0.3,2.3-1.1,3.2-2c1.8-1.5,3.6-2.6,6-2.7
		c1-0.1,2.1-0.7,3-1.2c3.5-2.2,6.9-4.6,10.4-6.8c0.8-0.5,1.8-0.7,2.7-0.9c4.7-1.1,9-3.2,13.2-5.5c0.6-0.3,1.2-0.6,1.6-1.1
		c1.8-2.4,4-4.1,7-4.7c0.1,0,0.3-0.1,0.4-0.3c2.7-4,7.7-5,11.2-7.9c1.3-1.1,3-1.9,4.6-2.5c3.6-1.4,6.9-3.2,9.4-6.4
		c3.8-4.9,9.6-6.7,15-8.9c1.6-0.6,3.3-1.2,4.9-1.9c6.7-3.2,12.2-8.2,18.4-12.1c2.2-2.8,5.8-3.9,7.7-7.1c0.4-0.7,1.5-1.2,2.3-1.6
		c1.3-0.6,2.7-1.1,4.1-1.5c3.3-0.8,5.7-2.8,7.6-5.5c2.2-3.2,5.1-5.7,8.5-7.7c1.5-0.9,2.9-2,4.3-3c2.9-2.2,5.7-4.7,9.5-5.2
		c0.6-0.1,1.2-0.4,1.7-0.8c4.1-3.1,8.1-6.2,12.2-9.2c1.3-1,2.5-1.8,4.3-1.9c3-0.1,5.1-1.9,6.2-4.5c0.9-2.1,2-3,4.2-3.1
		c3-0.2,5.3-2.1,7.3-4.3c1.3-1.5,2.7-2.7,4.6-3.3c1-0.4,2-1,2.9-1.7c4.6-3.4,9.5-6.4,14.3-9.6c1.2-0.8,2.1-1.9,3.2-2.9
		c1.5-1.5,2.8-3,4.3-4.5c1.5-1.5,3.2-2.6,5.3-3c2.3-0.4,4.1-1.8,5.5-3.6c2.3-3,4.9-5.4,8.5-6.7c0.7-0.2,1.3-0.9,1.8-1.5
		c1.1-1.1,2.2-2.3,3.2-3.5c1.1-1.3,2.4-2.1,4-2.5c2.4-0.5,4.4-1.8,6.1-3.6c0.3-0.4,0.7-0.7,1.1-1c3.9-2.1,6.7-5.4,9.5-8.7
		c1.1-1.4,2.6-2.2,4.4-2.7c1.5-0.4,3.1-1,4.3-2c5.4-4.5,11.4-8.2,16.5-13.1c2.6-2.6,5.8-4.6,8.8-6.7c2-1.4,3.8-2.9,5.2-4.9
		c1.5-2.1,3.3-3.8,5.9-4.7c1-0.3,2-1,2.7-1.8c1.5-1.9,3.4-3.4,5.4-4.8c1-0.7,2.1-1.5,2.9-2.5c1.2-1.4,2.5-2.4,4.2-3
		c1.2-0.5,2.3-1.2,3.2-2.1c2.7-2.7,5.8-4.9,8-8.1c2.2-3.2,5.2-5.9,9.2-7.3c2.6-0.9,4.9-3,7-4.9c3.3-3,6.5-5.9,10.4-8.2
		c3.5-2.1,6.3-5.4,9.2-8.3c4.7-4.8,9.5-9.4,14.6-13.8c1-0.8,2.1-1.6,2.8-2.6c3.7-5.2,9-8.6,14.2-12c2.8-1.8,5.4-3.8,7.5-6.6
		c1.5-2,3.7-3.5,5.7-5c1.5-1.2,2.9-2.4,3.8-4.2c1-2.1,2.8-3.5,4.7-4.7c3.4-1.9,5.8-4.9,8.7-7.4c2-1.8,4-3.7,6.2-5.2
		c2-1.3,4.1-2.5,5.3-4.7c0.4-0.7,1-1.2,1.7-1.7c5.1-3.6,9.5-8,14-12.4c2-2,4.3-3.8,6.5-5.7c1.2-1.1,2.5-2,3.6-3.2
		c2.1-2.2,4.1-4.4,6.7-6.1c2.2-1.5,3.8-3.8,5.7-5.7c0.6-0.6,0.9-1.3,1.6-1.8c6.6-4.8,11.7-11.3,18.2-16.2c2.4-1.8,4.4-4.2,6.6-6.3
		c3-2.9,5.9-5.8,9-8.7c4.7-4.3,9.5-8.6,14.2-12.9c0.8-0.8,1.5-1.6,2.3-2.4c3.3-3.3,6.1-7,10-9.7c1.2-0.8,2-2.1,3-3.1
		c3.4-3.6,6.7-7.3,10.2-10.8c7-7,14.2-13.9,21.2-20.8c0.8-0.8,1.6-1.6,2.3-2.4c5.8-7.3,12.6-13.6,19.2-20.1c5-5,9.9-10.1,14.6-15.2
		c7.1-7.8,14.5-15.3,21.7-23.1c10-10.8,19.6-21.9,29.4-32.9c6.9-7.8,13.7-15.6,20.5-23.5c3.8-4.3,7.5-8.7,11.2-13.2
		c1.5-1.8,2.6-4,4.1-5.9c1.1-1.5,2.4-2.9,3.6-4.3c-0.4-1.1-1.3-1-2-0.9c-2.5,0.5-5,1.2-7.5,1.8c-1.1,0.3-2.1,0.9-3.2,1
		c-7.8,0.8-15,4.4-22.7,5.7c-2.6,0.4-5.1,1.8-7.6,2.9c-0.3,0.1-0.7,0.9-0.6,1.1c0.3,0.5,0.9,1.1,1.3,1.1c1.2,0,2.5-0.3,3.7-0.5
		c1,0.9,0.4,1.5-0.3,1.8c-3.2,1.3-6.5,2.6-9.7,3.8c-3.1,1.2-6.2,2.5-9.4,3.5c-3.2,1-6.5,1.9-9.8,2.3c-5.8,0.7-11.2,2.6-16.6,4.6
		c-2.8,1-5.6,2.5-8.4,3.4c-2.7,0.9-5.6,1.4-8.3,2.2c-1.2,0.3-2.5,0.6-3.6,1.1c-2,1-4,1.9-6.4,2c-0.9,0-1.9,0.4-2.7,0.9
		c-5.7,3.7-12.3,5.4-18.6,7.3c-4.8,1.4-9.4,2.8-14,4.9c-1.7,0.8-3.7,0.9-5.5,1.6c-4,1.5-8,3.3-12,4.9c-5.2,2.1-10.3,4.2-15.5,6.2
		c-2.5,1-5.1,1.8-7.7,2.7c-0.3,0.1-0.7,0.2-0.9,0.4c-2.8,2.6-6.6,3.2-9.9,4.6c-2,0.9-4.2,1.5-6.4,2c-3.3,0.6-5.5,2.4-6.8,5.4
		c-1.1-0.1-2.2-0.3-3.2-0.2c-0.6,0-1.3,0.3-0.8,1.3c1.3-0.3,2.6-0.7,4-1c2.2-0.5,4.3-1.1,6.5-1.3c2.3-0.3,4.3-1.1,6.2-2.3
		c0.6-0.4,1.5-0.4,2.3-0.5c0.2,0,0.4,0.4,0.6,0.6c0.1,0.1,0.1,0.4,0,0.4c-0.9,0.6-1.7,1.5-2.7,1.8c-6.5,1.7-12.4,5.1-18.5,7.8
		c-0.4,0.2-0.8,0.5-1.7,1c1.1,0.6,1.6,1.1,2,1c3-0.2,6-0.4,9-0.7c0.3,0.8-0.4,0.8-1,1c-0.6,0.2-1.4,0.2-1.8,0.6
		c-2.1,2.1-5,2.8-7.6,4c-3.7,1.8-7.6,3.4-11.1,5.7c-1.8,1.2-4.1,1.8-6.2,2.5c-1.4,0.4-2.8,0.7-3.9,2c0.4,0.7,0.8,1.5,1.3,2.3
		c-2.1,2.1-4.5,3-7.6,3.1c-0.1-1.1-0.1-2-0.1-2.8c-1.3-0.8-4.3,0.5-7.2,3.3c0.8,0.1,1.4,0.2,2,0.2c0.6,0,1.2-0.1,2.1-0.2
		c-1.1,1.8-2.4,2.7-3.7,3.6c-1.3,0.8-2.8,1.4-4.1,3.2c3.5-0.1,6.1-1.3,8.8-2.2c2.6-0.8,5-2.8,8-2.4c0.3,1.6-0.6,1.9-1.5,2.3
		c-3.8,1.6-7.7,3.3-11.5,4.9c-4.7,2-9.5,3.9-14.2,5.9c-1.5,0.6-3,1.2-4.3,2.1c-5.7,3.7-12.1,5.8-18.1,8.7c-2,1-4,2-5.9,3.2
		c-2.8,1.8-5.9,2.6-9,2.9c-3,0.4-3.7-0.3-4.3-3.5c-0.1-0.3-0.2-0.6-0.4-1.1c-0.4-0.2-0.9-0.6-1.5-0.8c-1.7-0.5-2.7-1.7-3.1-3.3
		c-0.7-3-2.7-4.9-4.8-6.9c-2.9-2.7-5.5-5.8-7.9-9c-1.3-1.7-2.2-3.9-2.8-6c-1.1-4-3.6-7.1-6.2-10.1c-0.8-0.9-2-1.6-3.1-2.2
		c-1.5-0.9-2.4-2.1-2.1-3.9c0.8-4.8-1.2-8.3-4.9-11.1c-0.7-0.5-1.5-1.4-1.7-2.2c-0.8-4-3.7-6.9-5.1-10.6c-0.5-1.3-1.7-1.8-2.9-2.2
		c-3.5-1.3-4.1-2.5-3.5-6.2c0.2-1.2,0.3-2.5,0.2-3.7c-0.2-2.1-0.9-4-3.3-4.9c-0.4-0.1-0.6-0.7-1-1.1c0.4-2.2,1.5-4.2,3.7-4.5
		c3.6-0.5,6.1-2.6,8.9-4.3c1.4-0.9,2.7-1.5,4.3-2c3.5-1,6.9-2.4,10.2-4c6-2.9,11.9-6.2,18.5-7.7c1.7-0.4,3.3-1.2,4.8-2.2
		c2.2-1.4,4.5-2.3,7.1-2.7c1.4-0.2,2.8-0.7,4.1-1.3c2.5-1.1,4.9-2.3,7.4-3.4c4.2-1.9,8.3-4,12.8-5.3c3.2-1,6.5-1.7,9.3-3.8
		c0.1-0.1,0.3-0.2,0.4-0.2c7.1-1.2,12.8-5.8,19.6-7.5c6.4-3.4,13.4-5.1,20.2-7.5c8.6-3,17.1-6.2,25.6-9.3c1.6-0.6,3.3-1.1,5-1.5
		c3.1-0.8,6.1-1.7,8.7-3.7c1.5-1.1,3.6-1.3,5.4-2c2.1-0.8,4.2-1.6,6.2-2.4c3-1.1,5.9-2.4,9-3.4c6.5-2.2,13-4.3,19.6-6.5
		c0.9-0.3,1.8-0.8,2.7-0.8c3.9-0.2,7.4-1.9,11-3.1c3.5-1.2,7-2.2,10.5-3.4c7.7-2.6,15.4-5.2,23.2-7.8c0.8-0.3,1.5-0.4,2.3-0.7
		c2.9-0.9,5.8-1.8,8.7-2.7c0.3-0.1,0.6-0.3,0.9-0.4c5-0.5,9.4-3,14.2-4.2c4.8-1.2,9.6-2.3,14.2-4.2c4.4-1.8,9.2-2.8,13.8-4.1
		c6.3-1.8,12.6-3.7,18.9-5.2c5.6-1.3,10.9-3.5,16.7-4.1c0.5,0,0.9-0.2,1.4-0.4c5.3-1.9,10.9-2.6,16.2-4.1c4.2-1.1,8.3-2.4,12.4-3.6
		c1.1-0.3,2.1-0.7,3.2-0.9c5.3-1.2,10.6-2.3,15.9-3.5c7.2-1.5,14.4-3.1,21.5-4.6c3.2-0.7,6.1-1.7,8.5-4.1c1.2-1.2,2.8-2.2,4.1-3.4
		c1.6-1.5,3.5-2,5.7-2.2c2.4-0.2,4.5,0.1,6.1,2c1.6,2.1,3.7,2.2,6,1.7c6.4-1.1,12.9-2.2,19.4-3.2c3-0.5,6-1,9.1-0.5
		c3.8,0.5,4.5,1.2,5.1,5c0.2,1.2,0.6,2.5,1.1,3.6c1.2,3,2.1,5.9,2.4,9.2c0.4,3.9,1.7,7.8,2.6,11.7c1.2,5.3,2.4,10.6,3.4,15.9
		c0.5,2.5,0.6,5.1,0.5,7.6c-0.1,2.1,0.1,4.1,1,6.1c0.7,1.5,1.1,3,0.5,4.6c-0.7,1.7-0.2,3.1,0.7,4.5c1.2,2,1.6,4.1,1.5,6.4
		c-0.1,1.4,0.3,2.9,0.3,4.3c0.1,2.1-1,3.3-3.1,3.5c-1.2,0.1-2.6-0.9-3.7,0.2c-1.3,1.4-0.4,3.1-0.3,4.6c0,1.1,0.4,2.2,0.9,3.2
		c1.2,2.5,1,5,0.2,7.5c-0.2,0.8-0.5,1.5-0.8,2.3c-1.4,4.4-2.6,8.9-4.1,13.3c-1.1,3.5-2.2,6.9-4,10.2c-1.7,3.2-2.7,6.8-4,10.3
		c-2.3,6.6-4.6,13.3-6.9,19.9c-1.4,3.9-2.6,7.9-4.2,11.7c-1.8,4.3-3.8,8.4-6,12.5c-0.8,1.6-1.7,3-2,4.8c-0.1,0.8-0.3,1.6-0.6,2.3
		c-2.6,5.8-4.2,12.1-7.5,17.6c-0.9,1.5-1.5,3.2-2.3,4.8c-0.6,1.3-1.1,2.7-1.9,3.9c-2.4,3.4-4,7.2-5.8,10.8c-1.5,2.9-2.3,5.9-3.7,8.7
		c-2.7,5.4-5.8,10.6-8.9,16.1c-1-0.6-1.8-1-2.8-1.6c-1.3,2.3-2.5,4.7-3.9,7.2c0.9,0.3,1.6,0.5,2.6,0.8c-0.3,1-0.4,2.1-0.8,3.1
		c-0.5,1.4-1.4,2.5-3.2,2.4c-1.9-0.2-3.1,1-3.7,2.5c-1.8,4.2-4.7,7.6-7.4,11.1c-1.5,2.1-1.6,2-4.7,2.6c-0.7,0.8,0,1.4,0.2,2.2
		c0.2,0.7,0.4,1.6,0.1,2.3c-1.3,3.3-2.4,6.5-4.4,9.5c-3.6,5.2-6.8,10.8-10.1,16.3c-0.8,1.4-1.7,2.7-2.5,4.1
		c-0.7,1.2-1.7,2.4-2.1,3.7c-1.4,3.8-3.7,7-6.1,10.3c-2.2,3-4,6.1-5.7,9.4c-2.7,5.1-5.5,10-9.4,14.4c-0.6,0.7-1.1,1.6-1.5,2.4
		c-1.5,3.6-3.5,6.8-5.6,10c-2,2.9-3.5,6.1-5.3,9.1c-2.1,3.7-4.9,7.1-6.3,11.3c-0.3,0.9-1.1,1.6-1.6,2.4c-2.6,3.8-5.3,7.6-7.9,11.4
		c-0.5,0.8-1,1.7-1.7,2.3c-1.4,1.4-2.2,3.1-2.8,4.9c-0.3,1.1-0.9,2.1-1.5,3c-2.4,4.1-2.7,4.4-6.7,6.8c-0.1,0.8,0,1.8-0.2,2.7
		c-0.2,1.1-0.5,2.2-1.1,3.1c-0.6,1-1.6,1.6-2.8,1c-0.4-0.2-0.9-0.3-1.4-0.3c-1.1,0.1-2.1,1.7-1.3,2.4c2.2,1.9,1.2,3.7,0.1,5.5
		c-0.6,1.1-1.4,2-2.6,3.6c-0.2-1.6-0.3-2.4-0.4-3.7c-0.6,0.3-1.2,0.3-1.6,0.7c-2.8,2.9-4.9,6.3-6.5,10c-0.3,0.7-0.8,1.7-0.6,2.2
		c1.7,3.4-0.6,5.9-2,8.4c-3.4,6-7.1,11.8-10.7,17.6c-3.1,5-6.4,10-9.5,15c-1.6,2.6-3.1,5.2-4.7,7.8c-0.7,1.1-1.3,2.2-2,3.3
		c-3.2,4.9-6.5,9.9-9.7,14.8c-0.3,0.5-0.3,1.1-0.6,2.2c2.8-1,2.8-3.5,4.1-5c1.5-1.6,3-3.3,4.4-5.1c1.2-1.5,1.8-3.7,3.9-4.4
		c0.8,1.5-0.1,2.4-0.6,3.2c-3.1,4.9-6.1,9.7-9.3,14.5c-5.7,8.5-11.4,17-17.3,25.4c-4.2,5.8-8.8,11.4-13.3,17
		c-1.4,1.7-2.8,3.5-4.9,4.4c-1.2-0.6-2.3-1.2-3.4-1.8c-0.4-0.2-1.1-0.5-1.1-0.8c-0.4-3.5-4.2-3.9-5.8-6.5c-1.1-1.8-3-3.2-4.9-5.2
		c-2.6,0.2-4.9-1.4-6.8-3.8c-0.6-0.7-1.4-1.3-2.2-1.7c-0.9-0.5-1.5-1.2-1.6-2.2c0-1.6-0.9-2.7-2.3-3.4c-1.4-0.7-2.2-1.8-2.8-3.1
		c-0.3-0.7-0.9-1.4-1.5-1.9c-2.9-2.4-2.9-2.4-3.8-5.2c-1.1,0.6-2.2,1.2-3.4,1.7c-1.5,0.7-3.4-0.5-3.5-2.2c0-0.2-0.1-0.3,0-0.5
		c1.5-4.2-1.4-5.7-4.4-7.2c-0.6-0.3-1.2-0.5-1.9-0.8c-0.3-1.2-0.6-2.4-1-3.7c-0.3-0.3-0.6-0.6-1-0.9c-2.7-1.7-5.4-3.3-7.3-6.1
		c-0.9-1.4-2.6-2.3-4.1-3.2c-1.2-0.7-2.1-1.5-2.5-2.8c-1-4-3.3-7.2-5.9-10.3c-0.3-0.3-0.4-0.9-0.6-1.5c0.6-1.8,1.8-3.3,2.9-4.8
		c0.6-0.8,1.3-1.5,1.7-2.3c1.5-2.6,2.7-5.5,4.6-7.8c2-2.3,4-4.5,5-7.5c0.2-0.4,0.4-0.9,0.8-1.2c3.8-3.4,5.5-8.1,7.9-12.4
		c0.5-1,1.3-1.8,1.9-2.8c1.2-1.9,2.5-3.7,3.7-5.6c0.6-0.9,1-2,1.8-2.8c2.3-2.3,3.9-5.1,5.3-8c0.4-0.7,0.7-1.5,1.3-2
		c3.4-2.8,4.9-7.1,7.5-10.5c2.4-3.2,4.7-6.5,7.1-9.6c0.8-1,1.8-1.8,2.9-2.5c2.1-1.4,3.5-3.4,3.7-5.9c0.2-1.7,1.2-2.7,2.1-4.1
		c2-3,4.3-5.9,5.6-9.8c-0.8,0.2-1.2,0.3-1.6,0.5c-0.1,0-0.2,0.2-0.3,0.4c-0.4,0.5-0.8,1.3-1.3,1.4c-3.6,0.8-5.4,4.5-8.8,5.5
		c-0.2,0.1-0.6-0.2-1.1-0.4c0.5-1.3,1-2.6,1.5-3.8c4.1-1.5,7.1-4.2,9-8.3c-4.5,1.6-6.4,3.4-8.9,8.4c-5.2,2.2-5.3,2.3-8.5,7.2
		c0.8,1.4,2.1-0.3,3.3,0.6c-0.1,0.4,0,1.1-0.3,1.5c-1.1,1.6-2.5,2.9-4.7,3.3c-0.8-0.6-1.6-1.3-2.6-2.1c-0.8,0.6-1.8,1-2.3,1.7
		c-3.7,5-9,8.1-13.7,12c-3,2.4-6,4.8-8.9,7.2c-0.7,0.6-1.2,1.5-1.7,2.3c-2.1,3.1-4.4,5.9-8.2,6.9c-1.7,0.5-3.2,1.4-4.3,2.9
		c-0.3,0.5-0.9,0.9-1.5,1.2c-0.3,0.2-1,0.1-1.3-0.2c-0.2-0.2-0.4-1-0.2-1.2c1.8-1.8,3.7-3.5,5.6-5.1c0.3-0.3,1-0.3,1.2-0.7
		c1.2-1.5,2.3-3,3.4-4.6c1.1-1.6,3.6-1.5,4.4-3.5c0.1-0.1,0-0.3-0.1-0.5c-0.8-0.7-1.5-0.2-2.1,0.3c-2.5,2-5.1,3.9-7.4,6
		c-6.4,5.8-12.7,11.6-19.2,17.4c-2.1,1.9-4.6,3.5-6.8,5.3c-3.5,3-7.2,5.9-10.4,9.2c-2.1,2.1-4.2,3.9-6.8,5.2c-1.7,0.9-3.2,2-4.5,3.4
		c-1.1,1.2-2.4,2.1-3.5,3.2c-1.9,1.9-4,3.7-5.7,5.8c-2.3,2.7-4.7,5.2-7.6,7.2c-2.6,1.8-4.8,4.2-7.2,6.3c-3.1,2.7-6.3,5.4-9.4,8.1
		c-1.9,1.7-4,3.1-4.8,6.1c1.3,0.6,2.6,1.2,3.7,1.7c0.3,1.7-0.6,2.4-1.7,2.6c-2.1,0.4-3.5,1.4-4.4,3.3c-0.3,0.7-1,1.3-1.7,1.6
		c-2.5,1-4,3.1-5.7,5c-1.5,1.7-3.2,3.2-5.4,3.8c-2.3,0.7-3.8,2.3-5.3,4c-2.4,2.6-4.8,5.1-7.4,7.5c-1.5,1.4-3.3,2.5-5,3.7
		c-1.9,1.3-3.7,2.6-4.2,5l0.2-0.2c-3.4,1.5-6.6,3.1-9.2,5.9c-0.5,0.6-1.3,1.1-2,1.3c-2.9,0.8-4.9,2.8-7,4.9c-2.2,2.1-4.6,4-7.2,5.5
		c-3,1.8-5.4,4.1-7.4,6.7c-1.3,1.7-2.9,2.8-4.8,3.8c-5.2,2.7-9.3,6.7-13.5,10.7c-0.2,0.2-0.2,0.6-0.3,1c0.8,0.5,1.5,0.9,2.4,1.4
		c-0.3,2.2-1.8,3-3.5,3.6c-1.3,0.4-2.5,0-3.5-1c-0.7-0.8-1.7-1-2.6-0.5c-1.3,0.6-2.1,1.7-1.7,3.1c0.9,3.2-0.7,5.1-3,6.9
		c-2.5,1.9-4.8,4.2-7.2,6.3c-0.8,0.7-1.7,1.5-2.7,2c-2.2,1-4,2.6-5.8,4.2c-2.5,2.2-5.2,4.2-7.9,6.2c-4.2,3.2-8.4,6.3-12.8,9.3
		c-4.2,2.9-7.9,6.4-12.6,8.5c-1.6,0.7-2.9,1.9-4.4,2.9c-0.9,0.6-1.8,1.4-2.8,1.8c-1.9,0.7-3.4,1.6-4.6,3.2c-1.6,2.1-4,2.9-6.4,3.7
		c-0.9-1.1-0.3-1.7,0.2-2.3c1-1.2,2.7-1.8,2.8-4c-0.6,0-1.4-0.2-1.7,0c-1.8,1.3-3.6,2.6-5.2,4.2c-1.5,1.5-2.9,2.8-5.2,3.1
		c-1.6,0.2-2.9,1.2-3.4,3.1c2.4,1.2,4.2-1.5,6.7-0.7c-0.6,0.8-1,1.4-1.4,2.1c-3.3,4.7-8.1,7.7-12.9,10.5c-3.3,2-6.1,4.6-9.4,6.6
		c-0.1,0.1-0.3,0.2-0.4,0.3c-1.6,2.5-5.4,1.6-6.9,4.1c-1.5,2.5-3.9,3.6-6.3,4.9c-1.6,0.9-3.1,2.3-4.5,3.6c-2,1.9-4,3.5-6.6,4.7
		c-2.6,1.2-4.9,3-7.3,4.5c-1.1,0.7-2.2,1.3-3.2,2c-0.5,0.3-1.1,0.6-1.5,1.1c-4.1,4.6-9.1,7.8-15,9.8c-3,1-5.7,2.8-8.5,4.3
		c-0.4,0.2-0.8,0.7-0.9,1.1c-0.9,2.5-2.9,3.3-5.3,4.3c-3.4,1.4-6.4,3.5-9.5,5.5c-1.7,1.1-3.2,2.7-4.8,3.9c-1.1,0.8-2.3,1.7-3.6,2.2
		c-2.9,1.3-6,2.2-8.2,4.8c-0.6,0.7-1.6,0.9-2.5,1.3c-2.8,1.4-5.8,2.7-8.5,4.4c-3.9,2.5-8.2,4.5-11.5,7.8c-0.4,0.4-1.1,0.7-1.6,1
		c-4.5,2.7-9.7,4.2-14,7.3c-4.1,0.9-7.5,3.1-10.9,5.6c-4.5,3.3-9.5,5.9-14.3,8.7c-1.1,0.6-2.3,1.2-3.4,1.7
		c-4.1,1.7-8.1,3.8-11.6,6.6c-3.8,3-8.5,4.5-12.8,6.5c-1,0.5-2.2,0.7-3,1.4c-3.3,2.6-7.3,3.9-11.1,5.6c-0.9,0.4-1.7,0.8-2.5,1.3
		c-0.7,0.4-1.3,1.1-2,1.2c-3.5,0.4-6,2.8-8.9,4.4c-1.2,0.7-2.5,1.5-3.8,1.9c-2.5,0.7-4.6,2.1-7,3.1c-3.7,1.5-7.2,3.4-10.7,5.1
		c-4.6,2.2-9.3,4.2-14.4,5.2c-1.2,0.2-2.5,0.6-3.7,0.9c-0.5,0.1-1.1,0-1.4,0.2c-2.7,2-6.1,2.6-9,4c-2.9,1.4-5.7,2.8-8.8,3.7
		c-2,0.6-3.9,1.5-5.8,2.3c-2.4,0.9-4.7,1.9-7.1,2.8c-1.5,0.6-2.9,1.3-3.8,2.7c-0.4,0.6-1.1,1-1.9,1.7c-0.9-0.5-1.7-1.1-2.6-1.4
		c-0.7-0.2-1.8-0.5-2.3-0.2c-2.7,2-6,2.2-8.8,3.6c-0.4,0.2-0.9,0.4-1.2,0.7c-0.2,0.3-0.3,0.8-0.2,1.2c0,0.2,0.5,0.4,0.7,0.5
		c1.2,0.3,2.1-0.4,3.1-1c2.8-1.6,5.5-1.3,8.1,0.4c0.3,0.2,0.8,0.8,0.7,1.1c-0.2,0.5-0.6,1.2-1.1,1.3c-1.1,0.2-2.2,0.1-3.3,0.3
		c-2.3,0.4-4.9,0.5-6.9,1.6c-3,1.7-6.2,2.6-9.4,3.6c-4.1,1.2-8.3,2.4-12.4,3.5c-1.8,0.5-3.7,0.7-5.6,0.6c-1.7,0-3.4,1.5-5.2,1.9
		c-2,0.4-4,1-6.1,1.2c-3.3,0.4-5.7,1.6-7.6,4.4c-0.6,0.9-2.1,1.4-3.3,1.8c-4.4,1.5-8.8,3-13.2,4.2c-2.9,0.8-6,1-9,1.4
		c-2.4,0.3-4.8,0.4-7.1,0.9c-9.6,1.8-19.4,1.8-29.1,2.5c-4.9,0.3-9.9-0.1-14.9-0.2c-5.4-0.2-10.9-0.3-16.3-0.6
		c-3.7-0.2-7.3-0.6-11-1c-0.8-0.1-1.6-0.4-2.3-0.7c-1.6-0.8-3.3-0.9-5.1-0.8c-1.4,0.1-3.1,0.2-4.2-0.5c-3.7-2.2-7.9-2.5-11.7-4.1
		c-2.5-1-5-2-7.5-3.1c-2.5-1.1-4.9-2.4-7.5-3.3c-7.3-2.5-13.9-6.4-20.3-10.7c-2.2-1.5-4.1-3.5-6.2-5.3c-2-1.8-3.9-3.8-6-5.4
		c-6.7-5.1-13.6-10.1-20.4-15.2c-4-3-4.5-2.9-8,0.7c-6.1,6.3-12.3,12.5-18.3,19c-5.1,5.6-10.5,10.7-15.9,15.9
		c-6.6,6.3-13.2,12.5-19.6,19c-6.4,6.5-13.2,12.5-19.8,18.8c-4.4,4.2-9.3,7.8-13.6,12c-3.8,3.6-7.7,7.1-11.6,10.7
		c-0.5,0.4-0.8,0.9-1.4,1.6c0.6,0.9,1.2,1.8,2,2.9c-0.5,0.8-0.8,1.7-1.4,2.3c-1.4,1.5-2.9,3-4.5,4.4c-6.9,5.9-13.9,11.7-20.9,17.6
		c-0.9,0.7-1.7,1.4-2.5,2.3c-1.9,2.2-3.9,4.2-6.5,5.6c-0.4,0.2-0.5,0.7-0.8,1c0.5,0.9,1.1,0.7,1.7,0.4c4.1-2.4,8.4-4.6,12.3-7.3
		c2.6-1.8,5.2-3.7,6.9-6.5c0.8-1.3,1.9-2.3,3.5-2.1c0.5,0.1,1.2,0.5,1.5,0.9c0.2,0.2,0.1,1-0.2,1.3c-0.5,0.6-1,1.2-1.7,1.7
		c-2.6,2.1-5.3,4.1-7.9,6.2c-0.7,0.6-1.4,1.3-2.1,2c-0.8,0.8-1.6,1.6-2.5,2.2c-6.2,4-10.9,9.8-16.8,14.1c-5.8,4.2-11.5,8.6-17.2,13
		c-4.4,3.4-8.6,7.1-13.1,10.5c-3.8,2.9-7.8,5.5-11.7,8.3c-8,5.8-16.1,11.6-24.1,17.4c-4.5,3.3-8.8,6.9-13.3,10.2
		c-6,4.5-12.1,8.9-18.2,13.3c-4.9,3.5-9.9,6.9-14.9,10.4c-0.5,0.4-1.1,0.7-1.5,1.1c-4.1,4.8-9.7,7.7-14.8,11.2
		c-0.8,0.5-1.6,1.1-2.3,1.7c-2.7,2.3-5.6,4.2-8.6,6.1c-2.8,1.7-5.3,4-8,6.1c-4.9,3.8-10,7.3-15.7,10c-1.9,0.9-1.9,0.9-1.5,3.7
		c0.2,1.4-0.5,2.1-1.6,2.6c-3.7,1.6-6.9,3.9-10.1,6.4c-0.5,0.4-0.8,0.9-1.6,1.8c2.8,0.2,4.4-1.2,6-2.3
		C246.1,1115.4,248.5,1115.9,249.8,1114L249.8,1114z M1173.1,636.5c3.3-1.7,3.3-1.7,4.6-3.9c-3.2,0.4-3.3,0.5-4.5,4
		c-2.1,0.6-2.1,0.6-3.4,3C1171.4,638.1,1172.2,637.3,1173.1,636.5z M466.4,918.6c3.7-1.2,5.9-4.2,8.3-6.9c0.2-0.2,0.2-0.6,0.3-0.9
		c3.3-1.4,3.5-1.6,5.4-6c-1.2-0.8-2.4-0.6-3.6,0.3c-0.5,1.9-1.1,3.9-1.6,5.8c-1.6,1-3,2.3-4.7,3c-2.4,0.9-3.2,2.7-3.8,4.8
		c-1.8,0.3-3.3,1.2-4.4,2.6c-0.4,0.5-0.8,1.1,0.1,1.9C464.3,922.4,465.7,920.8,466.4,918.6z M681.3,365.6c2.5,0,4.4-0.3,6.2,0.1
		c2.2,0.4,3,3.3,1.5,4.9c-0.8,0.9-2,1.6-3,2.3c-1.4,1-3,1.9-4.4,2.9c-1,0.7-1.4,1.8-0.7,2.9c1,1.7,0.4,3.1-0.9,4.3
		c-1.5,1.4-3,2.9-4.6,4.1c-2.9,2.1-5.7,4.3-7.6,7.3c-2,3.2-4.9,5.4-7.6,7.8c-5.9,5.1-11.9,10.2-17.7,15.5
		c-7,6.4-13.1,13.6-19.4,20.6c-7.5,8.5-14.2,17.7-20.8,27c-5.8,8.2-10.9,16.9-16.1,25.6c-9.4,15.9-17.7,32.2-24.7,49.3
		c-6.8,16.7-13.3,33.6-17.1,51.3c-2.4,10.8-4.6,21.6-6.1,32.5c-1.7,11.9-3.5,23.7-3.6,35.8c0,4.8-0.4,9.6-0.2,14.4
		c0.2,9.6,0.6,19.2,1.1,28.8c0.3,5.1,0.7,10.2,1.4,15.3c0.6,4.3,1.6,8.5,2.4,12.7c0.2,1,1.6,1.4,2.3,0.7c0.7-0.7,1.3-1.4,1.9-2.1
		c7.1-9,14.2-18.2,21.4-27.1c6.3-7.8,11.6-16.4,19.2-23.2c0.1-0.1,0.2-0.2,0.3-0.4c3-4,6-7.9,8.9-11.9c0.8-1,1.4-2.1,2.2-3.1
		c3.8-4.5,7.4-9.2,10.6-14.2c3.2-5,6.6-9.8,9.8-14.8c4.1-6.3,8.1-12.7,12.1-19c0.5-0.8,1-1.6,1.5-2.5c3.9-6.6,7.8-13.2,11.6-19.9
		c3.9-6.8,7.8-13.6,11.6-20.4c2-3.6,3.9-7.3,5.9-11c1.6-3,3-6,4.5-9c2-4,3.4-8.3,6-12c1.4-2,2.5-4.1,3.6-6.2c0.8-1.5,1.4-3.2,2-4.8
		c0.4-1,0.6-2.2,1-3.2c1-2.5,2.1-5,3-7.5c2.6-7.2,5-14.5,7.6-21.7c3.3-8.8,6.7-17.7,9.2-26.8c1.6-5.8,3.4-11.6,5.1-17.5
		c1.5-5.2,3.3-10.4,4.3-15.7c1.4-7.4,3.1-14.7,4.2-22.1c1.1-7.4,0.7-15,1.8-22.4c0-0.3,0-0.6,0-1c-0.7-8.1-0.8-16.3-2.8-24.2
		c-1.1-4.2-2.4-8.3-3.7-12.4c-0.5-1.6-1.4-2.9-3.4-3c-1.9,1-3.1,3.4-5.5,3.6c-2.8,0.2-3,3.1-4.7,4.4c-0.8,0.5-1.7,0.8-2.6,1.3
		C686.3,363,684.1,364.2,681.3,365.6z M486.4,899.9c0.1,0.2,0.3,0.3,0.4,0.5c1.8-1.3,3.5-2.7,5.4-3.9c2.3-1.5,4.2-3.3,5.9-5.5
		c1.7-2.1,3.7-4,5.7-5.8c2.7-2.5,5.6-4.8,8.2-7.3c1.5-1.4,2.8-3.1,4.1-4.7c0.4-0.5,0.7-1.1-0.2-1.8c-0.5,0.2-1.1,0.3-1.6,0.7
		c-3.3,2.5-5.6,6.2-9.4,8.1c-0.1,0.1-0.2,0.2-0.3,0.4c-3.8,4.3-7.2,9-12.2,12c-0.7,0.4-1.2,1-1.7,1.6
		C489.2,896.1,487.8,898,486.4,899.9z M1256,573.5c-0.2-0.2-0.4-0.5-0.6-0.7c-1.8,1.3-3.5,2.6-5.3,4c-6.2,4.7-12.4,9.4-18.6,14.2
		c-0.6,0.5-1.2,1.1-1.8,1.5c-4.9,3.2-9.5,7-14,10.8c-0.4,0.4-1.1,0.8-0.3,1.5c0.3-0.1,0.7,0,0.9-0.2c5.4-3.9,10.8-7.9,16.2-11.8
		c0.6-0.5,1.1-1.2,1.7-1.7c3.9-3,7.7-6.1,11.8-8.9c1.8-1.3,3.6-2.5,5.2-4.1C1252.7,576.4,1254.4,575,1256,573.5z M328.7,1042.3
		c2.6,0.3,4.2-1.2,6-2.5c1.5-1.2,3-2.3,4.5-3.4c1.9-1.4,4-2.6,5.9-4c2-1.5,4-3.1,6-4.7c0.6-0.5,1.3-0.9,0.9-1.9
		c-0.1-0.1-0.3-0.2-0.4-0.2c-0.3,0-0.7,0-0.9,0.2c-6.7,4.9-13.3,9.8-19.9,14.7C330,1041,329.4,1041.7,328.7,1042.3z M1333.8,498.7
		c0.8-0.3,1.3-0.4,1.6-0.7c4.4-3.9,8.9-7.7,13.2-11.7c2.1-1.9,3.6-4.4,6-6c0.5-0.3,0.8-1-0.2-1.6c-7.1,6-14,12.2-20.8,18.7
		C1333.6,497.5,1333.7,497.9,1333.8,498.7z M545,843.4c-0.5-0.2-0.8-0.4-1.1-0.3c-4.1,1-6,4.3-8,7.5c-0.2,0.3,0.1,1,0.4,1.2
		c0.3,0.2,1,0.3,1.3,0.1c2.8-2.2,5.8-4.4,7.5-7.8C545.2,844,545.1,843.9,545,843.4z M1435.5,182.4c-3.6-1.8-6.2-0.2-8.8,0.4
		c-1.4,0.3-3.1,0.8-3.4,3.2C1427.5,185.8,1431.5,185.7,1435.5,182.4z M528.8,859c-0.6,0.2-1.1,0.1-1.4,0.4c-2.9,2.9-5.8,5.9-8.7,8.8
		c-0.1,0.1,0,0.5,0.1,0.9c3.8-0.5,5.2-3.9,7.7-6C527.7,862.1,528.7,860.9,528.8,859z M1197.5,627.3c1.9-1,3.8-1.9,4.7-3.8
		c0.1-0.2-0.3-1-0.5-1.1c-2-0.6-4.9,1.6-5.1,3.8C1196.6,626.5,1197.1,626.8,1197.5,627.3z M1192,630.8c-2.8-0.2-4.6,1.3-6.3,2.8
		c-0.3,0.2-0.2,0.8-0.3,1.2c0.6,0.1,1.4,0.4,1.7,0.2C1188.8,633.7,1190.3,632.2,1192,630.8z M1506.5,157.8c-2.2-1.1-4-0.5-5.7,0.3
		c-0.6,0.3-1,1-1.5,1.5C1501.9,159.8,1504.3,159.9,1506.5,157.8z M1303.5,523.9c-2.5,0.3-3.6,1.5-4.5,2.8c-0.4,0.5-0.7,1.1,0.2,1.8
		C1301,527.6,1302.6,526.5,1303.5,523.9z M1362.6,471.6c-1.1,0.8-2.2,1.6-3.2,2.5c-0.5,0.4-0.7,1,0.1,1.7
		C1361.1,475.2,1362.4,474,1362.6,471.6z M1465.8,388.6c1.3-1.1,3.2-1.7,3.5-4.1C1467.6,385.8,1466.1,386.7,1465.8,388.6z
		 M1428,423.9c3.3-1.7,3.3-1.7,4.1-3.8C1430.1,420.7,1428.9,422.1,1428,423.9z M1461.4,172.2c-1.8,0.3-3.8,0.1-5,2.8
		C1458.9,174.7,1460.7,174.7,1461.4,172.2z M1465.5,171c2.5,0.8,3.8,0.1,5.1-1.5C1468.7,168.8,1467.4,169.4,1465.5,171z
		 M1166.3,648.6c2.7-1.1,2.7-1.1,3.2-3c-0.8,0.7-1.4,1.1-2,1.7C1167.1,647.6,1166.7,648.1,1166.3,648.6z M1339.6,480.3
		c-0.2-0.2-0.4-0.4-0.6-0.6c-0.6,0.2-1.2,0.3-1.7,0.6c-0.9,0.5-1.3,1.6-0.7,1.8c0.5,0.2,1.2,0.1,1.6-0.2
		C1338.7,481.6,1339.1,480.9,1339.6,480.3z M1469,573.3c-0.3-0.2-0.5-0.4-0.8-0.7c-0.5,0.5-1,1-1.5,1.6c-0.3,0.4-0.4,1-0.9,2
		c1-0.4,1.5-0.5,1.7-0.7C1468.1,574.9,1468.5,574.1,1469,573.3z M700,351.4c0.5-0.7,1.1-1.1,1.1-1.6c0-0.4-0.5-1.1-1-1.3
		c-0.7-0.3-1.7,0.6-1.5,1.3C698.8,350.3,699.3,350.7,700,351.4z M1143.2,665.3c1.9-0.2,1.9-0.2,3.1-2.4
		C1144.6,663.1,1143.7,663.8,1143.2,665.3z M1319.7,510c1.3,0.8,2,0.2,2.6-0.6c0.2-0.3,0-0.8,0-1.2c-0.4,0-1-0.1-1.2,0.2
		C1320.5,508.8,1320.1,509.4,1319.7,510z M1418.3,433.8c-2.2,0.6-2.2,0.6-3.5,2.9C1416.2,435.5,1417,434.8,1418.3,433.8z
		 M1312.3,516c3.5-0.9,3.5-0.9,2.8-1.8C1314.2,514.7,1313.2,515.4,1312.3,516z M1440.1,412.3c2.2-0.4,2.2-0.4,2.3-2.2
		C1441.5,410.9,1440.8,411.6,1440.1,412.3z M1668.8,246.4c-0.2-0.4-0.3-0.6-0.4-0.9c-0.3,0.2-0.8,0.3-1,0.6c-0.1,0.2,0.3,0.7,0.4,1
		C1668.2,246.9,1668.5,246.6,1668.8,246.4z M1198.8,617c1.6-0.6,2.2-0.8,2.6-1.1c0.2-0.1,0.2-0.5,0.3-0.8c-0.4-0.1-0.9-0.3-1.1-0.1
		C1200.1,615.2,1199.9,615.7,1198.8,617z M1328.8,503c-0.3-0.3-0.4-0.5-0.4-0.5c-0.5,0.3-1,0.6-1.5,0.9c0.2,0.2,0.4,0.6,0.5,0.5
		C1327.8,503.6,1328.3,503.3,1328.8,503z M1291,533c0.8,0.5,1.2,0.8,1.2,0.7c0.3-0.3,0.6-0.6,0.8-1c-0.2-0.1-0.5-0.4-0.7-0.4
		C1291.9,532.5,1291.5,532.8,1291,533z M1286.6,550.2c-0.1-0.2-0.3-0.6-0.4-0.5c-0.2,0-0.4,0.3-0.6,0.4c0.1,0.2,0.3,0.5,0.4,0.5
		C1286.2,550.6,1286.4,550.4,1286.6,550.2z M765.7,491.5c0.4-0.5,0.8-0.9,1.1-1.5c0.1-0.1-0.5-0.5-0.8-0.8c-0.3,0.5-0.7,0.9-0.9,1.4
		C765,490.8,765.4,491.1,765.7,491.5z M1217.2,592.9c-0.2-0.1-0.5-0.4-0.7-0.3c-0.2,0.1-0.4,0.4-0.5,0.6c0.2,0.1,0.5,0.4,0.7,0.4
		C1216.8,593.5,1217,593.2,1217.2,592.9z M1374.4,462.4c0.5-0.5,0.9-0.8,1.2-1.3c0.1-0.1-0.2-0.5-0.3-0.7c-0.4,0.3-0.9,0.6-1.3,1
		C1374,461.5,1374.2,461.9,1374.4,462.4z M1297.3,540.7c-0.1-0.1-0.2-0.2-0.2-0.3c-0.2,0.2-0.5,0.3-0.7,0.5c0.1,0.2,0.3,0.4,0.4,0.5
		C1297,541.1,1297.1,540.9,1297.3,540.7z M552,835.9c0-0.1,0.1-0.3,0-0.4c-0.1-0.1-0.3-0.1-0.4-0.1c0,0.2,0,0.4,0,0.7
		C551.8,836.1,551.9,836,552,835.9z M1403.4,446.7c-0.2,0.1-0.4,0.2-0.6,0.4c0,0,0.1,0.2,0.2,0.3c0.2-0.1,0.4-0.3,0.6-0.4
		C1403.5,446.9,1403.5,446.8,1403.4,446.7z M1518.3,465.9c-0.1,0.2-0.3,0.4-0.4,0.6c0.2,0.1,0.4,0.2,0.6,0.3c0.1,0,0.3-0.3,0.2-0.3
		C1518.6,466.2,1518.4,466,1518.3,465.9z M1483,552.8c0-0.1,0-0.3,0-0.4c-0.2,0.1-0.4,0.2-0.6,0.3c0.1,0.1,0.1,0.3,0.2,0.3
		C1482.7,553,1482.9,552.9,1483,552.8z M1416.5,188c-0.2-0.1-0.6-0.3-0.7-0.2c-0.2,0.1-0.3,0.4-0.5,0.7c0.3,0.1,0.6,0.3,0.8,0.2
		C1416.3,188.7,1416.4,188.3,1416.5,188z M1158.4,654.2l0.2,0.2l0-0.3L1158.4,654.2z M1411.7,189.4c0,0.1,0,0.3,0.1,0.3
		c0.1,0.1,0.3,0.1,0.4,0.1c0-0.2-0.1-0.3-0.1-0.5C1412,189.3,1411.9,189.4,1411.7,189.4z"/>
	<path class="st0" d="M900.8,827.1c-0.1,1.8-1.5,2.3-2.8,2.9c-5.8,2.7-11.5,5.5-17.4,8.1c-7.2,3.1-14.5,6-21.7,9
		c-1.9,0.8-3.8,1.6-6,1c-0.5-1.1,0.5-1.4,1-1.8c3.5-2.6,7.7-3.8,11.7-5.4c6.5-2.7,13-5.2,19.6-7.7
		C890.5,831.1,895.7,829.1,900.8,827.1L900.8,827.1z"/>
	<path class="st0" d="M1268,572.1c3.4-0.9,5.5-3.6,8.2-5.5c2.7-1.9,5.3-4,8-6c0.3-0.2,0.9-0.1,1.3-0.2c1,1,0.4,1.9-0.3,2.5
		c-2.2,1.9-4.4,3.6-6.6,5.4c-1.1,0.9-2.3,1.7-3.3,2.7c-1.7,1.7-3.4,3.3-5.9,4c-1.5,0.4-2.4,1.5-3.3,2.6c-0.7,1-1.6,2-2.5,2.9
		c-0.6,0.5-1.3,0.9-2.1,1.1c-0.5,0.1-1.4-0.2-1.7-0.6c-0.3-0.4-0.2-1.4,0.2-1.7c1.6-1.2,3.3-2.4,5.1-3.4c1.7-0.9,2.7-2.2,3-4
		C1268.1,572,1268,572.1,1268,572.1z"/>
	<path class="st0" d="M1383.6,469.7c-2.3,2.7-4.2,5.1-7.1,6.8c-2,1.2-3.7,3-5.5,4.5c-2,1.8-4,3.6-6,5.4c-0.2,0.2-0.5,0.4-0.8,0.5
		c-0.4,0-1,0-1.3-0.3c-0.2-0.3-0.3-1.1-0.1-1.3c2-2,4-4.2,6.2-5.9c1.5-1.2,2.8-2.5,4.2-3.9c2.1-2.2,4.4-4.2,6.7-6.1
		C1380.8,468.7,1382.1,468.2,1383.6,469.7z"/>
	<path class="st0" d="M1335.3,511.7c0,0.3,0.1,0.7-0.1,0.9c-0.2,0.4-0.5,0.9-0.8,1.2c-3.4,3.1-6.8,6.3-10.3,9.3
		c-0.5,0.4-1.1,0.7-1.6,1c-0.2,0.1-0.7,0-0.8-0.2c-0.2-0.2-0.4-0.6-0.3-0.8c0.2-0.6,0.5-1.2,0.9-1.6c3.3-4,7.2-7.2,11.4-10.2
		C1334.3,510.9,1335.3,511.2,1335.3,511.7z"/>
	<path class="st0" d="M1313.2,533.6c-0.3-0.4-1.3-1-1.2-1.5c0.2-3.4,2-6.3,5.1-6.5c0.5,0,0.9,0,1.4,0.1c0.9,0.2,1.6,1.4,1.2,2.2
		c-1.2,2.3-3,4.1-5.2,5.5C1314.2,533.5,1313.8,533.5,1313.2,533.6z"/>
	<path class="st0" d="M825.2,858.3c0.3-2.8,1.4-4.2,3.3-4.5c2.3-0.4,4.7-0.8,6.9-0.2c0.7,1.1,0.2,1.7-0.5,2.1
		C832,857.1,829,857.7,825.2,858.3z"/>
	<path class="st0" d="M461.2,945.8c-0.2,0.4-0.3,0.9-0.6,1.2c-1.7,1.7-3.5,3.2-4.8,5.3c-0.4,0.8-1.4,1.3-2.2,1.7
		c-0.5,0.2-1.3,0.2-1.7,0c-0.8-0.5-0.5-1.4-0.2-2.1c0.2-0.4,0.5-0.8,0.8-1.2c0.5-0.4,1-0.8,1.5-1.2c2.2-1.5,4.4-2.9,6.6-4.4
		C460.8,945.4,461,945.6,461.2,945.8z"/>
	<path class="st0" d="M249.9,1114.1c4.4-2.7,8.9-5.4,14-8.5c-0.4,1.1-0.5,1.7-0.7,1.8c-3.4,2.1-6.7,4.2-10.1,6.3
		C252,1114.4,251,1114.6,249.9,1114.1C249.8,1114,249.9,1114.1,249.9,1114.1z"/>
	<path class="st0" d="M1419.5,444.3c1.1-3.4,2.1-4.4,6.5-6.5C1422.9,443.3,1422.9,443.3,1419.5,444.3z"/>
	<path class="st0" d="M1563.1,144.6c-2.1,1.7-3.8,1.4-5.7,0.7C1560,142.7,1560,142.7,1563.1,144.6z"/>
	<path class="st0" d="M1299.9,550.9c-0.8,0.8-1.3,1.6-2,2.1c-0.3,0.2-1,0.1-1.3-0.1c-0.2-0.2-0.4-1-0.2-1.2c0.6-0.6,1.4-1.2,2.2-1.6
		C1298.8,550,1299.3,550.5,1299.9,550.9z"/>
	<path class="st0" d="M1606.8,360c-0.2-2.9,1.4-3.9,2.9-5.3C1609.3,357.6,1609.3,357.6,1606.8,360z"/>
	<path class="st0" d="M1510.7,514.8c0.2-2.1,0.9-3.1,2.6-4.1C1513,512.8,1512.5,513.9,1510.7,514.8z"/>
	<path class="st0" d="M1239.9,596.8c0,0.2,0.1,0.3,0.1,0.4c-0.4,1-1.5,1.6-2.2,1.2c-0.1-0.1-0.2-0.3-0.2-0.4c0-0.8,1.1-1.6,2-1.5
		C1239.7,596.6,1239.8,596.8,1239.9,596.8z"/>
	<path class="st0" d="M1231.6,602.6c0.7-0.9,1.2-1.5,1.7-1.9c0.3-0.2,0.8,0,1.3,0c0,0.4,0.1,1-0.1,1.3
		C1233.9,602.8,1233.1,603,1231.6,602.6z"/>
	<path class="st0" d="M1291.7,555.5c0.5-0.4,0.9-0.7,1.4-1c0.1-0.1,0.4,0.3,0.6,0.4c-0.4,0.4-0.8,0.8-1.2,1.2
		C1292.5,556.2,1292.1,555.9,1291.7,555.5z"/>
	<path class="st0" d="M1614.9,347.5c-0.5,0.7-1,1.4-1.6,2.4C1612.6,348.1,1613.1,347.4,1614.9,347.5z"/>
	<path class="st0" d="M771.1,491.6c0.4-0.4,0.7-0.7,1-1c0.2,0.3,0.5,0.7,0.5,1c0,0.2-0.3,0.5-0.4,0.7
		C771.9,492.2,771.6,491.9,771.1,491.6z"/>
	<path class="st0" d="M1644,296.6c-0.3,0.2-0.6,0.4-1,0.6c-0.1-0.3-0.2-0.6-0.1-0.8c0.1-0.2,0.4-0.4,0.6-0.5
		C1643.6,296.1,1643.7,296.3,1644,296.6z"/>
	<path class="st0" d="M1630.6,321.2c-0.5,0.4-1,0.9-1.6,1.3c0,0-0.3-0.2-0.3-0.2c0.2-0.5,0.4-1.1,0.7-1.6c0.1-0.1,0.5-0.1,0.8-0.1
		C1630.3,320.6,1630.4,320.8,1630.6,321.2z"/>
	<path class="st0" d="M1558.5,440c-0.2,0.2-0.3,0.5-0.6,0.7c-0.1,0-0.4-0.3-0.6-0.4c0.2-0.2,0.3-0.5,0.6-0.7
		C1558,439.6,1558.3,439.9,1558.5,440z"/>
	<path class="st0" d="M1574.8,413.5c-0.1,0.3-0.2,0.6-0.4,0.7c-0.1,0.1-0.5-0.1-0.7-0.2c0.1-0.3,0.2-0.6,0.4-0.7
		C1574.2,413.1,1574.6,413.4,1574.8,413.5z"/>
	<path class="st0" d="M1244.9,593.3c-0.2,0.1-0.5,0.3-0.7,0.4c0-0.1-0.2-0.4-0.1-0.4c0.2-0.2,0.5-0.3,0.7-0.5
		C1244.8,593,1244.9,593.1,1244.9,593.3z"/>
	<path class="st0" d="M1355.6,236.5c-0.3,0.1-0.5,0.2-0.8,0.2c0-0.2-0.1-0.4-0.1-0.6c0.3,0,0.5,0,0.8,0
		C1355.6,236.2,1355.6,236.4,1355.6,236.5z"/>
	<path class="st0" d="M1516.9,504.6c0.2,0.3,0.5,0.5,0.5,0.7c0,0.3-0.2,0.6-0.4,0.7c-0.2,0.1-0.5-0.1-0.7-0.2
		C1516.4,505.4,1516.6,505,1516.9,504.6z"/>
	<path class="st0" d="M900.9,827.2c0.3-0.1,0.6-0.1,0.8-0.2C901.5,827.1,901.2,827.1,900.9,827.2
		C900.8,827.1,900.9,827.2,900.9,827.2z"/>
</g>
</svg>
