<?xml version="1.0" encoding="utf-8"?>
<!-- Generator: Adobe Illustrator 23.0.6, SVG Export Plug-In . SVG Version: 6.00 Build 0)  -->
<svg version="1.1" id="Layer_1" xmlns="http://www.w3.org/2000/svg" xmlns:xlink="http://www.w3.org/1999/xlink" x="0px" y="0px"
	 viewBox="0 0 816.7 951.6" style="enable-background:new 0 0 816.7 951.6;" xml:space="preserve">
<style type="text/css">
	.st0{fill:#EFABC2;}
</style>
<g>
	<path class="st0" d="M231.5,109.8c-1.7-2.7-1.7-3.1,0-6.6c-2.5-1.7-2.4-4.2-1.7-6.8c0.4-1.5,0.6-3.2,0.6-4.7
		c-0.2-3.6,0.6-7,1.3-10.4c0.6-2.7,1-5.5,1.3-8.3c0.1-1.1-0.1-2.2-0.4-3.3c-0.4-1.1-0.4-1.9,0.5-2.8c1.3-1.4,1.6-3.1,1-4.9
		c-0.8-2.5-1.2-4.9,0.1-7.4c0.7-1.3,1.1-2.7,1.4-4.1c0.4-1.8,1.4-3.2,2.9-4.2c1.8-1.2,2.9-2.9,3.5-5c1.3-4.2,4-7.6,6.7-11
		c0.3-0.4,0.9-0.8,1.4-0.9c1.6-0.1,2.8-1,4-1.9c1.6-1.2,3.3-2.2,5.4-2.4c2-0.2,3.6-1.1,5.1-2.4c1.5-1.4,3.1-2.4,5.3-2.6
		c1.1-0.1,2.2-0.8,3.2-1.5c1.5-0.9,3-1.4,4.7-1.5c3.9-0.2,7.7-0.8,11.4-2.2c0.6-0.3,1.4-0.4,2.1-0.4c3.4,0.3,6.5-0.7,9.6-1.5
		c1.3-0.4,2.5-0.4,3.7,0.1c1,0.5,2,0.9,3.1,1.3c1.9,0.8,3.1,2.2,3.8,4c3.2,7.9,6.2,15.7,9.6,23.5c2.5,5.7,4.2,11.7,6,17.6
		c1.4,4.7,2.9,9.3,4.3,13.9c1.4,4.7,3,9.5,4,14.3c0.9,4.5,2.4,8.8,3.4,13.2c1,4.3,1.6,8.6,2.6,12.9c1.3,5.3,2.9,10.4,4.3,15.7
		c1.4,5.2,2.8,10.5,4.1,15.7c0.2,0.8,0.4,1.7,0.6,2.6c0.9,2.7,1.8,5.4,2.1,8.3c0.2,2,1.3,3.9,1.8,5.9c0.9,3.1,1.7,6.3,2.6,9.5
		c1.3,5.1,2.7,10.2,4,15.3c0.2,0.7,0.5,1.4,0.8,2c1.5,2.5,1.9,5.3,2,8.1c0.1,2,0.8,3.7,1.5,5.5c1.4,3.4,2.7,6.8,3.9,10.2
		c0.2,0.7,0.2,1.4,0.3,2.1c0.4,1.6,0.9,3.2,1.4,4.8c0.4,1.4,1,2.9,1.4,4.3c0.7,2.6,1.3,5.2,2,7.8c0.8,2.8,1.7,5.6,2.4,8.5
		c0.8,3.1,1.5,6.2,2.4,9.2c0.6,2,1.5,3.9,2.1,5.8c1.2,3.5,2.5,6.9,3.3,10.5c0.9,4.1,3,7.9,3.4,12.2c0.1,1.3,0.9,2.6,1.2,3.9
		c0.3,1.3,0.8,2.7,0.7,4c-0.3,3.1,0.7,6,0.9,9c0.1,1.6,0.9,2.8,1.8,4.1c1.2,1.6,2.8,3.2,2.5,5.5c0,0.2,0.1,0.3,0,0.5
		c-1.4,3,0.2,5.6,1,8.3c0.6,2.1,1.3,4,3.3,5.3c0.9,0.6,1.4,1.9,1.8,3c1.2,3.8,2.9,7.5,3,11.6c0,0.6,0.3,1.3,0.6,1.8
		c2.1,4.1,2.9,8.6,4.2,12.9c0.2,0.7,0.1,1.4-0.1,2.1c-0.3,2-0.1,3.8,1.7,5.1c1,0.7,1,1.8,1,2.8c-0.1,1.4,0.1,2.7,1.3,3.6
		c0.4,0.3,0.7,0.9,0.9,1.4c0.9,2.8,2.2,5.6,2.6,8.4c0.4,3,1.6,5.7,2.3,8.5c0.4,1.4,0.9,2.7,1.4,4c0.3,0.9,1,1.4,2.1,1.3
		c0.5,0,1.1,0.1,1.6,0.3c0.9,0.4,1.4,0.9,1.1,2c-0.5,1.6-0.3,3.2,0.2,4.9c0.4,1.6,0.3,3.3,0.4,4.9c0.1,1.1,0,2.2,0.1,3.3
		c0.1,0.9,0.8,1.4,1.8,1.2c1-0.2,1.3-0.9,1.2-1.8c-0.3-2.7-1-5.3-0.9-8c0.1-2.7,0.1-5.3-1-7.8c-0.1-0.2-0.1-0.5,0-0.7
		c0.2-2,0.4-4,0.5-5.9c0.2-2.8,0-5.5-1.4-8.1c-0.6-1-0.8-2.3-0.3-3.6c0.7-1.9,0.2-2.7-1.6-4.5c-0.4,0.4-0.7,0.7-1.1,1.1
		c-0.5,0.6-1.1,0.9-1.6,0.4c-0.4-0.4-0.6-1.3-0.5-1.9c0.1-0.5,0.8-1,1.3-1.2c0.5-0.2,1.3,0.2,1.6-0.7c0.2-0.7,0.5-1.5,0.6-2.3
		c0.1-0.4,0.1-0.9-0.1-1.2c-1-1.5-0.5-3-0.1-4.5c0.2-1,0.2-1.8-0.2-2.8c-0.3-0.6-0.4-1.4-0.3-2.1c0.4-2.5-0.4-4.7-1-7
		c-0.3-1.1-0.3-2.4-0.1-3.5c0.6-2.9-0.1-4.2-2.9-4.9c-0.2-0.5-0.5-1.1-0.7-1.7c-0.4-1.5-0.2-2,1.3-2.1c1.3-0.1,1.8-0.9,2-2
		c0.1-0.9,0-1.9,0-2.9c0-1.7-0.2-3.5,0-5.2c0.2-1.9-0.7-3-2.2-4c-0.5,0.3-1,0.7-1.8,1.3c-0.1-0.3-0.3-0.6-0.4-0.9
		c-0.6-2.5-1.7-5-1.5-7.4c0.4-6.3-0.5-12.6-0.6-18.9c0-3.4-0.7-6.8-1-10.2c-0.1-0.7-0.1-1.4-0.1-2.2c0.1-5.8,0.2-11.7,0.4-17.5
		c0-1.9,0.2-3.8,0.1-5.8c-0.1-2.1,0.7-3.5,2.4-4.6c0.8-0.5,1.4-1.5,1.9-2.3c0.2-0.3,0.1-1.2-0.1-1.2c-0.4-0.2-1.1-0.2-1.5,0
		c-0.4,0.2-0.6,0.7-0.9,1c-2.2-0.3-2.4-2-2.6-3.4c-0.2-1.4-0.1-2.9-0.1-4.3c0.2-5.8,0.3-11.5,0.5-17.3c0.1-3.3,0.5-6.5,0.8-9.8
		c0.5-6.4,1.1-12.7,1.6-19.1c0.2-2.2,0.4-4.5,0.7-6.7c0.2-1.6,0.5-3.1,0.8-4.7c0.1-0.8,0.3-1.6,0.2-2.4c0-0.4-0.5-0.8-0.8-1.2
		c-0.4,0.3-1,0.6-1.1,0.9c-0.3,1.1-0.4,2.2-0.7,3.3c-0.4,1.6-0.5,3.4-1.9,5c-1.1-1.6-1.3-3-0.9-4.5c0.7-2.3,0.5-4.6-0.1-6.9
		c-0.2-0.7-0.3-1.4-0.3-2.1c0-1.6,0.5-2.3,2.1-2.8c0.9-0.3,1.8-0.7,2.8-0.8c1.8-0.2,2.6-1.2,3.3-2.7c0.5-1.3,1.3-2.4,2.6-3
		c1.7-0.8,2.4-0.5,3,1.2c0.7,2.1,1.9,2.4,3.4,0.6c0.5-0.5,0.8-1.2,1.2-1.8c1.7-2.2,3.6-4,6.5-4.5c0.6-0.1,1.3-0.4,1.7-0.8
		c1.5-1.2,3.1-1.5,4.9-1.3c1.4,0.1,2.6-0.3,3.9-1c1.5-0.9,3.1-1.7,4.6-2.6c0.4-0.2,0.9-0.6,1.3-0.6c3.5,0.3,6.6-1.9,10.1-1.9
		c2.8,0,5.5-0.8,8-2.2c0.9-0.5,1.8-0.7,3-0.3c1,0.4,2.2,0,3.3-0.1c2.3-0.4,4.5-0.8,6.8-1.3c2.1-0.4,3.9,0.4,5.8,1.1
		c2.1,0.8,3,2.7,3.7,4.7c1.2,3.2,2.3,6.5,3.4,9.7c0.8,2.5,1.5,5,2.3,7.5c2.4,7.4,4.9,14.9,7.2,22.3c1.6,4.9,3,9.7,4.5,14.6
		c2,6.5,4.1,12.9,6.1,19.4c0.9,3,1.6,6,2.5,9c2.8,9.6,5.5,19.2,8.3,28.7c1.3,4.6,2.7,9.2,4.2,13.7c0.7,2.4,1.6,4.7,2.4,7
		c0.8,2.5,1.6,5,2.4,7.5c0.1,0.4,0.4,0.8,0.3,1.1c-0.3,1.7,0.5,2.9,1.3,4.2c1.1,1.8,1.9,3.8,2.9,5.9c1.3,0.3,1.8-0.8,2.1-1.9
		c0.3-0.9,0.4-1.9,0.3-2.8c-0.3-4.5,0.4-8.9,0.7-13.4c0.5-5.6,1.6-11.2,1.4-16.9c-0.1-2.2,0.5-4.4,1.8-6.4c0.5-0.8,0.8-1.9,1-2.9
		c0.1-0.4-0.6-0.9-1-1.4c-0.4,0.3-1.1,0.6-1.1,1c-0.5,3.3-2.5,6.2-2.4,9.7c0,1.1-0.3,2.2-0.6,3.3c-0.3,0.8-0.7,1.7-1.8,1.7
		c-1.3-0.1-1.3-1.1-1.2-2c0.2-2,0.5-3.9,0.8-5.9c0.1-0.8,0.2-1.6,0.3-2.4c0.6-2.9,1.2-5.8,1.9-8.6c0.4-1.7,1.9-2.1,3.3-2.4
		c1.7-0.3,2.6-1.1,3.4-2.6c0.6-1.3,2-2.2,3.1-3.2c0.3-0.3,1.4-0.2,1.7,0.1c0.3,0.5,0.4,1.3,0.3,1.9c-0.2,0.6-1,1.1-0.3,1.9
		c1,0.2,1.4-0.5,1.8-1.2c3-4.5,7.3-6.8,12.5-7.6c1.5-0.2,3-0.6,4.4-1.2c2.9-1.2,6.1-1.9,8.5-4.2c0.5-0.5,1.6-0.5,2.5-0.6
		c1.1-0.2,2.2-0.2,3.3-0.3c2.5-0.4,5-0.8,7.5-1.3c1.3-0.3,2.6-0.5,3.9-1.1c1.7-0.8,3.5-1.1,5.3-1.3c3-0.3,6.1-0.4,8.9-1.5
		c1.1-0.4,2.1-0.4,3.2,0c1.3,0.5,2.7,1,4,1.5c1.6,0.6,2.6,1.8,3.1,3.4c1.1,3.9,2.3,7.8,3.3,11.8c0.4,1.4,0.4,2.8,0.7,4.2
		c0.1,0.5,0.2,1.1,0.3,1.6c1.4,5,2.7,10,4.2,15c0.8,2.9,1.9,5.8,2.6,8.7c1.9,7.4,3.7,14.9,5.5,22.3c0.5,1.9,1.1,3.8,1.6,5.8
		c0.5,2.2,0.9,4.4,1.4,6.5c0.9,3.5,1.8,6.9,2.9,10.4c0.5,1.5,1.9,1.7,2.9,0.4c1.1-1.5,2.4-2.5,4.2-2.8c0.7-0.1,1.4-0.5,1.9-1
		c2.4-2,5.1-2.8,8.2-2.4c0.5,0.1,1.1,0,1.6-0.2c2.4-0.9,4.7-2,7.1-2.8c2.9-1,5.8-1.8,8.7-2.5c1.8-0.5,3.5-1.2,4.8-2.5
		c1.4-1.4,3.2-1.9,5.2-1.9c2,0,4.1-0.7,6.1-1.1c0.5-0.1,1.1-0.4,1.6-0.4c3.4,0.2,6.4-1.1,9.5-2.3c0.7-0.2,1.4-0.4,2.1-0.5
		c1.8-0.2,3.6-0.3,5.4-0.5c2.4-0.3,4.9-0.6,7.3-0.8c0.3,0,0.7-0.1,0.9,0c2.4,1.3,5.3,1.8,6.9,4.5c2,3.6,4.2,7.2,6.1,10.8
		c3.4,6.4,6.6,12.9,9.9,19.4c0.3,0.6,0.6,1.3,0.7,2c0.1,1.6,0.8,2.9,1.8,4.1c1.4,1.6,2.1,3.5,2,5.7c0,2.7,0.5,5.2,2.4,7.3
		c0.5,0.6,0.9,1.6,1,2.4c0.2,3.1,1.8,5.8,2.8,8.6c2.2,6.3,4.7,12.6,7.1,18.8c2.4,6.3,4.8,12.5,7.2,18.8c1.2,3.3,2.3,6.6,3.6,9.9
		c0.3,0.7,0.8,1.4,1.1,2.1c1.6,4,3.3,8,4.8,12c0.6,1.5,0.2,2.2-1.5,2.4c-1.1,0.1-1.5,0.7-1.6,1.7c-0.2,1.5,0,2.9,0.8,4.1
		c1.2,1.8,1.8,3.8,2.6,5.8c2.1,5.6,4.4,11.1,6.8,16.6c3.4,7.9,7.4,15.6,11.9,23c2.1,3.5,4.3,6.9,6.4,10.4c0.2,0.3,0.5,0.5,0.5,0.8
		c0.1,0.4,0.1,1.2-0.1,1.3c-0.4,0.2-1,0.2-1.5,0c-0.4-0.2-0.7-0.7-1-1c-0.5-0.5-0.8-1.1-1.4-1.3c-2.3-1-3.6-2.7-4.5-5
		c-0.5-1.1-1.5-2.1-2.2-3.1c-1.2-1.8-2.5-3.5-3.6-5.3c-1.7-2.9-3.3-5.9-4.2-9.1c-0.2-0.8-0.9-1.5-1.3-2.3c-0.6-1.2-1.2-2.4-1.9-3.6
		c-0.5-1-1.1-2-1.8-2.8c-1.1-1.4-2-2.9-2.1-4.7c0-0.3,0-0.7-0.2-0.9c-0.4-0.3-0.9-0.8-1.3-0.7c-0.4,0.1-0.8,0.7-1,1.2
		c-0.1,0.3,0,0.8,0.2,1.1c0.9,2,1.8,4.1,3,6c1.3,2.1,1.8,4.2,1.2,6.6c-0.1,0.5-0.2,1.1-0.2,1.7c-0.2,2.3,0.3,3.1,2.5,3.6
		c1.8,0.4,2.9,1.3,3.5,2.9c1.4,3.9,3.3,7.6,6,10.8c1,1.2,1.4,2.7,1.3,4.3c-0.1,1.7,0.4,3.1,1.4,4.4c1.9,2.7,3.9,5.3,6.4,7.5
		c0.6,0.5,1.1,1.4,1.3,2.2c0.3,1.7-0.8,2.8-2.6,3c-1,0.1-2,0.4-2.9,0.7c-0.9,0.2-1.8,0.4-2.7,0.6c-0.6,0.1-1.3,0.1-1.8,0.4
		c-1.2,0.6-2.3,1.1-3.7,0.8c-0.8-0.2-1.3,0.3-1.6,1.1c-0.2,0.5-0.4,1.1-0.5,1.6c-0.2,0.8-0.6,1.5-1.6,1.5c-1.5,0-2.1,1-2.5,2.2
		c-0.7,2.7-2.4,4.6-5,5.8c-0.5,0.2-1,0.5-1.4,0.9c-1.4,1.5-3.1,1.8-5,1.7c-2.4-0.2-3.4,1-3,3.3c0.5,2.6,0.2,2.9-2.3,4.1
		c-1.1,0.5-2.1,1.4-2.9,2.3c-1.8,1.9-2.2,2.1-4.7,1.2c-1.2-0.5-2.1,0-2.7,0.8c-1.9,2.6-3.1,2.6-5.8,0c-3.4-3.2-6.3-6.8-8.7-10.8
		c-2.6-4.1-5.4-8.1-8-12.2c-2.1-3.3-4-6.7-6-10.1c-0.3-0.4-0.8-0.6-1.2-1c-0.3,0.5-0.8,1-0.8,1.5c0,1.9,0.1,3.8,0.2,5.7
		c0.2,2.9,0.5,5.9,0.7,8.8c0.2,2.8,0.4,5.6,0.5,8.4c0.1,2.6,0.1,5.3,0.2,7.9c0.3,5.8-0.5,11.5-0.8,17.2c-0.2,3.6-0.5,7.2-0.8,10.7
		c-0.5,4.3-1.3,8.5-3.5,12.3c-0.8,1.4-1.2,3-1.8,4.5c-0.9,2.2-2.2,4-4.4,5.1c-1.2,0.6-2.3,1.7-3.2,2.8c-1.4,1.6-2.7,2.5-5.1,2.5
		c-2,0-4.2,1-6.1,1.8c-2.5,1.2-5.1,2.2-7.1,4.3c-0.5,0.5-1.4,0.6-2.2,0.7c-0.8,0.2-1.8,0.1-2.6,0.4c-2,0.7-4,1.5-6.3,1.4
		c-1.1-0.1-1.8,0.5-2.2,1.5c-0.7,1.7-2,2.8-3.4,3.9c-1.5,1.1-3,2.3-4,3.7c-1.6,2.2-3.6,3.2-6.2,3.7c-1.3,0.2-2.7,0.4-4,0.8
		c-0.8,0.2-1.7,0.5-2.4,1.1c-1.4,1.1-2.7,1.9-4.6,1.7c-0.6-0.1-1.4,0.6-2.1,1c-1.7,1.1-2,1.1-3.6,0c-2.5-1.7-4.2-3.9-5.2-6.7
		c-0.7-1.8-1.6-3.4-2.9-4.9c-2.1-2.4-3.1-5.4-4.3-8.2c-0.4-0.8-0.6-1.7-1-2.4c-0.2-0.4-0.7-0.8-1-0.8c-0.4,0.1-1,0.5-1.1,0.9
		c-0.3,0.9-0.3,1.9-0.5,2.8c-0.3,1.7-0.6,3.5-1.1,5.1c-0.8,3.1-1.8,6.1-2.6,9.2c-0.7,2.4-2,4.2-4.3,5.5c-1.3,0.8-2.4,2-3.5,3.2
		c-1.2,1.5-2.4,2.7-4.6,2.2c-1.8-0.4-3.5,0.4-4.9,1.5c-1.5,1.2-3,2.2-5,2.6c-1.1,0.2-2.2,1.3-2.9,2.3c-1.4,1.8-3,2.6-5.2,2
		c-0.6-0.1-1.4,0.1-2.1,0.2c-3.3,0.7-6.1,2-7.9,5.1c-0.5,0.9-1.9,1.1-2.7,1.9c-1.3,1.2-2.5,2.5-3.6,3.9c-1.6,2.1-3.7,3.1-6.3,2.8
		c-2.3-0.3-4,0.5-5.7,1.9c-0.5,0.5-1.1,1-1.8,1.1c-2.1,0.4-3.9,1.1-5.7,2.2c-0.5,0.3-1.7,0.1-2.2-0.4c-1.5-1.3-2.9-2.8-4.2-4.3
		c-0.6-0.7-1.1-1.6-1.3-2.5c-0.6-2.5-1.9-4.7-2.9-7.1c-1.4-3.3-2.5-6.7-3.7-10.1c-0.7-2-1.3-4.1-2.7-5.8c-0.7-0.9-0.9-2.3-1.3-3.5
		c-0.2-0.6,0-1.3-0.2-1.9c-1.4-4.4-2.8-8.8-4.3-13.2c-2.7-8.1-5.4-16.1-8.1-24.2c-2.2-6.7-4.3-13.4-6.4-20.1
		c-0.3-1.1-0.5-2.2-0.8-3.2c-0.5-2-1.1-4-1.6-6c-0.3-1.5-0.7-3.1-0.7-4.7c0-1.6-0.4-2.9-1.3-4.3c-0.6-1-1.1-2.1-1.5-3.2
		c-1.1-3-2.2-6-3.2-9c-0.5-1.5-0.7-3.1-1.1-4.7c-0.2-1-0.4-2.1-1.8-2.3c-1.1,1.4-0.3,2.9,0.4,3.7c1.5,2,1.2,4.2,1.2,6.4
		c0,2.1,0.2,4.1,0.9,6.1c0.8,2.2,0.8,4.5,1.3,6.8c1.1,4.7,2.2,9.3,3.3,14c1,4.5,2,9,3.1,13.5c1.8,7.2,3.7,14.4,5.4,21.6
		c1.1,4.5,2,9,2.9,13.6c0.2,1.1-0.1,2.2-0.1,3.3c0,0.9-0.1,2.1,0.3,2.7c2.3,3.4,2.5,7.4,3.3,11.2c0.7,3.4,1.3,6.7,1.8,10.1
		c0.6,3.8,1.1,7.6,1.6,11.4c0.6,4.2,1,8.4,1.8,12.5c1.4,7.6,1.5,15.3,1.6,22.9c0,2.6,0,5.3,0,7.9c0,5.6-1.2,10.9-3.3,16.1
		c-0.9,2.2-2.2,4.1-4.4,5.2c-0.4,0.2-0.9,0.5-1.2,0.9c-1.6,2-3.8,3.4-6,4.7c-1.3,0.8-2.8,1.4-4.3,2.1c-0.3,0.1-0.7,0.1-0.9,0.3
		c-2.4,2-5.6,3.1-7.5,5.8c-0.9,1.3-2.1,1.9-3.6,2.1c-1.2,0.2-2.4,0.7-3.6,1c-1.2,0.3-2.4,0.7-3.7,0.9c-2,0.3-2.6,0.6-2.9,2.5
		c-0.5,2.7-2.3,4-4.7,4.6c-1.8,0.5-2.9,1.3-3.6,3c-1.5,3.6-4.5,4.8-8.2,3.4c-1.5-0.6-2-0.4-2.6,1.1c-0.6,1.7-1.5,2.7-3.2,3.2
		c-0.8,0.2-1.4,1-2.1,1.6c-1.4,1.1-2,1.3-3.4,0.2c-2.1-1.6-4.1-3.3-6-5.1c-0.6-0.6-0.8-1.5-1.2-2.3c-0.5-1.1-0.8-2.3-1.6-3.2
		c-4.3-5.6-8.1-11.5-11.1-17.9c-3.9-8.3-8.1-16.5-12-24.8c-1.4-2.9-3-5.8-3.6-9.1c-0.1-0.7-0.7-1.4-1.1-2.1c-0.9-1.5-1.5-3.1-2-4.9
		c-0.3-1.4-1.4-2.6-2.1-4c-0.5-0.9-1-1.8-1.4-2.7c-1.6-3.6-3.1-7.2-4.7-10.8c-0.3-0.7-0.7-1.5-0.8-2.2c-0.4-2.6-1.7-4.8-2.8-7.1
		c-2-4.2-3.9-8.4-5.7-12.7c-0.4-1-0.3-2.2-0.2-3.3c0.1-1.6-0.1-3-0.8-4.4c-0.5-1-0.7-2.3-0.8-3.4c-0.1-1.5-0.5-2.8-2.1-3.4
		c-1-0.4-1.5-1.2-1.6-2.2c-0.4-4.1-1.8-7.7-4.4-11c-0.6-0.7-0.8-1.7-1-2.7c-1.2-5.9-2.5-11.6-5.2-17.1c-2.2-4.4-3.8-9.1-5.7-13.7
		c-0.5-1.2-1.2-2.2-1.8-3.4c-0.5-1-1.1-2-1.1-3.1c-0.3-4-1.2-7.8-3.2-11.4c-1.1-1.9-2.1-3.9-3.1-5.9c-0.3-0.6-0.6-1.2-0.6-1.8
		c0.1-3-1.3-5.6-2.1-8.3c-0.3-0.9-1-1.6-1.5-2.4c-0.8-1.2-1.4-2.4-1-4c0.5-2.2-0.7-4-1.5-5.9c-1.8-4.5-3.7-9-5-13.7
		c-0.7-2.3-1.6-4.5-2.5-6.7c-0.4-1.1-0.9-2-0.2-3.2c0.7-1.1,0-2.2-0.4-3.2c-0.8-1.9-1.8-3.7-2.7-5.6c-0.2-0.4-0.4-0.8-0.4-1.1
		c0.3-1.9-0.9-3.3-1.7-4.9c-2-4.2-3.8-8.5-4.4-13.1c-0.1-0.5-0.2-1,0-1.4c0.8-1.5,0.2-2.9-0.5-4.1c-1.2-1.8-1.5-3.7-1.4-5.7
		c0.1-1.5-0.5-2.7-1.8-3.4c-1.2-0.7-1.5-1.8-1.9-3.1c-0.5-2.1-1.3-4.3-2.2-6.3c-1.4-3.3-2.3-6.8-3.3-10.2c-1.5-5.5-3.5-11-5.2-16.4
		c-0.6-1.7-1.3-3.4-1.1-5.3c0.1-0.7-0.3-1.6-0.8-2.2c-1.5-2.2-2-4.7-2.8-7.1c-1.5-4.6-2.7-9.2-4.3-13.7c-2.1-6-3.5-12.1-5.1-18.2
		c-0.1-0.3-0.2-0.6-0.3-0.9c-3.1-7.1-4.5-14.6-6.4-22c-0.7-2.7-1.9-5.2-2.7-7.9c-1-3.1-2.1-6.2-2.9-9.3c-0.3-1.1-0.1-2.4,0.1-3.5
		c0.2-1.6,0.1-3-1.4-4c-0.5-0.4-1-1.1-1.2-1.8c-1.5-4.5-3-8.9-4.4-13.4c-1.1-3.6-2.1-7.3-3.2-11c-0.9-3-1.8-5.9-2.7-8.9
		c-0.6-2-1.2-3.9-1-6.1c0.1-0.8-0.3-1.7-0.8-2.4c-1.1-1.6-1.6-3.3-1.6-5.2c0-0.5,0-1-0.2-1.4c-2.7-4.9-3.7-10.3-5.2-15.6
		c-1.5-5.5-3.4-11-5-16.5c-0.6-1.8-1-3.7-1.4-5.6c-0.1-0.5-0.1-1.2-0.4-1.6c-0.4-0.6-1.1-0.9-1.7-1.4c-0.3,0.6-0.7,1.2-0.9,1.8
		c-0.2,0.7-0.3,1.5-0.1,2.1c0.9,4,0.2,8,0.6,11.9c0.2,1.8,0.5,3.6,0.7,5.5c0.1,1.1,0.3,2.2,0.3,3.3c-0.1,5,0.4,10,1,15
		c0.5,4.6,0.9,9.2,1.4,13.8c0,0.2,0,0.5,0.1,0.7c1.5,4.8,0.9,9.7,1.1,14.5c0.1,2.3,0.3,4.6,0.6,6.9c0.9,6.1,1.8,12.2,2,18.3
		c0.1,2.9,0.9,5.8,1.4,8.7c0.2,1.4,0.7,2.8,0.6,4.2c-0.2,3.7,0.8,7.3,1.4,10.9c0.3,1.9,0.5,3.8,0.7,5.7c0.1,1,0.2,2.1,0.4,3.1
		c0.1,0.6,0.2,1.1,0.2,1.7c0,7.2,1.7,14.1,3,21c0.6,3.3,0.9,6.6,1.4,9.9c0.1,0.9,0.3,1.9,0.5,2.8c0.1,0.7,0.4,1.4,0.4,2.1
		c0.2,5.9,1.8,11.7,2.8,17.4c0.5,2.8,1,5.5,2.1,8.1c0.1,0.4,0.3,0.8,0.3,1.1c0.4,3.3,0.8,6.6,1.2,10c0.3,2.3,0.7,4.6,1.1,6.8
		c0.1,0.5,0.3,0.9,0.4,1.4c0.3,3.4,1.3,6.5,2.2,9.8c1.2,4.4,1.7,9.1,2.5,13.6c0.2,1.1,0.4,2.2,0.7,3.3c0.7,2.9,1.6,5.7,2.2,8.5
		c0.6,3,1.2,5.9,1.4,8.9c0.2,2.3,0.7,4.6,1.3,6.8c0.9,3,1.6,6,2.3,9c0.8,3.5,1.5,7,2.4,10.5c0.9,3.4,2,6.7,2.9,10.1
		c0.4,1.4,0.5,2.8,0.7,4.2c0.7,5.7,2.9,11.1,4.3,16.7c0.8,3.2,1.6,6.3,2.8,9.4c0.8,2.1,1,4.5,1.4,6.8c0.9,4.5,2,9,3.6,13.3
		c0.9,2.5,1.8,5.1,2.6,7.7c0.7,2.3,1.3,4.6,1.8,7c1.1,6,3.1,11.7,5.3,17.4c0.5,1.3,0.6,2.8,0.9,4.1c0.6,2.3,1,4.7,1.8,6.9
		c2.7,8.3,5.6,16.5,8.4,24.7c1.2,3.5,2.4,7.1,3.6,10.6c0.2,0.7,0.1,1.4,0.3,2.1c0.3,1.2,0.6,2.3,1,3.4c0.8,2.3,1.6,4.5,2.4,6.7
		c1.4,3.9,1.8,8.1,4,11.8c0.4,0.7,0.7,1.6,0.9,2.5c0.4,2.9,1.5,5.5,2.8,8.1c0.3,0.6,0.6,1.2,0.6,1.8c-0.1,2.5,0.9,4.7,1.8,6.9
		c1.4,3.7,2.6,7.6,3.9,11.3c0.7,1.9,1.6,3.7,2.3,5.5c1.9,5.2,3.8,10.5,5.6,15.7c0.1,0.2,0.2,0.3,0.2,0.4c0.9,5.9,3.8,11,5.9,16.4
		c1,2.5,2.2,4.9,3.3,7.5c0.6,1.5,1.1,3.2,1.6,4.8c0.4,1.4,0.7,2.8,1.3,4.1c1.5,3.7,3.1,7.3,4.5,11.1c0.8,2.1,1.3,4.4,2,6.6
		c0.2,0.8,0.4,1.7,0.8,2.5c3.1,5.8,4.6,12.3,6.9,18.4c1.1,3.1,2.5,6.2,3.6,9.4c1.1,3,1.9,6.1,3,9.1c1.7,4.6,2.8,9.5,5.3,13.8
		c1.9,3.3,2.6,6.8,3.4,10.4c0.1,0.3,0.1,0.6,0.2,0.9c1.2,4,2.5,7.9,3.7,11.9c1,3.4,1.9,6.8,2.7,10.2c1.6,6.5,2.8,13.1,3,19.9
		c0.1,2.6,0.3,5.3,0.4,7.9c0.1,3.2-1,5.8-3.7,7.9c-2.3,1.8-4.1,4.2-6,6.5c-1.4,1.8-3,3.3-5.2,4c-0.7,0.2-1.4,0.5-1.9,0.9
		c-2.6,1.9-5.6,3-8.7,3.8c-4.1,1.1-8.1,2.5-12.3,3c-6.7,0.8-13.6,0.8-20.3-0.1c-2.8-0.4-5.6-1.4-8.3-2.2c-3.8-1.1-7.6-1.7-11.6-1.6
		c-0.6,0-1.3-0.1-1.9,0c-2.2,0.3-3.6-0.8-4.4-2.8c-0.5-1.2-1.2-2.3-1.7-3.5c-0.4-0.9-0.9-2-0.8-3c0.2-3.3-1.5-5.6-3.7-7.6
		c-1-0.9-1.7-2.1-1.4-3.4c0.4-2.3-0.9-3.7-2.1-5.3c-0.9-1.2-2.1-2.3-2.6-3.7c-1.2-3.7-3.6-6.8-5-10.3c-0.3-0.7-0.5-1.5-0.9-2.2
		c-0.5-0.9-0.9-1.8-1.6-2.6c-1-1.2-1.6-2.5-2-4c-1-3.4-2.1-6.7-5-9c-1-0.8-1.5-1.7-1.7-3c-0.1-1-0.5-2-1-2.9
		c-1.9-3.1-3.9-6.1-5.1-9.7c-2.3-1.8-2.5-4.5-3-7c-0.3-1.4-0.8-2.8-1.4-4c-0.8-1.5-1.5-3-3.2-3.8c-1.3-0.6-1.9-1.6-2-3
		c-0.1-1.5-0.6-2.7-1.6-3.9c-0.7-0.8-1.1-1.9-1.5-3c-0.5-1.4-0.9-2.9-1.4-4.3c-0.6-1.4-1.3-2.7-0.7-4.3c0.3-1-0.2-1.7-1.1-2.1
		c-3.4-1.7-4.4-4.8-4.6-8.3c-0.1-1.7-0.7-3.1-2.3-3.9c-0.6-0.3-1.2-0.7-1.8-1.1c-0.9-0.6-1.4-1.5-1.4-2.6c-0.1-1.8,0-3.6,0.6-5.4
		c0.7-1.8,0.3-2.7-1.6-3.3c-1.8-0.5-2.7-1.6-3-3.3c-0.1-0.4-0.3-0.7-0.5-1.1c-2.4-4.2-4.8-8.5-7.2-12.7c-0.1-0.2-0.2-0.5-0.3-0.6
		c-2.2-1.7-2.8-4.4-4.1-6.7c-1.3-2.2-1.7-4.5-0.5-6.8c0.7-1.3,0.5-2.4-0.1-3.6c-1.3-2.7-2.4-5.4-3.6-8c-0.3-0.6-0.9-1-1.5-1.4
		c-0.6-0.3-1.3-0.5-2.1-0.7c1.4-4.7-0.1-7.9-4.9-9.4c0.2-0.7,0.4-1.3,0.5-1.9c0.4-2.3-0.4-4.3-1.9-5.9c-1.1-1.3-1.5-2.8-2.1-4.2
		c-1.2-3-2.6-6-4.1-8.8c-0.3-0.6-1.4-1-2.2-1.3c-1-0.3-1.7-0.8-1.9-1.9c-0.1-0.3-0.1-0.7-0.3-0.9c-1.7-1.4-1.5-3.3-1.7-5.2
		c-0.1-0.9-1.1-1.7-1.7-2.5c-0.7-0.9-1.5-1.7-2.1-2.6c-0.8-1.1-0.8-2.3-0.1-3.6c1-2,0.6-2.8-1.3-3.8c-0.5-0.3-1-0.4-1.5-0.7
		c-2.2-1.2-2.9-2.9-1.7-5c1.1-2,0.8-3.6-0.2-5.4c-2.5-4.5-4.3-9.3-6.3-14c-0.6-1.5-1.6-2.7-2.3-4.2c-0.6-1.1-1.2-2.3-1.5-3.5
		c-0.8-2.7-0.8-2.9-3.7-2.9c-0.4,0-0.8,0-0.9,0c-1-2.1-1.9-3.9-2.7-5.8c-0.6-1.5-0.9-3.2-1.5-4.8c-0.5-1.3-1.3-2.6-2-3.8
		c-1.5-2.6-2.6-5.1-1.2-8.1c0.2-0.5,0.1-1.4-0.1-2c-1-2.5-2.1-5-3.2-7.5c-0.2-0.5-0.5-1.2-0.9-1.3c-2.1-0.7-2.8-2.8-4-4.3
		c-1.2-1.4-2-3.2-1.3-5.3c0.4-1.3-0.1-2.4-1.2-3.4c-1-0.9-1.9-2.1-2.6-3.2c-0.2-0.4-0.1-1.3,0.3-1.7c0.7-0.7,0.6-1.4,0.3-2.2
		c-0.3-0.8-0.4-1.7-0.6-2.5c-0.3-1.5-0.4-3.3-2.7-3.3c-0.3,0-0.8-0.7-0.9-1.2c-0.2-0.7,0-1.5-0.2-2.1c-0.2-0.7-0.6-1.7-1.1-1.9
		c-1.6-0.7-1.8-2-1.5-3.4c0.4-1.4-0.3-2.5-0.9-3.6c-0.1-0.3-0.5-0.7-0.8-0.8c-2.8-0.8-3.3-3.5-4.2-5.7c-0.5-1.3-0.8-2.5-2.1-3.2
		c-1.1-0.6-1.2-1.4-0.6-2.6c0.9-1.8,1.7-3.7,1-5.8c-0.2-0.4-0.2-1-0.5-1.3c-1.4-1.2-1.8-2.8-2-4.5c-0.2-1.3-0.8-2.2-1.9-2.9
		c-1-0.6-1.9-1.5-2.9-2.1c-2.5-1.6-1.6-3.9-1.4-6c0.1-1.1,0.6-2.2,0.7-3.3c0.1-0.6-0.1-1.3-0.4-1.8c-1-1.2-1.1-2.5-1-3.8
		c0.1-1.4-0.2-2.7-0.8-3.9c-1.7-3.4-3.3-6.7-4.8-10.2c-0.7-1.7-1.2-3.5-1.5-5.2c-0.3-1.7-0.7-3-2.6-3.5c-1.9-0.6-2.2-1.4-2.1-3.5
		c0.1-1.2,0.2-2.4,0-3.5c-0.4-1.7-1-1.9-2.5-1.1c-0.4,0.2-0.8,0.3-1.4,0.6c-0.2-0.5-0.4-0.8-0.5-1.2c-0.4-1.7-0.9-3.4-1.2-5.1
		c-0.2-1.1-0.5-2.3-0.3-3.3c0.7-2.9,0.2-5.5-1-8.2c-2.2-5.1-4.3-10.1-6.5-15.2c-3.4-8.2-6.7-16.4-10.2-24.5
		c-1.3-3.1-2.6-6.2-5.3-8.4c-0.9-0.7-1.1-1.4-0.9-2.5c0.2-1,0.1-2.1,0.2-3.1c0.2-2.1-0.4-3.9-1.5-5.7c-2.6-4.3-4.3-9-5.7-13.9
		c-0.8-2.8-2-5.4-3.2-8c-1.3-2.8-2.4-5.7-3.4-8.7c-1.4-4.3-3.4-8.4-5.1-12.7c-0.3-0.8-0.8-1.6-1-2.4c-0.5-2.5-1.7-4.6-2.8-6.8
		c-1-2.1-1.4-4.5-2.1-6.8c-0.2-0.8-0.4-1.5-0.7-2.3c-0.5-1.4-1.4-2.3-3-2.4c-1.4-0.1-2-1-2.7-2c-2.1-3-2.4-6.7-3.9-10
		c-0.4-0.8-0.3-2,0-2.8c1.5-3.1,1.1-6.3,0.2-9.4c-0.9-3.1-2.1-6-3.2-9c-1.1-2.9-2.1-5.9-3.2-8.8c-1.3-3.7-2.7-7.3-4-11
		c-0.5-1.5-0.8-3.1-1.2-4.6c-0.1-0.5-0.2-1.1-0.4-1.6c-1.5-3.8-3.1-7.5-4.7-11.3c-0.1-0.2-0.4-0.4-1-0.9c-0.1,1-0.2,1.5-0.2,2.1
		c0.1,1.6,0.2,3.2,0.3,4.8c0.1,0.9,0,1.8,0.3,2.6c0.6,2.4,0.6,4.9,0.9,7.3c0.8,5.9,0.8,12,2.4,17.8c0.2,0.8,0.3,1.6,0.4,2.4
		c0.8,6.4,1.5,12.9,2.3,19.3c0.7,5.5,1.2,11,2.3,16.3c1.1,5.6,1.1,11.4,2.5,17c1,3.9,1,8.1,1.6,12.1c0.5,3.9,1.1,7.7,1.7,11.6
		c0.4,2.8,0.8,5.7,1.2,8.5c0.2,1.1,0.3,2.2,0.5,3.3c0.2,1.3,0.5,2.7,0.7,4c0.1,0.6,0.1,1.1,0.2,1.7c0.9,4.3,2,8.6,2.5,12.9
		c0.7,6.3,2.6,12.3,3.5,18.6c1.2,8.1,2.7,16.2,4.5,24.2c0.8,3.4,1.2,6.9,1.8,10.4c0.1,0.5,0.2,1.1,0.5,1.6c1,1.9,1.2,3.9,1.5,6
		c0.5,3.4,0.7,6.9,2.1,10.2c1.5,3.5,1.9,7.4,2.8,11.1c0.8,3.7,1.6,7.3,2.3,11c1.4,6.9,2.7,13.8,4.1,20.7c0.3,1.6,0.8,3.1,1.2,4.6
		c1.9,7.5,4,15,5.5,22.6c1.7,8.8,4.5,17.3,6.6,26c1.5,6.6,3.3,13.2,4.9,19.8c0.6,2.6,1,5.2,1.7,7.7c1.2,4.3,2.8,8.5,3.7,12.9
		c1.8,8.3,4.3,16.4,6.6,24.5c2.9,10.3,6.2,20.5,9.3,30.7c1.2,4,2.2,8,3.6,11.9c3.2,9.3,6.5,18.7,9.9,28c2.1,5.8,4.6,11.6,6.8,17.4
		c1.7,4.5,3.4,9,4.9,13.5c1.1,3.2,2.1,6.5,3.1,9.8c0.7,2.3,0.4,4.5-1.4,6.2c-3.7,3.7-7.5,7.4-11.3,11.1c-0.3,0.3-0.6,0.5-1,0.7
		c-3.9,2.3-7.8,4.7-11.8,6.9c-1.2,0.7-2.6,1.2-4,1.7c-2.1,0.8-4.2,1.5-6.3,2.2c-0.2,0.1-0.4,0.2-0.7,0.2c-2.8,0.4-5.7,0.9-8.5,1.1
		c-2.5,0.2-4.3-1.3-5.8-3.2c-0.5-0.6-0.9-1.3-1.3-2c-0.6-1-1.3-1.5-2.6-1.1c-1.9,0.5-2.1,0.4-2.9-1.5c-1-2.5-2.4-4.6-4.3-6.6
		c-0.5-0.6-0.9-1.3-1.2-2.1c-3.5-8.8-7-17.7-10.3-26.6c-2.4-6.5-4.6-13.1-6.8-19.7c-2-6.1-3.9-12.3-5.8-18.5
		c-2.2-7.1-4.5-14.1-6.6-21.3c-2.3-7.9-4.4-15.9-6.5-23.8c-1-3.9-1.9-7.9-2.9-11.9c-0.1-0.3-0.3-0.6-0.2-0.9
		c0.6-3.1-0.7-5.6-2.1-8.2c-1.4-2.6-1.9-5.3-2.4-8.2c-0.7-3.9-2-7.7-3-11.6c-0.1-0.3-0.3-0.6-0.4-0.9c-1-3.9-2-7.9-3-11.8
		c-0.4-1.7-0.8-3.4-1.3-5.1c-0.9-2.8-1.7-5.6-0.9-8.7c0.3-1.2-0.1-2.7-0.4-4c-0.7-3.1-1.4-6.2-2.3-9.3c-0.3-1.1-0.9-2.2-1.6-3.1
		c-1.5-1.9-2.3-3.8-1.7-6.2c0.4-1.5-0.2-2.8-0.9-4.1c-0.5-0.9-0.8-1.9-1-2.8c-0.8-4-1.6-8-2.3-12c-0.2-0.9-0.5-1.9-0.4-2.8
		c0.3-3.4-1.1-6.4-2.6-9.3c-0.6-1.2-1-2.3-1-3.6c0-2.9,0-5.7-1.7-8.3c-0.3-0.6-0.4-1.4-0.4-2.1c0.1-1.7-0.4-3.3-1.1-4.8
		c-0.7-1.4-1.2-2.8-1.6-4.2c-0.8-3-1.5-6-2.2-9c-0.5-1.7-0.6-3.5,0-5.2c0.3-1,0.2-2-0.3-3c-0.7-1.5-0.9-3.1-0.9-4.8
		c0-2.9-0.4-5.8-2.1-8.2c-1.1-1.6-1.6-3.3-1.2-5.2c0.3-1.2-0.1-2.2-0.9-3.1c-1.7-1.7-2.2-3.9-2.6-6.1c-0.9-4.9-1.7-9.9-2.5-14.9
		c-0.2-0.9-0.3-1.9-0.4-2.8c-0.1-1.5-0.3-2.9-1-4.4c-0.6-1.2-0.6-2.8-0.9-4.2c-0.5-3.1-1.2-6.3-1.5-9.4c-0.2-1.9,0.2-3.8,0.4-5.7
		c0.3-2.1-0.1-3.9-1.6-5.5c-1.4-1.6-2.1-3.5-1.6-5.8c0.2-0.9-0.2-2-0.5-3c-0.5-1.9-1.4-3.8-1.7-5.7c-0.5-3-0.7-6-0.8-9.1
		c-0.1-2-0.3-4-1.1-5.8c-0.2-0.5-0.3-1.1-0.3-1.6c0-3.4-0.8-6.6-1.8-9.8c-0.1-0.4-0.2-0.8-0.2-1.2c-0.5-2.7-1-5.5-1.5-8.2
		c-0.7-4.5-1.3-9-2-13.5c-0.6-3.9-1.2-7.9-1.8-11.8c-0.4-2.5-0.7-5-1.1-7.6c-0.9-6.4-1.8-12.8-2.7-19.2c-0.7-4.8-1.6-9.6-2.3-14.4
		c-0.1-0.8-0.3-1.6-0.4-2.4c-0.7-5-1.3-9.9-1.9-14.9c-0.4-3.6-0.9-7.1-1.3-10.7c-0.3-2.9-0.7-5.7-1-8.6c-0.5-4.8-0.9-9.5-1.4-14.3
		c-0.6-4.9-1.3-9.8-1.9-14.7c-0.8-7.5-1.6-14.9-2.3-22.4c-0.3-3.1-0.4-6.2-0.6-9.3c-0.2-2.5-0.8-4.9-1-7.3
		c-0.5-5.6-0.9-11.3-1.4-16.9c-0.3-4-0.7-7.9-1.1-11.9c0-0.4-0.2-1-0.5-1.3c-1.8-1.6-1.5-3.4-0.8-5.4c0.3-1,0.6-2,0.6-3
		c0-3.8,0-7.5-0.2-11.3c-0.1-2.1-0.6-4.1-0.8-6.2c-0.2-2.2-0.4-4.5-0.3-6.7c0.1-3.2-1.4-5.2-4.4-6.8c0-2.5,0-5.2,0-7.9
		c0-1,0.8-1.5,1.6-1.9c0.8-0.3,1.2-0.9,1.2-1.9c-0.1-3.4-0.1-6.9-0.2-10.3c0-0.3-0.2-0.7-0.4-1c-1.1,0.5-0.8,1.4-0.9,2.2
		c-0.1,1.5-0.1,3-0.2,4.6c-0.1,0.8-0.2,1.7-1.3,1.7c-1.2,0-1.1-1-1.1-1.7c0-4.2,0.1-8.3,0.2-12.5c0-1,0.1-1.9,0.1-2.9
		c0-2.8,0-2.8,1.7-4.9c0.6-0.7,1.7-1.1,1.5-2.3c-0.3-1.4-0.6-2.8-1-4.1c-0.1-0.3-0.4-0.5-0.5-0.8c-0.9-1.8-1.9-3.6-0.7-5.8
		c0.8-1.5,0.8-3.2,0.3-4.9c-0.5-2-0.5-3.8,0.9-5.6c1-1.3,0.8-3-0.1-4.5c-1.4-2.6-2.7-5.2-2.6-8.3c0.1-2.7,0.2-5.4,0.5-8.1
		c0.2-1.7-0.2-3.1-1.4-4.4c-0.4-0.5-0.8-1-1.3-1.4c-1-1-1-2.1-0.7-3.3c0.3-1.4,1.2-2,2.6-2c1.1,0,1.7-0.6,2.2-1.6
		c1.4-2.8,3-5.4,3.5-8.6c0.2-1.1,1-2.4,1.9-3.2c1.7-1.4,2.8-3,3.3-5.1c0.5-2.1,1-2.4,3.1-2.6c0.5,0,1,0,1.4-0.2
		c1.6-1,3.3-1.4,5.2-0.8c0.6,0.2,1.8-0.4,2.3-0.9c1.9-2.3,4.4-3.7,7.2-4.5c1.1-0.3,2.2-0.9,3.3-1.4c2.8-1.5,5.6-2,8.8-1.9
		c2.6,0.1,5-0.7,7.4-1.8c1.4-0.7,3-0.9,4.6-1.3c1.6-0.4,3.3-0.6,4.9-1.1c5.7-1.7,11.5,1.3,13.5,6.9c1.8,5.1,3.9,10.1,5.8,15.2
		c2.9,7.8,5.8,15.5,8.7,23.3c1.7,4.6,3.4,9.2,5,13.9c2.5,7.5,4.8,15,7.3,22.6c1.1,3.5,2.4,6.9,3.6,10.4c2.7,8.3,5.4,16.7,8.1,25.1
		c1.9,5.9,3.5,11.9,5.5,17.8c2.1,6.4,4.5,12.8,6.7,19.2c2.6,7.6,5.1,15.3,7.7,22.9c0.4,1.2,0.9,2.4,1.3,3.6
		c1.9,5.6,3.8,11.2,5.7,16.7c1.4,3.9,3,7.7,4.3,11.7c1.4,4.2,2.6,8.5,4,12.8c0.5,1.7,1.5,3.2,2,4.8c1,2.9,1.9,5.7,2.8,8.6
		c0.2,0.5,0.3,1.1,0.5,1.6c2.9,6.1,4.3,12.7,6.5,19c0.5,1.4,1.1,2.8,1.7,4.2c0.4,1,1,2,1.2,3.1c0.8,4.4,2.7,8.3,4.3,12.4
		c1.4,3.6,2.5,7.4,3.8,11.1c0.4,1.1,0.8,2.2,1.2,3.4c0.3,0.9,0.9,1.7,1,2.6c0.3,2.2,1.4,4,2.5,5.9c1.8,2.9,2.6,6.2,2.9,9.6
		c0.2,2.2,0.7,4.2,2.5,5.8c0.6,0.5,1,1.3,1.2,2c1.9,5,3.9,10,5.7,15c1.4,3.7,2.5,7.6,3.8,11.3c0.4,1.2,1.2,2.3,1.7,3.4
		c0.7,1.6,1.2,3.2,1.8,4.9c0.3,0.8,0.4,1.7,0.8,2.5c3.1,5.4,5,11.2,6.6,17.1c0.2,0.6,0.3,1.3,0.5,1.8c3.2,6.9,5.3,14.1,8.7,20.9
		c1.1,2.1,1.4,4.7,2.7,6.6c3.1,4.5,4.7,9.7,6,14.8c1.3,4.9,3.5,9.4,5,14.2c0.2,0.6,0.5,1.2,0.8,1.8c1.7,3.3,3.4,6.7,5.1,10
		c0.1,0.3,0.3,0.6,0.4,0.9c1.5,6.2,4.8,11.6,7,17.5c0.4,1,0.7,2,0.8,3c0.6,4.4,2.7,8.1,4.8,11.9c0.9,1.6,1.5,3.3,2.2,5
		c0.8,2.1,1.3,4.3,2,6.4c0.5,1.3,1,2.7,2.5,3.5c1-2.2,0.2-4.2,0-6.2c-0.1-1.1-0.8-2.1-0.9-3.2c-0.2-1.2-0.1-2.5-0.1-3.7
		c0-1.2-0.1-2.3-0.2-3.5c0-0.2-0.2-0.4-0.2-0.7c-0.2-2.2-0.6-4.3-2.5-5.8c-0.5-0.4-0.8-1.5-0.8-2.2c0.1-3.2-1.2-6.1-1.8-9.1
		c-0.5-2.4-0.9-4.7,0.3-7c0.6-1.2,0.3-2.3-0.8-2.9c-1.6-1-1.9-2.4-2.2-4c-1-5.7-2-11.3-3-16.9c-0.3-1.7-0.6-3.5-0.8-5.2
		c-0.2-1.4,0.3-2.5,1.6-3.2c1.8-0.9,3.1-0.4,3.8,1.5c0.2,0.5,0.3,1.1,0.5,1.6c0.8,3.3,1.6,6.7,2.3,10c0.2,1.2,0.2,2.5,0.1,3.8
		c-0.1,1.9,0.2,3.7,1.3,5.2c1.1,1.5,1.5,3.1,1.4,5c0,0.4,0,0.8,0,1.2c0.1,1.5,0.8,2.4,1.8,2.3c1-0.2,1.9-1.7,1.6-2.8
		c-0.1-0.5-0.2-1.1-0.5-1.6c-0.7-1.1-0.8-2.2-0.7-3.4c0.1-1.5-0.7-2.8-1.7-3.8c-1.3-1.3-1.5-2.7-0.6-4.3c0.7-1.3,0.6-2.6,0.2-3.9
		c-0.6-2-1.1-4-1.5-6c-0.2-0.9-0.2-1.9-0.1-2.9c0.4-2.8,0.1-5.5-1.3-8.1c-0.6-1.1-0.6-2.6-0.6-3.9c-0.1-2-0.2-3.8-1.9-5.2
		c-1.4-1.2-2-0.9-2.6,0.9c-0.6,1.7,0.1,3.2,0.4,4.7c0.4,1.6-0.1,2.6-1.3,3.6c-1.6,1.2-3.1,0.9-3.8-1c-0.7-1.7-1.1-3.5-1.5-5.3
		c-0.4-1.5-0.5-3-0.9-4.5c-0.4-1.8-0.6-3.4,0.5-5.1c0.7-1,0.4-2.1-0.3-3.2c-1.7-2.5-2.7-5.2-2.7-8.3c0-0.2,0-0.3,0-0.5
		c-0.7-4.6-1.3-9.1-2-13.7c-0.7-5.5-1.4-11-2.2-16.6c-0.1-0.8-0.3-1.6-0.4-2.4c-0.2-1.7-0.5-3.5-0.7-5.2c-0.2-1.5-0.5-3-0.6-4.5
		c-0.1-1-0.4-2.1-0.1-3.1c0.4-1.4,0.4-2.6,0.1-4c-0.2-0.9-0.3-2-0.1-2.8c0.6-2.5-0.5-4.5-1.7-6.5c-0.3-0.5-0.7-1.1-0.8-1.7
		c-0.4-2.3-0.8-4.6-1-6.9c-0.1-1.3,0.1-2.7,0.3-4c0.7-3.4,0.7-6.6-1.2-9.9c-1.4-2.3-1.7-5.2-0.5-7.8c0.7-1.4,0.8-2.4-0.4-3.6
		c-1.7-1.7-1.6-4.2-1.7-6.3c-0.2-4.5-0.8-8.9-1.5-13.3c-0.2-1.1-0.2-2.2-0.1-3.3c0.5-6.2-0.6-12.3-1.4-18.4
		c-0.1-0.8-0.3-1.6-0.2-2.4c0.6-5.5-0.5-10.8-0.9-16.2c-0.1-0.9,0-1.8,0.2-2.6c0.4-1.5,1.3-2.3,2.9-2.3c0.6,0,1.3,0.1,1.9,0.2
		c1.2,0,1.8-0.6,1.9-1.7c0.1-1.2-0.6-2.3-1.7-2.1c-2,0.3-2.6-0.8-3.3-2.3c-0.6-1.4-1.2-2.8-1.2-4.3c0-0.3-0.1-0.7-0.2-0.9
		c-1.5-1.5-1.2-3.4-1.3-5.2c-0.3-4.8-0.7-9.7-1-14.5c-0.5-8-1-16.1-0.8-24.2c0.1-2.1,0-4.2-0.1-6.2c0-0.6,0-1.1-0.2-1.7
		c-0.6-1.9-0.4-3.9-0.4-5.9c0-3.4,0-6.7,0.6-10c0.1-0.7-0.3-1.4-0.3-2.1c0-1.6,0-3.2,0-4.7c0-1.4,0-2.8,0-4.3c0-1.8-0.1-3.7-0.1-5.5
		c0.1-3.7,0.3-7.3,0.4-11c0-0.8-0.4-1.5-0.7-2.3c-0.5-1.3-0.6-2.5,0.2-3.7c0.8-1.2,1-2.7,1-4.1c-0.1-1.9-0.2-3.8,0-5.8
		c0.3-5.1,0.4-10.2,0.3-15.3c0-1.6,0.6-3.3,0.8-5c0.1-1.1,0-2.2-0.3-3.2C230.6,113.1,230.1,111.4,231.5,109.8z M278.7,547.6
		c0,0.6,0.1,1.2,0.1,1.8c0,1.4,0.5,2.4,1.7,2.9c1.1-0.8,1.1-1.7,0.7-2.6C280.7,548.7,280,547.6,278.7,547.6c0.3-1.2,0.7-2.5,0-3.8
		c-0.7-1.5-1-3.1-1.3-4.8c-0.3-1.7-0.7-3.8-2.6-4.8c-1.1,0.7-1.1,1.7-0.8,2.6c0.5,1.4,1.3,2.7,1.9,4.1c0.3,0.6,0.7,1.3,0.7,1.9
		C276.7,544.8,277.4,546.3,278.7,547.6z M263.9,527.6c1.5-1.5,1.5-3,0.7-4.7c-0.5-1.1-1-2.1-1.5-3.2c-0.8-1.5-1-3.3-2.9-4.2
		c-0.5-0.2-0.5-1.4-0.6-2.1c-0.2-1.1-0.2-2.2-0.5-3.3c-0.4-1.6-1.1-3.1-1.7-4.7c-0.6-1.6-1.1-3.3-1.9-4.9c-0.2-0.5-1.1-1-1.6-1
		c-0.4,0-1.1,0.6-1.3,1.1c-0.6,1.3-0.8,2.7-0.1,4.1c0.8,1.7,1.3,3.6,2.1,5.3c0.7,1.7,1,3.5,2.5,4.7c1.8,1.4,0.2,3.8,1.4,5.4
		c0.2,0.3,0.3,0.7,0.4,1.1c0.5,1.2,1.2,2.3,1.5,3.5C261,526.4,262.3,527.1,263.9,527.6z M247.7,521.5c0.3-0.5,0.6-0.8,0.5-1
		c-0.4-1.6-0.9-3.2-1.5-4.8c-0.8-2-1.7-3.9-2.5-5.9c-0.8-2.1-1.3-4.2-2.9-6c-0.5-0.5-0.6-1.5-0.8-2.2c-0.5-1.7-0.9-3.4-1.6-4.9
		c-1.5-3.2-3-6.5-3.8-10c-0.1-0.5-0.4-0.9-0.5-1.3c-0.5-1.4-1-2.8-1.6-4.2c-0.3-0.7-0.5-1.3-0.9-1.9c-0.2-0.2-0.8-0.4-1-0.3
		c-0.4,0.2-0.7,0.6-0.8,1c-0.1,0.3,0,0.8,0.2,1.2c1.1,2.9,2.2,5.8,3.3,8.7c1.1,2.7,2.7,5.2,2.8,8.3c0,1.8,0.5,3.9,1.9,5.2
		c1.8,1.7,2.4,4.1,3.2,6.2c1.5,3.9,3.5,7.5,5.2,11.2C247,521,247.3,521.1,247.7,521.5z M221.7,427.8c0.1,0.4,0.2,0.9,0.3,1.4
		c0.7,2.2,1.5,4.4,2.2,6.5c0.2,0.6,0.5,1.3,1,1.6c0.6,0.4,1.5,0.9,2.1,0.7c0.6-0.2,1.1-1,1.4-1.7c0.2-0.4,0.1-1.1-0.1-1.6
		c-0.9-2.7-1.8-5.4-2.9-8.1c-1.6-3.8-3.3-7.6-5-11.4c-0.2-0.5-0.4-1-0.8-1.5c-0.2-0.2-0.8-0.4-1-0.3c-0.3,0.1-0.5,0.6-0.6,0.9
		c-0.1,0.3,0.1,0.6,0.1,0.9c0.2,1.4,0.5,2.8,0.5,4.2c0,1.2,0.2,2.2,1.1,3C221.5,424.1,222.4,425.6,221.7,427.8z M252.3,387
		c-0.7,0.7-1.2,1.3-1.7,1.9c-1.1,1.3-1,2.5,0.6,3.2c1.4,0.6,1.9,1.7,2,3c0.1,1.7,0.1,3.3,0.2,5c0.1,1.5,0.3,3,0.6,4.5
		c0.2,1.2,0.7,2.3,0.8,3.4c0.2,1.5,1,2.4,2.3,2.9c0.9-1.5,0.9-1.5,0.3-2.9c-0.9-2.1-1.5-4-1.1-6.4c0.4-2.3,0-4.7-0.4-7.1
		c-0.2-1.5-0.8-3-1.2-4.6C254.5,388.7,254.1,387.4,252.3,387z M241.6,474.4c1.4,0,2.5-1.4,2.1-2.5c-0.7-1.9-1.5-3.7-2.5-5.4
		c-0.5-0.9-1.8-3.1-1.9-4.1c0-0.2-0.1-0.5-0.2-0.7c-0.7-2-1.5-4-2.2-6c-0.2-0.4-0.4-0.9-0.7-1.2c-0.5-0.6-1.6-0.5-1.8,0.1
		c-0.3,1.1-0.9,2.4-0.6,3.4c0.5,1.6,1.2,3.4,2.4,4.6c1.5,1.5,1.8,3,1.4,4.9c-0.1,0.4-0.2,1,0,1.4c0.5,1.3,1.1,2.5,1.6,3.7
		C239.8,473.6,240.6,474.2,241.6,474.4z M249.2,523.6c-1.1,2.5-1,4.9,0.2,6.9c0.9,1.5,2.2,2.8,2.7,4.5c1.5,5.3,4.4,10,6.7,14.9
		c0.4,0.9,1.1,0.7,1.8,0.1c-0.2-1.1-0.3-2.2-0.7-3.2c-1.6-3.5-3.4-7-5.1-10.5c-0.3-0.6-0.7-1.3-0.9-1.9c-0.9-2.7-1.6-5.5-2.5-8.2
		C251,525.2,250.6,524.1,249.2,523.6z M212.2,436.6c0.9,3.5,2,6.9,3.8,10c0.6,1,1.1,2.1,1.5,3.2c1.2,3,2.3,6.1,3.5,9.1
		c0.2,0.6,0.6,1.1,1.1,1.5c0.3,0.2,0.9,0.3,1.3,0.1c0.3-0.1,0.5-0.6,0.5-1c0-0.5-0.2-1.1-0.4-1.6c-0.6-1.5-1.3-2.9-1.7-4.4
		c-0.6-2.1-1.9-3.7-3.2-5.4c-0.4-0.5-0.7-1.2-0.8-1.8c-0.5-3.1-1.2-6.2-3.3-8.8C214,436.7,213.7,435.7,212.2,436.6z M199.4,371.9
		c0.6-0.4,1-0.6,1.1-0.9c0.9-1.8,1.7-3.7,0.8-5.7c-1.1-2.5-2.3-5-3.6-7.4c-0.5-0.9-1.8-0.9-2.4,0c-0.7,1-0.9,2.2-0.5,3.4
		c1,2.6,1.9,5.2,3,7.8C198.3,370,198.8,370.8,199.4,371.9z M419,307.9c0.2,0,0.4,0,0.7,0.1c0.1-0.2,0.4-0.4,0.4-0.6
		c0.2-2.9,0.6-5.9,0.3-8.8c-0.2-2-0.3-3.7,0.3-5.6c0.2-0.7-0.1-1.7-0.3-2.5c-0.1-0.4-0.7-0.9-1-0.8c-0.5,0.1-1.1,0.5-1.2,0.9
		c-0.2,1.1-0.2,2.2-0.3,3.3c-0.1,1,0,2.2-0.6,2.9c-0.7,0.8-0.8,1.5-0.8,2.4c0,1.2,0,2.4,0,3.6c0,0.9,0,1.7,1.1,2.1
		c0.4,0.2,0.7,1,0.9,1.5C418.7,306.7,418.9,307.3,419,307.9z M272.1,494.1c-0.8,1.8-1.6,3.3-1,5.2c0.7,2.4,1.4,4.9,2.2,7.3
		c0.3,1,0.4,2.3,1.9,2.4c0.8,0.1,1.9-2.1,1.8-3.4c0-0.3-0.2-0.6-0.2-0.9c-0.6-2-1.2-4-1.7-6C274.6,496.9,273.6,495.6,272.1,494.1z
		 M273.3,554.3c2.2-1.8,2.1-4.1,1.4-6.2c-1.1-3.1-1.7-6.8-5.7-7.8c-1.2,1-0.6,2-0.3,3c0.8,2.3,1.5,4.7,2.4,7
		C271.6,551.7,272.2,553.1,273.3,554.3z M275.7,571.9c-0.1-0.9,0.1-1.6-0.2-2.2c-1-2.5-2.1-5-3.2-7.5c-1.2-2.7-2.5-5.3-3.7-8
		c-0.2-0.4-0.3-1-0.6-1.3c-0.3-0.3-0.9-0.5-1.2-0.4c-0.3,0.1-0.6,0.6-0.7,1c-0.1,0.3,0.1,0.8,0.2,1.1c2.2,4.9,4.4,9.9,6.7,14.8
		C273.4,570.6,274.1,571.5,275.7,571.9z M283.7,605.8c0.8-1.5,0.6-2.6,0.1-3.8c-0.6-1.6-1.2-3.3-1.8-4.9c-0.3-0.8-0.6-1.6-1-2.4
		c-1.5-2.7-3.1-5.3-4.7-7.9c-0.4-0.6-0.6-1.3-1.1-1.8c-0.2-0.2-0.7-0.2-1.7-0.5c1.2,2.4,1,4.8,2.9,6.2c1.5,1.2,2,2.8,2.3,4.5
		c0.4,3,1.7,5.8,3.2,8.4C282.3,604.3,283,604.9,283.7,605.8z M294.8,581.5c-0.7-1.6-1.7-2.9-2-4.4c-0.7-3.5-1-7.1-2.6-10.3
		c-0.1-0.3,0-0.7-0.1-0.9c-0.4-1.1-0.7-2.3-1.8-3c-1.2,0.6-1.5,1.4-1.1,2.6c0.8,2.6,0.6,5.6,2.5,7.9c0.3,0.3,0.4,0.9,0.5,1.3
		c0.8,2.2,1.5,4.5,2.3,6.7C293,582.3,293.3,582.3,294.8,581.5z M279.7,534.7c0.7,1.1,1.2,2.2,2,3c0.9,0.9,1,1.8,0.7,3
		c-0.8,2.9-0.3,5.7,0.8,8.4c0.2,0.5,1,1,1.4,0.9c0.4-0.1,1-0.8,1.1-1.3c0.2-0.7,0.2-1.4,0-2.1c-0.4-2.1-0.9-4.1-1.5-6.2
		c-0.2-0.7-0.7-1.4-0.9-2.1c-0.2-0.6-0.6-1.2-0.5-1.8c0.3-1.6-0.8-2.4-1.8-3.5C280.5,533.6,280.1,534.1,279.7,534.7z M776,444.2
		c3.5-2.6,3.6-5.3,0.5-7.5c-0.6-0.4-1-1-1.5-1.4c-0.4-0.3-0.9-0.7-1.3-0.7c-0.8,0.1-0.7,0.8-0.7,1.5
		C773.2,439.1,774.5,441.6,776,444.2z M275,557.1c-0.8,0.7-0.5,1.4,0,2.1c1.5,2.1,2.6,4.3,3.1,6.9c0.3,1.4,1.1,2.6,1.6,4
		c0.3,0.7,0.9,1.1,1.5,0.6c0.4-0.3,0.6-1,0.8-1.5c0.1-0.2-0.2-0.6-0.5-0.8c-1.3-0.7-1.2-1.9-1.3-3.1c-0.1-0.9-0.3-1.8-0.6-2.7
		C278.9,560,277.1,558.5,275,557.1z M249.1,370.9c1,0.4,1.7,0.2,2-0.8c0.4-1,0.8-2.1,1.2-3.1c0.1-0.3,0.2-0.7,0.1-0.9
		c-0.7-1.6-1.4-3.2-2.3-4.7c-0.6-1-1.8-0.7-2.1,0.5c-0.1,0.4-0.1,0.8-0.1,1.2C248.3,365.7,248.7,368.3,249.1,370.9z M291,620.2
		c0.2,5.1,2.6,10.6,5.2,12.7c-0.3-2.2-0.6-4.4-1-6.5c-0.2-0.8-0.6-1.7-1.1-2.3C293.2,622.7,292,621.5,291,620.2z M287.4,561.4
		c1.7-0.9,1.5-2.3,1.2-3.5c-0.6-2.2-1.4-4.4-4.1-5.5c-0.2,1.2-0.7,2.2-0.4,2.9C284.8,557.5,285.6,559.7,287.4,561.4z M239.8,243.1
		c-0.9,0.6-1.7,0.7-1.7,1.1c-0.8,3.2-1.2,6.5,0.1,9.6c0.1,0.3,0.5,0.5,0.9,0.8c0.3-0.5,0.6-0.8,0.7-1.1
		C239.8,250.2,239.8,247,239.8,243.1z M188.8,340.4c-0.3,0.4-0.9,0.8-1,1.3c-0.4,1.5,1.7,5.5,3.1,6.1c0.5,0.2,1.3,0,1.7-0.3
		c0.3-0.2,0.6-1.1,0.4-1.4c-1.2-1.9-2.5-3.8-3.8-5.6C189.3,340.4,189.1,340.4,188.8,340.4z M220.8,440.3c0.4-0.3,0.6-0.4,0.6-0.5
		c0-0.4,0.1-0.8-0.1-1.2c-1.1-2.7-2.2-5.4-3.4-8.1c-0.1-0.3-0.7-0.5-1.1-0.8c-0.3,0.4-0.6,0.9-0.7,1.3c-0.1,0.3,0.1,0.8,0.3,1.1
		c0.9,2,1.8,4.1,2.8,6C219.6,439,220.3,439.6,220.8,440.3z M224.8,465.3c0,3.6,1,6.4,3.1,9C230.1,470.9,229.3,468.4,224.8,465.3z
		 M206.1,383.9c0.9,2.9,1.5,5.2,2.3,7.6c0.2,0,0.5,0.1,0.8,0.2c2.2,0.2,2.8-0.5,1.9-2.6C210.1,387,208.2,385.7,206.1,383.9z
		 M393.2,316.6c-2.9,1.6-1,5.2,2.5,6.2C396.9,320.5,396.1,318.5,393.2,316.6z M296.3,239.8c0.6-1.3,1.2-2.4,1.5-3.6
		c0.2-0.6,0.1-1.5-0.1-2.1c-0.2-0.6-0.9-1.3-1.4-1.4c-0.5,0-1.3,0.7-1.5,1.2c-0.6,1.6-0.5,3.3,0.2,4.9
		C295.3,239.1,295.8,239.3,296.3,239.8z M111.6,275.4c-0.3-3.4-2.1-6.3-2.7-9.5c-0.1-0.6-0.7-1.1-1-1.7c-0.2,0.1-0.3,0.1-0.5,0.2
		c0,0.8,0,1.5,0.2,2.2c0.7,2.4,1.5,4.8,2.3,7.2C110,274.5,110.2,275.4,111.6,275.4z M265.8,564.3c-0.1-1.2-0.1-2-0.2-2.8
		c-0.2-1.8-0.6-3.6-1.9-5c-0.3-0.3-0.9-0.4-1.6-0.6C262,559.5,263.3,562,265.8,564.3z M271.4,573.6c-0.3-1.7-1.1-3.2-2.4-4.4
		c-0.4-0.3-1.2-0.6-1.4-0.5c-0.4,0.3-0.9,1.2-0.7,1.5c0.9,1.5,1.9,3,3.1,4.4C270.4,575.2,271.3,574.6,271.4,573.6z M247.6,486.5
		c-1.3,3-0.9,4.4,1.5,5.4c1.6-1.5,1.7-1.9,1-3.7C249.7,487.1,249.3,486,247.6,486.5z M279.3,518.2c-0.2-0.5-0.2-1.1-0.5-1.5
		c-0.3-0.5-0.9-1-1.4-1c-0.5,0-1,0.6-1.4,1c-0.7,0.9-0.5,2,0.1,2.9c0.3,0.5,0.9,1.2,1.2,1.2c0.6-0.1,1.2-0.6,1.6-1.1
		C279.2,519.3,279.1,518.7,279.3,518.2z M246.1,335.3c2.2-2.9,2.1-5-0.1-6.6C243.9,330.9,243.8,333.5,246.1,335.3z M102.5,250.2
		c1.1-1.1,0.7-2,0.4-2.9c-0.4-1.2-0.9-2.4-1.3-3.6c-0.4-1.2-1.1-1-2.1-0.4C100.5,245.7,100.7,248.2,102.5,250.2z M260.2,533
		c-0.3-1.1-0.5-1.9-0.8-2.7c-0.2-0.3-0.8-0.7-1.1-0.7c-0.4,0.1-1,0.7-1,1c-0.1,0.8,0.1,1.7,0.4,2.5c0.2,0.8,0.4,2,1.5,1.7
		C259.6,534.7,259.9,533.6,260.2,533z M279.1,525.4c-2.1,2-1.7,4.2,0.9,6.2C281.3,528.9,281.1,527.3,279.1,525.4z M245.9,345.1
		c-0.5,2.2-0.4,4.1,0.5,6c1.4-0.2,1.6-0.2,1.6-1.1c0-1.6-0.1-3.1-0.2-4.8C247,345.2,246.5,345.2,245.9,345.1z M774.1,416
		c1.5-1.3,1.6-1.3,1.3-2.4c-0.4-1.4-0.8-2.7-2.8-3.1C772.2,412.8,772.7,414.5,774.1,416z M287,599.3c-0.5,1.5,0.1,4,1.2,4.9
		c0.6,0.5,1.3,0.2,1.4-0.6C289.8,602.4,288.4,600,287,599.3z M190.1,376c-1.6,1.9-1.4,3,0.5,4.8C192.3,379.5,192.2,378.2,190.1,376z
		 M124.2,363.4c0,2,0.8,3.2,1.8,3.1c0.8-0.1,1-0.7,1-1.4c0-1.4-0.9-2.8-1.8-2.6C124.8,362.6,124.4,363.2,124.2,363.4z M274.9,584
		c-0.5-1.6-0.9-2.9-1.3-4.1c-0.1-0.4-0.3-0.9-0.7-1.2c-0.3-0.3-0.8-0.3-1.2-0.4c-0.1,0.4-0.4,0.9-0.3,1.2c0.4,1,0.9,2,1.4,3
		C273.3,583.1,273.7,583.8,274.9,584z M272.6,491.3c-0.4-1-0.7-1.9-1.1-2.6c-0.1-0.2-0.7-0.3-1-0.3c-0.2,0-0.6,0.4-0.5,0.7
		c0,0.9,0.1,1.7,0.4,2.5c0.1,0.4,0.9,0.9,1.1,0.9C271.9,492.3,272.2,491.7,272.6,491.3z M230.2,449.6c0.9,0.5,1.8,1.1,2.9,1.8
		c0.4-1,1-1.8,0.9-2.5c0-0.4-1-1-1.6-1.2C231.4,447.5,230.7,448.2,230.2,449.6z M245.3,343.4c0.6-0.3,1.3-0.5,1.3-0.8
		c0.1-1,0.1-2,0-3c-0.1-1.4-0.9-1.4-2-0.9C244.8,340.2,245,341.6,245.3,343.4z M243.1,305.1c-1.3,1.3-1.3,2.6-0.1,3.4
		c0.7,0.5,1.5,0.2,1.5-0.7C244.6,306.7,244.2,305.8,243.1,305.1z M287.3,614.9c0.2-0.1,0.4-0.2,0.6-0.3c-0.2-0.9-0.2-1.9-0.5-2.8
		c-0.1-0.3-0.8-0.4-1.3-0.6c-0.1,0.5-0.6,1.1-0.4,1.4C286.1,613.4,286.7,614.1,287.3,614.9z M264.8,533.9c0.2-0.1,0.5-0.1,0.7-0.2
		c0-0.7,0.2-1.4,0.1-2c-0.1-0.4-0.7-0.6-1.1-0.9c-0.2,0.4-0.7,0.8-0.6,1.1C264.1,532.6,264.5,533.2,264.8,533.9z M216.4,408.1
		c-0.2,0.8-0.5,1.3-0.4,1.6c0.2,0.5,0.7,1,1.1,1.4c0.1,0.1,0.7-0.2,0.7-0.3c0-0.6,0-1.2-0.2-1.7C217.5,408.7,217,408.6,216.4,408.1z
		 M545.2,304.8c-0.9-0.5-1.4-0.9-1.9-1c-0.8-0.1-1.1,0.5-1,1.2c0.1,0.8,0.5,1.2,1.2,1.1C544,306,544.4,305.5,545.2,304.8z
		 M258.8,423.4c0.7-1.5,0.6-2.3-0.1-2.6c-0.2-0.1-0.7,0-0.8,0.2c-0.5,1-0.2,1.8,0.7,2.4C258.7,423.4,258.8,423.4,258.8,423.4z
		 M195.1,388.9c-0.3-0.5-0.4-0.9-0.6-1.1c-0.4-0.4-1-0.6-1.5-0.8c-0.1,0-0.5,0.5-0.5,0.6c0.3,0.6,0.6,1.2,1.1,1.6
		C193.8,389.3,194.4,389,195.1,388.9z M778.1,420.7c-0.7-0.4-1.2-0.8-1.7-1c-0.1,0-0.6,0.5-0.6,0.6c0.4,0.4,0.7,0.9,1.2,1.2
		C777.1,421.6,777.5,421.1,778.1,420.7z M205.8,398.4c-0.4-0.5-0.7-0.8-1-1.1c-0.3,0.2-0.8,0.5-0.7,0.7c0.1,0.4,0.4,0.8,0.7,1
		C204.9,399.1,205.4,398.7,205.8,398.4z M772.3,429.1c-0.5-0.3-0.9-0.7-1-0.7c-0.3,0.2-0.7,0.6-0.8,1c0,0.2,0.6,0.7,0.7,0.7
		C771.6,429.9,771.8,429.5,772.3,429.1z M153.1,392.1c0.6,0.8,0.4,1.9,1.5,2.4C154.9,391.9,154.9,391.9,153.1,392.1z M252.5,377.8
		c-0.7,0.9-0.9,1.7-0.1,2.6C253.4,379.5,253.4,378.8,252.5,377.8z M223.2,443.3c-0.3-1.2-0.6-1.9-1.8-1.7
		C221.3,442.7,221.9,443,223.2,443.3z M250.1,509.7c-0.3-0.3-0.5-0.5-0.7-0.7c-0.2,0.3-0.5,0.5-0.6,0.8c0,0.1,0.4,0.5,0.6,0.5
		C249.5,510.3,249.7,510,250.1,509.7z M228.5,458.1c-0.2,0.4-0.4,0.7-0.4,0.9c0,0.1,0.3,0.3,0.4,0.5c0.2-0.2,0.4-0.5,0.5-0.7
		C229.1,458.6,228.8,458.4,228.5,458.1z M299.8,609.1c-0.6,1.2-0.2,1.7,0.8,2.1C301,610.2,300.7,609.6,299.8,609.1z M245,497
		c-0.4-0.2-0.6-0.4-0.9-0.4c-0.1,0-0.3,0.3-0.4,0.5c0.2,0.2,0.4,0.4,0.7,0.5C244.4,497.6,244.6,497.3,245,497z M142.3,359.1
		c-0.4-0.2-0.6-0.4-0.8-0.5c-0.1,0.2-0.4,0.5-0.4,0.7c0,0.2,0.3,0.4,0.5,0.6C141.8,359.7,142,359.5,142.3,359.1z M768.2,397.9
		c-0.2-0.2-0.4-0.3-0.6-0.4c-0.1,0.2-0.3,0.4-0.3,0.5c0,0.2,0.3,0.3,0.4,0.5C767.9,398.2,768,398.1,768.2,397.9z M517.9,510.2
		c0.2-0.3,0.3-0.4,0.4-0.6c0-0.1-0.2-0.3-0.3-0.3c-0.2,0-0.4,0.2-0.5,0.3C517.6,509.7,517.8,509.9,517.9,510.2z M160.3,295.8
		c-0.3-0.2-0.5-0.5-0.7-0.5c-0.1,0-0.3,0.3-0.5,0.5c0.2,0.2,0.4,0.4,0.7,0.5C159.8,296.4,160,296.1,160.3,295.8z"/>
	<path class="st0" d="M420.6,345.4c0.3,1.7,1.2,2.6,0.5,3.9c-0.1,0.2,0.3,0.7,0.4,1.1c0.3,1,0.6,2.1,0.7,3.2
		c0.1,0.9-0.4,1.7-1.3,1.7c-0.9,0-1.8-0.5-1.8-1.5c-0.1-2-0.1-4,0.1-5.9C419.1,347.1,419.9,346.5,420.6,345.4z"/>
	<path class="st0" d="M543.4,289.2c0,0.9,0,1.9,0,2.8c0,0.8-0.5,1.5-1.3,1.3c-0.5-0.1-1.3-0.7-1.3-1.1c-0.2-2.1-0.2-4.2-0.1-6.4
		c0-0.4,0.8-0.8,1.2-1.2c0.5,0.5,1.2,0.9,1.3,1.4c0.2,1,0.1,2,0.1,3.1C543.3,289.2,543.3,289.2,543.4,289.2z"/>
	<path class="st0" d="M784.6,431.3c1.2,1.2,1.9,2.4,1.9,3.9c0,0.5-0.4,1.2-0.7,1.3c-0.4,0.1-1.1-0.1-1.4-0.4
		C782.6,434.6,782.7,433.4,784.6,431.3z"/>
	<path class="st0" d="M422.4,375.4c1.4,1,1.9,1.9,1.8,3.1c0,0.7,0,1.5-1.1,1.5c-0.9,0-0.9-0.7-0.9-1.4
		C422.3,377.7,422.4,376.7,422.4,375.4z"/>
	<path class="st0" d="M799.6,465.1c0.5,1.2,0.9,2.1,1.4,3.6C798.9,466.7,798.9,466.7,799.6,465.1z"/>
	<path class="st0" d="M422.2,374.8c-0.3-0.6-0.7-1-0.7-1.3c0-0.3,0.6-0.5,0.9-0.8c0.2,0.4,0.6,0.7,0.6,1.1
		C422.9,374.1,422.5,374.4,422.2,374.8z"/>
	<path class="st0" d="M790.1,446.6c-0.1-0.1-0.3-0.2-0.3-0.3c0-0.2,0.2-0.3,0.3-0.4c0.1,0.1,0.2,0.3,0.2,0.4
		C790.3,446.4,790.1,446.5,790.1,446.6z"/>
</g>
</svg>
