<?xml version="1.0" encoding="utf-8"?>
<!-- Generator: Adobe Illustrator 23.0.6, SVG Export Plug-In . SVG Version: 6.00 Build 0)  -->
<svg version="1.1" id="Layer_1" xmlns="http://www.w3.org/2000/svg" xmlns:xlink="http://www.w3.org/1999/xlink" x="0px" y="0px"
	 viewBox="0 0 1414.2 593.5" style="enable-background:new 0 0 1414.2 593.5;" xml:space="preserve">
<style type="text/css">
	.st0{fill:#95D9F2;}
</style>
<g>
	<path class="st0" d="M40.7,547.2c-0.9-0.9-0.6-1.8-0.3-2.9c0.4-1.5,0.8-3.1,1.1-4.6c0.3-1.7,0.8-3.2,1.8-4.6c0.6-0.8,0.8-2,1-3.1
		c0.2-1.2-0.4-1.9-1.4-2.5c-0.4-0.3-0.4-1.3-0.6-1.9c-0.2-1.2-0.4-2.3-0.6-3.5c-0.2-1.1-0.3-2.2-0.4-3.3c-0.2-2-0.1-4-0.4-5.9
		c-0.3-1.8-0.1-3.7-0.8-5.6c-0.3-0.8,0.3-2,0.4-3c0.6-4.1,1.1-8.2,1.7-12.3c0.1-0.6,0.1-1.1,0.2-1.7c0.8-4.1,1.5-8.2,2.3-12.2
		c0.6-2.7,1.4-5.4,2-8.1c0.2-0.7,0.3-1.4,0.3-2.1c-0.5-4.6,0.9-8.9,2.2-13.1c0.3-1.1,0.6-2.3,0.9-3.5c0.5-2.3,0.7-4.6,2-6.6
		c0.3-0.5,0.4-1.2,0.5-1.8c0.7-3,1.3-6,2.1-9c0.3-1.2,0.9-2.4,1.3-3.6c0.3-1.1,0.3-2.4,0.6-3.5c0.6-2.4,1.2-4.8,1.9-7.2
		c0.7-2.5,1.6-5,2.3-7.5c0-0.2,0.1-0.3,0.1-0.5c0.3-2.8,0.6-5.7,0.9-8.5c0-0.4,0-0.8-0.1-1.2c-1.1-0.2-1.3,0.7-1.5,1.3
		c-1.6,4.4-3.2,8.9-4.6,13.3c-1.3,4-2.3,8.1-3.4,12.2c-0.7,2.9-1.4,5.7-2.1,8.6c-0.8,3.3-1.6,6.5-2.4,9.8c-1.5,6-3,11.9-4.5,17.9
		c-0.7,2.9-1.4,5.7-2.1,8.6c-0.2,0.7-0.2,1.5-1.2,2.3c0-2-0.2-3.6,0-5.2c0.5-4,1.1-7.9,1.8-11.8c0.1-0.8,0.5-1.5,0.8-2.3
		c0.4-1.3,0.9-2.6,1.1-3.9c0.6-3.5,1-7,2.5-10.2c1-2.2,0.7-4.5,1-6.8c0.2-1.6,0.2-3.3,0.8-4.7c1.2-2.9,1.7-6.1,3.4-8.9
		c0.8-1.2,1-2.8,1.2-4.3c0.1-1.3,0.4-2.4,1.1-3.6c0.7-1.2,1-2.6,1.3-4c0.2-0.7,0.2-1.4,0.3-2.1c0-0.5,0.2-1.3-0.1-1.6
		c-2.2-2.2-1.3-4.7-0.8-7.1c0.5-2.6,1.6-5,2.3-7.5c1-3.4,2.1-6.7,3-10.1c1.1-3.9,1.9-7.9,3.2-11.8c0.7-2.1,1.4-4.2,1.4-6.5
		c0-0.3,0.1-0.7,0.3-0.9c1.7-2.2,1.9-4.8,2.4-7.4c0.5-2.7,1.5-5.2,2.3-7.8c0.4-1.4,0.4-2.8-0.4-4.2c-0.8,0.1-1.6,0.3-2.7,0.4
		c0.2-1.1,0.1-2,0.5-2.7c1.3-2.2,1.1-4.6,1.7-6.9c0.3-1.3,0.8-2.6,1.3-3.8c0.8-2.2,1.7-4.3,2.5-6.5c1.1-3,2.2-6,3.2-9
		c0.3-0.9,0.6-1.8,0.8-2.8c0.5-2.2,0.8-4.4,2.2-6.3c0.3-0.4,0.5-1,0.5-1.6c-0.1-1.9,0.8-3.3,1.7-4.9c0.8-1.5,1.3-3.3,2-4.9
		c0.5-1.2,1.1-2.3,1.6-3.5c0.8-1.9,1.6-3.8,2.5-5.7c0.3-0.7,0.6-1.5,1-2.2c0.2-0.5,0.7-1,0.6-1.5c-0.3-3.9,1.7-7.3,3.1-10.7
		c2-5.3,4.4-10.5,6.7-15.7c1.2-2.7,2.6-5.3,4-7.9c0.3-0.5,1-1,1.6-1.2c1-0.2,1.5-0.7,1.6-1.7c0.2-1.7,1.6-3.2,0.9-5.1
		c1.1-3.4,1.6-7.1,3.3-10.4c1.9-3.7,3.7-7.4,5.5-11.2c3.7-8.2,7.3-16.5,11-24.8c0.4-0.9,0.8-1.7,1.3-2.6c1.9-3.4,3.8-6.9,5.6-10.3
		c2.8-5.3,5.8-10.4,8.5-15.8c1.3-2.7,3.3-5.1,3.6-8.3c0-0.3,0.2-0.6,0.4-0.9c2.1-3.4,4.2-6.9,6.3-10.3c0.3-0.4,0.6-0.8,0.7-1.2
		c1.1-4.1,3.8-7.3,6.1-10.8c1.9-2.8,3.8-5.7,5.6-8.6c0.4-0.6,0.6-1.2,0.8-1.9c-1.5-0.8-2.3,0.2-3.4,0.7c1.2-1.4,2-3.1,2.5-4.9
		c0.3-0.9,1.2-1.7,2-2.3c1.3-1,2.3-2.1,2.9-3.7c0.5-1.2,1.5-2.3,2.3-3.3c0.9-1.1,2-2,3-3.1c2.5-2.8,4.8-5.7,7.3-8.5
		c4.2-4.6,9.2-8.2,14.9-10.7c1.5-0.7,3-1.6,4.4-2.4c1-0.6,1.7-0.6,2.6,0.3c0.6,0.6,1.4,0.9,1.8,1.6c1,1.4,2.2,1.4,3.3,0.6
		c2.6-1.7,5.6-1,8.4-1.5c0.6-0.1,1.5,0.6,1.9,1.1c0.8,0.9,1.6,1.1,2.8,0.7c2.7-0.7,5.4-0.3,8-0.2c1.3,0.1,2.5,0.2,3.8,0.3
		c0.3,0,0.6,0,1,0c5.1,0.7,10.3,1.3,15.4,2c0.5,0.1,1.1,0.3,1.6,0.5c1.7,0.5,3.5,1.1,5.2,1.6c2.1,0.5,2.4,0.9,2.2,3.1
		c-0.1,0.9,0.1,1.9,0.5,2.7c1,2.1,1.1,4.3,1.5,6.5c0.8,4.2,0.2,8.4,0.5,12.6c0.4,5.3,1.2,10.6,2,15.9c0.2,1.6,0.2,3-0.9,4.2
		c-0.4,0.4-0.6,1.1-0.6,1.7c-0.1,3-0.1,6.1-0.3,9.1c-0.3,3.4-0.9,6.8-1.2,10.2c-0.2,2.5-0.2,5.1-0.3,7.6c0,0.9,0.1,1.8-0.1,2.6
		c-0.5,1.8-0.4,3.6-0.3,5.4c0,3.3-0.6,6.6-0.9,10c-0.1,1.3-0.4,2.5-0.5,3.8c0,3.4,0,6.9,0,10.3c0,1,0.2,1.9,0.2,2.9
		c0,0.8-0.1,1.6-0.3,2.8c-1-0.5-1.7-0.9-2.5-1.3c-0.5,0.8-0.9,1.6-1.5,2.6c-0.8-0.7-1.3-1.3-2.2-2c-0.1,0.7-0.3,1.2-0.3,1.7
		c-0.2,2.9-0.4,5.7-0.4,8.6c0,3.1,0.2,6.2,0.3,9.3c0.1,1.2-0.1,2.3-1.3,3.3c-1.1-1.4,0.1-3.4-1.7-4.5c-0.7,1.8-1.6,3.4-1.5,5.4
		c0.5,9.5,1,19,1.4,28.5c0.2,5.9,0.4,11.8,0.5,17.7c0.1,6.1,0.2,12.2,0.3,18.2c0,0.7-0.1,1.3-0.2,2.2c-1.4-0.8-1.4-1.9-1.5-2.9
		c-0.1-2.3-0.2-4.6-0.3-6.9c0-0.8-0.3-1.5-0.4-2.6c-2,1.2-3.3-0.1-4.7-1c-1,1.5-1.5,2.9-0.2,4.6c0.5-0.3,0.9-0.6,1.3-0.9
		c1.1-0.7,2-0.5,2.4,0.7c0.2,0.7,0.2,1.4,0.2,2.1c0,5,0.1,10.1-0.1,15.1c-0.1,2.3-0.9,4.6-0.1,6.9c0,0.1,0,0.3-0.1,0.5
		c-0.1,0.1-0.2,0.2-0.4,0.4c-1.1-0.5-1.1-1.6-1.4-2.5c-0.2-0.7-0.5-1.5-1.4-1.2c-0.4,0.1-0.8,1-0.7,1.5c0.1,2.8,0.2,5.6,0.4,8.3
		c0,0.3,0.1,0.6,0.1,0.9c0.8,2.7,0.7,2.7,0.3,5.1c-0.1,0.8,0,1.6,0.3,2.5c1.6-1.5,0.8-4.5,3.5-5.4c0.3,0.3,0.5,0.6,0.7,0.9
		c0.2,0.3,0.4,0.6,0.9,1.4c1.2-2.5,0.4-5,1.2-7.5c1.1,1.7,1.3,3.3,1.3,4.9c0.1,3.9,0.1,7.8,0.2,11.8c0.1,3,0.2,6.1,0.2,9.1
		c0,1.4-0.1,2.9-0.2,4.3c0,0.6-0.1,1.3,0,1.9c0.9,8,0.6,16,1.1,23.9c0.3,4.9,0.6,9.7,0.5,14.6c-0.1,3-0.2,6-0.3,9.4
		c-1.2-1-0.1-2.6-1.5-3c-1.8,2.7-1.6,5,0.8,7c1,0.8,1.4,1.7,1.4,2.9c0.2,3.9,0.3,7.8,0.5,11.7c0,0.8,0.3,1.6,0.5,2.4
		c1.4-0.2,1.7-1.1,1.8-2c0.1-1-0.1-2.1,0-3.1c0-1.1,0-2.3,0.2-3.3c0.3-1.3,1.2-1.6,2.3-0.8c0.9,0.6,1.7,1.5,2.8,0.7
		c1.3-0.9,2.7-2.2,2.4-3.9c-0.3-1.7,0.5-2.8,1.3-4.1c1.3-2.1,2.2-4.4,2.5-6.9c0.1-1,0.5-2,0.7-3c0.2-1,0.5-2,0.7-3
		c0.2-0.8,0.3-1.6,0.7-2.3c1.1-2.6,2.2-5.3,2.5-8.2c0-0.4,0.1-0.8,0.3-1.2c0.7-2.1,1-4.2,0.1-5.9c1.1-1.6,2.1-2.9,2.9-4.4
		c0.3-0.6,0.4-1.4,0.2-2.1c-1.1-3.9,0.2-7.3,1.9-10.7c0.5-1,0.8-2,1.3-3c1.2-2.6,1.8-5.4,4.3-7.3c1.4-1.1,1.6-3,1.1-4.4
		c-0.7-1.8-0.7-3.3,0.2-5c0.8-1.5,1.2-3.2,3.4-3.7c-1.6-1.4-1.1-2.6-0.3-3.8c0.3-0.4,0.6-0.8,0.7-1.2c1.3-5.6,3.6-10.8,5.7-16.2
		c0.6-1.6,1.1-3.3,1.5-5.1c0.5-2.5,1.2-4.8,2.5-6.9c0.8-1.3,1.1-3,1.7-4.4c0.8-1.9,1.7-3.8,2.7-5.6c1.7-3.2,2.3-6.9,4.4-10
		c1.2-1.7,1.3-4.1,2.1-6.1c0.6-1.7,1.5-3.3,2.2-5c0.6-1.4,1.3-2.8,1.6-4.2c0.5-1.9,1.6-3.2,3.1-4.4c1.3-1.1,2.5-2.3,3.3-3.7
		c1.4-2.4,2.5-5,3.6-7.6c0.5-1.2,0.7-2.5,0.4-4c-0.5-1.9,0.9-3.5,1.7-5.1c0.5-1.1,1.1-2.1,1.1-3.3c0-0.8,0.5-1.7,0.8-2.5
		c1-2.4,2-4.8,2.3-7.5c0.2-1.8,1.5-3.4,2.5-5.1c0.8-1.3,1.7-2.5,2.7-3.6c0.6-0.6,1.3-1.1,2.1-1.5c0.8-0.5,1.2-1,1-2
		c-0.4-2.4,0.6-4.5,1.2-6.8c0.2-0.9,0.9-1.2,1.8-1.3c0.9-0.1,1.9-0.2,2.8-0.5c0.9-0.3,1.3-1.2,0.5-1.9c-2.2-1.9-1.1-4.1-0.2-5.9
		c1.4-2.6,3.3-4.9,5-7.3c0.6-0.8,1.1-1.6,0.9-2.6c-0.4-1.3,0.1-2.4,0.9-3.3c1.7-2.1,3-4.3,3.9-6.8c0.5-1.4,1.6-2.8,2.7-3.9
		c1-1,1.9-2,2.2-3.3c0.8-3.7,3-6.8,4.7-10.1c1-2,1.7-4.1,2.7-6.1c0.7-1.3,1.8-2.4,2.6-3.7c1.9-3.2,3.7-6.5,5.7-9.6
		c0.5-0.8,1.2-1.5,1.9-2.1c1-0.8,1.7-1.7,2-2.9c0.5-2.4,1.8-4.3,3.1-6.1c1.9-2.7,3.4-5.5,4.3-8.7c0.7-2.7,2.3-5.1,4.5-6.9
		c0.9-0.8,1.6-1.5,0.8-3c-1,0.9-1.9,1.7-2.9,2.6c-0.3-0.5-0.5-0.7-0.5-0.8c0.9-2.8,1.5-5.6,3.3-8.1c3-3.9,5.6-8.2,8.5-12.2
		c3-4.1,6.2-8.2,9.3-12.2c0.5-0.6,1.2-1,1.8-1.6c0.5-0.6,1.2-1.2,1.3-1.9c0.4-2,1.6-3.4,2.9-4.9c2.8-3.2,5.6-6.6,8.5-9.7
		c1.7-1.9,3.7-3.5,5.6-5.2c0.5-0.4,1-0.8,1.3-1.3c1.6-2.3,3.2-4.6,6.2-5.3c0.2-0.1,0.5-0.2,0.6-0.3c1.3-1.2,2.8-1.8,4.7-0.7
		c0.1-0.7,0.4-1.1,0.3-1.5c-0.4-1.4,0.3-2.2,1.4-3c1.9-1.4,3.9-1.8,6.3-1.2c1.8,0.5,3.8,0.6,5.7,0.7c3.8,0.2,7.4,1.1,10.8,2.9
		c0.3,0.2,0.8,0.4,1.1,0.4c4-0.2,7.5,1.4,11.2,2.8c3.7,1.4,7.7,2,11.6,2.9c0.5,0.1,1.2,0.1,1.6,0.4c2.9,1.9,6.5,1.7,9.6,2.8
		c2.7,1,5.5,1.7,7.9,3.3c0.8,0.5,1.7,0.9,2.5,1.3c1.7,0.9,2.4,2,2,3.9c-0.4,1.6,0,3,0.1,4.5c0.2,1.8,0.1,3.7-0.1,5.5
		c-0.5,3.6-1.1,7.3-1.7,10.9c-0.1,0.5-0.4,1-0.5,1.6c-0.3,1.4-0.8,2.8-0.9,4.2c-0.2,3.1,0,6.2-0.3,9.3c-0.5,4.8-1.2,9.7-1.8,14.5
		c-0.2,1.3-0.3,2.5-0.5,3.8c-0.1,0.4-0.4,0.8-0.8,1.8c-0.4-1.3-0.6-2-0.8-2.8c-0.7,2.1-2.1,4.1,0.4,5.8c-0.1,0.3-0.1,0.6-0.2,0.6
		c-2.5,0.9-3,3-3.3,5.3c0,0.3,0,0.6-0.1,1c-1,4.5-2.1,9-3.1,13.5c-0.3,1.2-0.9,2.2-2.3,2.4c-1.3,0.2-1.8,1.3-2,2.4
		c-0.8,3.7-1.9,7.2-2.4,11c-0.4,3.5-0.9,7.1-2.4,10.5c-0.1,0.2-0.2,0.5-0.2,0.7c-0.4,6-1.7,12-2.5,18c0,0.2-0.1,0.3-0.1,0.5
		c1,2.3-0.5,4.2-1,6.3c-0.7,2.7-0.9,5.5-1.3,8.3c-0.2,1-0.2,2.1-0.6,3c-0.8,1.9-1.2,3.8-1.1,5.8c0.1,2.3,0,4.6-0.9,6.8
		c-0.7,1.7-0.8,3.5-0.6,5.4c0.2,2.9-0.1,5.7-1.2,8.5c-0.4,1-0.5,2.2-0.4,3.2c0.2,2.2-0.7,4-1.4,6.3c-1.6-1-2.9-1.8-4.4-2.8
		c-0.3,1-0.5,1.6-0.7,2.1c1.3,0.9,2.4,1.6,3.5,2.4c1.9,1.3,2.3,3.1,1.7,5.3c-0.6,2.5-1.2,5-1.7,7.4c-0.1,0.4-0.2,0.8-0.2,1.2
		c0.2,2.5-0.5,4.4-3,5.5c-0.3,0.1-0.7,0.6-0.7,0.9c-0.3,1.3-0.8,2-2.3,2.3c-1.2,0.2-1.2,1.6-1.3,2.6c-0.1,0.9,0.6,1.1,1.4,1.4
		c1.5,0.5,2.1,2.1,1.5,3.4c-0.4,0.8-0.8,1-2.8,0.8c-1.2,2.7-1.7,5.6-2.2,8.5c-0.3,2.3-0.8,4.5,0,6.9c0.2,0.6-0.2,1.4-0.5,2
		c-0.6,1.5-0.9,3.1-0.1,4.6c0.9,0.1,2-0.1,2.5,0.4c0.6,0.6,0.9,1.7,1,2.6c0.2,1.7,0.5,3.5,0.3,5.2c-0.3,2.1-1.1,4.1-1.7,6.1
		c-0.3,1-0.6,2-0.6,3c-0.1,1.4-0.7,2.4-2,2.7c-0.8,0.2-1.2,0.6-1.4,1.4c-0.6,2-1.3,3.9-2,5.9c-0.2,0.7-0.4,1.4-0.8,2.5
		c-1.4-1.6-0.8-3.3-1.5-4.8c-1,0.9-0.7,2.1-0.9,3.1c-0.2,1.1-0.6,2.2-0.8,3.3c-0.2,1.1-0.5,2.2,0.7,3.3c0.7-0.7,1.4-1.3,2-1.9
		c0.4,1.7,0.3,2.5-1.1,3c-1.8,0.6-2.2,1.8-2.4,3.4c-0.2,1.4-0.5,2.8-0.7,4.3c-0.2,1.4,0,2.6,1.3,3.7c0.6-1,1.1-1.8,1.9-3
		c0.9,1.6,1.6,3,2.3,4.4c0.1,0.2,0,0.7-0.2,0.9c-1.9,1.9-1.7,4.6-2.6,6.8c-0.2,0.6-0.4,1.2-1.1,1.8c-0.3-1.7-0.7-3.3-1.1-5.3
		c-1.1,1.7-1.6,3.3-1.8,5c-0.5,4.6-0.9,9.2-1.4,13.8c-0.3,2.7-0.8,5.4-1,8.1c-0.2,2.8,0,5.6-0.1,8.4c0,1-0.4,2-0.7,3
		c-0.6,1.8-0.4,2.9,0.9,4.1c0.9-0.4,1.7-0.7,2.5-1.2c0.5-0.3,1-0.8,1.4-1.3c0.7-1.2,1.4-2.3,1.9-3.6c1-2.5,1.9-5.1,2.8-7.6
		c1.3-3.4,2.6-6.7,3.8-10c1.5-4,2.9-8.1,4.5-12.1c0.4-1,0.8-2.1,1.4-3c2.2-3.9,3.9-8.1,5.4-12.3c0.7-1.9,1.6-3.6,2.4-5.5
		c1.4-3.2,2.7-6.5,4.2-9.7c1.7-3.8,3.4-7.6,5.1-11.3c0.2-0.5,0.6-1,0.8-1.5c0.9-3.3,2.1-6.4,3.7-9.3c0.9-1.7,1.8-3.4,2.6-5.1
		c1.2-2.8,2.3-5.6,3.5-8.4c0.4-1,1-2,1.5-3c0.2-0.4,0.4-0.7,0.6-1c1-2.8,2-5.7,3.1-8.5c0.3-0.9,0.8-1.8,1.3-2.5
		c1.2-1.5,2.1-3.1,2.6-5.1c0.5-1.8,1.6-3.5,2.4-5.2c0.8-1.6,1.6-3.1,2.4-4.7c0.5-1,1-2,1.5-3c2.7-5.3,6.2-10.1,8.2-15.7
		c0.3-0.8,1-1.4,1.5-2.1c0.6-0.8,1.2-1.5,1.7-2.3c0.6-1.1,1.3-1.9,2.5-2.4c1.7-0.7,2.5-2.1,2.2-3.8c-0.5-2.9,1-5.1,2.2-7.4
		c0.9-1.8,2-3.5,2.9-5.2c0.3-0.6,0.7-1.1,1-1.6c0.8-1.4,1.9-2.6,2.4-4.1c1-2.5,1.9-5.1,3.6-7.2c0.2-0.3,0.4-0.7,0.4-1.1
		c0.1-1.6,1-2.7,2.1-3.9c0.8-0.8,1.2-2,1.5-3.2c0.4-1.5,1-2.8,2.3-3.8c1.5-1.1,2.4-2.6,2.6-4.4c0.2-2.1,1.3-3.7,2.6-5.3
		c0.7-0.9,1.3-1.7,1.4-2.9c0.1-0.6,0.5-1.3,0.9-1.9c1.3-1.9,2.6-3.8,3.9-5.7c0.6-0.8,1.2-1.7,1.9-2.4c1.4-1.3,1.9-2.9,1.8-4.8
		c0-0.2,0-0.5-0.1-0.7c-0.3-3.1,1-5.3,3.8-6.4c1.7-0.7,3.1-1.5,3.7-3.4c0.2-0.6,0.9-0.9,1.2-1.5c0.4-0.7,1.1-1.4,1-2.1
		c-0.2-2.7,1.7-4.4,2.8-6.5c0.7-1.3,1.7-2.5,2.7-3.6c1.1-1.3,1.9-2.8,3.5-3.5c0.6-0.3,1.1-1,1.3-1.6c1-3.1,2.6-5.8,5.3-7.8
		c0.9-0.7,1.5-1.5,1.2-2.7c-0.3-1.1,0.3-1.6,1.1-2.1c2.9-2.1,5.2-4.9,7.2-7.9c0.9-1.3,1.9-2.5,2.9-3.7c0.5-0.6,1-1.2,1.5-1.8
		c1.9-2.4,3.8-4.7,5.6-7.1c1.7-2.1,3.3-4.3,4.9-6.5c1.6-2.2,3.2-4.4,4.8-6.6c0.4-0.5,0.9-0.9,1.3-1.4c1.7-1.7,3.5-3.5,5.2-5.3
		c0.2-0.2,0.2-0.7,0.4-1.3c-0.9,0.2-1.5,0.3-2.6,0.5c3.5-6,7.5-11,12.7-14.7c0.4,0,0.6,0,0.7,0.1c2.6,1.6,2.8,1.6,4.7-0.7
		c1.5-1.7,3.1-3.2,4.7-4.8c0.7-0.7,1.4-1.6,2.1-2.3c2.6-2.5,5.2-4.9,7.8-7.3c0.6-0.6,1.5-0.8,2.3-1.2c2.5-1.1,5.1-2.2,7.6-3.4
		c0.9-0.4,1.8-0.5,2.8-0.1c0.8,0.3,1.7,0.4,2.5,0.7c0.5,0.2,1.2,0.5,1.4,1c0.6,1,1.4,1.1,2.4,1.2c1.1,0,2.2,0.2,3.2,0.6
		c0.4,0.2,0.8,1,0.8,1.5c-0.1,0.7-0.4,1.5,0.3,2c0.8,0.5,1.7,0.9,2.5,1.2c0.5,0.2,1.1-0.1,1.7-0.1c0.7,0.1,1.4,0.2,2,0.5
		c1.1,0.6,1,1.6,0,2.2c-0.3,0.2-0.6,0.3-0.9,0.3c-2.5,0.6-3.9,2.6-5.7,4.2c-0.6,0.5-0.9,1.3-0.3,2.2c0.7,0.9,1.4,0.9,2.3,0.3
		c3.2-1.8,6.4-3.6,9.7-5.2c1.2-0.6,2.7-0.7,4.1-1c0.8-0.1,1.5,0.2,1.6,1.1c0.2,1.3,1.2,1.8,2.3,2.2c0.7,0.3,1.4,0.5,1.9,0.9
		c0.4,0.3,0.7,0.9,1,1.4c-0.5,0.2-0.9,0.7-1.4,0.6c-3.3-0.1-6,1.4-8.7,3.1c-0.5,0.3-0.7,0.9-1.4,1.7c2,0.1,3.4,0.4,4.1,2
		c2.2,0.3,3.9,1.2,4.6,3.5c0.1,0.3,1,0.3,1.5,0.4c0.8,0.1,1.5,0.3,2.3,0.3c3.2,0.1,5.1,2.8,8,3.5c0.6,0.1,1.3,0.6,1.8,0.5
		c1.6-0.3,3,0.2,4.4,0.8c2.4,1,4.3,0.5,6-1.4c0.1-0.1,0.3-0.1,0.6-0.2c0.2,0.4,0.6,0.8,0.7,1.3c0.8,2.6,1.7,5.1,1.2,8
		c-0.2,1.4,0.2,2.9,0.5,4.3c0.4,2.3,0.5,4.6-0.5,6.8c-0.7,1.7-1.1,3.5-0.8,5.4c0.2,1.2-0.1,2.2-1.1,3c-1,0.8-1.4,1.9-1.5,3.1
		c-0.2,2.3-0.4,4.6-0.6,6.9c-0.1,0.9-0.2,1.8-0.7,2.5c-0.8,1.3-0.9,2.7-0.9,4.1c0,1.2-0.3,2.5-0.7,3.7c-1.7,4.6-2.2,9.3-1.6,14.1
		c0.1,0.9,0.3,1.8,0,2.6c-1.1,3.4-1.3,6.9-1.8,10.3c-0.1,1.1-0.7,2.1-0.9,3.2c-0.6,3.5-1.1,7.1-1.6,10.7c-0.4,3.2-0.7,6.4-1.1,9.5
		c-0.6,4.6-1.2,9.2-1.9,13.7c-0.2,1.1-0.5,2.2-1,3.2c-1.5,2.9-1.6,6.2-2.3,9.2c-0.6,2.4-0.9,4.9-1.2,7.3c-0.3,1.7-0.4,3.5-0.6,5.2
		c0,0.4,0.1,0.8,0,1.2c-0.4,2.5-0.8,5-1.2,7.5c-0.1,0.9-0.2,1.7-0.3,2.6c-0.5,4.5-0.9,9-1.5,13.6c-0.1,0.8-0.7,1.6-1.3,2.2
		c-0.8,0.8-1.2,1.5-0.4,2.4c0.8,0.9,0.7,1.9,0.2,2.9c-0.8,1.6-1.2,3.1-0.7,4.9c0.1,0.4,0.2,0.9,0,1.2c-1.1,2.1-0.6,4.3-0.9,6.5
		c-0.3,2.3-0.7,4.5-0.8,6.8c0,1-0.7,2.1-1.2,3c-0.5,0.9-0.7,1.7-0.2,2.7c0.9,1.5,0.8,3-0.1,4.3c-2.2,2.8-1.5,6.1-1.5,9.2
		c0,1.3,0.2,2.5-0.6,3.7c-0.2,0.3-0.4,0.7-0.4,1.1c0,1.9,0.1,3.8,0.1,5.7c0,1.9,0.3,3.9-1.6,5.2c-0.4,0.3-0.5,1-0.6,1.5
		c-0.2,1.2-0.3,2.4-0.3,3.6c0,2.1,0.5,4.1-0.5,6.1c-0.1,0.3,0,0.8,0.1,1.2c0.8,2,0.5,4.1,0.2,6.1c-0.1,0.5-0.3,1-0.2,1.4
		c0.2,2-0.2,3.7-1.6,5.3c-0.5,0.5-0.4,1.6-0.4,2.5c0,1,0.2,2.1,0.1,3.1c-0.2,2.6-0.4,5.2-0.7,7.9c-0.1,1-0.4,2-0.6,3
		c-0.1,0.5-0.4,0.9-0.4,1.4c0.3,2.7-1.1,5-1.6,7.5c-0.1,0.7-0.2,1.4-0.2,2c0,0.9,0,1.8,0.2,2.6c0.2,1.2,0.4,2.5,0.8,3.7
		c0.7,1.7,0.8,1.6-0.6,3c-2,2-2.4,5.8-0.8,8.1c1-0.7,1.3-1.8,1.6-2.8c1.3-4.7,3.4-9.1,5.7-13.4c0.9-1.6,2.2-3.1,2.9-4.9
		c0.8-2.1,1.4-4.2,1.2-6.4c-0.1-1.2,0.2-2.2,0.9-3.1c0.6-0.7,1.2-1.5,1.9-2.1c2.3-2,2.7-4.6,2.4-7.4c-0.1-1,0.1-1.7,0.7-2.4
		c1.5-1.5,2.5-3.2,2.9-5.4c0.1-0.9,0.9-1.8,1.6-2.6c0.8-1,1.3-1.9,1.1-3.3c-0.3-1.6,0.6-2.9,1.4-4.2c0.6-0.9,1.2-1.9,1.4-3
		c0.3-1.5,1.8-1.4,2.6-2.2c-0.9-4.3-0.5-4.7,3.3-6.7c0.1-1.1-0.9-1.2-1.5-1.6c-1.2-0.9-1.2-1.2-0.5-2.4c2-3.3,3.9-6.8,4.9-10.6
		c0.1-0.4,0.5-0.8,0.8-1.3c0.6,0.3,1.2,0.5,1.9,0.9c0.6-1.5,1.2-2.8,1.7-4.1c-2-2.6-2-3.1-0.5-5.9c1.1-2.1,2.1-4.3,3.1-6.4
		c0.4-0.9,0.6-2,0.7-3c0.1-2,1.2-3.4,2.7-4.6c1,0.8,0.7,1.6,0.2,2.4c-0.4,0.5-0.9,0.9-1.3,1.4c-0.8,0.8-0.6,1.5,0.1,2.3
		c2.4-1.5,3.9-5.6,3.1-8.7c1.9-0.3,2.6-1.7,3.2-3.4c0.4-1.3,0.9-2.5,1.5-3.9c-1.3,0-1.6,0.8-2,1.4c-0.3,0.4-0.5,1-0.8,1.5
		c-0.4,0.7-0.6,1.6-1.7,1.2c-0.8-0.3-1-1.7-0.5-2.6c1-1.7,2.1-3.4,3.1-5.1c0.7-1.3,1.3-2.7,1.8-4.1c0.4-1.3,0.9-2.5,2-3.5
		c0.7-0.6,1.2-1.4,2.1-2.5c0.1,1,0.2,1.6,0.3,2.2c0.9,0.3,2.2-2.8,2.3-5.2c-0.7,0.5-1.3,1-2.2,1.6c-0.1-0.6-0.5-1.2-0.3-1.6
		c0.6-1.7,1.3-3.4,2-5.1c0.8-1.8,1.6-3.5,2.4-5.2c1.5-3.3,3.1-6.7,4.5-10.1c0.4-1.1,0.5-2.3,0.8-3.5c0.1-0.6,0.2-1.3,0.5-1.8
		c2.6-5.1,5.2-10.3,7.7-15.4c1-1.9,1.9-3.9,2.9-5.8c0.3-0.6,0.5-1.2,1-1.6c1.1-0.9,1.5-2,1.5-3.4c0-0.7,0.4-1.4,0.8-1.9
		c0.7-0.9,1.5-1.7,2.3-2.4c1.1-1,1.8-2.2,1.6-3.8c-0.3-1.5,0.3-2.8,1.3-3.9c2.3-2.4,3.5-5.4,4.6-8.5c1.1-2.9,2.4-5.7,4.9-7.8
		c0.4-0.3,0.8-0.9,0.8-1.4c0.4-3,1.6-5.6,3.1-8.1c0.2-0.3,0.3-0.8,0.7-1c2.4-1.7,3.4-4.4,4.8-6.7c0.4-0.7,0.7-1.6,0.8-2.4
		c0.3-1.6,0.9-3,2.3-4.1c1.2-1,2.5-2,2.8-3.8c0.1-0.5,0.6-0.9,0.9-1.4c0.5-0.8,1.3-1.5,1.5-2.4c0.6-2,1.4-3.8,2.7-5.5
		c0.5-0.6,0.8-1.4,1.4-1.9c1.3-1.1,2-2.5,2.3-4.1c0.3-1.5,0.7-2.9,2.2-3.8c0.4-0.2,0.7-0.7,0.9-1.1c1.8-4.2,4-8.1,6.7-11.8
		c3-4.2,6.1-8.2,9.2-12.2c0-0.1,0.1-0.2,0.2-0.2c2.6-1.1,3.3-3.6,4.6-5.8c1.1-1.8,2.9-3.2,4.4-4.7c1.4-1.4,3.1-2.6,4.2-4.2
		c1.5-2.1,3.8-2.5,5.8-3.7c0.1-0.1,0.3-0.1,0.5,0c1.5,0.7,3,1.4,4.5,2.1c0.6,0.3,1.2,0.7,1.9,0.9c2.8,0.8,5.7,1.4,8.4,2.7
		c2.3,1.1,4.9,1.5,7.3,2.3c1.7,0.6,3.4,1.1,4.8,2c1.9,1.2,4,1.6,6.1,1.8c0.9,0.1,2.1,0.1,2.8,0.6c3,2.1,6.7,2.1,9.9,3.5
		c3.1,1.3,6.4,2.1,9.5,3.3c0.8,0.3,1.5,0.9,2,1.5c0.7,1,1.6,1.4,2.8,1.5c1.8,0.1,2,0.4,1.6,2.3c-0.1,0.6-0.2,1.3-0.1,1.9
		c0.8,3.8-0.3,7.3-1.2,10.8c-0.9,3.4-1.9,6.8-2.4,10.2c-0.8,4.8-1.2,9.7-1.7,14.5c0,0.3-0.1,0.6-0.1,1c0.3,2.7-1.1,4.8-2.7,6.6
		c-0.7,0.8-1.1,1.7-1.3,2.7c-0.8,4.9-1.7,9.7-2.5,14.6c-0.7,4.3-1.2,8.5-1.9,12.8c-0.6,3.6-1.5,7.2-2.2,10.8c-0.5,2.7-1,5.3-1.4,8
		c-0.7,5-1.4,10-2.1,14.9c-0.2,1.6-0.5,3.1-1.4,4.5c-0.6,0.9-0.5,2.3-0.8,3.6c-0.5,0.2-1.5,0.2-1.7,0.6c-0.4,0.7-0.3,1.7-0.4,2.5
		c0,0.2-0.1,0.5,0,0.7c0.5,2,0.6,3.8-1.1,5.4c-0.3,0.3-0.3,0.9-0.3,1.4c0.1,4.6-1,9-1.6,13.5c-0.2,1.5-0.2,3-0.4,4.5
		c-0.3,3.7-0.6,7.3-0.9,11c-0.1,0.9-0.2,1.8-0.6,2.5c-1.4,2.5-1.1,5.3-0.9,7.9c0.1,1.2,0,2.1-0.5,3.2c-0.7,1.8-1.2,3.8-1.6,5.7
		c-0.1,0.5,0.3,1.2,0.6,1.8c0.6,1.1,0.6,2.1,0.2,3.2c-0.6,1.6-1.2,3.3-1.8,5c-0.2,0.6-0.5,1.6-0.2,2c1.5,2.4,0.5,4.6,0.1,7
		c-0.5,0-1.1,0-1.7,0.1c-0.3,1.8-0.8,3.6,0.7,5.1c0.8,0.9,0.7,2-0.2,2.8c-1.4,1.1-1.5,2.5-1.3,4.1c0.1,0.5,0.1,1-0.1,1.4
		c-1.3,2.3-1.2,4.9-1.5,7.5c-0.2,2.2-0.3,4.5-0.6,6.7c-0.1,0.7-0.5,1.4-0.7,2.1c-0.2,0-0.4,0-0.6,0c-0.4-0.9-0.8-1.8-1.3-3
		c-0.6,0.6-1.4,1-1.5,1.5c-0.4,1.4-0.7,3-0.7,4.5c0,1.5,0.8,2.9,0.1,4.5c-0.1,0.3,0.2,0.9,0.4,1.3c0.3,0.5,0.7,0.9,1,1.3
		c1.4,1.7,2.4,3.4,2,5.8c-0.3,1.9-0.3,4,0,6c0.4,2.8-0.4,5.4-1.2,8c-0.2,0.7-0.1,1.5-0.2,2.3c0,0.2,0.1,0.3,0.1,0.5
		c0.5,2.5-0.3,3.4-2.9,3.1c-1.5,1.7,0.1,3.6-0.6,5.7c2-0.7,1.1-2.7,2.5-3.4c0.3,2.1,0.4,4.1,0.9,6c0.8,2.9,0.5,5.6-0.1,8.4
		c-0.4,1.8-0.2,3.7-0.4,5.6c0,0.3-0.6,0.6-0.9,0.9c-0.3-0.3-0.8-0.6-0.9-0.9c-0.2-1.8-0.3-3.6-0.5-5.6c-1.7,0.9-0.5,2.6-1.2,3.6
		c-0.7,1.1-0.8,2.4,0.1,3.7c0.8,0.1,1.6,0.3,2.5,0.5c2.2,0.6,2.9,1.7,2.4,3.9c-0.3,1.2-0.9,2.4-1.1,3.7c-0.2,0.7-0.2,1.7,0.2,2.2
		c0.8,1.2,0.7,2.3,0.2,3.4c-0.6,1.3-0.9,2.4-0.1,3.8c0.4,0.6,0.4,1.6,0.2,2.3c-0.5,2.6-0.1,5.2,0,7.9c0.1,1.9,0.4,3.8-1.1,5.4
		c-0.9,1-0.3,1.9,2,2.7c1.1-0.8,1.5-2,1.6-3.3c0.1-1.3,0.7-2,2-2.3c0.9-0.2,1.7-0.8,2.4-1.4c0.7-0.6,1.3-1.2,2.4-1.3
		c1.9-0.2,1.7-2,2.1-3.2c-0.2-0.1-0.4-0.3-0.5-0.3c-2.1,0.2-2.5-0.3-1.7-2.1c0.1-0.2,0.2-0.5,0.3-0.6c2.5-2.7,2.9-6.1,3.9-9.4
		c0.6-2.1,1.5-2.8,3.7-3c0.5,0,1.2-0.4,1.5-0.9c0.4-0.5,0.6-1.3,0.9-1.9c-0.7-0.5-1.7-0.8-1.8-1.3c-0.2-0.8,0.2-1.7,0.5-2.5
		c0.4-1.1,0.9-2.3,1.6-3.2c1.8-2.1,1.9-4.9,3-7.2c0.2-0.4,0.3-0.9,0.2-1.4c-0.2-2.3,0.7-4.4,1.6-6.4c0.3-0.7,0.8-1.4,1.4-1.9
		c1.5-1.2,3-2.3,4.6-3.5c-0.1-1.9-0.1-1.9,1.9-2.6c1.3-0.5,2.1-2.2,1.3-3.5c-0.9-1.5-0.7-2.7,0.4-3.9c0.3-0.3,0.5-0.7,0.5-1.1
		c0.5-3.4,2.1-6.3,3.9-9.1c1-1.7,1.7-3.6,2.5-5.4c1.2-2.6,1.2-2.6,3.9-1.7c1.8-1.8,1.8-2.2,0.3-3.9c-0.8-1-0.8-1.9-0.2-2.9
		c1-1.8,2.1-3.6,3-5.5c0.6-1.1,0.9-2.3,1.3-3.5c0.3-1.2,0.5-2.5,0.8-3.7c0.3-1.1,0.9-2,1.9-2.6c0.7-0.5,1.4-1.3,1.8-2.1
		c1.2-2.2,2.3-4.4,3.3-6.7c0.5-1.1,0.6-2.5,1.2-3.6c0.6-1,1.9-1.5,2.4-2.5c0.9-1.6,1.6-3.5,2.3-5.2c0.3-0.7,0.5-1.4,0.9-1.9
		c0.8-1.1,1.2-2.2,1.1-3.6c-0.2-1.5,0.8-2.6,1.9-3.4c1.6-1.1,3.1-2.3,3-4.5c0-0.6,0.7-1.2,1.2-1.7c1.3-1.6,2.9-3,3.1-5.3
		c0-0.5,0.8-0.8,1.2-1.2c0.3,0.4,0.7,0.8,1,1.2c0.2,0.2,0.3,0.5,0.5,0.8c1.6-1.1,2.4-2.4,4.1-7.2c-0.6,0.4-1,0.5-1.2,0.8
		c-0.3,0.3-0.5,0.9-0.9,1.1c-0.4,0.3-1.1,0.5-1.5,0.4c-0.3-0.2-0.5-0.9-0.5-1.4c0.1-0.6,0.5-1.2,0.7-1.7c0.4-0.9,0.7-1.8,1.1-2.6
		c0.2-0.4,0.3-0.9,0.6-1.3c2.2-3.4,4.3-6.9,6.5-10.3c0.3-0.5,0.8-1,1.1-1.6c1.1-1.7,2.4-3.3,3-5.4c0.5-1.7,1.6-3.3,3.5-4.1
		c0.5,0.5,1.1,1,1.7,1.5c1.4-1.2,2-2.8,2.9-4.3c0.4-0.7,0-1.3-0.7-1.6c-1.3-0.6-1.2-1.5-0.9-2.6c0.3-0.9,0.7-1.8,1.1-2.6
		c1.1-1.9,2.3-3.8,3.5-5.7c0.7-1.1,1.5-2,2.3-3.1c0.1-0.1,0.3-0.2,0.3-0.3c0.8-2.6,3.2-4.1,4.5-6.4c0.4-0.7,0.6-1.7,0.4-2.4
		c-0.2-1.2-0.1-2.2,0.5-3.2c1.8-2.7,3.4-5.6,6.2-7.5c0.1-0.1,0.3-0.2,0.4-0.3c1.9-2.8,3.9-5.6,5.8-8.5c1-1.5,1.8-3.2,2.8-4.7
		c0.8-1.1,1.6-2.1,1.6-3.7c0-0.5,0.4-1,0.8-1.4c2.9-2.4,5-5.5,6.7-8.9c0.5-1,1.3-1.8,2.1-2.6c0.8-0.8,1.4-1.7,1.3-3
		c-0.1-2.6,1.4-4.3,3-6c1-1.1,2.1-2.2,3-3.3c0.7-0.8,1.3-1.8,2.1-2.6c1-1.1,1.8-2.2,1.8-3.8c0-1.1,0.8-1.6,1.5-2.3
		c1-0.8,2.1-1.7,2.8-2.8c1.3-2.1,2.4-4.5,3.6-6.7c0.1-0.1,0.1-0.3,0.2-0.4c2.6-1.9,3.4-5.2,6.1-7.1c1.4-1,2.4-2.8,3.4-4.3
		c1.5-2.2,3.2-4.2,3.5-7c0.1-1.1,1-2.2,1.7-3.1c1.7-2.3,3.4-4.6,5.2-6.9c0.8-1,1.5-2.2,2.6-2.8c2.2-1.3,3.2-3.3,4.2-5.4
		c0.7-1.5,1.5-2.8,3.1-3.5c0.5-0.2,0.9-0.9,1.1-1.4c0.6-2.1,1.7-3.5,3.9-4.1c0.7-0.2,1.3-0.9,1.7-1.6c1-1.5,1.7-3.3,2.7-4.8
		c2.8-4,5.6-8,8.6-11.8c4.8-6.1,9.8-12,14.8-17.9c3.6-4.2,7.6-8.2,11.2-12.5c6.4-7.4,13.5-14.1,20.9-20.4c2.2-1.8,4.1-2,6.6-0.8
		c1.8,0.9,3.7,1.6,5.5,2.3c0.7,0.3,1.4,0.7,2.1,1c1.4,0.6,2.7,1.2,4.1,1.8c0.3,0.1,0.6,0.2,0.9,0.4c2.7,2,5.9,2.8,9,3.8
		c1.3,0.4,2.4,1.6,3.5,2.4c0.6,0.4,1.1,0.8,1.8,1.1c1.9,0.8,3.8,1.5,5.7,2.3c0.7,0.3,1.2,0.8,1.9,1c3,1.2,6.1,2.4,9.1,3.6
		c0.7,0.3,1.4,0.7,2.2,1c1.2,0.5,2.5,1,3.7,1.6c1.6,0.7,3.3,1.2,3.5,3.5c0.2,1.6,0.9,1.9,2.5,1.8c0.5,0,0.9-0.1,1.6-0.2
		c-0.4,1.3-0.8,2.4-1,3.5c-0.2,1.1-0.2,2.2-0.3,3.3c0,0.2-0.2,0.5-0.2,0.7c0.2,2-0.6,3.4-2.4,4.4c-0.7,0.4-1.1,1.6-1.3,2.5
		c-0.6,2.6-1,5.3-1.6,8c-0.5,2.2-1.2,4.3-1.9,6.4c-0.4,1.4-1,2.7-1.3,4.1c-0.3,1.3-0.7,2.2-2.2,2.4c-1,0.1-1.3,1-1.6,1.9
		c-1.6,4.6-3.3,9.2-5,13.7c-0.3,0.8-0.6,1.7-1,2.4c-0.5,1-0.9,1.9-2.4,1.4c-0.9-0.3-1.3,0.4-1.6,1c-0.3,0.7-0.3,1.5,0.5,1.8
		c1.7,0.6,1.4,1.8,1,2.9c-0.8,2.5-1.6,5-2.4,7.5c-0.4,1.1-0.9,2.1-2.2,2.3c-1.3,0.2-1.8,1-2.1,2.2c-0.4,1.8-1.3,3.6-1.6,5.5
		c-0.2,1.4-0.3,2.9,0.2,4.2c0.8,2,0.1,3.9-0.1,5.9c0,0.7-1.1,1.6-2,1.9c-1.6,0.6-2.6,1.7-3,3.2c-0.6,2.2-1.7,4.3-1.6,6.7
		c0,1.4-0.4,2.8-0.8,4.2c-0.9,3.5-1.9,6.9-2.8,10.4c-0.1,0.2-0.1,0.5-0.2,0.7c-1.8,3.6-1.7,7.5-2.4,11.3c-0.1,0.6-0.4,1.2-0.6,1.8
		c-0.2,0.5-0.5,1.1-0.4,1.6c0.5,1.9-0.3,3.6-0.6,5.4c-0.4,2-1.3,4-1.7,6c-0.4,1.8-1,3.1-3.4,2.7c0.2,1.8,0.4,3.4,0.6,4.9
		c0.3,1.8,0.2,2-1.5,2.5c-0.6,0.2-1.6,0.6-1.7,1c-0.1,0.6,0.3,1.5,0.8,2c0.6,0.7,1.9,1,1.5,2.2c-0.3,0.9-1,1.7-1.6,2.6
		c-0.4,0.6-0.9,1.3-1.4,1.9c-0.5,0.5-1.2,1.3-1.8,1.3c-1.1,0.1-0.8-1.1-1-1.8c-0.1-0.2-0.2-0.4-0.3-0.7c-1.2,1.8-1.2,1.8-1.1,3.8
		c0.6,0.3,1.2,0.6,2,0.9c-0.5,2-0.1,3.5,2.4,4c-0.2,0.8-0.3,1.5-0.7,2.1c-0.9,1.3-1.9,2.5-2.9,3.7c-0.2,0.3-0.5,0.7-0.6,1
		c-0.6,3.6-1.1,7.2-1.6,10.9c-0.1,0.5,0.1,1.1,0.3,1.6c0.5,1.4,0.9,2.7,1.5,4c0.7,1.7,0.6,3.3-0.4,4.8c-1,1.5-2,3.1-1.5,5.2
		c-1.4,0.2-2.7,0.3-3.9,0.4c-1.1,0.1-1.8,0.5-1.9,1.7c-0.1,0.5-0.3,1-0.5,1.6c-0.7,1.8-1,3.5-0.1,5.3c0.4,0.9,0.8,2,0.9,3
		c0.1,0.8-0.1,1.7-0.5,2.5c-0.8,1.5-1.6,2.8-0.4,4.6c0.5,0.8,0.2,2.4-0.3,3.4c-0.6,1.5-0.7,2.9-0.8,4.4c-0.2,2.4-0.6,4.7-1,7.1
		c0,0.2-0.1,0.3-0.2,0.5c-1.2,2.7-1.2,2.7-1,5.5c0,0.5,0.1,1,0,1.4c-0.1,1.7-0.3,1.8-2.2,2c-0.3,0.6-0.6,1.1-0.8,1.7
		c-0.7,1.6-0.7,1.9,0.8,2.9c1.1,0.7,1.1,1.6,0.5,2.4c-0.7,1.2-0.8,2.4-0.8,3.7c0,1-0.4,1.8-1.1,2.8c-1.2,1.6-1.9,3.5-2.8,5.4
		c0.9,0.5,1.6,0.8,2.2,1.1c0.5,1.7-1.1,1.8-1.8,2.8c0.9,0.6,2,1.2,1.1,2.6c-0.1,0.2,0.1,0.6,0.2,0.9c0.3,1.2,0.1,2.1-1,2.9
		c-0.7,0.5-1.1,1.3-1.8,2.1c0.5,0.4,0.8,0.7,1.2,0.9c1,0.5,1.1,1.2,0.9,2.2c-0.6,3.4-1.2,6.7-1.8,10.1c-0.2,0.9-0.6,1.5-1.4,2.1
		c-1.3,1-2.4,2.3-3.5,3.6c-0.2,0.2-0.4,0.7-0.3,0.9c0.8,1.6,0.7,3.9,2.8,4.7c0.9,0.3,1.2,0.8,0.9,1.6c-0.3,0.8-0.9,0.7-1.6,0.4
		c-0.2-0.1-0.5-0.1-0.7-0.1c-2.1,2.5-2,3.9,0.3,6c-1.9-0.1-2.7,1-2.9,2.5c-0.2,1.1-0.8,1.8-1.5,2.6c-1.5,1.5-1.5,2,0,3.5
		c1.6,1.6,1.5,2.7-0.3,4.1c-0.5,0.4-1,1-1.1,1.7c-0.6,2.9-1,5.8-1.5,8.7c-0.2,1.3-0.2,2.2,1,3.1c1.4,1.1,1,3.4-0.7,4.1
		c-0.9,0.3-1.7,0.6-1.8,1.6c-0.2,1.3-0.6,3-0.1,3.9c1,1.6,1.1,3,0.7,4.7c-0.1,0.5,0.1,1.1,0.1,1.8c-0.9,0.2-2.1,0.1-2.1,1.4
		c0,0.6,0,1.5,0.4,1.7c1.3,0.7,1.7,2,2.1,3.3c1.3-0.1,1.2-1.3,1.8-1.8c0.6-0.5,1.3-0.8,2.2-1.3c-0.3-0.4-0.6-0.8-0.9-1.2
		c-1-1.4-0.9-2.4,0.7-2.9c1.8-0.6,2.4-2.3,3.6-3.4c0.3-0.2,0.2-0.9,0.1-1.4c-0.4-1.5,0.4-2.3,1.5-2.9c1.6-0.8,2.4-2.2,2.9-3.9
		c0.5-1.5,1.5-2.8,1.9-4.3c0.8-2.8,2.6-5,4-7.5c1-1.6,1.2-3.8,1.7-5.7c0.2-0.7,0.2-1.4,0.5-2.1c1.4-2.9,2.7-5.8,4.9-8.2
		c0.8-0.9,1.2-2.2,1.7-3.4c0.9-2.2,1.8-4.2,3.8-5.6c1.8-1.3,2.8-3.3,3.6-5.3c1-2.6,1-2.6,3.5-2.1c0.7-0.5,0.7-1.1,0.2-1.6
		c-1.2-1.3-0.9-2.5,0.2-3.6c1-1.1,1.3-2.2,1.3-3.7c0-0.8,0.4-1.6,0.9-2.3c0.6-1.1,1.5-2.1,2.2-3.1c1-1.4,1.9-3,4.1-2.5
		c0.2,0.1,0.7-0.1,0.8-0.3c0.7-1.4,1.9-2.7,1.1-4.4c-0.7-1.5-0.3-2.7,0.8-3.9c0.8-0.9,1.4-1.9,2-2.9c1.7-2.8,3.5-5.5,5-8.4
		c0.9-1.7,1.3-3.7,1.9-5.6c0.2-0.7,0.4-1.4,0.8-1.9c3.5-3.3,5.4-7.7,7.7-11.8c0.9-1.6,1.3-3.6,1.9-5.4c0.4-1.3,1-2.3,2.3-2.9
		c1.3-0.6,2.2-1.6,1.9-3.2c0-0.3-0.1-0.8,0-0.9c2.2-1.3,1.9-4.5,4.5-5.7c1.2-0.5,2-2.2,2.8-3.5c1.4-2,2.8-4.1,4.2-6.2
		c0.7,0.4,1.3,0.6,1.8,0.9c1.6-1.2,1.6-1.2,0.6-2.8c-0.2-0.4-0.3-1.1-0.2-1.5c0.7-2.3,1.4-4.6,2.3-6.8c0.3-0.7,0.9-1.5,1.5-1.8
		c2.2-1.1,3.3-3,4.5-4.9c2.1-3.3,4-6.7,6.8-9.5c0.7-0.7,1-1.8,1.5-2.7c0-0.1,0-0.2,0-0.2c0.3-0.9,5.8-10.1,6.6-10.6
		c1.3-0.8,1-2.3,1.5-3.4c0.5-1.2,0.7-2.4,2.1-3c0.4-0.2,0.8-0.9,0.8-1.3c-0.2-2,1.1-3.2,2.4-4.2c1-0.8,1.6-1.6,1.9-2.9
		c0.3-1.6,1.2-2.8,2.9-3.2c0.7-0.2,1.4-0.6,1.8-1.1c1.3-1.8,2.5-3.7,3.8-5.5c0.2-0.2,0.3-0.6,0.2-0.9c-0.5-1.9,0.6-3.1,1.7-4.5
		c2.1-2.6,3.9-5.4,5.9-8.1c2.2-2.9,4.6-5.7,6.9-8.6c0.4-0.5,1.1-1,1.7-1.3c2.2-1.2,3.8-2.8,4.2-5.5c0.2-1,0.8-1.9,1.3-2.7
		c0.5-0.9,1.1-1.8,1.3-3c0.4-0.2,0.9-0.4,1.3-0.5c1.5-0.3,2.2-1.3,2.2-2.7c0-1.2,0.2-2.2,1.6-2.7c0.4-0.2,0.8-0.8,0.9-1.3
		c0.2-1.3,0.9-2,1.9-2.5c0.7-0.4,1.4-0.8,1.4-1.8c-0.1-2.2,1.4-3.3,2.9-4.3c0.8-0.5,1.5-1.1,2.3-1.7c0.8-0.5,1-1.3,1.1-2.2
		c0.1-1.1,0.5-2.2,1.1-3c2.1-2.7,4.3-5.3,6.4-8c2.9-3.7,5.7-7.5,8.7-11.1c2.5-3.1,5.3-6,7.9-9c2.5-3,5-6.1,7.5-9
		c4-4.6,7.8-9.3,12.2-13.5c2.8-2.7,5.3-5.7,8-8.6c3.9-4.2,7.7-8.5,11.5-12.9c1-1.2,1.6-2.7,2.6-4.2c2.5,0.1,5.4-0.1,8,1.4
		c3.7,2.2,7.5,4.2,11.3,6.2c2.7,1.4,5.4,3,8.5,3.8c1,0.2,2,1,2.8,1.8c1.6,1.7,3.4,2.8,5.7,3.3c0.7,0.1,1.3,0.6,1.9,0.9
		c1.4,0.8,2.9,1.7,4.3,2.5c1.4,0.8,2.7,1.6,4.1,2.4c0.9,0.5,1.8,1,2.7,1.5c1,0.6,2.1,1.2,3.1,1.8c0.7,0.4,1.3,1,2,1.2
		c1.9,0.7,3.6,1.7,4.9,3.3c0.6,0.7,1.5,1.1,2.4,1.5c1,0.5,1.2,1,0.8,2.1c-0.4,1-0.6,2.1-0.9,3.2c-0.3,1.1-0.7,2.3-1.1,3.4
		c-0.4,1-1.1,1.5-2.2,1.7c-0.6,0.1-1.1,0.2-1.6,0.3c-2,0.5-2.2,0.9-1.3,2.8c0.9,1.8,0.8,2.2-0.8,3.4c-1,0.8-1.5,1.5-1.1,2.8
		c0.1,0.5-0.3,1.2-0.6,2c-2-1.8-4.3-2.2-6.4-1.1c-1,0.5-1.8,0.4-2.5-0.4c-0.7-0.8-1.5-1.7-3-1.3c0,0.6,0.1,1.2,0.1,1.8
		c-0.1,0.5-0.3,1-0.5,1.5c-0.5-0.2-1.1-0.4-1.6-0.7c-0.3-0.2-0.5-0.6-0.6-0.9c-2.4-0.3-3.6,1.6-5.8,2.8c1.1-1.9,1.9-3.3,2.8-4.9
		c-1.4-0.3-2.1,0.1-2.7,0.7c-1.1,0.9-2.2,1.8-3.2,2.9c-4.1,4.4-8.2,8.7-12.3,13.1c-3.6,3.9-7,7.9-10.6,11.7
		c-1.7,1.8-3.7,3.3-5.6,4.9c-0.3,0.3-0.9,0.6-1.3,0.5c-3-0.9-4.1,1.6-5.9,3.1c-0.4,0.3-0.6,1.2-1,1.3c-3.1,0.9-3.2,3.9-4.6,6.5
		c2.2-0.6,3-2.3,4.3-3.5c1.3-1.2,2.6-2.5,4-3.5c-1.2,3.9-3.3,7.2-5.9,10.3c-2.8,3.3-5.7,6.5-8.7,9.5c-2.2,2.1-4,4.3-5.3,7.1
		c-1.1,2.6-3.2,4.7-5.1,6.9c-2.6,3.1-5.7,5.7-8.1,9.1c-1.1,1.5-2.1,3.2-3,4.8c-1.1,1.8-0.9,2.3,1,3.4c0.2,0.1,0.4,0.3,0.8,0.6
		c-0.6,0.3-1,0.7-1.4,0.8c-1.6,0.1-2.6,1-3.5,2.2c-0.8,1-1.9,1.9-2.9,2.7c-1.5,1.1-1.9,2.4-1.2,4.1c0.7,1.7,0.2,3.2-1.2,4.4
		c-0.7,0.6-1.3,1.4-1.9,2c-1.1,1-2.1,2.3-3.4,3c-2.4,1.4-3.1,4-4.5,6.1c-0.4,0.5,0.1,1.6,0.2,2.7c-0.7,1.2-1.9,2.3-3.6,2.5
		c-1.1,0.2-1.7,0.8-2.2,1.7c-0.8,1.6-1.8,3.2-1.8,5.1c0,1-0.7,2.3-1.4,2.9c-2,1.6-2.6,4-3.9,5.9c-0.4,0.5-0.6,1.2-1,1.6
		c-0.9,1.1-1.4,2.1-0.2,3.5c-0.7,0.2-1,0.3-1.4,0.3c-1.6,0.1-3.3-0.3-4.2,1.5c0,0.1-0.1,0.1-0.2,0.1c-2.4,0.2-2.3,1.8-2.1,3.6
		c0.3,2.4-1.3,4.2-2.5,6c-0.7,1-1.4,1.9-2.1,2.9c-0.2,0.3-0.4,0.8-0.7,0.9c-1.6,0.8-2.5,2.2-3.4,3.6c-1.7,2.4-3.9,4.2-6.1,6
		c-0.5,0.4-1.2,1-1.3,1.6c-0.2,1.3-0.9,1.9-2,2.7c-1.9,1.4-3.9,2.9-3.5,5.8c0.1,0.5-0.2,1.1-0.5,1.6c-0.8,1.3-1.2,2.5-0.5,4
		c0.5,1.1-0.5,2.8-2,3.5c-1.5,0.7-2.4,1.8-3.3,3c-1,1.2-1.2,2.2-0.7,3.7c0.7,1.8,0.2,2.6-1.6,3.4c-1.2,0.5-2,1.2-2.6,2.3
		c-1.3,2.2-2.3,4.6-4.6,6c-0.4,0.3-0.7,1.1-0.7,1.7c-0.2,1.5-0.7,2.8-2.2,3.4c-0.9,0.4-1.3,1.1-1.3,2.1c0,0.5-0.1,1.2-0.4,1.6
		c-1.3,1.9-2.6,3.8-3.5,6c-0.3,0.9-1.6,1.4-2.5,2c-0.4,0.3-0.9,0.3-1.3,0.5c-1.2,0.8-1.3,1.7-0.2,2.6c0.5,0.4,1.1,0.8,1.4,1.3
		c1,1.4,0.4,2.8-1.3,3.3c-0.6,0.2-1.3,0.2-1.8,0.5c-1.4,0.6-1.8,1.4-1.7,3c0.2,1.7-0.2,3-1.9,4.2c-1.6,1.1-2.4,3.3-3.5,5
		c-0.5,0.7-0.7,1.6-1.2,2.3c-1.7,2.3-2.9,4.8-3.2,7.6c-0.1,1-0.4,1.8-1.3,2.4c-0.4,0.3-0.9,0.7-1.1,1.2c-1,1.8-2.3,3-4.4,3.3
		c-1,0.1-1.6,1-1.2,1.9c1,2-0.1,3.3-1.2,4.7c-0.4,0.5-0.8,1-1.2,1.5c-0.7,0.6-1,1.2-0.8,2.1c0.1,0.2,0,0.5,0,0.7
		c-1.2,2.6-2,5.5-3.6,7.8c-2,2.8-3,5.8-3.7,9c-0.3,1.5-0.8,2.6-1.8,3.8c-2.8,3.4-5.5,6.8-6.5,11.3c-0.4,1.7-1.7,3.2-2.5,4.9
		c-1.2,2.7-2.9,5.1-3.5,8.1c-0.3,1.4-1.2,2.8-2,4c-1,1.6-1.5,3,0,4.5c0.2,0.2,0.4,0.4,0.4,0.6c0,0.7,0.2,1.5-0.1,2
		c-0.3,0.5-1.3,0.8-1.8,0.7c-1.2-0.4-2.1-0.3-2.6,0.8c-0.5,1-0.4,2,0.8,2.9c0.6-0.4,1.1-1,1.8-1.3c0.6-0.2,1.5-0.4,2-0.1
		c0.4,0.2,0.4,1.3,0.2,1.9c-0.4,1-0.9,2.1-1.5,3c-0.4,0.5-1.1,1-1.7,1.2c-1.8,0.6-2,0.8-1.6,2.6c0.2,0.9,0.2,1.9,0.2,2.8
		c0,0.2-0.3,0.4-0.4,0.6c-1-1-1.8-2.1-2.8-2.9c-1.2-0.9-3.6,0-3.6,1.4c0,1.4-0.7,3.1,0.6,4.3c0.9,0.9,0.8,1.9,0.3,2.9
		c-1.8,3-2.9,6.3-3.5,9.7c-0.6,3.2-2.3,5.4-4.7,7.4c0.7,1.5,0.2,2.9-0.4,4.3c-0.8,1.9-1.6,3.9-1.4,5.6c1,1.1,1.7,2,2.4,2.8
		c1.1,1.2,1.1,2.5,0.6,3.8c-1.1,2.8-2.2,5.7-3.4,8.5c-0.3,0.6-0.7,1.3-1.2,1.8c-1.1,1.2-2.4,2.4-2.8,4.1c0,0.1-0.4,0.2-0.6,0.4
		c-0.7-0.8-0.2-1.5,0-2.2c0.2-0.9,0.1-1.7-0.9-1.9c-1-0.3-1.5,0.5-1.6,1.3c-0.3,2-0.5,4.1-0.7,5.9c0.9,0.6,1.9,0.9,2.4,1.5
		c0.7,0.9,0.2,1.9-0.2,2.9c-1.5,4.5-2.8,9-4.3,13.4c-0.4,1.3-1.2,2.6-2.1,3.7c-1.5,1.9-2.7,3.7-2,6.3c0.2,0.7-0.4,1.8-0.9,2.6
		c-1.2,1.8-2.5,3.5-3.8,5.3c0.9,0.5,1.5,0.9,2.1,1.2c0,0.2,0.2,0.5,0.1,0.7c-0.7,1-1.3,2-2.2,2.8c-1.1,1.1-2.5,2.1-2.5,3.5
		c-1.6,0.8-3.1,1.3-4.2,2.3c-2.6,2.4-5.6,2-8.6,1.5c-2.6-0.4-5.1-1-7.7-1.5c-4.5-0.8-9-1.2-13.4-2.5c-4-1.2-8.3-1.8-12.4-2.7
		c-1.9-0.4-3.9-1.6-5.7-1.4c-2,0.2-3.8-0.3-5.6-0.6c-2.4-0.4-4.9-0.7-7.3-1.1c-5.5-0.8-8.4-4.5-10.1-9.4c-1.7-5.1-2-10.3-1.7-15.6
		c0-0.7,0.1-1.5-0.1-2.1c-0.8-2.4-0.3-4.7,0.3-7.1c0.3-1.2,0.6-2.5,0.6-3.8c0-4.5-0.3-9.1-0.2-13.6c0.1-3.3,0.3-6.7,1-10
		c0.6-2.5,0.4-5.3,0.2-7.9c-0.2-3.7,0-7.3,0.4-10.9c0-0.1,0.1-0.2,0-0.2c-1.1-4.2,1.2-8.3,0.8-12.5c-0.2-2,0.6-4.1,1.2-6.1
		c0.6-1.9,0.8-3.7,0-5.6c-0.7-1.8-0.4-3.7,0.3-5.1c1.2-2.7,0.8-5.5,1-8.2c0.1-1,0.2-2.1,0.5-3c0.8-1.9,1.1-3.8,0.6-5.8
		c-0.6-2.3-0.2-4.8,0.8-6.8c1.5-3,1.6-6,1.3-9.1c-0.1-1.3-0.1-2.5,0.6-3.7c0.3-0.5,0.5-1,0.6-1.5c0.3-3,0.6-6,0.8-9
		c0.1-1.6,0.2-3.2,0.3-4.8c0-0.5,0-1.1-0.2-1.6c-0.6-1.6-0.4-3.2,0.5-4.6c1.3-2.1,1.8-4.4,1.9-6.9c0-0.7,0-1.5,0.3-2.1
		c0.5-1.5,0.7-2.9,0.5-4.5c-0.1-0.9,0.2-1.9,0.5-2.8c0.8-1.9,0.9-3.7,0.4-5.6c-0.6-2.6-0.7-5.2,0.6-7.7c0.2-0.4,0.4-1,0.3-1.4
		c-1-3,0.8-5.8,0.8-8.7c0-1.7,1.1-3.4,1.7-5.2c0.2-0.5,0.4-1.1,0.3-1.6c-0.7-3.4,0.6-6.6,0.3-10c-0.1-0.8,0.1-1.8,0.5-2.5
		c1-1.7,1-3.5,0.8-5.4c-0.2-1.9,0.1-3.6,0.5-5.4c0.5-2.1,0.6-4.2,0.9-6.4c0-0.4,0-0.8,0.1-1.2c0.6-2.3,1.4-4.5,1.9-6.8
		c1-5.1,2.4-10.1,2.3-15.3c-0.1-1.8-0.1-3.4,1-5c0.6-0.9,0.9-2.3,0.9-3.4c0.1-3-0.1-6.1,0-9.1c0.1-1.8,0.5-3.6,0.8-5.4
		c0.4-2,0.7-4,1.5-5.8c1.1-2.6,1.2-5.2,1.3-7.9c0.3-3.7,0.7-7.4,2.1-11c0.5-1.2,0.7-2.7,0.5-4c-0.2-2,0.3-3.8,1-5.6
		c0.4-1,0.5-2.1,0.7-3.2c0.2-0.9,0.2-1.7,0.4-2.6c0.2-1.2,0.5-2.3,0.6-3.5c0.1-1.2,0.1-2.4,0.9-3.4c0.3-0.4,0.5-0.9,0.5-1.3
		c0.2-2.2,0.2-4.5,0.5-6.7c0.7-4.7,1.6-9.4,2.5-14.1c0.6-3.1,1.3-6.3,1.9-9.4c0.1-0.5,0.1-1.2-0.1-1.7c-0.8-1.9-0.1-3.4,0.9-5
		c1.2-1.8,1.7-3.7,0.9-5.9c-0.3-0.7,0.3-1.8,0.6-2.7c0.4-1,1-2,1.4-3c0.2-0.5,0-1.1,0-2.2c-0.8,0.7-1.3,0.9-1.6,1.3
		c-1.8,2.6-3.8,5.1-5.4,7.8c-1.5,2.4-2.2,5.5-5,7c-3.7,5.4-8.1,10.3-10.9,16.3c-0.5,1-1.3,1.8-2,2.7c-0.1,0.2-0.4,0.3-0.5,0.5
		c-1.8,2.9-3.7,5.7-5.5,8.6c-1.1,1.7-2.2,3.3-3.3,5c-1,1.5-2.3,2.9-3.2,4.5c-0.7,1.1-1,2.3-0.5,3.7c0.7,1.7-0.3,3.1-1,4.5
		c-0.4,0.7-1,0.6-1.7,0.4c-0.5-0.1-1.2,0.1-1.6,0.4c-1.5,1.4-1.7,2.7-1,4.6c0.2,0.5,0.2,1.3-0.1,1.8c-2.1,3.6-4,7.3-6.5,10.6
		c-1.8,2.4-3,5-4.8,7.4c-0.6,0.9-1.2,1.7-2.5,1.5c-1-0.2-1.4,0.6-1.7,1.3c1.3,2.1,0.9,4.1-1.4,5.3c-0.1-0.7-0.2-1.2-0.2-1.9
		c-0.3,0.1-0.6,0.1-0.7,0.2c-0.9,1.3-1.8,2.7-2.6,4c-0.6,1-1.2,2.1-0.1,3.3c0.2,0.2,0.1,0.9,0,1.3c-0.3,0.8-0.7,1.6-1.2,2.4
		c-0.7,1.3-1.5,2.6-2.3,3.9c-0.5,0.8-0.9,1.4-2,1.2c-1.9-0.3-3.5,0.9-3.2,2.9c0.5,2.9,0.2,4.6-3.2,4.7c-0.7,0-1.6,1.3-1.9,2.2
		c-1.4,3.9-3.5,7.3-5.3,11c-0.7,1.4-0.9,3-1.1,4.6c-0.2,1.2-0.4,2.2-1.6,2.7c-0.9,0.4-1.3,1.1-1.3,2.1c-0.1,0.7-0.3,1.4-0.4,2.1
		c-0.1,1.6-0.8,2.9-2.3,3.7c-0.6,0.3-1.2,0.9-1.4,1.5c-0.5,1.5-1.2,2.9-2.5,4c-0.4,0.3-0.4,1.2-0.3,1.8c0.3,1.1-0.1,2-0.7,2.9
		c-1.2,1.7-1.1,2.4,0.5,4.5c1.2-0.9,2.4-1.8,3.6-2.7c0.1,0.1,0.2,0.2,0.3,0.2c-0.2,0.5-0.3,1-0.5,1.5c-1.6,3.7-3.3,7.5-5,11.2
		c-0.6,1.2-1.6,2.2-2.2,3.4c-1.4,2.5-2.7,5.1-3.9,7.7c-3.1,6.4-6.3,12.7-9.4,19.1c-0.7,1.5-1.7,2.9-1.6,4.8c0.6-0.3,1.2-0.5,2.2-0.9
		c0.2,2.4-1.6,3.5-2.3,5.3c-0.8-0.3-1.4-0.6-2-0.9c-0.2,0.1-0.5,0.2-0.6,0.4c-0.5,1-1.1,2-1.6,3c-2.5,5.3-5.1,10.5-7.6,15.8
		c-1.9,4-3.8,8-5.7,11.9c-0.3,0.5-0.7,1-1.2,1.4c0.2-2.5,0.8-4.9,1.8-7.2c0.9-1.9,0.8-2,0.2-4.3c-1.6,2.4-3.1,4.7-4.5,7
		c-0.9,1.6-1.6,3.3-2.4,4.9c-0.2,0.4-0.5,0.9-0.8,1.2c-1.4,0.8-1.9,2-2,3.6c-0.1,0.8-0.7,1.6-1.2,2.2c-0.6,0.8-1,1.5-0.9,2.6
		c0.1,0.8-0.3,1.6-0.3,2.3c-0.1,0.9,0,1.8,0.3,2.8c2.6-2.5,4.3-5.7,6.8-8.3c-1.4,5.2-3.4,10.1-6,14.9c-1.2-0.8-0.6-1.7-0.5-2.5
		c0.1-0.8,0-1.5,0-2.6c-0.7,0.3-1.2,0.5-1.7,0.7c-0.8,0.4-1.7,0.9-2.5,1.1c-1.3,0.4-1.6,0.9-0.9,2.1c0.4,0.8,1.2,1.4-0.1,2.3
		c-0.5-0.3-1.1-0.7-1.8-1.1c-0.1,0.2-0.4,0.3-0.4,0.5c-0.5,1.8-1.3,3.6-0.2,5.5c0.1,0.2,0.1,0.7,0,0.9c-0.8,2.4-1.6,4.8-2.5,7.2
		c-0.4,1-1.2,1.7-2.5,1.6c-1.1-0.1-1.8,0.5-2.1,1.5c-0.3,1,0.1,1.7,1,2.2c1.1,0.6,1,1.5,0.8,2.5c-0.5,2.3-0.3,2.4,2.1,2
		c0.1,0,0.3,0.1,0.6,0.1c0.1,0.3,0.3,0.6,0.2,0.8c-0.5,2.4-0.7,4.9-2.3,7c-0.7,0.9-1.2,1.5-2.3,0.8c-0.8-0.5-1.4-0.3-1.9,0.4
		c-0.6,0.9-0.3,1.6,0.8,1.8c0.3,0.1,0.6,0.1,1.2,0.1c-0.1,1-0.1,2-0.4,2.8c-1.1,2.8-2.3,5.6-3.4,8.4c-0.4,1-0.4,2.2-0.7,3.2
		c-1.1,3.3-2.7,6.5-3.4,9.9c-0.7,2.9-1.9,5.5-2.7,8.4c-0.3,1.1-0.4,2,0.7,2.7c0.4,0.2,0.7,1,0.7,1.4c-0.4,2.6-0.3,5.3-2,7.5
		c-2.1,2.7-2.6,5.8-2,9.1c0.2,1.2,0.1,2.2-0.7,3.1c-1.1,1.3-1.5,2.6-1.1,4.4c0.2,1-0.2,2.4-0.8,3.3c-1.9,2.8-2.5,5.9-2.7,9.2
		c0,0.6-0.1,1.1-0.3,1.6c-2.4,7.3-4.8,14.6-7.1,21.9c-0.2,0.6-0.1,1.4,0.2,2c0.6,1,0.5,1.9,0,2.9c-0.5,0.9-0.8,1.9-1.3,2.8
		c-1,1.7-2,3.3-1.1,5.4c0.2,0.5-0.1,1.3-0.5,1.8c-1.9,2.9-4.2,5.2-8,5.3c-1.5,0-3,0.8-4.5,0.7c-3.3-0.1-6.5-0.5-9.8-0.8
		c-0.9-0.1-1.8-0.3-2.6-0.2c-3.2,0.1-6.4-0.4-9.5-1c-2.6-0.5-5.4-0.7-8.1-0.8c-3.4-0.1-6.8-0.5-10.2-1.2c-0.5-0.1-1.2-0.4-1.6-0.2
		c-3,1-6-0.2-9-0.1c-2.8,0-5.5-0.5-8.3-0.6c-1.3-0.1-2.3-0.5-3.2-1.4c-3.1-2.9-5.5-6.1-6.2-10.5c-1-5.9-2.3-11.7-3.5-17.6
		c-0.1-0.3-0.1-0.6-0.1-1c0.5-4-0.6-7.9-1-11.9c-0.2-1.8,0-3.7-0.1-5.5c-0.2-2.9-0.7-5.9-0.6-8.8c0.1-4.1-0.4-8.1-0.2-12.1
		c0.1-1.1,0.6-2.2,0.9-3.2c0.4-1.3,0.5-2.6-0.3-3.9c-0.4-0.5-0.5-1.4-0.4-2c0.6-3.4,0.3-6.6-0.6-9.9c-0.3-1.3,0-2.9,0.5-4.2
		c0.7-2.1,0.7-4-0.1-6c-1-2.5-0.7-5.1,0.1-7.5c0.4-1.3,0.5-2.5,0-3.7c-0.6-1.2-0.6-2.4-0.2-3.7c0.2-0.5,0.2-1.1,0.2-1.7
		c-0.2-3.3-0.5-6.5-0.6-9.8c-0.1-2.6,0-5.3,0-7.9c0.1-6.5,0.2-12.9,0.4-19.4c0.1-2.4,0.4-4.8,0.6-7.2c0.1-0.9,0-1.8,0-2.6
		c0.1-1.3,0.3-2.6,0.5-4c0.1-0.7,0.4-1.5,0.2-2.1c-1.2-2.4-0.2-4.9-0.4-7.3c0-0.2,0-0.4,0.1-0.5c1.6-1.8,1.2-4,1-6.1
		c0-0.3,0.1-0.7,0-1c-1.3-3.9-0.5-7.7-0.2-11.6c0.1-0.8-0.1-1.6-0.1-2.4c0-1.4-0.2-3,0.3-4.3c1.1-3,0.8-5.9,0.8-9
		c0-4.1-0.5-8.3,1.7-12.2c0.9-1.5,0.7-3.3,0.1-4.9c-0.7-1.7-0.8-3.3,0.2-5.1c0.3-0.6,0.3-1.6,0-2.3c-0.7-1.6-0.5-3.2,0.3-4.6
		c0.9-1.6,1.3-3.2,0.6-5c-0.3-0.9-0.3-1.9-0.3-2.8c0.2-3.3,0.2-6.5,0.9-9.8c0.5-2.1,0.2-4.3,0.3-6.4c0.1-2.2,0.1-4.5,0.2-6.7
		c0.1-2.3,0.5-4.6,0.5-6.9c0-2.2,0.6-4.2,0.9-6.3c0.3-2.6-0.1-5.2-0.2-7.9c0-0.9-0.2-2.1,0.3-2.8c1.3-2,1.2-4.2,0.8-6.3
		c-0.6-3.1,0.5-5.7,1.8-8.2c0.5-1,0.9-1.8,0.3-2.9c-0.2-0.3-0.3-0.8-0.3-1.1c-0.1-2.6-0.1-5.2-0.1-7.8c0-0.5,0.1-0.9,0.3-1.4
		c0.9-2,0.7-3.1-1-4.5c-0.2-0.1-0.4-0.2-0.6-0.4c-1-0.6-1-1.3-0.5-2.2c0.5-0.9,1.1-1.8,1.5-2.7c0.3-0.6,0.3-1.3,0.5-2.2
		c-1-0.1-1.6-0.2-2.4-0.2c0-0.3-0.2-0.7-0.1-0.9c0.8-1.8,1.7-3.6,2.6-5.4c0.4-0.9,0.8-1.7,1-2.7c0.2-0.9-0.3-1.6-1.3-1.7
		c-0.9-0.1-1.4,0.6-1.4,1.3c0,2.4-1.1,4.3-2,6.3c-0.7,1.5-0.9,3.2-1.3,4.7c0.1,0.2,0.2,0.4,0.3,0.5c2.2,1,2.4,2.5,0.4,4.2
		c-1.1,1-1.2,1.7-0.4,2.9c0.5-0.1,1-0.3,1.8-0.5c-0.2,4-3.1,6.5-4.3,10.1c-0.8-0.7-1.3-1.1-1.9-1.7c-0.5,0.4-1,0.9-1.6,1.4
		c-0.2-0.3-0.4-0.5-0.4-0.7c0.1-0.9,0.3-1.8,0.5-3c-0.7,0.3-1.3,0.3-1.4,0.5c-0.7,1.4-1.7,2.8-2,4.3c-0.3,1.8-1,3.3-2.1,4.7
		c-0.4,0.5-0.7,1.1-1,1.6c0.9,1.1,1.6,0.5,2.4,0.1c1.3-0.7,2.5-1.7,4.4-1.5c0.3,1.9-0.1,3.7-0.7,5.5c-0.8,2.3-1.7,4.6-2.9,6.8
		c-1.3,2.4-2.6,4.8-2.9,7.7c-0.1,1-1,2-1.5,3c-0.4,0.8-0.9,1.5-1.1,2.4c-0.6,2.1-1,2.6-3.3,3.9c-0.5-0.3-1-0.6-1.7-0.9
		c-0.7,0.7-1.4,1.5-1.8,2c-1.6-0.3-3-0.7-4.3-0.8c-1.2-0.1-2,0.6-2.3,1.8c-0.4,1.8-0.6,3.7-0.8,5.6c1.4,0.3,2.4-1.7,3.8-0.3
		c-0.9,3.1-1.7,6.3-2.6,9.5c0,0,0.1-0.1,0.1-0.1c-1.9,2.1-3.2,4.5-3.8,7.3c-0.6,2.6-1.6,5.1-3.2,7.4c-0.5,0.7-1,1.4-1.4,2.2
		c-1.7,3.7-3.3,7.4-5,11.2c-0.1,0.3-0.3,0.5-0.9,0.6c0.9-2.7,1.9-5.4,2.7-8.2c0.9-2.8,1.7-5.5,2.5-8.5c-1.5,0.2-1.6,1.1-1.9,1.9
		c-0.7,1.7-1.3,3.4-2,5.1c-0.7,1.8-1.5,3.5-2.3,5.3c-0.4,0.8-0.8,1.6-1.5,2.3c-0.5-2.2,0.9-3.7,1.4-5.6c0.4-1.8,0.9-3.6,0.9-5.5
		c-0.7,1.1-1.5,2.1-2.2,3.2c-0.7,1.2-1.3,2.5-2.1,3.7c-0.7,1.1-0.3,2.8-1.8,3.5c-2.2-1.2,0.7-2.9-0.6-4.4c-0.4,0.3-1,0.5-1.2,0.9
		c-0.6,1-1,2.2-1.5,3.3c-1,2.1-2,4.4-3.3,6.3c-1.3,1.9-1.4,3.1,0.1,5.3c2.6-0.8,2.2-3.7,3.5-5.4c0.2,0.1,0.4,0.2,0.6,0.3
		c-0.6,2-1,4.1-1.7,6.1c-0.6,1.8-1.3,3.6-1.9,5.4c-1.3,3.7-2.5,7.4-3.7,11.1c-0.6,1.7-0.3,2.2,2.4,3.2c-0.4,1.6-0.7,3.3-1.3,4.9
		c-0.3,0.9-3.3,2.1-4.5,2.1c-0.8,0-1.6-0.1-2.4,0c-1.6,0.2-2.1,0.9-1.9,2.8c0.8-0.3,1.5-0.6,2.4-0.9c0.6,1.4,0.3,2.6-0.5,3.5
		c-1.4,1.5-1.6,3.4-2.3,5.2c-1.3,3.2-2.2,6.5-3.5,9.7c-1.2,2.8-2.3,5.6-3,8.5c-0.4,2.1-1.3,4.1-2,6.1c-0.6,1.9-1.2,3.8-1.9,5.7
		c-0.8,2.3-1.5,4.5-2.3,6.8c-0.4,1.1-0.7,2.1-1,3.2c-0.3,0.9-0.5,1.8-2,2.2c-0.3-2.5,1.3-4.7,1-7.5c-0.7,1.1-1.2,1.7-1.5,2.5
		c-1.4,2.8-3,5.6-3.4,8.9c-0.1,0.8-0.5,1.5-0.9,2.2c-1.2,1.9-1.4,4-1.3,6.2c0,0,0.1,0.1,0.4,0.3c0.5-1,0.9-2.1,1.6-3.1
		c0.7-1,1.1-1.9,0.9-3.1c-0.2-1.3,0.8-1.7,1.6-2.2c0.2,0.1,0.4,0.1,0.6,0.2c-0.1,0.7,0.1,1.6-0.3,2.1c-1.6,2-1.4,4.5-2.3,6.7
		c-0.5,1.3-0.6,2.9-1.3,4.1c-1.6,2.9-2,6-2.4,9.2c-0.1,0.5-0.2,1.1-0.4,1.6c-0.5,1.6-1,3.2-1.5,4.8c-0.7,2.2-1.4,4.4-1.3,6.8
		c0,0.7-0.3,1.4-0.5,2.1c-1.5,4.7-3.1,9.4-4.5,14.1c-0.5,1.7-0.5,3.6-0.9,5.4c-0.3,1.2-0.8,2.4-1.2,3.6c-0.4,1-0.9,1.9-1.1,2.9
		c-0.3,1.3,0.6,2,1.8,1.7c0.7-0.2,1.4-0.7,1.9-1.3c0.8-0.9,1.4-2,2.1-2.9c0.4-0.6,0.9-1.3,1.7-2.3c0.2,1,0.4,1.6,0.3,2
		c-0.8,2.9-1.7,5.8-2.6,8.7c-0.2,0.6-0.7,1-1,1.6c-0.3,0.6-0.7,1.3-0.8,2c-0.4,3.6-1.8,6.9-3.5,10.1c-1.2,2.3-0.9,2.9,2.1,2.9
		c-0.4,0.9-0.5,1.7-1,2.4c-1,1.5-1.4,3-0.3,4.7c0.7,1.1,0.5,2.1-0.2,3.1c-0.4,0.6-0.8,1.2-1.3,1.8c-1,1.1-1.4,2.3-1.2,3.7
		c0.1,1.4-0.2,2.8-1.4,3.7c-2,1.6-4.2,3.2-6.8,3.8c-0.4,0.1-0.8,0.1-1.2,0.3c-3.2,1.4-6.4,0.8-9.7,0.5c-7.1-0.7-14.1-1.4-21.2-2.2
		c-4.4-0.5-8.9-1.1-13.3-1.5c-2.7-0.3-5.4-0.4-8.1-0.6c-4-0.3-8-0.5-12-0.8c-2.4-0.2-4.2-1.5-5.8-3.1c-0.8-0.8-1.6-1.6-2.3-2.4
		c-0.5-0.6-1-1.3-1.3-2c-1.9-5.2-3.1-10.6-3.8-16.1c-0.9-8-1.9-16-2.1-24.1c-0.1-4.1-0.2-8.1,0.2-12.2c0.3-3-0.2-6.1-0.1-9.1
		c0.1-5.7,0.3-11.5,0.4-17.2c0.1-3.5,0-7,0.1-10.5c0.1-2.8,0.4-5.5,0.6-8.3c0.2-2.3,0.5-4.6,0.5-6.9c-0.1-7.5,0.8-15,1.4-22.4
		c0.4-5.2,0.4-10.4,1.2-15.5c1.6-9.9,1.5-19.9,2.8-29.8c0.5-3.9,0.5-7.8,1.6-11.6c0.7-2.6,0.3-5.6,0.5-8.3c0.2-2.6,0.7-5.2,1-7.8
		c0.2-2.1,0.3-4.1,0.5-6.2c0.7-6.4,1.4-12.9,2-19.3c0.3-3.1,0.5-6.2,0.9-9.3c0.5-4.3,0.9-8.6,1.9-12.8c0.5-2.1,0.8-4.2,1-6.3
		c0.2-1.9,0.5-3.8,0.7-5.7c0.2-2.2,0.6-4.4,0.4-6.7c-0.2-1.6,0.4-3.3,0.6-5c0.3-2.1,0.6-4.1,0.9-6.1c0.1-0.7,0.3-1.4,0.4-2.1
		c0.2-1.1,0.3-2.2,0.4-3.3c0.3-2.8,0.5-5.5,0.8-8.3c0.3-2.8,0.8-5.5,1.1-8.3c0.6-5.1,1.6-10.3,1.8-15.4c0.3-5.8,2.3-11.3,2.4-17
		c0.1-2.7,0.6-5.3,1.1-8c0.8-4.2,1.1-8.5,1.7-12.8c0.3-2.6,0.8-5.2,0.8-7.8c0-2.4,0.7-4.9,1.2-7.3c0.4-2,0.8-3.9,1.1-5.9
		c0.1-0.4-0.2-0.9-0.4-2c-2,2.5-3.8,4.6-5.4,6.7c-1.3,1.8-2.5,3.6-4.4,5c-0.8,0.6-1.1,1.8-1.8,2.7c-0.4,0.5-0.9,1-1.4,1.5
		c0,0-0.5-0.3-0.5-0.4c0.2-0.6,0.3-1.5,0.8-1.8c2.1-1.4,2.5-3.8,3.7-5.8c0.1-0.2,0-0.6,0-1.3c-1,0.7-1.8,1.3-3,2.1
		c0.2-0.8,0.1-1.3,0.3-1.6c3.1-4.1,6.3-8.2,9.4-12.4c1.3-1.8,2.6-3.6,3.8-5.5c0.5-0.8,0.9-1.7,0-2.9c-0.6,0.5-1.3,1-1.7,1.5
		c-2.8,3.6-5.6,7.2-8.3,10.8c-0.8,1.1-1.5,2.3-2.4,3.3c-2.8,3.6-5.7,7.1-8.6,10.6c-0.5,0.6-1,1.2-1.5,1.8c0.5-1.8,1.5-3.5,1.8-5.7
		c-2,1.2-3.8,3.5-4.1,5.1c-0.2,1,0.2,1.4,1.3,1.3c0.3,0,0.6-0.3,0.8-0.4c-0.2,0.3-0.5,0.6-0.7,1c-1.4,2.5-1.4,2.5-3.8,3.6
		c0.2,3.1-1.5,5.5-3.1,8c-2,2.9-4,5.8-5.9,8.8c-1.8,2.7-3.4,5.6-5.1,8.3c-3.8,5.9-7.5,11.9-11.3,17.8c-0.4,0.6-1,1.2-1.6,1.9
		c-1-1.7,1.3-2.7,0.3-4.3c-0.5,0.3-0.9,0.5-1.2,0.8c-1.1,1.3-2.3,2.7-3.3,4.1c-0.3,0.4-0.2,1-0.4,1.5c0.5,0.1,1,0.3,1.5,0.2
		c0.5-0.1,1-0.4,1.8-0.8c-0.1,0.8-0.1,1.3-0.3,1.8c-0.6,1.2-1.3,2.4-1.8,3.6c-1.3,3.6-3.4,6.8-5.6,9.9c-0.7,1-1.2,2.2-1.9,3.3
		c-2.2,3.9-4.3,7.8-6.6,11.7c-0.3,0.5-0.7,1.1-1.2,1.5c-1.3,0.9-1.8,2.1-1.7,3.7c0,0.9-0.6,1.8-1,2.6c-0.3,0.7-1,1.3-0.1,2.3
		c0.4-0.3,1.1-0.5,1.2-0.8c0.9-2.6,2.9-4.4,4.5-6.5c1.3-1.7,2.1-3.6,2.7-5.6c0.1-0.5,0.2-1,0.4-1.4c1.3-2.2,2.6-4.4,4.1-6.5
		c0.8-1.2,1.4-2.3,1.3-3.7c-0.1-1.3,0.4-2.3,1.6-3c1.1-0.6,1.6-1.5,1.7-2.7c0.1-2,1.8-2.7,3.1-3.7c0.2-0.2,0.8-0.1,1.1,0
		c1.6,0.3,2.2,0.2,2.4-1.3c0.3-2.3,2.2-3,3.5-4.3c0.3-0.3,0.9-0.2,1.3-0.3c0,0.5,0.3,1.3,0.1,1.5c-2.9,2.7-3.6,6.7-5.9,9.8
		c-1.6,2.1-2.6,4.6-4,6.8c-1.2,2-2.7,4-3.8,6c-2.1,3.8-4.1,7.6-6.1,11.4c-0.7,1.4-1.4,2.9-2,4.3c-0.4,0.8-0.1,1.4,0.7,1.7
		c0.6,0.2,1.2,0.3,2,0.6c-0.2,0.6-0.3,1.2-0.6,1.6c-1.6,1.8-1.6,1.8-0.2,3.6c-1,1.6-1.4,1.8-2.8,1.2c-0.6-0.2-1.1-0.6-1.7-0.9
		c-0.8-0.4-1.5-0.3-2,0.6c-0.5,0.8-1.3,1.4-1.7,2.2c-0.6,1.2-1.2,2.4-1.5,3.7c-0.1,0.4,0.5,1.2,1,1.4c0.4,0.1,1.3-0.2,1.6-0.6
		c0.8-1,1.4-2.1,2.1-3.2c0.5,0.1,0.9,0,1.3,0.1c1.2,0.4,1.4,1.3,0.4,2.1c-0.3,0.3-0.8,0.3-1,0.6c-0.4,0.5-1.1,1.1-1.1,1.6
		c-0.1,1.4-0.6,2.3-2.3,2.3c1.4,3.3-0.9,5.2-2,7.4c-0.8,1.6-1.6,3.1-2.3,4.7c-1.1,2.3-2,4.7-3.2,6.9c-0.8,1.5-1.5,1.5-3.1,0.5
		c-1.1-0.7-2.1-0.6-2.7,0.3c-0.5,0.8-0.1,1.6,1,2.3c1.7,0.9,2.1,2.2,1.4,3.9c-0.5,1.3-0.9,2.7-1.5,4c-1.2,2.8-2.4,5.6-3.7,8.3
		c-0.9,1.9-2.1,3.8-3,5.7c-0.8,1.7-1.4,3.5-2.2,5.3c-0.8,1.8-1.9,3.5-2.7,5.3c-0.6,1.3-1.1,2.6-1.7,4c-1.3,3-2.5,6.1-3.8,9
		c-1.1,2.5-2.4,4.8-3.7,7.5c-1.3-1.3-2.6-0.9-3.7-0.2c-1.2,0.7-2.3,1.8-3,2.9c-1.3,1.9-2.3,4-3.3,6.1c-0.5,0.9-0.8,1.9-1.1,2.9
		c-0.7,2-1.4,2.3-3.1,1.3c-0.7-0.4-1.4-0.6-2.3-1c0-0.7-0.2-1.4,0-2.1c1.1-3.5,1.5-7.3,3.9-10.5c1-1.3,1.3-3,1.9-4.6
		c0.8-2.3,1.6-4.6,2.1-7.1c-0.3,0.3-0.7,0.5-0.8,0.8c-0.8,1.6-1.6,3.3-2.4,4.9c-0.9,2-1.7,4.1-2.6,6.2c-1.1,2.5-2.5,5-3.6,7.6
		c-2.1,4.9-4.2,9.9-6.3,14.8c-0.3,0.7-0.6,1.3-0.9,2c-0.9,2.2-1.8,4.4-2.7,6.6c-1.7,4.1-3.4,8.1-5.1,12.2c-1.4,3.6-2.7,7.2-4.2,10.7
		c-0.9,2.4-2.2,4.7-2.9,7.1c-1.7,5.8-4.5,11.3-5.5,17.3c-0.1,0.5-0.3,1.1-0.6,1.5c-1.6,2.7-2.7,5.6-3.2,9.5c0.6-0.1,1.2-0.1,1.4-0.4
		c0.5-0.6,0.8-1.4,1.1-2.1c0.4-1,0.7-2.1,1.3-3.1c0.7-1.3,1.6-2.4,1-4c-0.1-0.2,0-0.6,0.2-0.9c1-2.1,2-4.2,3-6.3
		c0.2-0.5,0.4-1,0.6-1.6c0.9-3.4,2.3-6.6,4-9.7c0.4-0.7,0.5-1.5,0.7-2.3c0.5-1.8,1.1-3.6,1.6-5.5c1-3.4,2.9-6.4,4.2-9.6
		c0.6-1.5,1.1-3.2,1.3-4.8c0.2-1.5,0.9-2.7,1.8-3.9c1.1-1.5,1.9-3.2,2.5-5.1c0.9-2.6,2.2-5.1,3.3-7.7c0.2-0.3,0.5-0.7,0.8-0.9
		c1.5-0.6,3-1.1,4.7-1.7c1,1.6,0.7,3.3,0,4.9c-1,2.3-1.9,4.6-2.9,6.8c-0.7,1.5-1.8,2.8-2.5,4.3c-0.9,1.8-1.7,3.7-2.5,5.7
		c-1.2,3.1-2.4,6.2-3.5,9.4c-0.3,0.8-0.4,1.7-0.5,2.6c-0.1,1.4-0.5,2.7-1.7,3.5c-0.9,0.6-1.1,1.4-0.8,2.5c0.2,0.8,0.1,1.8-0.2,2.6
		c-1.3,3.7-2.8,7.3-4.2,11c-0.2,0.5-0.4,1-0.5,1.6c-0.3,1.6-1,3-2.2,4.2c-1.2,1.1-1.7,2.6-2.1,4.2c-0.5,2.2-1.5,4.3-2.4,6.7
		c-1-0.7-1.7-1.3-2.4-1.8c-1.4,1.7-2.6,4.7-2.4,6c1-0.1,1-1.1,1.5-1.7c0.3-0.3,1-0.7,1.1-0.6c0.4,0.3,0.8,0.9,0.7,1.3
		c-0.7,2.1-0.6,4.2-0.6,6.4c0,0.3-0.1,0.6-0.2,0.9c-3.1,7.2-5.3,14.7-7.7,22.1c-0.7,2.1-1.6,4-2.4,6c-0.8,2.3-1.5,4.5-2.1,6.8
		c-0.2,0.6-0.2,1.4,0.1,1.8c1,1.4,0.6,2.8,0,4.1c-0.7,1.5-0.9,3-0.6,4.7c0.2,0.9-0.1,1.9-0.5,2.8c-0.4,1-1,2-1.6,3
		c-1.2,1.9-2,3.8-2.1,6.1c-0.1,1.6-0.9,3-2.2,3.8c-2.2,1.4-4.5,2.7-6.9,3.7c-3,1.3-6.2,1.4-9.4,1.4c-6.9-0.1-13.7-0.4-20.6-0.5
		c-6-0.1-12,0-18,0c-5.5-0.1-11-0.2-16.5-0.5c-0.9,0-1.9-0.4-2.6-1c-3.1-2.2-5.5-5-6.2-8.8c-0.8-4.8-1.5-9.6-2.2-14.4
		c-0.6-4.3-1.1-8.6-1.6-12.8c-0.1-0.6-0.1-1.1-0.2-1.7c-0.2-7.3-0.4-14.7-0.5-22c0-3.1,0.4-6.2,0.5-9.3c0.1-1.1,0-2.2-0.1-3.3
		c-0.6-3.8,0.2-7.5,1-11.1c0.5-2.5,0.1-4.9,0.1-7.4c0-5-0.2-10,0.3-15c0.5-5,0.5-10.1,0.8-15.1c0.2-3.8,0.3-7.7,1.5-11.4
		c0.3-1,0.5-2.3,0.3-3.3c-0.5-3.1,0-6.1,0.6-9.2c0.6-3.5,0.6-7.1,0.9-10.7c0.5-5.5,1.1-11,1.7-16.4c0.1-1,0.2-1.9,0.3-2.9
		c0.2-1.7,0.4-3.5,0.6-5.2c0.1-1.1,0.4-2.2,0.4-3.3c-0.2-5.9,0.9-11.6,1.6-17.4c0.1-0.7,0.2-1.4,0.2-2.1c0.5-4.8,0.9-9.7,1.4-14.5
		c0-0.4,0.1-0.8,0.3-1.1c1.3-1.6,1-3.4,1-5.3c0-1.7,0.2-3.3,0.4-5c0-0.5,0.2-1,0.2-1.4c-0.3-5.6,1.1-11.1,1.8-16.6
		c0.6-4.4,1.2-8.9,1.8-13.3c0.2-1.7,0.5-3.3,0.8-5c0.1-0.8,0.3-1.6,0.4-2.4c0.3-3.3,0.5-6.7,0.8-10c0.7-6,1.4-12.1,2.2-18.1
		c1.1-8,2.2-16,3.3-24c0.1-0.8,0-1.7,0-2.5c-0.2-0.1-0.4-0.1-0.6-0.2c-0.4,0.5-0.9,1-1.2,1.5c-2.8,5-5.5,9.9-8.3,14.9
		c-0.2,0.3-0.3,0.6-0.5,0.8c-3.6,5.1-5.7,11.1-8.8,16.5c-2.4,4.1-4.2,8.4-6.3,12.6c-0.9,1.9-1.9,3.7-2.8,5.5
		c-2.9,6.1-5.7,12.2-8.5,18.2c-3.5,7.5-6.8,15-10.3,22.4c-3.5,7.4-6.1,15.2-9.2,22.8c-0.8,1.9-1.7,3.8-2.5,5.7
		c-1.8,4.3-3.8,8.6-5.5,13c-2.9,7.4-5.7,14.9-8.6,22.4c-1.7,4.4-3.6,8.7-5.3,13.1c-0.5,1.3-1,2.7-1.4,4.1c-1.6,5-3.2,10-4.9,15
		c-0.6,1.8-1.3,3.6-1.9,5.4c-1.7,5.2-3.3,10.3-5,15.5c-1.1,3.2-2.4,6.3-3.5,9.4c-0.5,1.5-0.9,3.1-1.4,4.6c-0.5,1.3-1.2,2.6-1.8,3.9
		c-0.3,0.6-0.6,1.4-0.6,2c0.2,1.8-0.4,3.3-1.3,4.8c-0.8,1.4-1.1,2.8-1.2,4.3c-0.1,2.1-0.4,4.1-0.6,6.2c0,0.3-0.1,0.7-0.3,0.9
		c-1.5,1.7-1.4,3.8-1.6,5.8c-0.2,2.5-0.9,5-2.5,7.2c-0.9,1.3-1.3,2.7-1.3,4.3c-0.1,1.7-0.4,3.3-0.7,5c-0.2,1.4-0.2,3-0.8,4.2
		c-1.5,3.2-1.7,6.6-2.7,9.9c-0.5,1.8-1.5,3.5-1.9,5.4c-0.7,3-0.9,6.1-1.5,9.2c-0.5,2.3-1.3,4.5-2,6.7c-0.9,3-1.9,5.9-2.9,8.9
		c-1.2,3.4-1.6,7-2.4,10.5c-1.5,6.5-3.2,12.8-4.6,19.3c-0.7,3.2-1.2,6.4-0.9,9.7c0.1,0.9-0.2,1.9-0.5,2.7c-0.5,1.2-1.2,2.2-1.8,3.4
		c-0.3,0.7-0.7,1.5-0.6,2.3c0.2,1.7-0.6,2.7-1.8,3.6c-0.9,0.7-1.7,1.4-2.5,2.2c-1.4,1.4-2.9,2.5-5.1,2c-0.5-0.1-1.1,0.2-1.6,0.3
		c-2.2,0.4-4.2,1.6-6.5,1c-0.4-0.1-0.9,0.2-1.4,0.3c-2.9,0.6-5.9,1.3-8.8,1.8c-1.8,0.3-3.7,0.3-5.5,0.5c-5,0.6-10,0.9-14.9,1.8
		c-4.4,0.9-8.8,1.2-13.3,1.6c-1.4,0.1-2.8,0.5-4.2,0.7c-2.6,0.3-5.4-1.2-6.3-3.7c-1.3-3.7-2.8-7.3-3.3-11.3
		c-0.3-3.1-1.2-6.1-1.6-9.2c-0.5-3.5-0.8-7-1.2-10.5c-0.6-5.8-1.4-11.6-1.8-17.4c-0.3-4.2-0.2-8.4-0.3-12.7c0-0.6,0.1-1.1,0-1.7
		c-0.2-2.5-0.4-4.9-0.6-7.4c-0.2-2.1-0.4-4.3-0.4-6.4c-0.1-2.9,0.1-5.8,0-8.6c-0.1-3.5-0.4-7-0.5-10.5c-0.1-1.4,0-2.9,0-4.3
		c0-0.2,0.1-0.5,0.1-0.7c0-3.2,0.1-6.4,0.1-9.5c0-0.4,0-0.8-0.1-1.2c-1-5.3-1-10.6-0.9-15.9c0-3.3-0.2-6.7-0.2-10
		c-0.1-4.4-0.1-8.8-0.2-13.2c-0.1-5-0.3-9.9-0.4-14.9c-0.3-8.9-0.4-17.7-0.8-26.6c-0.4-9.5-1-19-1.4-28.5c-0.2-4.5-0.1-8.9-0.3-13.4
		c-0.1-3.1-0.4-6.2-0.5-9.3c-0.3-6.2-0.4-12.5-0.7-18.7c-0.4-8.7-0.8-17.4-1.3-26.1c-0.3-6.9-0.7-13.9-1.1-20.8
		c-0.3-5.2-0.7-10.4-1.1-15.5c-0.7-9.2-1.5-18.5-2.3-27.7c-0.2-1.7-0.1-3.5-1.3-5c-0.5-0.6-0.4-1.8-0.6-2.8
		c-1.4,0.4-1.7,1.6-2.2,2.5c-1,1.8-2,3.6-3,5.4c-0.8,1.4-1.5,2.8-2.2,4.3c-0.3,0.7-0.5,1.3,0.1,2c0.8,1,0.3,2.2-0.5,2.4
		c-2.6,0.7-3.2,3-4.3,4.9c-1.9,3.4-3.5,7-5.2,10.5c-0.6,1.3-1,2.6-0.6,4.2c0.4,1.5-0.3,2.8-1.3,3.9c0.2-0.8,1-1.7,0.1-2.7
		c-0.9,0.5-1.5,1.1-1.2,2.1c0.1,0.3,0.8,0.4,1.2,0.6c-0.6,2.5-1.5,4.9-3,7c-0.4,0.5-0.5,1.2-0.7,1.7c-0.2,0.4-0.2,1.1-0.5,1.3
		c-1.7,0.8-2,2.3-2.2,3.9c-0.1,0.5-0.7,1.1-1.2,1.3c-1.3,0.7-1.8,1.8-1.9,3.2c-0.1,1.7-0.5,3.2-2.1,4c-0.8,0.4-0.8,1.1-0.6,1.9
		c0.7,1.9,0.1,3.6-1.1,5.5c-0.4-0.6-0.6-1.1-1-1.8c-1.7,2.7-3.3,5.2-4.3,8c-1.1,2.9-2.5,5.6-3.7,8.5c-1.2,2.8-2.3,5.6-3.3,8.5
		c-0.2,0.4,0,0.9,0,1.5c0.7-0.4,1.2-0.7,2-1.1c0,1.5-0.3,2.8-1.5,3c-2.5,0.5-2.9,2.3-3.5,4.6c0.8-0.3,1.3-0.5,1.9-0.7
		c0.2,1.2,0.2,1.2-0.6,2.4c-0.4-0.2-0.9-0.5-1.4-0.7c-0.2,0.2-0.4,0.3-0.6,0.5c-0.1,0.1-0.2,0.3-0.3,0.4c-1.1,2.6-2.2,5.2-3.4,7.9
		c-0.1,0.2-0.3,0.5-0.2,0.7c0.1,0.3,0.2,0.7,0.5,1c0.1,0.1,0.6-0.1,0.8-0.3c0.4-0.4,0.6-0.9,0.9-1.3c0.1,0.1,0.3,0.1,0.4,0.2
		c-0.3,0.9-0.6,1.9-0.9,2.7c-1.2,2.9-2.6,5.8-3.8,8.8c-1,2.7-1.9,5.4-2.8,8.1c-0.5,1.6-0.9,3.2-2.2,4.5c-0.3,0.3-0.4,0.9-0.5,1.3
		c-0.2,2.4-1.3,4.5-2.4,6.6c-1.1,2.3-2.6,4.5-2.5,7.4c0.1,1.7-0.9,3.5-1.5,5.2c-1.8,4.8-3.5,9.6-5.5,14.3c-0.8,1.8-1.5,3.6-1.7,5.6
		c-0.3,1.9-1.4,3.7-2,5.6c-2.4,7.2-4.7,14.4-7,21.7c-2.1,7-4.1,14.1-6.1,21.2c-1.4,4.8-2.9,9.6-4.1,14.5c-2.2,8.7-4.4,17.4-6.4,26.1
		c-2.1,9.4-4.2,18.9-6,28.4c-1.5,7.4-2.7,14.9-3.9,22.4c-0.6,3.6-0.6,7.3-0.5,11c0.1,5,0.4,10.1-0.9,15c-0.2,0.6-0.2,1.3-0.2,1.9
		c0.1,2.6-1.6,3.9-3.6,4.8c-1.2,0.6-2.6,0.9-3.9,1.2c-2.9,0.7-5.9,0.9-8.5,2.1c-4.6,2.1-9.5,1.9-14.2,3.2c-2.4,0.7-4.9,0.9-7.3,1.3
		c-0.5,0.1-1,0.2-1.4,0c-1.7-0.6-3.2-0.5-4.8,0.4c-0.4,0.2-1.2-0.1-1.8-0.2c-0.2,0-0.4-0.3-0.6-0.4c-0.8-0.9-2.2-1.6-1.9-3.1
		C38.2,547.4,39.8,547.7,40.7,547.2c-0.1,0.7-0.6,1.6,0.9,2C41.2,548.4,40.9,547.8,40.7,547.2z M554.1,292.3c-1.4,1.1-2.3,2.6-3,4.2
		c-1.2,2.9-2.5,5.8-3.8,8.7c-0.2,0.5-0.3,1-0.4,1.5c0.6-0.3,1-0.8,1.2-1.3c1.6-3.3,3.3-6.5,4.8-9.8
		C553.5,294.6,553.7,293.4,554.1,292.3c0.4-0.5,1-0.8,1.3-1.3c0.8-1.6,1.5-3.3,2.1-5c0.1-0.2,0-0.6,0-0.9
		C555.7,285.7,554.3,289,554.1,292.3z M683,314.6c0.2-0.7,0.5-1.4,0.6-2.1c0.9-7,1.7-14.1,2.5-21.2c0.7-5.6,1.3-11.1,1.9-16.7
		c0.8-6.6,1.5-13.2,2.3-19.7c0.5-4.6,1.2-9.2,1.7-13.8c0.3-2.1,0.5-4.3,0.7-6.4c0-0.5-0.2-1-0.3-1.5c-0.6,0.6-0.8,1.1-0.9,1.7
		c-0.5,3.6-1,7.3-1.4,10.9c-1.3,9.5-2.6,18.9-3.8,28.4c-0.7,5.1-1.1,10.1-1.7,15.2c-0.3,2.5-0.7,5.1-1,7.6
		c-0.4,3.8-0.8,7.6-1.2,11.4C682.2,310.6,681.8,312.6,683,314.6z M682.3,319c-0.2,0-0.3,0-0.5,0c0,0.8-0.1,1.5-0.2,2.3
		c-0.7,6.2-1.5,12.3-2.2,18.5c-0.8,7-1.4,13.9-2.1,20.9c-0.5,5.6-1.1,11.3-1.5,16.9c-0.3,3.7-0.6,7.5-0.8,11.2
		c-0.1,2.4-0.2,4.8-0.3,7.2c0,0.3,0.3,0.6,0.7,1.5c0.3-1.1,0.5-1.7,0.6-2.2c0.5-5.8,1.1-11.6,1.6-17.4c0.3-3.8,0.6-7.6,0.9-11.5
		c0.4-5.3,1-10.7,1.3-16c0.4-5.7,0.9-11.4,1.6-17.1c0.6-4.6,0.8-9.2,1.2-13.8C682.6,319.4,682.4,319.2,682.3,319z M707.9,497.8
		c-0.4-0.6-0.6-1.6-1.2-1.8c-0.5-0.2-1.5,0.1-2.1,0.5c-0.7,0.4-1.5,1.1-1.6,1.7c-0.3,2.3-0.8,4.4-2.8,5.9c-0.2,0.1-0.1,0.8,0.1,1.1
		c0.1,0.2,0.6,0.4,0.8,0.3c1.4-0.8,3.3-1,4.2-2.6c0.5-0.9,1.2-1.7,1.7-2.6C707.3,499.5,707.5,498.8,707.9,497.8z M568,263.9
		c1.6,0.2,1.9-0.6,2.3-1.3c0.7-1.1,1.4-2.1,2-3.2c0.5-0.9,1.1-1.8,1.5-2.7c0.7-1.7,0.9-3.7,2.2-5.2c0.2-0.2,0-0.7-0.1-1.1
		c-0.4,0.1-1-0.1-1.2,0.2c-0.7,0.8-1.4,1.7-1.9,2.7c-1.4,2.5-2.7,5.1-3.9,7.6C568.5,261.8,568.4,262.8,568,263.9z M243.1,302
		c1-0.3,1.5-1,1-2.1c-0.4-0.9-0.7-1.8-0.2-2.7c0.7-1.3,0.3-2.3-0.6-3.2c-0.7-0.7-0.8-1.4-0.3-2.4c0.8-1.5,0.3-2.8-0.8-4.1
		c-0.3,0.9-0.5,1.8-0.5,2.7c0.1,1.4-0.1,2.8-0.3,4.2c-0.3,2.6,0.4,5.1,1.4,7.6C242.8,301.9,242.9,301.9,243.1,302z M679.9,377.5
		c2-0.5,3.6-0.6,5.2-0.2c0.3,0.1,0.6,0.3,0.9,0.3c0.5-0.1,1.2-0.3,1.3-0.7c0.2-0.4,0-1.1-0.3-1.5c-0.2-0.3-0.8-0.5-1.2-0.6
		c-0.9-0.2-1.7-0.3-2.6-0.4c-1.4,0-2.1-0.5-2-2c0-0.4-0.4-0.8-0.7-1.4C679.5,372.8,679.3,375.9,679.9,377.5z M693.7,60.3
		c-0.9-1.2-1.8-1.4-2.9-0.8c-0.8,0.5-1.7,0.8-2.6,1.3c-2.7,1.6-2.7,2.5-0.1,4.2c0.1,0.1,0.3,0.1,0.9,0.2
		C690.6,63.7,692.1,62,693.7,60.3z M1227.6,266.3c-0.2-0.1-0.3-0.1-0.5-0.2c-1.9,2.6-4.8,4.6-4.5,8.5c2.2-0.2,4.1-1.7,4.1-3.4
		c0-1.3,0.2-2.5,0.8-3.7C1227.7,267.2,1227.6,266.7,1227.6,266.3z M1299.6,166.5c0.5,0,0.8,0.1,1.1,0c2.2-0.5,2.8-2.5,3.4-4.2
		c0.4-1.2,0.8-2.2,2-2.8c0.4-0.2,0.7-0.9,1-1.4c-1.1-0.7-1.6-0.2-2.1,0.4c-0.4,0.4-0.6,1.1-1,1.3C1301.2,161,1301,164,1299.6,166.5z
		 M558.8,281.9c3.1-1.8,3.9-4.9,5.1-7.6c0.3-0.7,0.6-1.5-0.1-2.2C561.9,273.6,558.8,279.5,558.8,281.9z M573.9,270.1
		c-0.3,0-0.7,0-1,0.1c-1,0.4-1.6,1.2-1.4,2.2c0.1,0.8,0.5,1.7,1.1,2.1c0.4,0.3,1.6-0.1,2.1-0.6c0.7-0.6,1.1-1.5,1.5-2.3
		c0.3-0.7,0-1.3-0.8-1.4C574.9,270.1,574.5,270.1,573.9,270.1z M736.2,390.6c1.5-0.2,2.3-1,2.4-1.9c0.2-2,2-3.7,0.9-5.9
		c-1.5,0.6-2.2,1-2.3,1.9C736.7,386.6,736.5,388.5,736.2,390.6z M495.5,436.3c-3,2.6-3.8,4.9-2.6,7c0.3-0.1,0.6-0.2,0.9-0.3
		c2.2-1.1,0.5-3.6,1.8-5.1C495.8,437.6,495.5,436.9,495.5,436.3z M245,403c2-1.1,2-1.1,1.6-2.8c-0.1-0.4-0.2-0.9-0.1-1.4
		c0.3-1.5-0.5-2.3-1.6-3.3C243.4,398.2,245.1,400.4,245,403z M464.8,281.3c1.9-1.9,1.1-4.2,1.8-6c0.4-0.9,0.2-1.9-0.5-2.6
		c-1,0.1-1.3,0.8-1.3,1.5C464.9,276.4,463.6,278.6,464.8,281.3z M67.4,385.6c0.2,0.1,0.4,0.1,0.7,0.2c1-2.9,2.1-5.7,3-8.6
		c0.1-0.4,0-0.9-0.1-1.9c-1.6,1.8-1.9,3.6-2.5,5.2C67.8,382,66.9,383.7,67.4,385.6z M471.5,255.2c1.9-0.8,2.3-1.3,2.1-2.5
		c-0.2-1.2-0.2-2.5-0.4-3.7c-0.1-0.5-0.4-0.9-0.6-1.5C471.6,249.3,471,253.6,471.5,255.2z M742.1,374.8c1.5-1.3,2.6-2.4,3.2-3.9
		c0.2-0.5,0-1.5-0.4-1.9c-0.7-0.6-1.4,0-1.8,0.6C742.2,371,741.9,372.6,742.1,374.8z M969.6,217.1c-1.5,0.1-2.1,0.8-2.5,1.7
		c-0.3,0.8-0.6,1.7-0.8,2.5c-0.3,0.8-1.4,1.4-0.9,2.7c0.5-0.4,1.1-0.6,1.3-1C967.6,221.1,969.3,219.6,969.6,217.1z M1324.1,137
		c2.6-0.8,5.5-4.5,5-6.2C1326.5,132.8,1325.6,133.8,1324.1,137z M1211.1,293.5c1.1-0.8,2.3-1.5,3.3-2.5c0.6-0.6,0.3-1.6-0.4-2.1
		c-0.7-0.5-1.2,0-1.6,0.6c-0.5,0.6-0.9,1.3-1.4,1.9C1210.7,292,1210.3,292.6,1211.1,293.5z M502.2,427.5c1.7-1.6,2.6-4.8,2-6.4
		C501.9,422.3,501.8,423.9,502.2,427.5z M1369.3,98c-1.1,0.2-2.1,0.3-3,0.6c-1,0.3-1,1.2-0.6,2c0.3,0.7,0.9,1.4,1.6,0.9
		C1368.2,100.7,1369.5,100,1369.3,98z M956.4,238.8c-1.6,0.4-1.6,0.4-2,1.2c-1.5,2.9-1.6,3.3-1.1,4.6
		C954.8,243.1,956.1,240.8,956.4,238.8z M451.4,367.5c1.4-2,1.6-5.6,0.3-7.4C451.6,362.7,450.5,364.8,451.4,367.5z M247.6,328.1
		c1.4-0.9,1-2.1,1-3.2c0-0.9-0.4-1.7-1.5-2.1C246.7,324.7,245.7,326.5,247.6,328.1z M246.4,351.9c-0.1,0.9,0,1.6,1.1,1.7
		c0.9,0.1,1.5-0.6,1.6-1.9c0.1-0.9,0-1.6-1.1-1.8C247.2,349.9,246.6,350.7,246.4,351.9z M674.5,407c0.8-1.3,1.1-5,0.4-6.4
		C673.8,402.5,673.6,405.8,674.5,407z M543.1,316.1c-1.7,1.8-4,7.5-3.9,9.9c0.8-1.9,1.6-3.5,2-5.1
		C541.6,319.3,543.3,318.2,543.1,316.1z M450.3,381.2c-1.1,2.5-1.2,4.5-0.4,6C450.9,385.2,450.8,383.2,450.3,381.2z M61.1,387.2
		c1.8-1.3,1.1-3.4,1.9-5c0.2-0.4,0-0.9,0-1.7C61.6,382.3,60.7,385.4,61.1,387.2z M1169.4,57.8c-1.8-0.6-3-1-4.2-1.4
		c0.1,0.6,0.4,0.9,0.6,1.3c0.2,0.4,0.2,0.9,0.4,1.3c0.3,0.7,1,0.9,1.6,0.5C1168.2,59.2,1168.6,58.7,1169.4,57.8z M866.6,298.7
		c-1.5,1.7-1.6,2.8-0.3,4.3C867.6,301.6,867.7,300.8,866.6,298.7z M569.2,283.1c0-1.1-1.6-2.4-2.4-2.1c-0.4,0.2-0.7,0.9-0.7,1.3
		c0,0.8,1.2,1.6,2.1,1.4C568.7,283.7,569,283.3,569.2,283.1z M632,139.5c-0.2-0.2-0.5-0.6-0.8-0.7c-1-0.2-2.2,1-2.2,2.1
		c0,0.4,0.5,0.7,0.8,1c0,0,0.2,0,0.2,0C630.9,141.7,631.9,140.6,632,139.5z M1195,319.3c-1.4,1-2.5,1.9-2.9,3.3
		c-0.1,0.3,0.2,0.8,0.4,1.5C1193.8,322.6,1195.5,321.7,1195,319.3z M1199.2,223.3c1.2-0.9,2.6-1.8,2.4-3.8
		C1199.2,220.3,1199.1,220.5,1199.2,223.3z M868.4,274c1.3-2.3,1.3-2.7,0-4.1C867.2,271.5,867.2,272,868.4,274z M614,164.1
		c-1.2,1.3-2.6,2.5-3.1,4.7C613.1,167.6,613.6,165.9,614,164.1z M1087.9,357.3c-1.4,1.2-1.4,1.5-0.4,3.5
		C1089,359.1,1089.1,358.8,1087.9,357.3z M913.8,319.4c1.4-1.1,1.8-2.4,1.9-3.9C913.6,316.3,913.3,316.9,913.8,319.4z M861.9,386.6
		c-1.3,1.4-1.2,2.4-0.6,3.3c0.2,0.3,0.8,0.4,1.8,0.8C862.6,389.2,862.3,388.2,861.9,386.6z M1375.7,99.3c-0.2-0.2-0.4-0.4-0.6-0.6
		c-0.8,0.5-1.7,1-2.5,1.6c-0.3,0.2-0.2,0.8-0.3,1.2c0.4,0.1,1,0.3,1.3,0.1C1374.3,101,1375,100.1,1375.7,99.3z M854.2,352.3
		c-1.5,1.7-1.4,2.6,0.3,3.9C855.3,354.8,854.3,353.7,854.2,352.3z M1232.3,259.1c-1.3,0.9-2,1.9-2.1,3.5
		C1232.3,261.7,1232.6,261.2,1232.3,259.1z M461.1,278c1.4-2.1,1.4-2.4,0-3.8C460.2,275.4,460.5,276.5,461.1,278z M569,279.4
		c1-1.2,2.2-1.9,1.8-3.5C568.7,276.8,568.5,277.1,569,279.4z M516.5,389.3c1.4-1.1,1.8-2.1,1.5-3.8
		C516.7,386.5,516.1,387.5,516.5,389.3z M1309.8,153.9c0.9,0.5,1.6,0.2,2.1-0.5c0.4-0.6,0.6-1.3-0.4-1.8
		C1310.3,151.9,1309.6,152.5,1309.8,153.9z M451.4,370.4c-1.7,0.7-1.9,1.8-0.5,3C451.9,372.1,451.9,372.1,451.4,370.4z M69.9,342.9
		c1.2-0.6,2-1.3,2-2.5c0-0.3-0.4-0.5-0.7-0.8C70.1,340.5,69.5,341.5,69.9,342.9z M682.6,353.3c-1.5,1.1-1.7,2.6-0.6,4.1
		C683,356.2,682.5,354.8,682.6,353.3z M1085.4,374.3c1.5-1.6,1.5-1.7,0-3C1084.6,372.2,1084.2,373.1,1085.4,374.3z M997,267.1
		c1.3-1.2,1.2-2.3,1-3.5C997.3,264.6,996.5,265.4,997,267.1z M324,250.7c-0.5,0.8-0.9,1.2-0.9,1.6c0,0.3,0.6,0.8,0.9,0.8
		c0.3,0,0.9-0.5,0.9-0.8C324.9,251.9,324.5,251.5,324,250.7z M540.5,296.3c-0.1-0.1-0.3-0.2-0.4-0.3c-1.5,0.8-1.5,0.8-1.1,2.8
		C539.6,297.9,540,297.1,540.5,296.3z M489.3,454.2c0.9-0.4,1.3-0.9,0.9-1.8c-0.1-0.2-0.7-0.4-0.9-0.3c-0.8,0.5-1,1.2-0.4,2
		C489,454.1,489.1,454.1,489.3,454.2z M344.9,194.1c1.3-0.5,1.8-0.9,1.5-1.5c-0.1-0.3-0.7-0.6-0.9-0.5
		C344.6,192.4,344.4,193.1,344.9,194.1z M975.2,321.8c0.5-0.5,1-1.1,1.7-1.8C974.9,319.8,974.9,319.8,975.2,321.8z M450.7,378.5
		c0.5-1.4,0.8-2.2-0.1-3.1C449.8,376.4,449.9,377.2,450.7,378.5z M694.2,220.1c-1.3,1.3-1.3,1.3-0.4,2.6
		C694.5,221.9,694.8,221.1,694.2,220.1z M808.3,243.7c1.3-0.9,1.6-1.2,1.2-1.8c-0.1-0.2-0.6-0.4-0.7-0.3c-0.8,0.4-1,1.1-0.7,1.9
		C808.1,243.6,808.2,243.7,808.3,243.7z M1116.6,242.3c1.9-0.8,1.9-0.8,1-3C1117.3,240.2,1117,241,1116.6,242.3z M1124.7,491.3
		c-0.5-2-0.5-2-2.3-1C1123.1,490.7,1123.7,490.9,1124.7,491.3z M976.1,203.9c1.8,0.6,1.8,0.6,2-1.5
		C977.3,203,976.7,203.5,976.1,203.9z M858.9,370.6c0.4-0.7,0.4-1.3-0.4-1.7c-0.2-0.1-0.7,0.1-0.7,0.3
		C857.5,370,858,370.5,858.9,370.6z M495.6,442.2c0.2,0.1,0.4,0.3,0.5,0.4c1-0.5,1.1-1.4,1.1-2.5
		C496.7,440.8,496.2,441.5,495.6,442.2z M452.5,355.3c-1,0.8-1,1.5-0.4,2.4C453,357.1,453.3,356.5,452.5,355.3z M1374.9,102.7
		c2,0,2.1-0.2,1.2-1.5C1375.7,101.7,1375.3,102.2,1374.9,102.7z M1151,301.4c-0.1-0.1-0.3-0.2-0.4-0.3c-1,0.7-1,0.7-0.6,2.1
		C1150.3,302.5,1150.7,301.9,1151,301.4z M1284.6,186.9c0.7-0.2,1.2-0.6,1-1.4c0-0.2-0.6-0.4-0.7-0.3
		C1284.2,185.6,1283.9,186.1,1284.6,186.9z M721.7,435.7c-0.2-0.1-0.5-0.1-0.7-0.2c-0.1,0.5-0.3,1.1-0.5,1.9
		C722,437,722.1,436.5,721.7,435.7z M1291.2,178.2c-1.3-0.3-1.8,0.3-1.5,1.5C1290.2,179.2,1290.7,178.7,1291.2,178.2z M966.3,339.6
		c-1.4,0.5-1.4,0.5-0.8,1.9C965.9,340.8,966.1,340.2,966.3,339.6z M454.5,335.3c1.2-0.6,1.1-1.2,0-2
		C454.5,334.2,454.5,334.8,454.5,335.3z M799.3,262.7c-0.4,0.4-0.7,0.7-0.8,1c0,0.1,0.4,0.6,0.6,0.6c0.3,0,0.6-0.3,0.9-0.5
		C799.8,263.4,799.7,263.1,799.3,262.7z M588.6,233.4c0.2,0.1,0.4,0.3,0.6,0.4c0.6-0.4,1.2-0.7,0.5-2.1
		C589.2,232.4,588.9,232.9,588.6,233.4z M545.5,311.7c-0.2-0.1-0.3-0.1-0.5-0.2c-0.9,1.1-0.9,1.1-0.5,2.5
		C544.9,313.1,545.2,312.4,545.5,311.7z M695,216c-0.2,0-0.4-0.1-0.7-0.1c-0.7,0.6-0.7,1.1,0.4,2.1C694.9,217.1,694.9,216.5,695,216
		z M1148.1,127.7c-0.2-0.1-0.4-0.1-0.6-0.2c-0.7,0.5-0.8,1,0.1,2.1C1147.9,128.7,1148,128.2,1148.1,127.7z M1363,102.8
		c-0.1-0.2-0.2-0.4-0.4-0.6c-0.9,0.2-1.4,0.9-1.7,1.9C1361.6,103.6,1362.3,103.2,1363,102.8z M679.9,382.2c0.5-1.2,0.8-2-0.2-3.1
		C679.1,380.2,678.9,380.9,679.9,382.2z M796.8,269.5c1.1-0.7,1.1-0.7,0.8-2C797.2,268.3,797,268.9,796.8,269.5z M903.7,338.2
		c1.1-0.6,1.1-0.6,1.1-2C904.3,337,904,337.6,903.7,338.2z M452.2,352.4c0.2,0.1,0.4,0.2,0.5,0.4c0.7-0.1,0.9-0.5,0.6-1.3
		c-0.1-0.2-0.4-0.2-0.5-0.3C452.6,351.6,452.4,352,452.2,352.4z M687.5,298c0.3,0,0.6,0,0.9,0.1c0-0.5,0-1.1,0-1.6
		c0,0-0.6-0.1-0.6-0.1C687.7,296.9,687.6,297.5,687.5,298z M701.4,165.9c-0.8,0.6-1.2,1.2-0.3,2
		C701.3,167.3,701.4,166.6,701.4,165.9z M1023.6,230c-0.2-0.1-0.5-0.3-0.7-0.4c-0.2,0.6-0.4,1.2-0.6,1.8c0.2,0.1,0.3,0.1,0.5,0.2
		C1023,231.2,1023.3,230.6,1023.6,230z M693.8,225c-0.2,0-0.5,0-0.7,0c-0.4,0.6-0.6,1.2,0.6,2C693.7,226.1,693.8,225.5,693.8,225z
		 M679.9,390.1c-0.4-0.3-0.6-0.6-0.9-0.8c-0.2,0.3-0.6,0.6-0.7,0.8c0,0.3,0.4,0.6,0.6,0.8C679.3,390.7,679.5,390.5,679.9,390.1z
		 M506.2,109.2c-0.3,0.6-0.5,0.8-0.6,1.2c0,0.1,0.2,0.3,0.4,0.5c0.3-0.2,0.6-0.4,0.7-0.7C506.8,110,506.5,109.7,506.2,109.2z
		 M1185.2,337.7c-0.3-0.2-0.5-0.5-0.6-0.4c-0.3,0.2-0.5,0.5-0.7,0.7c0.2,0.2,0.4,0.4,0.6,0.5
		C1184.7,338.3,1184.9,338.1,1185.2,337.7z M651.5,137.2c-0.2-0.1-0.5-0.3-0.7-0.4c-0.2,0.6-0.5,1.1-0.7,1.7
		c0.2,0.1,0.4,0.2,0.5,0.3C650.9,138.2,651.2,137.7,651.5,137.2z M733.7,400.9c-0.2-0.2-0.4-0.3-0.6-0.5c-0.7,0.2-1.2,0.6-0.7,2
		C733,401.7,733.3,401.3,733.7,400.9z M1045.8,103.5c0.2,0.1,0.3,0.2,0.5,0.3c0.1-0.3,0.3-0.6,0.3-0.9c0-0.2-0.3-0.6-0.4-0.6
		c-0.2,0-0.6,0.2-0.7,0.5C1045.4,102.9,1045.7,103.2,1045.8,103.5z M957.6,352.8c-0.5-0.2-0.8-0.4-1.1-0.4c-0.2,0-0.3,0.3-0.5,0.5
		c0.2,0.2,0.4,0.5,0.6,0.5C956.9,353.5,957.1,353.2,957.6,352.8z M1079.9,414.9c0.2,0,0.4,0,0.6,0c-0.1-0.4-0.1-0.8-0.2-1.3
		c-0.1,0-0.3,0-0.4,0C1079.9,414.1,1079.9,414.5,1079.9,414.9z M593.1,197c0.2,0.1,0.3,0.3,0.5,0.4c0.3-0.4,0.5-0.8,0.8-1.2
		c-0.1-0.1-0.2-0.2-0.4-0.3C593.8,196.3,593.4,196.6,593.1,197z M695.6,213.6c-0.4-0.2-0.6-0.4-0.8-0.5c-0.2,0.2-0.4,0.5-0.4,0.7
		c0,0.2,0.4,0.4,0.6,0.5C695.1,214.1,695.3,213.9,695.6,213.6z M575.5,258.6c-0.2-0.1-0.3-0.1-0.5-0.2c-0.1,0.4-0.3,0.8-0.4,1.2
		c0.2,0.1,0.3,0.1,0.5,0.2C575.2,259.4,575.4,259,575.5,258.6z M1126.9,166.6c-0.2,0-0.4,0-0.6,0c0,0.4,0.1,0.8,0.1,1.2
		c0.1,0,0.3,0,0.4,0C1126.9,167.4,1126.9,167,1126.9,166.6z M960.2,352.7c-0.3-0.2-0.6-0.5-0.6-0.4c-0.2,0.2-0.5,0.4-0.6,0.6
		c-0.1,0.1,0.2,0.3,0.3,0.5C959.5,353.2,959.7,353,960.2,352.7z M254.4,417c-0.4,0.5-0.6,0.7-0.7,1c0,0.2,0.1,0.4,0.2,0.6
		c0.2-0.1,0.6-0.2,0.7-0.4C254.7,417.9,254.5,417.6,254.4,417z M73.8,366.1c0.2,0.1,0.4,0.1,0.6,0.2c0.2-0.6,0.3-1.1,0.5-1.7
		c-0.2-0.1-0.3-0.1-0.5-0.2C74.1,365,73.9,365.5,73.8,366.1z M849,352.3c-0.1,0-0.3,0-0.4,0c0,0.4,0.1,0.7,0.1,1.1
		c0.1,0,0.3,0,0.4,0C849.1,353.1,849,352.7,849,352.3z M973.8,208.9c0.1,0.1,0.2,0.2,0.3,0.3c0.3-0.4,0.7-0.8,1-1.2
		c-0.1-0.1-0.3-0.2-0.4-0.3C974.5,208.1,974.1,208.5,973.8,208.9z M750.1,224.1c0.1,0.1,0.3,0.1,0.4,0.2c0.1-0.3,0.3-0.7,0.4-1
		c-0.1-0.1-0.2-0.1-0.4-0.2C750.4,223.4,750.2,223.8,750.1,224.1z M681,366.6c0.1,0.1,0.2,0.2,0.4,0.3c0.1-0.2,0.2-0.4,0.2-0.6
		c0-0.2-0.1-0.4-0.2-0.6c-0.2,0.1-0.4,0.2-0.4,0.4C680.8,366.2,680.9,366.4,681,366.6z M576.8,240.2c0.2,0.1,0.4,0.3,0.4,0.3
		c0.1-0.1,0.3-0.3,0.4-0.5c0,0-0.3-0.3-0.3-0.2C577.1,239.9,577,240,576.8,240.2z M464.7,284.3c-0.3,0.4-0.5,0.6-0.5,0.7
		c0,0.2,0.1,0.4,0.2,0.6c0.2-0.1,0.5-0.2,0.5-0.3C465,285.1,464.9,284.9,464.7,284.3z M468.7,254.4c-0.4-0.4-0.5-0.6-0.7-0.8
		c-0.1-0.1-0.5,0.2-0.5,0.3c0,0.3,0.1,0.6,0.3,0.8C467.9,254.8,468.2,254.6,468.7,254.4z M1072.8,401.5c-0.1-0.2-0.2-0.3-0.3-0.5
		c-0.2,0.1-0.3,0.2-0.5,0.4c0,0.1,0.2,0.4,0.2,0.4C1072.5,401.7,1072.7,401.6,1072.8,401.5z M248.2,219.3c-0.1-0.2-0.2-0.4-0.2-0.5
		c-0.1,0.1-0.3,0.3-0.4,0.4c0,0.1,0.1,0.3,0.2,0.4C247.9,219.5,248.1,219.4,248.2,219.3z M586,239.4c-0.2-0.1-0.3-0.2-0.4-0.3
		c-0.1,0.1-0.3,0.2-0.3,0.3c0,0.1,0.1,0.3,0.2,0.4C585.7,239.7,585.9,239.5,586,239.4z M1125.7,172.3c0.1-0.1,0.2-0.2,0.3-0.3
		c-0.1-0.1-0.2-0.2-0.3-0.3c-0.1,0.1-0.3,0.2-0.3,0.3C1125.4,172.1,1125.6,172.2,1125.7,172.3z M1007.8,256c0.1-0.1,0.2-0.1,0.3-0.2
		c-0.1-0.1-0.1-0.3-0.2-0.3c-0.1,0-0.2,0.1-0.3,0.2C1007.7,255.8,1007.7,255.9,1007.8,256z M644.2,271.3c-0.2-0.1-0.3-0.2-0.5-0.3
		c0,0-0.2,0.3-0.2,0.3c0.1,0.2,0.3,0.3,0.4,0.4C643.9,271.6,644,271.5,644.2,271.3z M461.7,271.8c0.2-0.3,0.4-0.4,0.5-0.5
		c0-0.1-0.1-0.4-0.1-0.4c-0.2,0-0.5,0.1-0.5,0.2C461.5,271.3,461.6,271.5,461.7,271.8z M695.9,505.3c0.1,0.1,0.3,0.3,0.4,0.4
		c0.3-0.3,0.6-0.6,0.9-1c-0.1-0.1-0.2-0.2-0.3-0.3C696.5,504.7,696.2,505,695.9,505.3z M241.4,270.4c0,0.2-0.1,0.4-0.1,0.6
		c0,0.1,0.2,0.1,0.4,0.2c0.1-0.2,0.1-0.4,0.2-0.6C241.8,270.5,241.6,270.5,241.4,270.4z M700,509.5c0.2-0.3,0.3-0.5,0.5-0.6
		c-0.2-0.1-0.3-0.3-0.5-0.3c-0.1,0-0.3,0.2-0.3,0.3C699.8,509.1,699.9,509.2,700,509.5z M478.4,203.7c0.2-0.3,0.4-0.4,0.5-0.6
		c0-0.1-0.2-0.4-0.2-0.4c-0.2,0-0.5,0.1-0.5,0.3C478.1,203.1,478.2,203.3,478.4,203.7z"/>
	<path class="st0" d="M627.2,168.6c-0.3,1.3-0.4,2.2-0.7,3.3c1.7-0.2,2.2-1.4,2.9-2.4c1.1-1.6,2.3-3.1,3.5-4.7
		c0.2,0.1,0.3,0.2,0.5,0.3c-0.1,0.4-0.3,0.8-0.4,1.2c-1.5,3-3.6,5.6-4.8,8.7c-0.9,2.3-2.6,4.3-4,6.5c-0.3,0.5-0.8,0.9-0.8,1.4
		c-0.2,2.3-1.9,3.6-3.1,5.2c-1.8,2.3-3.8,4.4-5.1,7.1c-1.3,2.8-3.2,5.3-5,7.9c-0.4,0.6-1,1.1-1.6,1.6c-1.6-1,0-2.3-0.7-3.4
		c-0.6,0.1-1.2,0.1-2.2,0.2c0.2-0.6,0.2-1.1,0.4-1.4c1.3-2.4,2.7-4.7,4-7.1c0.1-0.2,0.2-0.5,0.4-0.6c2.6-2,3.4-5.1,4.7-7.9
		c0.4-0.9,0.9-1.9,1.6-2.6c1.6-1.7,2.9-3.5,3.9-5.7c0.6-1.3,1.5-2.4,2.4-3.5C624.3,171.4,625.6,170.2,627.2,168.6z"/>
	<path class="st0" d="M511.3,424.9c0.3-1.7,0.5-3.4,1-5.1c1.2-3.9,2.5-7.7,3.9-11.6c0.3-0.7,0.9-1.3,1.6-2.4
		c0.8,3.8-0.5,6.6-1.6,9.5c-0.5,1.4-1.1,2.8-1.6,4.2c-0.6,2.1-1.9,3.7-2.9,5.5C511.6,425,511.4,425,511.3,424.9z"/>
	<path class="st0" d="M1029.3,231.5c-0.6,2.5-1.5,5.1-3.2,7.1c-1.1,1.3-0.5,3.3-2.2,4.1c-1.7,0.7-2,2.4-3,3.6
		c-0.4,0.5-0.8,0.9-1.3,1.4c-0.2-0.2-0.3-0.4-0.3-0.5c2-2.2,2.2-5.3,3.5-7.7c1.4-2.5,3-4.9,4.6-7.2c0.3-0.5,0.9-0.7,1.4-1
		C1029.1,231.2,1029.2,231.3,1029.3,231.5z"/>
	<path class="st0" d="M967.2,350.1c0.2-0.5,0.4-1,0.6-1.6c0.5-1.4,1-2.7,2.9-2.3c0.5,0.1,1-0.4,1.5-0.6c0.1,2.1-1.1,3.6-3,3.9
		C968.5,349.7,967.8,349.9,967.2,350.1L967.2,350.1z"/>
	<path class="st0" d="M1139.7,451.4c1,0.6,2,1.1,3.2,1.8c-0.3,0.9-0.7,1.9-1,2.8C1139.2,455,1137.7,453.7,1139.7,451.4z"/>
	<path class="st0" d="M382.9,115.1c-0.6-2-0.2-3.7,1.2-5c0.4-0.3,1.1-0.3,1.7-0.5c0.1,0.6,0.4,1.4,0.2,1.7
		C384.8,112.4,385,114.6,382.9,115.1z"/>
	<path class="st0" d="M783.4,299c0.8-0.3,1.6-0.5,2.8-0.9c-0.4,1.3-0.7,2.5-1,3.6c-0.3,1.1,0,2.6-2,3
		C782.6,302.7,784,300.8,783.4,299C783.4,298.9,783.4,299,783.4,299z"/>
	<path class="st0" d="M260.9,400.4c0.2,1.4-0.1,2.2-1.4,2.1c-0.9,0-1.9,0.2-2.8,0.2c-0.4,0-0.9-0.4-1-0.7c0-0.3,0.4-1,0.7-1
		c0.8,0,1.7,0.5,2.5,0.4C259.6,401.3,260.2,400.7,260.9,400.4z"/>
	<path class="st0" d="M1037.7,217.1c0.9-1.8,1.6-3.7,3.6-4.8C1040.9,215.6,1039.9,216.8,1037.7,217.1L1037.7,217.1z"/>
	<path class="st0" d="M927.3,428.8c-0.8-2.2-0.7-2.3,1.4-3.3C929.5,427.4,929.3,428,927.3,428.8z"/>
	<path class="st0" d="M1261.9,235.9c-0.3-1.2-0.6-2.2-0.9-3.1c1.2-0.5,2.1-0.3,2.5,0.6C1264,234.5,1263.3,235.1,1261.9,235.9z"/>
	<path class="st0" d="M38.4,486.3c-0.9-2.4-0.1-3.8,1.2-5.7C39.8,482.8,39.7,484.4,38.4,486.3z"/>
	<path class="st0" d="M256,389c-1.3-2-1.3-2.4-0.1-4.1C256.7,386.3,257.1,387.5,256,389z"/>
	<path class="st0" d="M249.2,307.5c0.5,1.5,1.1,2.9,0.1,4.6C247.9,310.5,248.8,309,249.2,307.5z"/>
	<path class="st0" d="M1034.5,222.2c0.2,2.3-0.1,3-1.2,3.2c-0.3,0-0.7-0.1-0.8-0.3c-0.2-0.2-0.2-0.7-0.1-0.8
		C1032.9,223.7,1033.6,223.1,1034.5,222.2z"/>
	<path class="st0" d="M787.4,295.3c-0.5-2.1-0.4-2.4,1.5-3.7C789.4,293.2,788.4,294.1,787.4,295.3z"/>
	<path class="st0" d="M992.9,293.7c-0.3,1.5-0.7,2.5-1.7,3.3C990.3,295,990.5,294.6,992.9,293.7z"/>
	<path class="st0" d="M64.3,351.4c-0.2-1.2,0.2-2.1,1-2.9C66.2,350.4,66,350.8,64.3,351.4z"/>
	<path class="st0" d="M254.5,274.2c0.1,1,0.2,1.5,0.2,2c0,0.1-0.1,0.1-0.2,0.4c-0.3,0-1,0.2-1.2,0c-0.4-0.4-0.8-1.2-0.6-1.5
		C253,274.6,253.8,274.5,254.5,274.2z"/>
	<path class="st0" d="M156.2,133c-0.5,1.3-0.8,2.3-1.2,3.4C154,134.7,154.2,134.3,156.2,133z"/>
	<path class="st0" d="M35.6,552.8c-0.5-1-1-1.6-1-2.2c0-0.4,0.3-1.1,0.7-1.2c0.6-0.3,1.4,0.7,1.3,1.6
		C36.5,551.5,36.1,551.9,35.6,552.8z"/>
	<path class="st0" d="M967.1,350.1c0.2,1.3,0.6,2.6-1.1,3.5C964.9,351.8,966.5,351.1,967.1,350.1
		C967.2,350.1,967.1,350.1,967.1,350.1z"/>
	<path class="st0" d="M1148.1,440.5c-0.5,1.4-0.8,2.2-1.2,3.1C1145.5,442.1,1145.6,441.8,1148.1,440.5z"/>
	<path class="st0" d="M913.5,475.2c0.1,0.1,0.2,0.2,0.3,0.2c0.3,0.9,0.1,1.7-0.9,2c-0.1,0.1-0.6-0.3-0.6-0.5
		C912.1,476,912.5,475.4,913.5,475.2z"/>
	<path class="st0" d="M1130.4,476.5c0.6-1,1.3-1,2-0.4c0.2,0.1,0.1,0.8-0.1,1C1131.5,477.6,1130.9,477.1,1130.4,476.5z"/>
	<path class="st0" d="M244.6,314.6c-1.3-0.7-1.2-1.5-0.1-2.4C245.3,313,245.4,313.7,244.6,314.6z"/>
	<path class="st0" d="M1037.6,217.1c0,2.2-0.1,2.5-1.8,3.3C1035.3,218.6,1037.1,218.2,1037.6,217.1
		C1037.7,217.1,1037.6,217.1,1037.6,217.1z"/>
	<path class="st0" d="M150,141.6c0.6-0.7,1.3-1.4,1.9-2.1c0.1,0.1,0.3,0.2,0.4,0.3c-0.3,0.9-0.7,1.8-1.8,2.2
		C150.4,141.9,150.2,141.8,150,141.6z"/>
	<path class="st0" d="M866.8,317.3c0.9,1.1,0.8,1.9,0,2.8C866,319.2,865.9,318.5,866.8,317.3z"/>
	<path class="st0" d="M1065.6,168.3c0.4-0.9,0.9-1.8,1.3-2.8C1067.9,167,1067.8,167.2,1065.6,168.3
		C1065.6,168.2,1065.6,168.3,1065.6,168.3z"/>
	<path class="st0" d="M1017.4,251.6c-0.5,0.6-0.9,1.2-1.6,2.1C1015.7,252.2,1015.7,252.2,1017.4,251.6z"/>
	<path class="st0" d="M1065.6,168.2c0,1.1-0.2,2-1.6,2.4C1063.8,169.2,1064.9,168.9,1065.6,168.2
		C1065.6,168.3,1065.6,168.2,1065.6,168.2z"/>
	<path class="st0" d="M506,440.9c-0.2,0.7-0.4,1.3-0.7,2C504.5,442,505,441.4,506,440.9z"/>
	<path class="st0" d="M526.5,360.5c-0.1,0.4-0.1,0.9-0.2,1.3c-0.2,0-0.6-0.1-0.6-0.1c0-0.4,0.1-0.9,0.2-1.3
		C526.1,360.5,526.3,360.5,526.5,360.5z"/>
	<path class="st0" d="M790.3,287.7c0.2-0.6,0.5-1.2,0.7-1.8C791.9,287,791.4,287.5,790.3,287.7z"/>
	<path class="st0" d="M459.2,356.1c-0.3-0.4-0.6-0.7-0.6-0.9c0-0.3,0.3-0.5,0.4-0.8c0.2,0.2,0.6,0.3,0.6,0.5
		C459.6,355.2,459.4,355.5,459.2,356.1z"/>
	<path class="st0" d="M974.4,336.2c-0.3,0.3-0.5,0.6-0.8,0.9c0,0-0.3-0.2-0.3-0.2c0.2-0.4,0.4-0.7,0.6-1.1
		C974.1,336,974.3,336.1,974.4,336.2z"/>
	<path class="st0" d="M1351,116.9c-0.2,0.4-0.5,0.8-0.7,1.3c-0.1-0.1-0.2-0.1-0.4-0.2c0.2-0.4,0.5-0.8,0.7-1.3
		C1350.7,116.8,1350.8,116.9,1351,116.9z"/>
	<path class="st0" d="M157.4,130.3c0.2-0.3,0.3-0.6,0.5-0.9c0.1,0.1,0.3,0.1,0.4,0.2c-0.2,0.3-0.3,0.6-0.5,0.9
		C157.7,130.5,157.5,130.4,157.4,130.3z"/>
	<path class="st0" d="M544.1,344.7c-0.2-0.1-0.3-0.2-0.4-0.3c0.2-0.2,0.4-0.3,0.6-0.5c0.1,0.1,0.2,0.3,0.2,0.4
		C544.5,344.4,544.3,344.6,544.1,344.7z"/>
	<path class="st0" d="M253.4,268.2c-0.3,0.1-0.5,0.2-0.7,0.3c-0.1-0.2-0.2-0.4-0.2-0.6c0-0.1,0.3-0.3,0.3-0.2
		C253,267.8,253.1,268,253.4,268.2z"/>
	<path class="st0" d="M1150.8,119.8c0.1-0.1,0.1-0.3,0.2-0.4c0.1,0.1,0.3,0.1,0.3,0.2c0,0.1-0.1,0.2-0.2,0.4
		C1151,119.9,1150.9,119.8,1150.8,119.8z"/>
</g>
</svg>
