<?xml version="1.0" encoding="UTF-8"?>
<svg width="128px" height="42px" viewBox="0 0 128 42" version="1.1" xmlns="http://www.w3.org/2000/svg" xmlns:xlink="http://www.w3.org/1999/xlink">
    <title>Google play icon</title>
    <g id="Design-New" stroke="none" stroke-width="1" fill="none" fill-rule="evenodd">
        <g id="Homepage-b2" transform="translate(-190.000000, -5370.000000)" fill="#000000">
            <g id="Group-30" transform="translate(100.000000, 4949.000000)">
                <g id="Google-play-icon" transform="translate(90.000000, 421.000000)">
                    <g id="Group-3" transform="translate(0.000000, 0.055040)">
                        <path d="M64.011872,1.38356 L64.011872,1.37836 C54.693312,1.37836 45.374672,1.37772 36.056112,1.3786 C28.377232,1.37932 20.698352,1.38172 13.019472,1.38372 C10.526592,1.38436 8.033392,1.3646 5.540752,1.39348 C3.280352,1.41972 1.367792,3.3738 1.366992,5.61388 C1.36340093,15.8126 1.36340093,26.0114 1.36340093,36.21012 C1.36340093,38.61668 3.275472,40.52132 5.677152,40.52132 C15.192592,40.52156 24.708112,40.52124 34.223552,40.52108 C38.049472,40.52108 41.875312,40.52124 45.701232,40.52124 C57.883072,40.52124 70.064912,40.52044 82.246752,40.52156 C85.832752,40.52188 89.418752,40.53052 93.004752,40.53004 C102.763472,40.52868 112.522112,40.50516 122.280672,40.5359806 C124.522992,40.54308 126.650912,38.70412 126.647152,36.141 C126.632432,26.0762 126.616752,16.01124 126.658153,5.94668 C126.668512,3.40524 124.718192,1.34308 122.082912,1.36946476 C117.257472,1.41852 112.431232,1.38356 107.605312,1.38356 L64.011872,1.38356 Z M128.000032,36.985 C127.934752,37.23788 127.873232,37.49188 127.803712,37.74364 C127.115152,40.23812 124.898832,41.9174 122.260192,41.91836 C112.196832,41.9218 102.133472,41.91812 92.070112,41.91724 C88.231552,41.91684 84.392992,41.91636 80.554432,41.91644 C68.480352,41.9166 56.406272,41.917 44.332192,41.91716 C40.400352,41.91716 36.468512,41.91612 32.536752,41.91636 C23.621792,41.91676 14.706752,41.91476 5.791792,41.9199613 C2.878352,41.9218 0.520432,39.93732 0.070512,37.08404 C0.060752,37.02212 0.024112,36.96452 3.20000001e-05,36.905 L3.20000001e-05,5.065 C0.023552,5.00404 0.059552,4.945 0.068832,4.88196 C0.339072,3.05172 1.282432,1.65836 2.888112,0.7706 C3.522272,0.41996 4.266112,0.26756 4.960032,0.025 L123.040032,0.025 C123.085472,0.04804 123.128912,0.08492 123.176832,0.09212 C124.979392,0.36364 126.354752,1.29764 127.236032,2.87268 C127.596752,3.5174 127.751552,4.2774 128.000032,4.985 L128.000032,36.985 Z" id="Fill-1"></path>
                    </g>
                    <path d="M6.894376,21.079848 C6.894376,17.333208 6.885336,13.586568 6.907256,9.840088 C6.909656,9.432808 7.028696,8.996968 7.205016,8.627688 C7.401336,8.216328 7.527656,8.234888 7.851336,8.563608 C9.422376,10.158808 10.991816,11.755528 12.562536,13.350968 C14.235896,15.050648 15.910136,16.749448 17.583976,18.448568 C18.481656,19.359928 19.373416,20.277288 20.281176,21.178568 C20.518056,21.413768 20.504856,21.566488 20.271256,21.798408 C17.282296,24.765928 14.301576,27.741688 11.319496,30.716088 C10.300376,31.732568 9.283576,32.751368 8.264696,33.768088 C7.928776,34.103288 7.729496,34.103448 7.385016,33.783608 C6.991736,33.418328 6.894056,32.948248 6.894136,32.439688 C6.894696,28.653048 6.894376,24.866488 6.894376,21.079848" id="Fill-4"></path>
                    <path d="M47.507496,19.162656 C47.138936,19.524976 46.781816,19.875936 46.410616,20.240736 C45.662456,19.374096 44.679496,18.962736 43.531896,18.835296 C41.125976,18.568176 38.756696,20.363856 38.403576,22.761056 C38.061016,25.086896 38.906856,26.949456 40.796776,28.030816 C42.836936,29.198096 45.766776,28.567136 46.941496,26.652016 C47.264456,26.125376 47.395976,25.481296 47.646056,24.808576 L43.097016,24.808576 L43.097016,23.301216 L49.055896,23.301216 C49.256376,25.050816 49.023336,26.679776 47.838776,28.057376 C46.422696,29.704016 44.580856,30.293696 42.465896,30.094736 C39.634856,29.828576 37.421336,27.909216 36.851576,25.161296 C35.997496,21.042496 38.689976,17.924176 41.912696,17.396496 C43.995256,17.055616 45.880696,17.515376 47.419336,19.053376 C47.455256,19.089296 47.483576,19.132656 47.507496,19.162656" id="Fill-6"></path>
                    <path d="M69.676208,25.646408 C69.704608,25.897048 69.723648,26.149128 69.763008,26.398008 C69.937008,27.498648 70.860848,28.472488 71.875648,28.632888 C73.045088,28.817768 74.119568,28.303048 74.653968,27.277848 C75.050688,26.516728 75.101328,25.702008 74.954368,24.869128 C74.604848,22.888888 72.350288,21.955368 70.816208,23.156088 C70.008608,23.788248 69.702208,24.649608 69.676208,25.646408 L69.676208,25.646408 Z M76.546768,21.466008 C76.546768,24.277048 76.622208,27.050408 76.527328,29.818008 C76.414288,33.112408 72.691088,35.019368 69.993568,33.229928 C69.316128,32.780568 68.796688,32.182248 68.440048,31.376248 C68.921888,31.172808 69.388768,30.975688 69.853808,30.779368 C70.732448,32.468008 72.164128,32.575048 73.283088,32.220168 C74.550208,31.818248 75.136288,30.632168 75.008848,28.768648 C74.972688,28.777768 74.923968,28.774808 74.907808,28.796328 C73.631808,30.492248 70.924768,30.644088 69.298928,28.881528 C67.538368,26.972888 67.724528,23.719208 69.705648,22.037528 C71.128528,20.829608 73.572128,20.780088 75.012528,22.619848 L75.012528,21.466008 L76.546768,21.466008 Z" id="Fill-8"></path>
                    <path d="M8.461832,7.957072 C8.743592,8.077712 9.038952,8.173952 9.305192,8.322512 C13.093432,10.436272 16.877512,12.557472 20.663032,14.676112 C21.975512,15.410672 23.289432,16.142672 24.601752,16.877472 C24.961032,17.078752 24.963912,17.131312 24.674072,17.420352 C23.598232,18.493232 22.515592,19.559472 21.455192,20.647312 C21.174552,20.935152 21.002552,20.937712 20.718552,20.645152 C18.036952,17.882272 15.344952,15.129472 12.648712,12.380832 C11.342872,11.049632 10.021352,9.733872 8.708152,8.409952 C8.599192,8.300112 8.499672,8.180752 8.395752,8.065872 C8.417752,8.029632 8.439832,7.993392 8.461832,7.957072" id="Fill-10"></path>
                    <path d="M94.989416,23.33676 C95.075016,23.34796 95.114536,23.35748 95.154056,23.35756 C96.007016,23.35948 96.860136,23.36964 97.713016,23.35892 C98.837576,23.34492 99.770456,22.38228 99.784616,21.23964 C99.798376,20.1362 98.878536,19.14908 97.768296,19.11564 C96.889416,19.08924 96.009256,19.1058 95.129656,19.10636 C95.082136,19.10636 95.034616,19.13436 94.989416,19.1486 L94.989416,23.33676 Z M94.967736,24.88676 L94.967736,29.81948 L93.390136,29.81948 L93.390136,17.62044 C93.460456,17.61036 93.535016,17.59036 93.609576,17.5902 C95.022136,17.58852 96.434856,17.57412 97.847176,17.59324 C99.526296,17.61588 101.118776,18.96636 101.359336,20.5394 C101.645496,22.4114 100.730856,24.0386 99.000536,24.62468 C98.495416,24.79572 97.937576,24.8486 97.399816,24.87628 C96.606136,24.917 95.808856,24.88676 94.967736,24.88676 L94.967736,24.88676 Z" id="Fill-12"></path>
                    <path d="M9.672384,33.53504 C10.558704,32.65896 11.452864,31.79056 12.329904,30.90528 C15.038384,28.17128 17.738864,25.42928 20.445744,22.6936 C21.229744,21.90128 21.073344,21.9988 21.770384,22.69928 C22.578144,23.51104 23.380704,24.328 24.183184,25.14504 C24.503184,25.47088 24.497584,25.5144 24.089024,25.7388 C19.343984,28.3448 14.598064,30.94904 9.851904,33.55296 C9.811904,33.57496 9.765904,33.58608 9.722704,33.60224 C9.705904,33.57984 9.689184,33.55744 9.672384,33.53504" id="Fill-14"></path>
                    <path d="M31.0687603,21.097896 C31.072952,21.670696 30.797752,22.011496 30.380392,22.249416 C29.525352,22.736696 28.664872,23.214536 27.805112,23.693496 C27.061432,24.107816 26.313752,24.515016 25.571752,24.932296 C25.292712,25.089256 25.092072,25.080856 24.844392,24.821256 C23.888712,23.819736 22.909192,22.840456 21.922392,21.869256 C21.661912,21.612936 21.665992,21.453656 21.930472,21.197096 C23.096312,20.065816 24.245192,18.916776 25.390392,17.764536 C25.593432,17.560216 25.769032,17.525736 26.020872,17.668776 C27.455112,18.483256 28.897032,19.284216 30.331912,20.097416 C30.742472,20.330136 31.052072,20.648216 31.0687603,21.097896" id="Fill-16"></path>
                    <path d="M108.251288,28.6768 C109.486328,28.68288 110.617528,27.77288 110.855048,26.6484 C110.919368,26.34392 110.854408,26.14624 110.551048,26.0184 C109.619048,25.6256 108.666248,25.5664 107.712248,25.87984 C107.012008,26.10992 106.545048,26.7976 106.588968,27.41304 C106.629528,27.9804 107.072728,28.43952 107.761208,28.60904 C107.940408,28.6532 108.128648,28.66064 108.251288,28.6768 M110.853368,24.80424 C110.952328,23.84968 110.431528,23.05232 109.513528,22.75272 C108.373848,22.3808 107.271928,22.79296 106.688568,23.8368 C106.223208,23.6404 105.753528,23.44208 105.238408,23.22472 C105.683768,22.27432 106.370888,21.60984 107.360328,21.35592 C108.897928,20.96128 110.348568,21.1092 111.542888,22.30192 C112.066248,22.82464 112.360168,23.4836 112.376168,24.19832 C112.417688,26.06096 112.390088,27.9252 112.390088,29.8188 L110.883528,29.8188 L110.883528,28.66064 C110.356568,29.3804 109.782168,29.85272 109.008168,30.02288 C107.829528,30.28192 106.742968,30.12312 105.783448,29.32648 C104.606248,28.34904 104.589768,25.99392 106.108248,25.07016 C107.512008,24.21616 108.973368,24.21584 110.484088,24.6848 C110.596808,24.71976 110.704728,24.77 110.815608,24.81152 C110.825848,24.81536 110.840648,24.80696 110.853368,24.80424" id="Fill-18"></path>
                    <path d="M82.260584,24.624344 L87.026984,24.624344 C87.026824,23.629944 86.126584,22.752424 85.019624,22.645784 C83.625384,22.511384 82.518504,23.297384 82.260584,24.624344 M87.118984,27.253304 C87.564184,27.437224 88.015304,27.623544 88.502344,27.824664 C88.063224,28.786104 87.395304,29.491064 86.432424,29.842984 C85.046744,30.349384 83.674744,30.277224 82.418104,29.451224 C81.279624,28.702904 80.686264,27.601224 80.556904,26.252904 C80.410744,24.729784 80.777064,23.365064 81.891144,22.268744 C83.067544,21.110984 84.499304,20.934504 86.007384,21.372104 C87.487064,21.801384 88.314024,22.889064 88.631464,24.362824 C88.740984,24.871224 88.749304,25.401464 88.808504,25.965624 L82.161144,25.965624 C82.145944,27.141784 82.868904,28.182664 83.925864,28.541864 C85.154184,28.959384 86.138344,28.566744 87.118984,27.253304" id="Fill-20"></path>
                    <path d="M56.840824,25.653208 C56.796904,25.337928 56.786744,25.013208 56.702824,24.708968 C56.428104,23.713208 55.799944,23.014408 54.801784,22.732248 C53.781784,22.443848 52.881624,22.720328 52.143944,23.489688 C51.131704,24.545368 51.076904,26.578888 52.028424,27.686088 C53.104184,28.937768 54.805224,29.025448 55.979384,27.872408 C56.593624,27.269208 56.823624,26.504248 56.840824,25.653208 M54.073144,21.1730425 C56.587064,21.169368 58.403784,23.025688 58.4062667,25.600568 C58.408824,28.254008 56.621464,30.139368 54.102744,30.1400081 C51.584424,30.140568 49.761384,28.264168 49.7600231,25.670008 C49.758584,23.051688 51.556904,21.176648 54.073144,21.1730425" id="Fill-22"></path>
                    <path d="M60.523552,25.53864 C60.535952,25.76368 60.530192,25.9916 60.563792,26.21352 C60.732912,27.33072 61.324912,28.14368 62.396192,28.52144 C63.408912,28.87848 64.328992,28.65224 65.111632,27.89792 C66.292912,26.75944 66.294672,24.53432 65.109712,23.39112 C64.055952,22.3744 62.446832,22.36752 61.410592,23.38512 C60.811552,23.97352 60.530432,24.69952 60.523552,25.53864 M58.947472,25.63728 C58.948592,23.51776 60.094352,21.846 61.976912,21.34952 C65.355232,20.45856 67.852032,22.96904 67.569232,26.10936 C67.429872,27.65688 66.747552,28.91368 65.346512,29.62752 C62.322272,31.1684 58.847792,29.156 58.947472,25.63728" id="Fill-24"></path>
                    <path d="M114.18828,33.572544 C114.79652,32.252064 115.35188,31.001664 115.95204,29.773104 C116.11036,29.448944 116.10732,29.199584 115.9674,28.885504 C114.91772,26.527824 113.8814,24.164224 112.84108,21.802384 C112.79884,21.706464 112.7586,21.609664 112.68804,21.444704 C113.26676,21.444704 113.80284,21.432544 114.337,21.458304 C114.41308,21.461984 114.50156,21.640384 114.54844,21.752864 C115.291,23.532384 116.02756,25.314384 116.76628,27.095504 C116.81076,27.202864 116.86212,27.307504 116.9374,27.472784 C117.33244,26.498224 117.7066,25.576864 118.07948,24.654944 C118.47332,23.681104 118.87316,22.709584 119.25332,21.730464 C119.33868,21.510784 119.44324,21.423584 119.68396,21.434624 C120.13548,21.455344 120.5886,21.440624 121.10652,21.440624 C120.82132,22.108624 120.5562,22.739184 120.28356,23.366464 C118.8574,26.647344 117.42596,29.925904 116.00828,33.210464 C115.89084,33.482464 115.75516,33.601024 115.45156,33.579424 C115.05788,33.551264 114.66068,33.572544 114.18828,33.572544" id="Fill-26"></path>
                    <polygon id="Fill-28" points="78.03704 29.82592 79.58432 29.82592 79.58432 17.61088 78.03704 17.61088"></polygon>
                    <polygon id="Fill-30" points="102.44472 29.81704 103.97968 29.81704 103.97968 17.61696 102.44472 17.61696"></polygon>
                    <path d="M70.355432,8.359616 C70.841272,8.229856 71.173512,8.325136 71.460072,8.781856 C72.217272,9.988416 73.032472,11.158656 73.825432,12.342896 C73.882632,12.428336 73.946312,12.509616 74.073752,12.684416 L74.073752,10.453056 L74.073752,8.329536 L74.773272,8.329536 L74.773272,13.914816 C74.180392,14.076656 74.057672,14.033936 73.734632,13.550256 C72.898872,12.298816 72.062872,11.047456 71.226472,9.796416 C71.192792,9.746096 71.153432,9.699616 71.061032,9.577936 L71.061032,13.947936 L70.355432,13.947936 L70.355432,8.359616 Z" id="Fill-31"></path>
                    <path d="M41.834336,9.894264 C41.625456,9.957544 41.413936,10.021544 41.203936,10.085144 C40.821936,9.042744 40.122256,8.640984 38.812416,8.986024 C38.483456,9.072664 38.130336,9.340024 37.938656,9.625384 C37.345936,10.507784 37.308976,11.486824 37.770416,12.431544 C38.180976,13.272184 39.363376,13.621784 40.361456,13.222744 C41.332176,12.834744 41.234336,12.948264 41.152736,11.760104 C40.895296,11.760104 40.632736,11.760184 40.370256,11.760184 C40.105776,11.760184 39.841296,11.760104 39.551456,11.760104 L39.551456,11.100904 L41.929376,11.100904 C41.929376,11.755624 41.935856,12.429544 41.920816,13.102984 C41.918976,13.183464 41.813296,13.280504 41.732736,13.337464 C40.627296,14.118504 39.438416,14.313224 38.187056,13.752024 C37.409216,13.403144 36.907856,12.772664 36.815136,11.920104 C36.751536,11.335864 36.720816,10.709304 36.861696,10.148424 C37.350336,8.203624 39.234016,7.975064 40.512016,8.361544 C41.255376,8.586344 41.665136,9.079864 41.834336,9.894264" id="Fill-32"></path>
                    <path d="M66.701328,8.8751926 C65.767648,8.87288 65.051488,9.416 64.876768,10.33096 C64.793088,10.7692 64.773088,11.23328 64.811008,11.67824 C64.892288,12.63264 65.594688,13.29992 66.553248,13.40592 C67.383568,13.49768 68.206288,12.94712 68.468608,12.09144 C68.680608,11.40016 68.675168,10.70296 68.402928,10.0228 C68.108128,9.28656 67.495328,8.8772 66.701328,8.8751926 M69.390048,11.16752 C69.377728,12.7636 68.566208,13.78728 67.113968,14.03064 C65.534368,14.29528 64.122608,13.19072 64.002928,11.57744 C63.924288,10.51728 64.093248,9.51608 64.964368,8.79424 C65.814048,8.09008 66.803968,8.04128 67.789888,8.42176 C68.761968,8.79672 69.221488,9.60504 69.359248,10.60936 C69.384448,10.79344 69.380528,10.98144 69.390048,11.16752" id="Fill-33"></path>
                    <polygon id="Fill-34" points="43.819688 11.342464 43.819688 13.273744 47.249768 13.273744 47.249768 13.950624 43.062328 13.950624 43.062328 8.334704 47.112248 8.334704 47.112248 8.969184 43.840648 8.969184 43.840648 10.689104 46.905688 10.689104 46.905688 11.342464"></polygon>
                    <polygon id="Fill-35" points="50.482384 13.957192 49.724544 13.957192 49.724544 8.984792 47.875184 8.984792 47.875184 8.341032 52.342464 8.341032 52.342464 8.968872 50.482384 8.968872"></polygon>
                    <polygon id="Fill-36" points="58.790704 8.97512 56.948384 8.97512 56.948384 8.34232 61.409104 8.34232 61.409104 8.96736 59.535744 8.96736 59.535744 13.924 58.790704 13.924"></polygon>
                    <path d="M55.293864,13.939768 C55.287304,13.854328 55.277944,13.789128 55.277944,13.723848 C55.277144,11.940408 55.277304,10.156968 55.277304,8.343448 L56.054584,8.343448 L56.054584,9.874968 C56.054584,11.033688 56.055304,12.192488 56.054344,13.351288 C56.053784,14.038728 56.052584,14.038728 55.293864,13.939768" id="Fill-37"></path>
                </g>
            </g>
        </g>
    </g>
</svg>
