<?xml version="1.0" encoding="UTF-8"?>
<svg width="128px" height="42px" viewBox="0 0 128 42" version="1.1" xmlns="http://www.w3.org/2000/svg" xmlns:xlink="http://www.w3.org/1999/xlink">
    <title>App store icon</title>
    <g id="Design-New" stroke="none" stroke-width="1" fill="none" fill-rule="evenodd">
        <g id="Homepage-b2" transform="translate(-348.000000, -5370.000000)" fill="#000000">
            <g id="Group-30" transform="translate(100.000000, 4949.000000)">
                <g id="Group-25" transform="translate(90.000000, 421.000000)">
                    <g id="App-store-icon" transform="translate(158.000000, 0.000000)">
                        <path d="M32.719296,16.188656 C30.419616,17.571616 29.250736,19.556896 29.472496,22.191856 C29.692016,24.800256 31.105936,26.630496 33.565776,27.691856 C33.227936,28.377296 32.932976,29.058736 32.568016,29.700336 C31.677696,31.265296 30.716256,32.786016 29.395456,34.035456 C28.507136,34.875776 27.492656,35.486016 26.213216,35.316496 C25.657376,35.242816 25.096176,35.055936 24.586576,34.816016 C23.343936,34.230816 22.057456,33.958016 20.708896,34.226416 C20.013456,34.364816 19.323696,34.604176 18.676096,34.896976 C16.937136,35.682976 15.385136,35.435936 13.996176,34.154576 C13.576816,33.767696 13.174176,33.352656 12.822016,32.904736 C10.865136,30.415856 9.520576,27.639056 8.996736,24.499296 C8.669136,22.535136 8.650736,20.572496 9.278496,18.654656 C9.888656,16.790896 11.069936,15.372496 12.722656,14.322816 C14.674656,13.082976 16.708176,13.005936 18.828896,13.808176 C19.387616,14.019536 19.957536,14.208736 20.534256,14.363696 C21.576176,14.643776 22.589296,14.493536 23.577776,14.091616 C24.666736,13.648976 25.778336,13.278336 26.969616,13.2723219 C29.361456,13.260416 31.178496,14.396816 32.719296,16.188656" id="Fill-1"></path>
                        <path d="M54.182496,26.111464 C54.205856,26.114664 54.229216,26.117864 54.252656,26.121144 C54.252656,26.400744 54.247296,26.680584 54.253536,26.960024 C54.281776,28.218984 55.111936,29.274104 56.289696,29.552664 C57.492496,29.837144 58.722176,29.296344 59.266656,28.157944 C59.932416,26.766184 59.961136,25.326344 59.319536,23.915864 C58.812976,22.802184 57.903696,22.266504 56.729376,22.382264 C55.584656,22.495064 54.801856,23.162424 54.452416,24.231144 C54.258576,24.823944 54.265856,25.482584 54.182496,26.111464 L54.182496,26.111464 Z M54.254416,35.282184 L52.062176,35.282184 L52.062176,20.796504 L53.969376,20.796504 C54.003936,21.218664 54.038096,21.636664 54.075856,22.098424 C54.335376,21.852744 54.547616,21.618264 54.792576,21.425304 C56.573136,20.022264 59.674416,20.194984 61.126656,22.599944 C62.346656,24.620104 62.221856,27.792184 60.829136,29.637304 C59.416736,31.508584 56.678736,31.988184 54.837376,30.682824 C54.653936,30.552744 54.489376,30.395864 54.254416,30.199944 L54.254416,32.732024 L54.254416,35.282184 Z" id="Fill-3"></path>
                        <path d="M65.406016,26.106232 C65.417456,26.106952 65.428816,26.107752 65.440176,26.108392 C65.440176,26.414632 65.439456,26.720952 65.440336,27.027192 C65.443536,28.208472 66.243856,29.228392 67.405776,29.532552 C68.577536,29.839272 69.832896,29.331592 70.369696,28.275912 C71.085056,26.868952 71.105296,25.412552 70.508576,23.961832 C70.237616,23.303192 69.769936,22.788472 69.080336,22.536392 C67.497456,21.957752 65.812096,22.927912 65.520336,24.600072 C65.434176,25.093752 65.441536,25.603752 65.406016,26.106232 L65.406016,26.106232 Z M63.223616,20.790232 L65.138576,20.790232 C65.168176,21.220632 65.197056,21.639512 65.225936,22.058312 C65.626016,21.738472 65.987456,21.361672 66.422896,21.116392 C68.417696,19.992552 71.210656,20.444552 72.413376,22.851832 C73.520096,25.067032 73.447056,27.325192 72.119536,29.431912 C70.854656,31.439352 68.066576,32.018072 66.133616,30.775112 C65.904336,30.627752 65.700576,30.440632 65.443136,30.239112 L65.443136,35.275112 L63.223616,35.275112 L63.223616,20.790232 Z" id="Fill-5"></path>
                        <path d="M43.23832,24.994592 L46.88416,24.994592 C46.26168,23.114672 45.6472,21.258592 45.04872,19.451072 C44.4624,21.246272 43.85616,23.102832 43.23832,24.994592 M41.26376,31.160512 L39.0172,31.160512 C40.6408,26.381712 42.25424,21.632912 43.8824,16.840912 C44.64296,16.840912 45.41328,16.831232 46.18264,16.854192 C46.2704,16.856832 46.39184,17.028752 46.43192,17.144832 C47.21536,19.415872 47.99048,21.689712 48.76448,23.964032 C49.55584,26.289232 50.34424,28.615472 51.13384,30.941312 C51.1544,31.002032 51.17392,31.062992 51.20376,31.153792 L48.9024,31.153792 C48.65976,30.446752 48.4052,29.711632 48.15536,28.974912 C47.942,28.345952 47.72888,27.716752 47.52648,27.084272 C47.45176,26.850992 47.33208,26.762432 47.0712,26.765632 C45.7256,26.781872 44.3796,26.780912 43.03392,26.767472 C42.78672,26.764992 42.69248,26.848832 42.6196,27.074912 C42.21224,28.338192 41.78768,29.595872 41.36872,30.855392 C41.33544,30.955552 41.30008,31.054992 41.26376,31.160512" id="Fill-7"></path>
                        <path d="M78.065,28.531464 C79.44236,29.367464 80.85228,29.749224 82.391,29.409304 C83.24268,29.221064 83.873,28.733064 84.07244,27.840104 C84.28028,26.909784 84.02972,26.105464 83.22004,25.570104 C82.72596,25.243464 82.17828,24.985384 81.62924,24.757544 C80.741,24.388984 79.87372,24.003064 79.11588,23.389784 C77.09476,21.754424 77.38964,18.274344 80.0954,17.100344 C81.48548,16.497224 82.9338,16.461864 84.38996,16.852344 C84.79868,16.961944 85.19772,17.114504 85.58916,17.276504 C85.66868,17.309464 85.75836,17.492824 85.7338,17.573624 C85.57276,18.106104 85.38164,18.629464 85.20852,19.132024 C84.64396,18.940344 84.10868,18.719384 83.553,18.579784 C82.83484,18.399224 82.10052,18.382584 81.38348,18.618824 C80.66116,18.856824 80.1494,19.321304 80.01988,20.090344 C79.89252,20.846424 80.1294,21.514104 80.78484,21.934024 C81.3406,22.290104 81.95668,22.551704 82.54452,22.858184 C83.28516,23.244344 84.06716,23.569784 84.75636,24.032984 C87.16244,25.650264 86.78804,29.715464 83.90356,30.905464 C81.83916,31.757144 79.79052,31.527384 77.79492,30.593304 C77.51908,30.464184 77.48324,30.308984 77.58764,30.030984 C77.76844,29.549464 77.90268,29.050424 78.065,28.531464" id="Fill-9"></path>
                        <path d="M95.265664,26.0242 C95.233024,26.8446 95.426624,27.64796 95.878544,28.38428 C96.899024,30.047 99.086624,30.12276 100.215664,28.5354 C101.177904,27.18252 101.220864,24.88812 100.309984,23.50052 C99.185184,21.78716 96.793664,21.88068 95.805664,23.67956 C95.412224,24.39596 95.245504,25.16916 95.265664,26.0242 M103.215264,25.72916 C103.196304,27.77204 102.622384,29.38756 101.031824,30.49924 C98.716464,32.1174 95.467504,31.55684 93.948944,29.3026 C92.335504,26.90756 92.888304,23.1822 95.131504,21.51252 C97.688624,19.60908 102.426864,20.3554 103.125904,24.7874 C103.183744,25.1538 103.196784,25.52732 103.215264,25.72916" id="Fill-11"></path>
                        <path d="M116.855784,24.768656 C116.965784,23.420016 116.040984,22.267856 114.823864,22.211456 C113.319304,22.141776 112.063784,23.288656 112.037784,24.768656 L116.855784,24.768656 Z M118.961464,26.476496 L111.986584,26.476496 C111.835144,28.057136 113.113544,29.494976 114.751304,29.565216 C115.307464,29.589056 115.872984,29.567696 116.423704,29.491296 C116.971464,29.415296 117.505944,29.244096 118.094424,29.103136 C118.211064,29.541376 118.350824,30.022896 118.456504,30.511776 C118.471704,30.582416 118.341704,30.729456 118.247704,30.771696 C117.298024,31.198336 116.288184,31.339936 115.257464,31.381856 C114.299544,31.420816 113.373544,31.296976 112.501464,30.877456 C110.999784,30.154976 110.179704,28.923776 109.917384,27.314176 C109.645304,25.644816 109.854104,24.045776 110.794744,22.598816 C112.132104,20.541616 115.094184,19.867776 117.071304,21.174416 C118.244504,21.949776 118.782504,23.121616 118.947624,24.464336 C119.027704,25.115776 118.961464,25.785216 118.961464,26.476496 L118.961464,26.476496 Z" id="Fill-13"></path>
                        <path d="M92.636832,29.366856 C92.667392,29.897256 92.704832,30.374456 92.714592,30.852216 C92.716672,30.956696 92.640672,31.136136 92.565392,31.157736 C91.423952,31.484376 90.286512,31.611416 89.219312,30.918776 C88.523952,30.467496 88.273952,29.749736 88.167072,28.982856 C88.095712,28.471096 88.086512,27.947976 88.083392,27.429736 C88.073472,25.818376 88.079792,24.206776 88.079792,22.546456 L86.550272,22.546456 L86.550272,20.785176 L88.074512,20.785176 L88.074512,18.977816 C88.795152,18.751976 89.487872,18.534936 90.221472,18.305176 L90.221472,20.772776 L92.822752,20.772776 L92.822752,22.510376 L90.234512,22.510376 L90.234512,22.973976 C90.234512,24.599816 90.235232,26.225576 90.234272,27.851496 C90.233232,29.648216 91.086352,29.648296 92.287472,29.450936 C92.390992,29.433976 92.492192,29.402136 92.636832,29.366856" id="Fill-15"></path>
                        <path d="M109.8516,20.63248 L109.8516,22.32456 L109.8516,22.6356 C109.48712,22.6356 109.1432,22.59528 108.81176,22.6428 C107.58496,22.81872 106.72392,23.89888 106.7152,25.27048 C106.7036,27.0948 106.71128,28.91928 106.71064,30.74368 C106.71056,30.87328 106.71064,31.0028 106.71064,31.1544 L104.49936,31.1544 L104.49936,20.80992 L106.38616,20.80992 C106.41712,21.24336 106.44816,21.67728 106.48424,22.18144 C107.30648,20.96336 108.3508,20.3408 109.8516,20.63248" id="Fill-17"></path>
                        <path d="M20.771912,13.471232 C20.170232,10.557472 23.005272,6.774512 26.588872,6.562592 C27.102232,9.572512 24.442152,13.508832 20.771912,13.471232" id="Fill-19"></path>
                        <path d="M40.027072,13.083656 C40.523712,13.083656 40.988752,13.115336 41.448272,13.078296 C43.757952,12.891976 44.497712,11.230456 44.065952,9.411976 C43.963552,8.980696 43.660112,8.516136 43.311952,8.239896 C42.341712,7.470376 41.185312,7.578216 40.027072,7.697176 L40.027072,13.083656 Z M39.048672,7.029576 C40.297392,6.924456 41.506832,6.796536 42.705072,7.070856 C44.324032,7.441496 45.159792,8.446616 45.234032,10.062376 C45.310512,11.726536 44.458192,13.008136 42.945552,13.503256 C41.914592,13.840776 40.335072,13.928696 39.048672,13.714536 L39.048672,7.029576 Z" id="Fill-21"></path>
                        <path d="M57.636952,12.751624 C57.986072,11.625864 58.363992,10.492424 58.680152,9.341944 C58.792872,8.931624 58.978392,8.798264 59.369992,8.858904 C59.499272,8.878904 59.634232,8.862024 59.830072,8.862024 C59.774392,9.023224 59.731192,9.152504 59.685272,9.280744 C59.188952,10.668904 58.674072,12.050744 58.206232,13.448344 C58.062472,13.877944 57.762072,13.713224 57.502712,13.756664 C57.241512,13.800504 57.132792,13.673224 57.053192,13.436824 C56.663672,12.280104 56.258072,11.128904 55.847752,9.945624 C55.784072,10.164824 55.732792,10.386424 55.655912,10.598664 C55.303192,11.572344 54.930712,12.539144 54.592872,13.517864 C54.472392,13.866984 54.215352,13.742264 54.001512,13.748744 C53.823832,13.754104 53.608392,13.842504 53.512792,13.549784 C53.018072,12.034744 52.506472,10.525224 52.003032,9.013064 C51.991512,8.978504 52.006712,8.935144 52.009752,8.890984 C52.049592,8.881304 52.086552,8.865944 52.124072,8.864104 C52.972632,8.823944 52.968312,8.825464 53.203032,9.648744 C53.500712,10.692584 53.806392,11.734024 54.105432,12.765864 C54.518792,11.589224 54.957192,10.412424 55.337432,9.217064 C55.459032,8.834824 55.687992,8.880824 55.967832,8.853224 C56.283912,8.821944 56.377032,8.983144 56.460072,9.236264 C56.847432,10.416744 57.247752,11.593144 57.636952,12.751624" id="Fill-23"></path>
                        <path d="M84.827152,11.302088 L84.828432,11.302088 C84.828432,11.169128 84.830272,11.036168 84.828112,10.903208 C84.817232,10.215448 84.484112,9.746408 83.867712,9.548648 C83.222032,9.341608 82.532432,9.545368 82.156592,10.070248 C81.712672,10.690248 81.656992,11.372328 81.895312,12.078968 C82.176992,12.914248 82.749792,13.232328 83.672832,13.093368 C84.414912,12.981528 84.810512,12.477288 84.826912,11.621208 C84.828912,11.514888 84.827152,11.408488 84.827152,11.302088 L84.827152,11.302088 Z M84.827792,6.613368 L85.813152,6.613368 L85.813152,13.713768 L84.967152,13.713768 L84.967152,12.999288 C84.437632,13.701128 83.695152,13.846408 82.932032,13.857288 C82.322432,13.866088 81.803552,13.551688 81.381232,13.127208 C80.510272,12.251928 80.559792,10.366168 81.457392,9.468968 C82.381312,8.545528 83.855472,8.504728 84.827792,9.438328 L84.827792,8.018088 L84.827792,6.613368 Z" id="Fill-25"></path>
                        <path d="M108.261248,6.610064 L109.232128,6.610064 L109.232128,9.590064 C109.897568,8.853344 110.653408,8.613424 111.539808,8.844784 C112.259088,9.032544 112.736528,9.525984 112.782048,10.241744 C112.855168,11.391584 112.801648,12.549424 112.801648,13.730624 L111.859648,13.730624 C111.859648,13.004224 111.861968,12.288864 111.858608,11.573584 C111.857088,11.241264 111.869008,10.906144 111.831728,10.577184 C111.754768,9.897904 111.242128,9.475344 110.571088,9.505344 C109.860928,9.537184 109.261168,10.071184 109.244128,10.749264 C109.219408,11.729744 109.237808,12.711344 109.237808,13.724304 L108.261248,13.724304 L108.261248,6.610064 Z" id="Fill-27"></path>
                        <path d="M70.177304,11.325296 C70.280264,11.664656 70.337624,12.026896 70.494504,12.339056 C70.985704,13.316576 72.298264,13.473936 73.010184,12.663696 C73.636024,11.951376 73.668824,10.737696 73.072824,10.001616 C72.696504,9.536816 72.201064,9.359376 71.615304,9.466096 C70.761144,9.621776 70.243464,10.322576 70.177304,11.325296 M71.951944,8.7670512 C73.498824,8.769456 74.564984,9.806016 74.548344,11.291376 C74.530904,12.841776 73.410744,13.873456 71.751064,13.8675613 C70.293064,13.862336 69.201224,12.777056 69.214504,11.346416 C69.229064,9.786576 70.313784,8.764496 71.951944,8.7670512" id="Fill-29"></path>
                        <path d="M93.677696,11.295688 C93.677696,11.189128 93.686896,11.081688 93.676256,10.976248 C93.566016,9.886328 92.640576,9.224808 91.614496,9.499768 C90.900496,9.691048 90.415216,10.477848 90.447696,11.391208 C90.476896,12.207368 90.904016,12.871928 91.543216,13.095368 C92.654096,13.483688 93.701296,12.606088 93.677696,11.295688 M92.133936,8.765448 C93.334976,8.770168 94.237936,9.348648 94.580256,10.332888 C94.967536,11.446168 94.666896,12.643848 93.807536,13.300008 C92.419056,14.360248 89.886576,13.978328 89.489296,11.920888 C89.117216,9.993848 90.465056,8.717288 92.133936,8.765448" id="Fill-31"></path>
                        <path d="M48.66336,13.174048 C49.19944,13.189808 49.59136,13.002208 49.91024,12.645968 C50.54312,11.939168 50.55176,10.633328 49.9064,9.928448 C49.54352,9.532128 49.07632,9.363008 48.53888,9.459968 C47.61344,9.627008 47.06128,10.416048 47.12688,11.458288 C47.18952,12.453728 47.85272,13.169488 48.66336,13.174048 M48.79912,8.76684534 C50.35296,8.768688 51.43184,9.769008 51.4354509,11.211088 C51.43944,12.810448 50.34632,13.863968 48.67992,13.8670132 C47.18464,13.869728 46.10888,12.813088 46.1119932,11.344848 C46.11536,9.801968 47.19624,8.764928 48.79912,8.76684534" id="Fill-33"></path>
                        <path d="M115.060624,10.79428 L117.821584,10.79428 C117.881264,10.06796 117.452544,9.50756 116.785024,9.41652 C115.887584,9.2942 115.220224,9.81684 115.060624,10.79428 M118.776224,11.49252 L115.059344,11.49252 C115.013024,12.49324 115.759264,13.17108 116.894144,13.14132 C117.379424,13.1286 117.862304,13.02652 118.377984,12.96108 C118.422864,13.12596 118.473984,13.31388 118.524144,13.49852 C117.361184,14.07388 115.201104,14.053 114.420864,12.7766 C113.865104,11.86748 113.950384,10.44164 114.657664,9.59468 C115.318864,8.80276 116.564544,8.5158 117.576224,8.92204 C118.480384,9.28508 119.009424,10.38364 118.776224,11.49252" id="Fill-35"></path>
                        <path d="M78.568048,11.297168 C77.907808,11.237488 77.185568,11.357088 76.803648,11.583488 C76.432368,11.803648 76.256848,12.185168 76.355408,12.558128 C76.462368,12.963168 76.750448,13.182048 77.211488,13.1837441 C77.381408,13.184368 77.558448,13.166048 77.720128,13.116848 C78.483968,12.884208 78.739248,12.337248 78.568048,11.297168 M78.540768,10.618048 C78.601488,9.867088 78.230048,9.427328 77.464528,9.438288 C76.958688,9.445488 76.454848,9.592848 75.905888,9.685008 C75.862128,9.573728 75.791408,9.393968 75.703488,9.170608 C76.715008,8.722448 77.717568,8.555808 78.726368,9.025968 C79.361168,9.321808 79.564848,9.938048 79.580368,10.591328 C79.605088,11.627888 79.587008,12.665488 79.587008,13.714528 C78.899968,13.867248 78.793088,13.815008 78.657728,13.189088 C78.047168,13.762608 77.338048,13.973568 76.528928,13.814688 C75.943568,13.699728 75.514048,13.375888 75.378368,12.787088 C75.239728,12.185248 75.404128,11.647168 75.923088,11.264448 C76.623728,10.747888 77.453328,10.695648 78.277648,10.631008 C78.356448,10.624848 78.435648,10.623008 78.540768,10.618048" id="Fill-37"></path>
                        <path d="M60.810312,8.878032 L61.645032,8.878032 C61.662232,9.106672 61.678872,9.327072 61.699432,9.598752 C62.159112,9.085952 62.691992,8.779472 63.367352,8.766272 C64.574952,8.742752 65.337272,9.370752 65.409352,10.576032 C65.471192,11.609952 65.422152,12.650512 65.422152,13.722832 L64.426872,13.722832 C64.426872,12.819472 64.417032,11.917232 64.429672,11.015312 C64.441832,10.151792 64.118712,9.649552 63.430792,9.514352 C62.619112,9.354832 61.826792,9.984192 61.818312,10.807952 C61.809912,11.632752 61.818552,12.457632 61.815512,13.282512 C61.815112,13.413152 61.793032,13.543792 61.776792,13.719552 C61.458152,13.734672 61.158632,13.748912 60.810312,13.765472 L60.810312,8.878032 Z" id="Fill-39"></path>
                        <path d="M96.937184,13.733576 L95.957424,13.733576 L95.957424,8.893736 L96.777984,8.893736 C96.806864,9.104776 96.836784,9.323576 96.874304,9.597736 C97.383904,9.010616 97.993584,8.737336 98.740384,8.763096 C99.731184,8.797336 100.477184,9.401656 100.535664,10.387576 C100.600944,11.487016 100.550624,12.593336 100.550624,13.727816 L99.589344,13.727816 C99.589344,13.465176 99.593104,13.191336 99.588704,12.917736 C99.575984,12.132856 99.610464,11.343016 99.531104,10.564856 C99.454544,9.813976 98.936864,9.437416 98.245344,9.496856 C97.539424,9.557656 96.972544,10.118056 96.963344,10.795496 C96.950864,11.714936 96.959664,12.634616 96.958144,13.554136 C96.958064,13.605096 96.946544,13.656056 96.937184,13.733576" id="Fill-41"></path>
                        <path d="M105.731408,8.866312 L107.106048,8.866312 L107.106048,9.550952 L105.757728,9.550952 C105.757728,10.184792 105.758368,10.779992 105.757488,11.375032 C105.757008,11.668152 105.746528,11.961512 105.753088,12.254472 C105.767648,12.909032 105.973568,13.103432 106.628608,13.096472 C106.747488,13.095112 106.866368,13.096232 106.983968,13.096232 C107.190128,13.727112 107.167808,13.764712 106.539728,13.850632 C105.400528,14.006232 104.759168,13.444552 104.756128,12.284552 C104.753728,11.394232 104.755648,10.503832 104.755648,9.575992 L103.950448,9.575992 L103.950448,8.878232 L104.744288,8.878232 L104.744288,7.982072 C105.065648,7.889272 105.368848,7.801672 105.731408,7.697032 L105.731408,8.866312 Z" id="Fill-43"></path>
                        <polygon id="Fill-45" points="67.04056 13.73112 67.96624 13.73112 67.96624 6.6112 67.04056 6.6112"></polygon>
                        <path d="M110.802536,40.526936 C101.630776,40.526776 92.459016,40.526936 83.287256,40.526936 L64.009816,40.526936 C54.438056,40.526936 44.866216,40.527016 35.294456,40.526936 C28.455336,40.526936 21.616216,40.526856 14.777096,40.526776 C11.778536,40.526776 8.779976,40.529176 5.781496,40.526056 C3.776136,40.524056 2.142056,39.341176 1.553176,37.430776 C1.425976,37.018296 1.375496,36.566616 1.375016,36.132856 C1.364296,25.946296 1.365816,15.759656 1.364296,5.573096 C1.364296,3.289656 3.331656,1.370296 5.719096,1.366696 C12.105576,1.357096 18.492136,1.362136 24.878616,1.361976 C36.891736,1.361736 48.904856,1.361896 60.918056,1.361896 C76.904376,1.361896 92.890696,1.361896 108.877016,1.361976 C113.290136,1.361976 117.703256,1.365576 122.116376,1.36021156 C123.809736,1.358216 125.132056,2.032216 126.031336,3.477816 C126.455416,4.159416 126.641736,4.915016 126.641736,5.720376 C126.639816,14.373256 126.641736,23.026056 126.641736,31.678856 C126.641736,33.171896 126.641736,34.665016 126.641736,36.158056 C126.638136,38.599256 124.719336,40.525336 122.282536,40.526936 C118.455896,40.529496 114.629176,40.526936 110.802536,40.526936 M123.027176,41.880616 C123.450776,41.767176 123.890136,41.693576 124.295336,41.533416 C126.334616,40.727416 127.561336,39.245016 127.935176,37.072616 C127.943656,37.023656 127.977816,36.979096 127.999976,36.932536 L127.999976,4.932536 C127.932536,4.665976 127.872216,4.397496 127.796376,4.133336 C127.087896,1.663656 124.921656,0.009096 122.347256,0.003336 C118.548296,-0.005144 114.749176,0.008776 110.950216,0.008936 C107.191656,0.009016 103.433096,0.002216 99.674616,0.001336 C93.810216,-3.60782433e-05 87.945896,-3.60782433e-05 82.081576,0.001016 C75.697416,0.002616 69.313256,0.008856 62.929176,0.009256 C57.237896,0.009576 51.546696,0.003736 45.855496,0.002296 C39.604856,0.000856 33.354216,0.001256 27.103496,0.001016 C21.412216,0.000776 15.720856,0.000776 10.029576,0.000776 C8.550376,0.000776 7.071176,-0.001864 5.591976,0.002376 C2.834936,0.010376 0.451976,2.095496 0.072296,4.825176 C0.059656,4.915816 0.024616,5.003496 -2.3999999e-05,5.092536 L-2.3999999e-05,36.852536 C0.261176,37.598056 0.422136,38.399896 0.803576,39.077736 C1.690536,40.653976 3.083656,41.568376 4.891176,41.819816 C4.919896,41.823816 4.946616,41.843656 4.971656,41.892536 L123.179576,41.892536 C123.128776,41.888616 123.077896,41.885656 123.027176,41.880616" id="Fill-47"></path>
                    </g>
                </g>
            </g>
        </g>
    </g>
</svg>